<?xml version="1.0" encoding="utf-8"?>
<!-- Generator: Adobe Illustrator 25.2.3, SVG Export Plug-In . SVG Version: 6.00 Build 0)  -->
<svg version="1.1" id="Layer_1" xmlns="http://www.w3.org/2000/svg" xmlns:xlink="http://www.w3.org/1999/xlink" x="0px" y="0px"
	 viewBox="0 0 418.8 191.3" style="enable-background:new 0 0 418.8 191.3;" xml:space="preserve">
<style type="text/css">
	.st0{fill:#C1272D;}
	.st1{fill:#191918;}
	.st2{fill:#F4F4F4;}
	.st3{fill:#6950A1;}
	.st4{fill:#F4795B;}
	.st5{fill:#18494D;}
	.st6{fill:#EE3248;}
	.st7{fill:#E2B700;}
	.st8{fill:#E0225B;}
	.st9{fill:#39C5EF;}
	.st10{fill:#2FB77E;}
	.st11{fill:#EBB22D;}
	.st12{fill:#139CD8;}
	.st13{fill:#FFFFFF;}
	.st14{fill-rule:evenodd;clip-rule:evenodd;fill:#FFFFFF;}
	.st15{fill:#1D9BF0;}
	.st16{fill:#C7C7C7;}
	.st17{fill-rule:evenodd;clip-rule:evenodd;fill:#0BD300;}
</style>
<path class="st0" d="M309.8,33.6c0-2-0.6-3.9-1.8-5.6c-1-1.6-2.5-2.9-4.4-4.2c-3.6-2.3-8.3-3.5-13.2-3.5c-1.6,0-3.3,0.1-4.8,0.4
	c-1-0.9-2.1-1.7-3.3-2.4c-6.5-3.1-11.9-0.1-11.9-0.1s5,4.1,4.2,7.7c-2.3,2.2-3.4,4.9-3.4,7.7l0,0l0,0c0,2.8,1.2,5.4,3.4,7.7
	c0.9,3.6-4.2,7.7-4.2,7.7s5.4,3,11.9-0.1c1.2-0.7,2.4-1.5,3.3-2.4c1.6,0.3,3.2,0.4,4.8,0.4c4.9,0,9.6-1.2,13.2-3.5
	c1.8-1.1,3.3-2.6,4.4-4.2C309.1,37.6,309.8,35.7,309.8,33.6C309.8,33.7,309.8,33.7,309.8,33.6L309.8,33.6L309.8,33.6z"/>
<path class="st1" d="M290.4,23c9.1,0,16.6,4.8,16.6,10.5c0,5.9-7.4,10.5-16.6,10.5c-2,0-4-0.2-5.8-0.7c-1.8,2.2-5.9,5.2-9.8,4.3
	c1.2-1.3,3.1-3.7,2.8-7.5c-2.4-1.8-3.8-4.2-3.8-6.7C273.9,27.8,281.3,23,290.4,23"/>
<path class="st0" d="M290.4,36.2c1.2,0,2.2-1,2.2-2.2c0-1.2-0.9-2.2-2.2-2.2s-2.2,1-2.2,2.2C288.2,35.2,289.2,36.2,290.4,36.2z
	 M298.1,36.2c1.2,0,2.2-1,2.2-2.2c0-1.2-0.9-2.2-2.2-2.2s-2.2,1-2.2,2.2C295.9,35.2,296.9,36.2,298.1,36.2z M282.8,36.2
	c1.2,0,2.2-1,2.2-2.2c0-1.2-1-2.2-2.2-2.2s-2.2,1-2.2,2.2C280.5,35.2,281.6,36.2,282.8,36.2L282.8,36.2z"/>
<path class="st2" d="M32.5,144.8c0,0.6-0.5,1-1,0.9c-0.6,0-1-0.5-1-0.9v-9c0-0.6,0.5-1,1-0.9c0.6,0,1,0.5,1,0.9V144.8z M32.1,151.1
	c-0.2,0.1-3.9,3.2-10.7,3.2s-10.5-3.1-10.7-3.2c-0.4-0.4-0.5-1-0.1-1.4c0.4-0.4,0.9-0.5,1.4-0.1c0.1,0.1,3.4,2.8,9.4,2.8
	c6.1,0,9.4-2.8,9.4-2.8c0.4-0.4,1-0.3,1.4,0.1C32.6,150.2,32.6,150.7,32.1,151.1z M10.4,135.8c0-0.6,0.5-1,1-1c0.6,0,0.9,0.5,0.9,1
	v9c0,0.6-0.5,1-1,0.9c-0.6,0-0.9-0.5-0.9-0.9V135.8L10.4,135.8z M15.4,133.7c0-0.6,0.5-1,1-0.9c0.6,0,1,0.5,1,0.9v13.4
	c0,0.6-0.5,1-1,0.9c-0.6,0-0.9-0.5-0.9-0.9V133.7L15.4,133.7z M20.4,133.2c0-0.6,0.5-1,1-1l0,0c0.6,0,1,0.5,1,1l0,0v14.5
	c0,0.6-0.5,1-1,1c-0.6,0-0.9-0.5-0.9-1L20.4,133.2L20.4,133.2z M25.5,133.7c0-0.6,0.5-1,1-0.9c0.6,0,0.9,0.5,0.9,0.9v13.4
	c0,0.6-0.5,1-1,0.9c-0.6,0-0.9-0.5-0.9-0.9V133.7L25.5,133.7z M32.8,128.2H10.2c-2.1,0-3.8,1.7-3.8,3.8v22.6c0,2.1,1.7,3.8,3.8,3.8
	h22.6c2.1,0,3.8-1.7,3.8-3.8V132C36.5,129.9,34.9,128.2,32.8,128.2z"/>
<path class="st3" d="M387.7,140.5c0-9.3-7.5-16.7-16.7-16.7h-16.7v8.4c0,4.6,3.7,8.3,8.2,8.4h-8.2c0,9.3,7.5,16.7,16.7,16.7l0,0
	C380.2,157.3,387.7,149.8,387.7,140.5z"/>
<g id="Logo_-_Black_1_">
	<g>
		<g>
			<path class="st4" d="M324.3,94.6v-4.2c1.1-0.5,1.9-1.6,1.9-2.9v-0.1c0-1.8-1.4-3.2-3.2-3.2h-0.1c-1.8,0-3.2,1.4-3.2,3.2v0.1
				c0,1.3,0.8,2.4,1.9,2.9v4.2c-1.6,0.3-3.1,1-4.4,1.9l-11.6-9c0.1-0.3,0.1-0.6,0.1-0.9c0-2-1.6-3.6-3.6-3.6s-3.6,1.6-3.6,3.6
				c0,2,1.6,3.6,3.6,3.6c0.7,0,1.2-0.2,1.8-0.5l11.4,8.8c-0.9,1.4-1.5,3.2-1.5,5.1c0,2,0.7,3.8,1.7,5.3l-3.4,3.4
				c-0.3-0.1-0.6-0.1-0.9-0.1c-1.6,0-3,1.3-3,3c0,1.7,1.3,3,3,3c1.6,0,3-1.3,3-3c0-0.3-0.1-0.6-0.1-0.9l3.4-3.4
				c1.5,1.1,3.5,1.9,5.6,1.9c5.1,0,9.2-4.2,9.2-9.2C332.1,99.1,328.8,95.3,324.3,94.6 M322.9,108.4c-2.7,0-4.8-2.1-4.8-4.8
				c0-2.7,2.1-4.8,4.8-4.8c2.7,0,4.8,2.1,4.8,4.8C327.7,106.4,325.6,108.4,322.9,108.4"/>
		</g>
	</g>
</g>
<g>
	<g>
		<polygon class="st5" points="173.9,30.5 173.9,9.4 189,9.4 		"/>
		<path class="st5" d="M173.9,38c0-4.8,3.3-8.7,7.5-8.7s7.5,3.9,7.5,8.7C188.9,38,173.9,38,173.9,38z"/>
		<path class="st5" d="M171.5,9.4c0,4.8-3.3,8.7-7.5,8.7s-7.5-3.9-7.5-8.7C156.5,9.4,171.5,9.4,171.5,9.4z"/>
		<polygon class="st5" points="171.5,17 171.5,38 156.4,38 		"/>
	</g>
</g>
<path class="st6" d="M107.1,53.9c0,1.9-1.5,3.4-3.4,3.4c-1.9,0-3.4-1.5-3.4-3.4c0-1.9,1.5-3.4,3.4-3.4
	C105.5,50.5,107.1,52,107.1,53.9z M103.6,58.8c-1.9,0-3.4,1.5-3.4,3.4c0,1.9,1.5,3.4,3.4,3.4c1.9,0,3.4-1.5,3.4-3.4
	C107.1,60.3,105.5,58.8,103.6,58.8z M124.5,58.1c0,9.3-7.5,16.7-16.7,16.7S91,67.4,91,58.1s7.5-16.7,16.7-16.7
	S124.5,48.8,124.5,58.1z M120.1,58.1c0-6.8-5.5-12.3-12.3-12.3c-6.7,0-12.4,5.4-12.4,12.3s5.5,12.3,12.3,12.3S120.1,64.9,120.1,58.1
	z M111.9,58.8c-1.9,0-3.4,1.5-3.4,3.4c0,1.9,1.5,3.4,3.4,3.4s3.4-1.5,3.4-3.4C115.3,60.3,113.8,58.8,111.9,58.8z M111.9,50.5
	c-1.9,0-3.4,1.5-3.4,3.4c0,1.9,1.5,3.4,3.4,3.4s3.4-1.5,3.4-3.4C115.3,52,113.8,50.5,111.9,50.5z"/>
<path class="st7" d="M63.1,122.1h1.5l0.1,7.1l11-7.1h17.5c1.2,0,2.2-1,2.2-2.2l0,0v-18.8c0-1.2-0.9-2.2-2.2-2.2H63.1
	c-1.2,0-2.2,0.9-2.2,2.2v18.8C60.9,121.1,62,122.1,63.1,122.1L63.1,122.1z"/>
<g>
	<g>
		<path class="st8" d="M140.1,154.4c0,1.9-1.6,3.5-3.5,3.5c-1.9,0-3.5-1.6-3.5-3.5c0-1.9,1.6-3.5,3.5-3.5h3.5V154.4z"/>
		<path class="st8" d="M141.9,154.4c0-1.9,1.6-3.5,3.5-3.5c1.9,0,3.5,1.6,3.5,3.5v8.8c0,1.9-1.6,3.5-3.5,3.5c-1.9,0-3.5-1.6-3.5-3.5
			V154.4z"/>
	</g>
	<g>
		<path class="st9" d="M145.4,140.3c-1.9,0-3.5-1.6-3.5-3.5c0-1.9,1.6-3.5,3.5-3.5c1.9,0,3.5,1.6,3.5,3.5v3.5H145.4z"/>
		<path class="st9" d="M145.4,142.1c1.9,0,3.5,1.6,3.5,3.5c0,1.9-1.6,3.5-3.5,3.5h-8.8c-1.9,0-3.5-1.6-3.5-3.5
			c0-1.9,1.6-3.5,3.5-3.5C136.6,142.1,145.4,142.1,145.4,142.1z"/>
	</g>
	<g>
		<path class="st10" d="M159.5,145.6c0-1.9,1.6-3.5,3.5-3.5c1.9,0,3.5,1.6,3.5,3.5c0,1.9-1.6,3.5-3.5,3.5h-3.5V145.6z"/>
		<path class="st10" d="M157.8,145.6c0,1.9-1.6,3.5-3.5,3.5c-1.9,0-3.5-1.6-3.5-3.5v-8.8c0-1.9,1.6-3.5,3.5-3.5
			c1.9,0,3.5,1.6,3.5,3.5V145.6z"/>
	</g>
	<g>
		<path class="st11" d="M154.3,159.7c1.9,0,3.5,1.6,3.5,3.5c0,1.9-1.6,3.5-3.5,3.5c-1.9,0-3.5-1.6-3.5-3.5v-3.5H154.3z"/>
		<path class="st11" d="M154.3,157.9c-1.9,0-3.5-1.6-3.5-3.5c0-1.9,1.6-3.5,3.5-3.5h8.8c1.9,0,3.5,1.6,3.5,3.5
			c0,1.9-1.6,3.5-3.5,3.5H154.3z"/>
	</g>
</g>
<g>
	<path class="st12" d="M381.7,44.4c1.4-1.5,3.5-2.5,5.8-2.5c3,0,5.6,1.7,7,4.2c1.2-0.6,2.6-0.9,4-0.9c5.4,0,9.8,4.5,9.8,9.9
		c0,5.5-4.4,9.9-9.8,9.9c-0.7,0-1.3-0.1-1.9-0.2c-1.2,2.2-3.6,3.7-6.3,3.7c-1.1,0-2.2-0.3-3.1-0.8c-1.2,2.9-4.2,4.9-7.5,4.9
		c-3.5,0-6.6-2.2-7.7-5.3c-0.5,0.1-1,0.2-1.5,0.2c-4.2,0-7.6-3.4-7.6-7.7c0-2.8,1.5-5.3,3.8-6.7c-0.5-1-0.8-2.3-0.8-3.5
		c0-4.8,4-8.8,8.8-8.8C377.5,40.9,380.1,42.3,381.7,44.4"/>
	<path class="st13" d="M369.4,57.4C369.4,57.5,369.4,57.5,369.4,57.4c0.1,0.2,0.2,0.2,0.3,0.3c0.5,0.3,0.9,0.3,1.3,0.3
		c1,0,1.5-0.5,1.5-1.3l0,0c0-0.8-0.7-1-1.2-1.2h-0.1c-0.5-0.2-0.9-0.3-0.9-0.6l0,0c0-0.3,0.2-0.5,0.6-0.5s0.9,0.1,1.1,0.3
		c0,0,0.1,0.1,0.1,0l0.2-0.5c0-0.1,0-0.1,0-0.1c-0.4-0.2-0.9-0.4-1.3-0.4h-0.1c-0.9,0-1.4,0.5-1.4,1.2l0,0c0,0.8,0.7,1,1.2,1.2h0.1
		c0.5,0.1,0.9,0.3,0.9,0.6l0,0c0,0.3-0.3,0.5-0.7,0.5c-0.2,0-0.7,0-1.2-0.4c-0.1,0-0.1-0.1-0.2-0.1h-0.1L369.4,57.4z"/>
	<path class="st13" d="M383.1,57.4C383.1,57.5,383.1,57.5,383.1,57.4c0.1,0.2,0.2,0.2,0.3,0.3c0.5,0.3,0.9,0.3,1.3,0.3
		c1,0,1.5-0.5,1.5-1.3l0,0c0-0.8-0.7-1-1.2-1.2h-0.1c-0.5-0.2-0.9-0.3-0.9-0.6l0,0c0-0.3,0.2-0.5,0.6-0.5s0.9,0.1,1.1,0.3
		c0,0,0.1,0.1,0.1,0l0.2-0.5c0-0.1,0-0.1,0-0.1c-0.4-0.2-0.9-0.4-1.3-0.4h-0.1c-0.9,0-1.4,0.5-1.4,1.2l0,0c0,0.8,0.7,1,1.2,1.2h0.1
		c0.5,0.1,0.9,0.3,0.9,0.6l0,0c0,0.3-0.3,0.5-0.7,0.5c-0.2,0-0.7,0-1.2-0.4c-0.1,0-0.1-0.1-0.2-0.1h-0.1L383.1,57.4z"/>
	<path class="st13" d="M393.1,55.1c-0.1-0.3-0.2-0.5-0.4-0.7c-0.2-0.2-0.4-0.4-0.6-0.5c-0.3-0.1-0.5-0.2-0.9-0.2
		c-0.3,0-0.6,0.1-0.9,0.2c-0.3,0.1-0.5,0.3-0.6,0.5c-0.2,0.2-0.3,0.4-0.4,0.7s-0.1,0.6-0.1,0.9c0,0.3,0,0.6,0.1,0.9
		c0.1,0.3,0.2,0.5,0.4,0.7c0.2,0.2,0.4,0.4,0.6,0.5s0.5,0.2,0.9,0.2c0.3,0,0.6-0.1,0.9-0.2c0.3-0.1,0.5-0.3,0.6-0.5
		c0.2-0.2,0.3-0.4,0.4-0.7c0.1-0.3,0.1-0.6,0.1-0.9C393.2,55.5,393.2,55.2,393.1,55.1 M392.4,55.9c0,0.5-0.1,0.8-0.3,1
		c-0.2,0.3-0.4,0.4-0.8,0.4c-0.4,0-0.6-0.1-0.8-0.4c-0.2-0.3-0.3-0.6-0.3-1c0-0.5,0.1-0.8,0.3-1c0.2-0.3,0.4-0.4,0.8-0.4
		c0.4,0,0.6,0.1,0.8,0.4C392.3,55.1,392.4,55.4,392.4,55.9"/>
	<path class="st14" d="M399.6,57.1C399.6,57.1,399.5,57.1,399.6,57.1c-0.2,0-0.3,0.1-0.5,0.1c-0.1,0-0.3,0-0.4,0
		c-0.4,0-0.7-0.1-0.9-0.4c-0.2-0.2-0.4-0.6-0.4-1s0.1-0.8,0.3-1c0.2-0.3,0.5-0.4,0.9-0.4c0.3,0,0.6,0,0.9,0.1c0,0,0.1,0,0.1-0.1
		c0.1-0.2,0.1-0.3,0.2-0.6c0-0.1,0-0.1-0.1-0.1c-0.1,0-0.4-0.1-0.5-0.1c-0.2,0-0.4,0-0.6,0c-0.3,0-0.7,0.1-0.9,0.2
		c-0.3,0.1-0.5,0.3-0.7,0.5c-0.2,0.2-0.3,0.4-0.4,0.7c-0.1,0.3-0.1,0.6-0.1,0.9c0,0.7,0.2,1.1,0.5,1.5c0.4,0.4,0.9,0.6,1.5,0.6
		c0.4,0,0.9-0.1,1.1-0.2c0,0,0.1,0,0-0.1L399.6,57.1z"/>
	<path class="st14" d="M403.6,54.9c-0.1-0.3-0.2-0.5-0.4-0.6c-0.2-0.2-0.4-0.3-0.5-0.4c-0.2-0.1-0.5-0.2-0.8-0.2
		c-0.3,0-0.7,0.1-0.9,0.2c-0.3,0.1-0.5,0.3-0.6,0.5c-0.2,0.2-0.3,0.4-0.4,0.7s-0.1,0.6-0.1,0.9c0,0.3,0,0.6,0.1,0.9
		c0.1,0.3,0.2,0.5,0.4,0.7c0.2,0.2,0.4,0.4,0.7,0.5c0.3,0.1,0.6,0.2,1,0.2c0.8,0,1.1-0.2,1.3-0.3c0,0,0.1,0,0-0.1l-0.2-0.5
		c0-0.1-0.1,0-0.1,0c-0.2,0.1-0.5,0.2-1,0.2c-0.4,0-0.7-0.1-0.9-0.3c-0.2-0.2-0.3-0.5-0.3-0.9h2.7c0,0,0.1,0,0.1-0.1
		C403.6,56,403.7,55.4,403.6,54.9 M400.9,55.4c0-0.3,0.1-0.5,0.2-0.7c0.2-0.3,0.4-0.4,0.8-0.4s0.6,0.1,0.8,0.4
		c0.1,0.2,0.2,0.4,0.2,0.7H400.9z"/>
	<path class="st14" d="M382.4,54.9c-0.1-0.3-0.2-0.5-0.4-0.6c-0.2-0.2-0.4-0.3-0.5-0.4c-0.2-0.1-0.5-0.2-0.8-0.2
		c-0.3,0-0.7,0.1-0.9,0.2c-0.3,0.1-0.5,0.3-0.6,0.5c-0.2,0.2-0.3,0.4-0.4,0.7c-0.1,0.3-0.1,0.6-0.1,0.9c0,0.3,0,0.6,0.1,0.9
		c0.1,0.3,0.2,0.5,0.4,0.7c0.2,0.2,0.4,0.4,0.7,0.5s0.6,0.2,1,0.2c0.8,0,1.1-0.2,1.3-0.3c0,0,0.1,0,0-0.1l-0.2-0.5
		c0-0.1-0.1,0-0.1,0c-0.2,0.1-0.5,0.2-1,0.2c-0.4,0-0.7-0.1-0.9-0.3c-0.2-0.2-0.3-0.5-0.3-0.9h2.7c0,0,0.1,0,0.1-0.1
		C382.5,56,382.6,55.4,382.4,54.9 M379.8,55.4c0-0.3,0.1-0.5,0.2-0.7c0.2-0.3,0.4-0.4,0.8-0.4c0.4,0,0.6,0.1,0.8,0.4
		c0.1,0.2,0.2,0.4,0.2,0.7H379.8z"/>
	<path class="st13" d="M375.2,55.3c-0.1,0-0.3,0-0.4,0c-0.2,0-0.5,0-0.7,0.1c-0.2,0.1-0.4,0.1-0.6,0.3c-0.2,0.1-0.3,0.3-0.4,0.5
		c-0.1,0.2-0.1,0.4-0.1,0.6s0,0.5,0.1,0.6c0.1,0.2,0.2,0.3,0.4,0.4c0.2,0.1,0.3,0.2,0.6,0.2c0.2,0,0.5,0.1,0.7,0.1
		c0.3,0,0.6,0,0.8-0.1c0.3,0,0.6-0.1,0.7-0.1s0.2,0,0.2,0c0.1,0,0.1-0.1,0.1-0.1v-2.4c0-0.6-0.1-1-0.4-1.1c-0.3-0.3-0.7-0.4-1.2-0.4
		c-0.2,0-0.5,0-0.7,0.1c0,0-0.6,0.1-0.9,0.3c0,0-0.1,0,0,0.1l0.2,0.5c0,0.1,0.1,0,0.1,0l0,0c0.5-0.3,1.1-0.3,1.1-0.3
		c0.3,0,0.5,0.1,0.7,0.2c0.2,0.1,0.2,0.3,0.2,0.7v0.1C375.4,55.3,375.2,55.3,375.2,55.3 M374.1,57.1c-0.1-0.1-0.1-0.1-0.2-0.2
		c-0.1-0.1-0.1-0.2-0.1-0.4c0-0.2,0.1-0.4,0.2-0.5c0,0,0.2-0.2,0.8-0.2c0.4,0,0.8,0.1,0.8,0.1v1.2c0,0-0.4,0.1-0.7,0.1
		C374.3,57.3,374.1,57.1,374.1,57.1"/>
	<path class="st14" d="M396.5,53.9C396.5,53.9,396.4,53.8,396.5,53.9c-0.1-0.1-0.3-0.2-0.5-0.2c-0.3,0-0.5,0-0.7,0.1
		s-0.4,0.2-0.5,0.3v-0.3c0,0,0-0.1-0.1-0.1h-0.7c0,0-0.1,0-0.1,0.1v3.9c0,0,0,0.1,0.1,0.1h0.7c0,0,0.1,0,0.1-0.1v-2
		c0-0.3,0-0.6,0.1-0.7c0.1-0.2,0.1-0.3,0.2-0.4s0.2-0.2,0.3-0.2c0.1,0,0.3-0.1,0.4-0.1s0.3,0,0.3,0c0.1,0,0.1,0,0.1-0.1
		C396.3,54.4,396.4,54,396.5,53.9"/>
	<path class="st14" d="M389.9,52.1c-0.1,0-0.2,0-0.3-0.1c-0.1,0-0.2,0-0.4,0c-0.5,0-0.9,0.1-1.1,0.4c-0.3,0.3-0.5,0.7-0.6,1.2v0.2
		H387c0,0-0.1,0-0.1,0.1l-0.1,0.6c0,0.1,0,0.1,0.1,0.1h0.6l-0.6,3.3c0,0.3-0.1,0.5-0.2,0.7c-0.1,0.2-0.1,0.3-0.2,0.4
		c-0.1,0.1-0.1,0.2-0.3,0.2c-0.1,0-0.2,0-0.3,0c-0.1,0-0.2,0-0.2,0c-0.1,0-0.1,0-0.1,0h-0.1c0,0.1-0.2,0.5-0.2,0.6
		c0,0.1,0,0.1,0,0.1c0.1,0,0.1,0,0.3,0.1c0.2,0,0.3,0,0.4,0c0.3,0,0.5,0,0.7-0.1c0.2-0.1,0.4-0.2,0.5-0.4c0.2-0.2,0.3-0.4,0.4-0.6
		c0.1-0.3,0.2-0.6,0.2-0.9l0.6-3.3h0.9c0,0,0.1,0,0.1-0.1l0.1-0.6c0-0.1,0-0.1-0.1-0.1h-0.9c0,0,0-0.3,0.1-0.6
		c0-0.1,0.1-0.2,0.2-0.3c0.1-0.1,0.1-0.1,0.2-0.1s0.2,0,0.3,0c0.1,0,0.2,0,0.2,0c0.1,0,0.1,0,0.1,0c0.1,0,0.1,0,0.1,0L389.9,52.1
		C390,52.2,389.9,52.1,389.9,52.1"/>
	<path class="st14" d="M378.1,57.8C378.1,57.9,378.1,57.9,378.1,57.8l-0.8,0.1c0,0-0.1,0-0.1-0.1v-5.6c0,0,0-0.1,0.1-0.1h0.7
		c0,0,0.1,0,0.1,0.1L378.1,57.8L378.1,57.8z"/>
</g>
<g id="Logo_1_">
	<path id="white_background" class="st15" d="M57.5,30.9c0,0.3,0,0.6,0,0.9c0,9.2-7,19.7-19.7,19.7v0c-3.8,0-7.5-1.1-10.6-3.1
		c0.5,0.1,1.1,0.1,1.6,0.1c3.1,0,6.2-1,8.6-3c-3-0.1-5.6-2-6.5-4.8c1,0.2,2.1,0.2,3.1-0.1c-3.2-0.7-5.6-3.5-5.6-6.8c0,0,0-0.1,0-0.1
		c1,0.5,2,0.8,3.1,0.9c-3-2-4-6.1-2.1-9.3c3.5,4.3,8.7,7,14.3,7.2c-0.6-2.4,0.2-4.9,2-6.6c2.8-2.6,7.2-2.5,9.8,0.3
		c1.6-0.3,3-0.9,4.4-1.7c-0.5,1.6-1.6,3-3,3.8c1.4-0.2,2.7-0.5,4-1.1C60,28.7,58.8,29.9,57.5,30.9z"/>
</g>
<g>
	<path class="st16" d="M209.4,59.9c-15.5,0-28.6,9.8-33.6,23.6H243C238,69.8,224.9,59.9,209.4,59.9z"/>
	<path class="st16" d="M173.7,95.7c0,4.3,0.8,8.5,2.2,12.3h67.1c1.4-3.8,2.2-8,2.2-12.3c0-1.5-0.1-3-0.3-4.5H174
		C173.8,92.6,173.7,94.1,173.7,95.7z"/>
	<path class="st16" d="M209.4,131.4c14.1,0,26.2-8.1,32.1-20h-64.1C183.2,123.2,195.3,131.4,209.4,131.4z"/>
	<path class="st16" d="M175.6,84.1c-0.6,1.7-1.1,3.5-1.4,5.4h70.3c-0.3-1.8-0.8-3.6-1.4-5.4H175.6z"/>
</g>
<g>
	<path class="st17" d="M269.3,168.1c2.4-2,3.8-2.6,7.6-0.6c4.2,2.2,5.3,5.2-0.9,8.6c-12.9,0.4-25.9-17-21.8-29.2
		c5-5,7.6-3.1,8.5,1.6c0.8,4.2-0.1,5.4-2.8,7.1C260.9,160.5,264.8,165.7,269.3,168.1L269.3,168.1z"/>
</g>
</svg>
