<?xml version="1.0" encoding="utf-8"?>
<!-- Generator: Adobe Illustrator 25.2.3, SVG Export Plug-In . SVG Version: 6.00 Build 0)  -->
<svg version="1.1" id="Layer_1" xmlns="http://www.w3.org/2000/svg" xmlns:xlink="http://www.w3.org/1999/xlink" x="0px" y="0px"
	 viewBox="0 0 360 360" style="enable-background:new 0 0 360 360;" xml:space="preserve">
<style type="text/css">
	.st0{fill:#C6C6C6;}
	.st1{fill:#181818;}
</style>
<path class="st0" d="M180,0C80.4,0,0,80.4,0,180s80.4,180,180,180s180-80.4,180-180S279.6,0,180,0z M145.2,240V120L249,180
	L145.2,240z"/>
<path class="st1" d="M250.4,174.6L148,118.8c-2.1-1.1-4.2-1.1-6.3,0c-2.1,1.1-3,3.2-3,5.4v111.5c0,2.2,0.9,4.3,3,5.4
	c1,0.6,2,0.8,3.2,0.8c1.2,0,2.2-0.3,3.2-0.8l102.4-55.7c2.1-1.1,3.3-3.2,3.3-5.4C253.8,177.8,252.5,175.7,250.4,174.6z"/>
</svg>
