<?xml version="1.0" encoding="utf-8"?>
<!-- Generator: Adobe Illustrator 25.2.3, SVG Export Plug-In . SVG Version: 6.00 Build 0)  -->
<svg version="1.1" id="Layer_1" xmlns="http://www.w3.org/2000/svg" xmlns:xlink="http://www.w3.org/1999/xlink" x="0px" y="0px"
	 viewBox="0 0 967.4 203.9" style="enable-background:new 0 0 967.4 203.9;" xml:space="preserve">
<style type="text/css">
	.st0{fill:none;}
	.st1{enable-background:new    ;}
	.st2{fill:#C6C5C5;}
</style>
<rect x="15.2" y="23.7" class="st0" width="942.4" height="222.6"/>
<g class="st1">
	<path class="st2" d="M131.3,36.7v84.2c0,37.6-20.1,57.9-57.7,57.9c-30.7,0-50.3-14.7-55.7-39.5c-0.2-1.3-0.2-1.7-0.2-2.4
		c0-3.5,2.6-5.8,6-5.8c2.6,0,4.8,1.5,5.4,4.3C33.4,155.9,49,168,73.6,168c29.8,0,45.8-16.4,45.8-47.1V36.7c0-4.1,2.2-6.5,6-6.5
		C129.1,30.2,131.3,32.6,131.3,36.7z"/>
	<path class="st2" d="M318.7,36.7v77.5c0,42.6-21.4,64.6-60.9,64.6c-40.2,0-61.8-22-61.8-64.6V36.7c0-4.1,2.2-6.5,5.8-6.5
		c3.9,0,6,2.4,6,6.5V114c0,35.9,17.3,54,49.9,54c32.2,0,49.2-18.1,49.2-54V36.7c0-4.1,1.9-6.5,6-6.5
		C316.8,30.2,318.7,32.6,318.7,36.7z"/>
	<path class="st2" d="M461.5,31.5c30,0,46.2,15.1,46.2,43.2c0,28.3-16.2,43.4-46.2,43.4h-63.7V171c0,4.1-2.2,6.5-5.8,6.5
		c-3.9,0-6-2.4-6-6.5V38c0-4.1,2.6-6.5,6.5-6.5H461.5z M460.7,107.3c22.9,0,35-11.2,35-32.6c0-21.2-12.1-32.4-35-32.4h-62.9v65
		H460.7z"/>
	<path class="st2" d="M578.8,36.7V171c0,4.1-2.2,6.5-5.8,6.5c-3.9,0-6-2.4-6-6.5V36.7c0-4.1,2.2-6.5,6-6.5
		C576.6,30.2,578.8,32.6,578.8,36.7z"/>
</g>
<g class="st1">
	<path class="st2" d="M760.9,31.5c3.7,0,5.8,1.9,5.8,5.4s-2.2,5.4-5.8,5.4h-54.4V171c0,4.1-2.2,6.5-5.8,6.5c-4.1,0-6-2.4-6-6.5V42.3
		h-54.6c-3.7,0-5.8-1.9-5.8-5.4s2.2-5.4,5.8-5.4H760.9z"/>
</g>
<g class="st1">
	<path class="st2" d="M942.8,95.9V171c0,4.1-2.4,6.5-6,6.5s-5.8-2.4-5.8-6.5v-41.7H825.7V171c0,4.1-2.2,6.5-5.8,6.5
		c-3.7,0-5.8-2.4-5.8-6.5V95.9c0-43.6,23.1-67,64.6-67C919.6,28.9,942.8,52.2,942.8,95.9z M930.9,95.7c0-37.2-18.4-55.9-52.5-55.9
		c-34.1,0-52.7,18.8-52.7,55.9v22.9h105.2V95.7z"/>
</g>
</svg>
