<?xml version="1.0" encoding="utf-8"?>
<!-- Generator: Adobe Illustrator 25.2.3, SVG Export Plug-In . SVG Version: 6.00 Build 0)  -->
<svg version="1.1" id="Layer_1" xmlns="http://www.w3.org/2000/svg" xmlns:xlink="http://www.w3.org/1999/xlink" x="0px" y="0px"
	 viewBox="0 0 925.6 954.4" style="enable-background:new 0 0 925.6 954.4;" xml:space="preserve">
<style type="text/css">
	.st0{enable-background:new    ;}
	.st1{fill:#C7C5C5;}
	.st2{fill:#181718;}
	.st3{fill:#C7C7C7;}
</style>
<g class="st0">
	<path class="st1" d="M148.5,819v75.8c0,33.8-18.1,52.1-51.9,52.1c-27.6,0-45.3-13.2-50.2-35.6c-0.2-1.2-0.2-1.6-0.2-2.1
		c0-3.1,2.3-5.2,5.4-5.2c2.3,0,4.3,1.4,4.9,3.9c3.9,18.5,17.9,29.4,40,29.4c26.8,0,41.2-14.8,41.2-42.4V819c0-3.7,1.9-5.8,5.4-5.8
		C146.6,813.1,148.5,815.3,148.5,819z"/>
	<path class="st1" d="M317.3,819v69.8c0,38.3-19.2,58.1-54.8,58.1c-36.2,0-55.6-19.8-55.6-58.1V819c0-3.7,1.9-5.8,5.2-5.8
		c3.5,0,5.4,2.1,5.4,5.8v69.6c0,32.3,15.6,48.6,44.9,48.6c29,0,44.3-16.3,44.3-48.6V819c0-3.7,1.7-5.8,5.4-5.8
		C315.5,813.1,317.3,815.3,317.3,819z"/>
	<path class="st1" d="M445.7,814.3c27,0,41.6,13.6,41.6,38.9c0,25.5-14.6,39.1-41.6,39.1h-57.3v47.6c0,3.7-1.9,5.8-5.2,5.8
		c-3.5,0-5.4-2.1-5.4-5.8V820.1c0-3.7,2.3-5.8,5.8-5.8H445.7z M445,882.5c20.6,0,31.5-10.1,31.5-29.4c0-19.1-10.9-29.2-31.5-29.2
		h-56.6v58.5H445V882.5z"/>
	<path class="st1" d="M551.3,819v120.9c0,3.7-1.9,5.8-5.2,5.8c-3.5,0-5.4-2.1-5.4-5.8V819c0-3.7,1.9-5.8,5.4-5.8
		C549.4,813.1,551.3,815.3,551.3,819z"/>
</g>
<g class="st0">
	<path class="st1" d="M715.2,814.3c3.3,0,5.2,1.7,5.2,4.9c0,3.1-1.9,4.9-5.2,4.9h-49V940c0,3.7-1.9,5.8-5.2,5.8
		c-3.7,0-5.4-2.1-5.4-5.8V824h-49.2c-3.3,0-5.2-1.7-5.2-4.9c0-3.1,1.9-4.9,5.2-4.9h108.8L715.2,814.3L715.2,814.3z"/>
</g>
<g class="st0">
	<path class="st1" d="M878.9,872.2v67.7c0,3.7-2.1,5.8-5.4,5.8c-3.3,0-5.2-2.1-5.2-5.8v-37.5h-94.7v37.5c0,3.7-1.9,5.8-5.2,5.8
		s-5.2-2.1-5.2-5.8v-67.7c0-39.3,20.8-60.3,58.1-60.3C858.1,812,878.9,833,878.9,872.2z M868.2,872.1c0-33.4-16.5-50.3-47.2-50.3
		s-47.4,16.9-47.4,50.3v20.6h94.7L868.2,872.1L868.2,872.1z"/>
</g>
<circle class="st2" cx="462.8" cy="384" r="285.7"/>
<g>
	<path class="st3" d="M462.8,98.1c-123.8,0-229.2,78.7-269,188.7h537.9C692,176.8,586.6,98.1,462.8,98.1z"/>
	<path class="st3" d="M176.8,384c0,34.6,6.1,67.7,17.4,98.4h537.1c11.2-30.7,17.4-63.8,17.4-98.4c0-12.2-0.8-24.1-2.3-35.9H179.2
		C177.7,359.9,176.8,371.9,176.8,384z"/>
	<path class="st3" d="M462.8,670c112.7,0,210.1-65.2,256.7-159.9H206.1C252.7,604.8,350.1,670,462.8,670z"/>
	<path class="st3" d="M192.3,291.4c-4.8,13.9-8.5,28.2-11,43h563.1c-2.6-14.7-6.3-29.1-11-43H192.3z"/>
</g>
</svg>
