<?xml version="1.0" encoding="utf-8"?>
<!-- Generator: Adobe Illustrator 25.2.3, SVG Export Plug-In . SVG Version: 6.00 Build 0)  -->
<svg version="1.1" id="Layer_1" xmlns="http://www.w3.org/2000/svg" xmlns:xlink="http://www.w3.org/1999/xlink" x="0px" y="0px"
	 viewBox="0 0 361.4 361.4" style="enable-background:new 0 0 361.4 361.4;" xml:space="preserve">
<style type="text/css">
	.st0{fill:#181818;}
	.st1{fill:#C8C8C8;}
</style>
<circle class="st0" cx="180.7" cy="180.7" r="180.5"/>
<g>
	<path class="st1" d="M180.7,0c-78.2,0-144.8,49.7-170,119.3h339.9C325.5,49.7,258.9,0,180.7,0z"/>
	<path class="st1" d="M0,180.7c0,21.9,3.9,42.8,11,62.2h339.4c7.1-19.4,11-40.3,11-62.2c0-7.7-0.5-15.2-1.5-22.7H1.5
		C0.5,165.5,0,173,0,180.7z"/>
	<path class="st1" d="M180.7,361.4c71.2,0,132.8-41.2,162.2-101.1H18.5C47.9,320.2,109.5,361.4,180.7,361.4z"/>
	<path class="st1" d="M9.7,122.2c-3,8.8-5.3,17.8-7,27.2h355.9c-1.6-9.3-4-18.4-7-27.2H9.7z"/>
</g>
</svg>
