<svg width="62" height="62" viewBox="0 0 62 62" fill="none" xmlns="http://www.w3.org/2000/svg">
<path d="M53.2812 35.5919V59.0937H12.5938V56.1875H49.4062V42.3247H49.3966L53.2812 35.5919Z" fill="#2AAF8F" fill-opacity="0.15"/>
<path d="M53.2811 21.1478C53.8694 20.8051 54.5378 20.6238 55.2187 20.6223C55.8997 20.6208 56.5689 20.7991 57.1587 21.1392C57.7486 21.4794 58.2382 21.9693 58.5779 22.5594C58.9177 23.1495 59.0955 23.8188 59.0936 24.4997C59.0955 25.1807 58.9149 25.8497 58.5705 26.4372L57.1173 28.956L50.4136 25.081L51.8667 22.5622C52.201 21.9711 52.69 21.4821 53.2811 21.1478Z" fill="#3AC7A5"/>
<path d="M53.2811 35.5919L49.3964 42.3247L45.9767 48.2437L45.2695 45.5991L42.6248 46.3062L41.9176 43.6616L39.2729 44.3687L48.4761 28.4328L49.4061 28.9753L55.1798 32.3078L53.2811 35.5919Z" fill="#3AC7A5"/>
<path d="M24.2188 2.90625V7.75H18.4062H12.5938V56.1875V59.0938H8.71875V2.90625H24.2188Z" fill="#2AAF8F" fill-opacity="0.15"/>
<path d="M43.5938 7.75V10.6562C43.5922 11.1696 43.3876 11.6616 43.0246 12.0246C42.6616 12.3876 42.1696 12.5922 41.6562 12.5938H20.3438C19.8304 12.5922 19.3384 12.3876 18.9754 12.0246C18.6124 11.6616 18.4078 11.1696 18.4062 10.6562V7.75H43.5938Z" fill="#2AAF8F" fill-opacity="0.15"/>
<path d="M53.2812 2.90625V21.1478C52.6901 21.4821 52.2012 21.9711 51.8669 22.5622L50.4138 25.0809L49.4062 26.8247V7.75H37.7812V2.90625H53.2812Z" fill="#2AAF8F" fill-opacity="0.15"/>
<path d="M59.8978 23.2403C59.5798 22.0488 58.8167 21.0248 57.7658 20.3795C56.7149 19.7342 55.4565 19.5168 54.25 19.7722V2.90625C54.25 2.64932 54.1479 2.40292 53.9663 2.22124C53.7846 2.03956 53.5382 1.9375 53.2812 1.9375H8.71875C8.46182 1.9375 8.21542 2.03956 8.03374 2.22124C7.85206 2.40292 7.75 2.64932 7.75 2.90625V59.0938C7.75 59.3507 7.85206 59.5971 8.03374 59.7788C8.21542 59.9604 8.46182 60.0625 8.71875 60.0625H53.2812C53.5382 60.0625 53.7846 59.9604 53.9663 59.7788C54.1479 59.5971 54.25 59.3507 54.25 59.0938V35.8631L56.0228 32.7922L57.9603 29.4403V29.4306L59.4134 26.9216C59.7346 26.3709 59.9428 25.7617 60.026 25.1297C60.1091 24.4976 60.0656 23.8553 59.8978 23.2403ZM38.75 3.875H52.3125V20.6247C51.786 21.0135 51.3471 21.5086 51.0241 22.0778L50.375 23.2016V7.75C50.375 7.49307 50.2729 7.24667 50.0913 7.06499C49.9096 6.88331 49.6632 6.78125 49.4062 6.78125H38.75V3.875ZM38.4303 43.8844C38.3354 44.0522 38.2916 44.2442 38.3044 44.4366L38.75 51.4019C38.7597 51.5625 38.809 51.7182 38.8935 51.8551C38.978 51.9921 39.0951 52.1059 39.2344 52.1866C39.3728 52.2639 39.5277 52.3069 39.6861 52.3119C39.8446 52.317 40.002 52.284 40.145 52.2156L46.4128 49.1156C46.5813 49.0261 46.7221 48.8921 46.8197 48.7281L48.4375 45.9284V55.2188H13.5625V8.71875H17.4375V10.6562C17.4398 11.4263 17.7467 12.1642 18.2913 12.7087C18.8358 13.2533 19.5737 13.5602 20.3437 13.5625H41.6562C42.4263 13.5602 43.1642 13.2533 43.7087 12.7087C44.2533 12.1642 44.5602 11.4263 44.5625 10.6562V8.71875H48.4375V26.5534L47.6334 27.9484L38.4303 43.8844ZM41.23 44.8531L41.6853 46.5581C41.7179 46.6818 41.7747 46.7978 41.8523 46.8995C41.93 47.0011 42.027 47.0863 42.1378 47.1503C42.2486 47.2142 42.3709 47.2556 42.4978 47.272C42.6246 47.2884 42.7535 47.2796 42.8769 47.2459L44.5819 46.7906L44.8434 47.7303L40.5906 49.8325L40.2903 45.105L41.23 44.8531ZM25.1875 3.875H36.8125V6.78125H25.1875V3.875ZM42.625 8.71875V10.6562C42.625 10.9132 42.5229 11.1596 42.3413 11.3413C42.1596 11.5229 41.9132 11.625 41.6562 11.625H20.3437C20.0868 11.625 19.8404 11.5229 19.6587 11.3413C19.4771 11.1596 19.375 10.9132 19.375 10.6562V8.71875H42.625ZM52.3125 58.125H9.6875V3.875H23.25V6.78125H12.5937C12.3368 6.78125 12.0904 6.88331 11.9087 7.06499C11.7271 7.24667 11.625 7.49307 11.625 7.75V56.1875C11.625 56.4444 11.7271 56.6908 11.9087 56.8725C12.0904 57.0542 12.3368 57.1562 12.5937 57.1562H49.4062C49.6632 57.1562 49.9096 57.0542 50.0913 56.8725C50.2729 56.6908 50.375 56.4444 50.375 56.1875V42.5766L52.3125 39.215V58.125ZM46.3062 45.7347L46.2094 45.3472C46.1764 45.224 46.1193 45.1085 46.0414 45.0075C45.9635 44.9065 45.8662 44.8221 45.7554 44.759C45.6445 44.6959 45.5222 44.6554 45.3956 44.64C45.269 44.6246 45.1406 44.6345 45.0178 44.6691L43.3128 45.1244L42.8478 43.4097C42.8155 43.2871 42.7591 43.1722 42.682 43.0715C42.6049 42.9709 42.5086 42.8866 42.3986 42.8235C42.2887 42.7604 42.1673 42.7198 42.0415 42.704C41.9157 42.6883 41.7881 42.6976 41.6659 42.7316L41.2784 42.8284L48.825 29.76L53.8625 32.6663L46.3062 45.7347ZM55.3641 30.0603L54.8312 30.9806L49.7938 28.0744L50.7625 26.3984L55.8 29.3047L55.3641 30.0603ZM57.7375 25.9528L56.7687 27.6287L51.7312 24.7225L52.7 23.0466C52.8907 22.7156 53.1447 22.4255 53.4476 22.1929C53.7504 21.9602 54.0962 21.7895 54.4651 21.6905C54.8339 21.5915 55.2187 21.5662 55.5974 21.6161C55.976 21.6659 56.3412 21.7899 56.6719 21.9809C57.0028 22.1716 57.2929 22.4256 57.5256 22.7285C57.7583 23.0314 57.929 23.3771 58.0279 23.746C58.1269 24.1149 58.1522 24.4997 58.1024 24.8783C58.0525 25.257 57.9285 25.6221 57.7375 25.9528Z" fill="#2AAF8F"/>
<path d="M16.4688 16.4688H45.5312V18.4062H16.4688V16.4688Z" fill="#2AAF8F"/>
<path d="M26.1562 21.3125H45.5312V23.25H26.1562V21.3125Z" fill="#2AAF8F"/>
<path d="M16.4688 21.3125H24.2188V23.25H16.4688V21.3125Z" fill="#2AAF8F"/>
<path d="M16.4688 26.1562H26.1562V28.0938H16.4688V26.1562Z" fill="#2AAF8F"/>
<path d="M28.0938 26.1562H45.5312V28.0938H28.0938V26.1562Z" fill="#2AAF8F"/>
<path d="M16.4688 31H42.625V32.9375H16.4688V31Z" fill="#2AAF8F"/>
<path d="M26.1562 35.8438H40.6875V37.7812H26.1562V35.8438Z" fill="#2AAF8F"/>
<path d="M16.4688 35.8438H24.2188V37.7812H16.4688V35.8438Z" fill="#2AAF8F"/>
<path d="M16.4688 40.6875H26.1562V42.625H16.4688V40.6875Z" fill="#2AAF8F"/>
<path d="M28.0938 40.6875H37.7812V42.625H28.0938V40.6875Z" fill="#2AAF8F"/>
</svg>
