<svg xmlns="http://www.w3.org/2000/svg" width="150" height="150" viewBox="0 0 150 150">
  <g id="empty_photo" transform="translate(-383 -293)">
    <circle id="Ellipse_14" data-name="Ellipse 14" cx="75" cy="75" r="75" transform="translate(383 293)" fill="#efefef"/>
    <g id="ico-camera" transform="translate(420.5 339.5)">
      <path id="Path_103" data-name="Path 103" d="M9.861,62.69H65.138A9.836,9.836,0,0,0,75,52.908V23.927a9.833,9.833,0,0,0-9.841-9.782l.076,0v-1.52a1.334,1.334,0,0,0-1.326-1.514H58.6a1.516,1.516,0,0,0-1.517,1.517v1.517H55.121a9.848,9.848,0,0,0-9.7-8.092H29.583a9.849,9.849,0,0,0-9.7,8.092H9.861A9.834,9.834,0,0,0,0,23.927v28.98A9.834,9.834,0,0,0,9.861,62.69ZM3.26,23.927a6.569,6.569,0,0,1,6.6-6.522H22.982l.253-3.262a6.58,6.58,0,0,1,6.347-4.83H45.416a6.579,6.579,0,0,1,6.349,4.83l.253,3.262H65.138a6.569,6.569,0,0,1,6.6,6.522v28.98a6.57,6.57,0,0,1-6.6,6.522H9.861a6.571,6.571,0,0,1-6.6-6.522V23.927Zm24.408-7.256H47.1a1.232,1.232,0,1,0,0-2.464H27.668a1.232,1.232,0,1,0,0,2.464ZM37.5,56.609A18.4,18.4,0,1,0,19.1,38.2,18.426,18.426,0,0,0,37.5,56.609Zm0-33.729A15.325,15.325,0,1,1,22.176,38.206,15.341,15.341,0,0,1,37.5,22.881ZM27.8,39.231A11.078,11.078,0,0,1,38.868,28.165a1.027,1.027,0,1,0,0-2.054A13.135,13.135,0,0,0,25.749,39.23a1.026,1.026,0,1,0,2.053,0Z" transform="translate(0 -6.052)" fill="#fff"/>
    </g>
  </g>
</svg>
