<svg xmlns="http://www.w3.org/2000/svg" width="20.34" height="20" viewBox="0 0 20.34 20">
  <g id="ico-content" transform="translate(45 -190)">
    <path id="Path_1" data-name="Path 1" d="M20.021,4.276H.318A.318.318,0,0,0,0,4.594V23.958a.318.318,0,0,0,.318.318h19.7a.318.318,0,0,0,.318-.318V4.594A.318.318,0,0,0,20.021,4.276ZM19.7,23.639H.637V8.989H19.7Zm0-15.287H.637V4.913H19.7Z" transform="translate(-45 185.724)" fill="#84adff"/>
    <path id="Path_2" data-name="Path 2" d="M329.132,38.48h-3.86a.329.329,0,1,0,0,.658h3.86a.329.329,0,0,0,0-.658Z" transform="translate(-357.151 152.923)" fill="#84adff"/>
    <path id="Path_3" data-name="Path 3" d="M445.691,38.48h-.7a.329.329,0,0,0,0,.658h.7a.329.329,0,1,0,0-.658Z" transform="translate(-472.083 152.923)" fill="#84adff"/>
    <path id="Path_4" data-name="Path 4" d="M232.263,29.929a1.378,1.378,0,0,0-.46.079h0a1.382,1.382,0,0,0,0,2.6h0a1.382,1.382,0,1,0,.461-2.684Zm0,2.105a.722.722,0,0,1-.241-.041h0a.724.724,0,0,1,0-1.365h0a.724.724,0,1,1,.241,1.406Z" transform="translate(-266.755 161.124)" fill="#84adff"/>
    <path id="Path_5" data-name="Path 5" d="M138.2,29.929a1.382,1.382,0,1,0,1.382,1.382A1.383,1.383,0,0,0,138.2,29.929Zm0,2.105a.724.724,0,1,1,.724-.724A.725.725,0,0,1,138.2,32.034Z" transform="translate(-176.411 161.124)" fill="#84adff"/>
    <path id="Path_6" data-name="Path 6" d="M44.138,29.929a1.382,1.382,0,1,0,1.382,1.382A1.383,1.383,0,0,0,44.138,29.929Zm0,2.105a.724.724,0,1,1,.724-.724A.725.725,0,0,1,44.138,32.034Z" transform="translate(-86.002 161.124)" fill="#84adff"/>
    <path id="Path_7" data-name="Path 7" d="M80.55,131.106l-3.338-3.474a.308.308,0,0,0-.447,0l-2.128,2.214H64.449a.329.329,0,0,0,0,.658H74l-2.529,2.632-2.234,2.324H64.449a.329.329,0,0,0,0,.658h4.16l-.681.709h0l0,0-.018.021-.006.008-.012.018-.007.012-.009.015-.007.016-.006.013-.007.02,0,.01c0,.009,0,.017-.006.026V137h0l-.783,4.075H64.449a.329.329,0,0,0,0,.658h3.116a.308.308,0,0,0,.217-.091l1.382-.288h0l2.382-.5h.007l.025-.007.01,0,.019-.007.013-.006.015-.007.015-.009.011-.007.017-.013.008-.006.02-.019,0,0h0l.209-.218,4.35-4.526,1.893-1.97,2.384-2.481A.339.339,0,0,0,80.55,131.106ZM69.6,136.022h0l2.327-2.421,2.682-2.79.626.651-6.007,6.251-.626-.651Zm6.081-4.095.745.775-2.743,2.854-2.2,2.293-1.06,1.1-.745-.775Zm-7.959,9.057.149-.774.6.619Zm1.489-.31-1.191-1.24.328-1.706.655.682,1.192,1.241.655.682Zm6.618-5.117-4.337,4.513-.626-.651,1.06-1.1,2.2-2.293,2.743-2.854.626.651Zm2.117-2.2-.849-.884L75.9,131.23l-.849-.884,1.937-2.016,2.891,3.008Z" transform="translate(-106.501 66.864)" fill="#84adff"/>
    <path id="Path_8" data-name="Path 8" d="M362.637,166.844a.329.329,0,0,0-.465,0l-.789.789a.329.329,0,1,0,.465.465l.789-.789A.329.329,0,0,0,362.637,166.844Z" transform="translate(-391.968 29.691)" fill="#84adff"/>
  </g>
</svg>
