<svg xmlns="http://www.w3.org/2000/svg" width="20" height="20" viewBox="0 0 20 20">
  <g id="ico_link" data-name="ico=link" transform="translate(-376 -580)">
    <path id="Path_99" data-name="Path 99" d="M9.246,181.9,6.22,184.927A2.911,2.911,0,1,1,2.1,180.811l5.428-5.428a2.981,2.981,0,0,1,4.117,0l.885-.883a4.259,4.259,0,0,0-5.886,0L1.22,179.927A4.16,4.16,0,1,0,7.1,185.811l3.832-3.832c-.175.017-.346.051-.524.051a5.407,5.407,0,0,1-1.166-.129Z" transform="translate(375.999 412.97)" fill="#1d2731"/>
    <path id="Path_100" data-name="Path 100" d="M214.056,0a4.132,4.132,0,0,0-2.942,1.219l-3.832,3.832c.175-.017.346-.051.524-.051a5.369,5.369,0,0,1,1.156.138L212,2.1a2.911,2.911,0,1,1,4.116,4.116l-5.428,5.429a2.982,2.982,0,0,1-4.12,0l-.885.883a4.16,4.16,0,0,0,5.889,0L217,7.1A4.161,4.161,0,0,0,214.056,0Z" transform="translate(177.783 580)" fill="#1d2731"/>
  </g>
</svg>
