<svg xmlns="http://www.w3.org/2000/svg" width="12" height="12.877" viewBox="0 0 12 12.877">
  <g id="ico-profile" transform="translate(29 31)">
    <path id="Path_150" data-name="Path 150" d="M23.44,288.389c-3.869,0-6,1.83-6,5.154a.47.47,0,0,0,.47.47H28.97a.47.47,0,0,0,.47-.47C29.44,290.22,27.309,288.389,23.44,288.389ZM18.4,293.073c.185-2.485,1.879-3.744,5.043-3.744s4.858,1.259,5.043,3.744Z" transform="translate(-46.44 -312.136)" fill="#fff"/>
    <path id="Path_151" data-name="Path 151" d="M135.166,0a3.08,3.08,0,0,0-3.117,3.18,3.128,3.128,0,1,0,6.235,0A3.08,3.08,0,0,0,135.166,0Zm0,5.624a2.325,2.325,0,0,1-2.178-2.444A2.137,2.137,0,0,1,135.166.94a2.161,2.161,0,0,1,2.178,2.24A2.325,2.325,0,0,1,135.166,5.624Z" transform="translate(-158.166 -31)" fill="#fff"/>
  </g>
</svg>
