<svg xmlns="http://www.w3.org/2000/svg" width="20.135" height="20" viewBox="0 0 20.135 20">
  <g id="ico-design" transform="translate(18 -207)">
    <path id="Path_9" data-name="Path 9" d="M28.04,26.844,9.163,8.094A.326.326,0,0,0,8.934,8H8.325A.324.324,0,0,0,8,8.323V27.677A.324.324,0,0,0,8.325,28H27.81a.324.324,0,0,0,.325-.323v-.6A.322.322,0,0,0,28.04,26.844Zm-.555.51h-1.3V26.71a.325.325,0,0,0-.65,0v.645h-1.3v-.323a.325.325,0,0,0-.65,0v.323h-1.3V26.71a.325.325,0,0,0-.65,0v.645h-1.3v-.323a.325.325,0,0,0-.65,0v.323h-1.3V26.71a.325.325,0,0,0-.65,0v.645h-1.3v-.323a.325.325,0,0,0-.65,0v.323H14.5V26.71a.325.325,0,0,0-.65,0v.645h-1.3v-.323a.325.325,0,0,0-.65,0v.323H10.6V26.71a.325.325,0,0,0-.65,0v.645H8.65v-1.29H9.3a.323.323,0,1,0,0-.645H8.65v-1.29h.325a.323.323,0,1,0,0-.645H8.65v-1.29H9.3a.323.323,0,1,0,0-.645H8.65v-1.29h.325a.323.323,0,1,0,0-.645H8.65v-1.29H9.3a.323.323,0,1,0,0-.645H8.65v-1.29h.325a.323.323,0,1,0,0-.645H8.65v-1.29H9.3a.323.323,0,1,0,0-.645H8.65v-1.29h.325a.323.323,0,1,0,0-.645H8.65v-1.29H9.3a.323.323,0,1,0,0-.645H8.65V8.645H8.8L27.486,27.206Z" transform="translate(-26 199)" fill="#6aff74"/>
    <path id="Path_10" data-name="Path 10" d="M104.316,223.592h6.96a.316.316,0,0,0,.224-.54l-6.96-6.96a.316.316,0,0,0-.54.224v6.96A.316.316,0,0,0,104.316,223.592Zm.316-6.513,5.88,5.88h-5.88Z" transform="translate(-118.039 -0.51)" fill="#6aff74"/>
    <path id="Path_11" data-name="Path 11" d="M165.464,26.332l-10.29-10.29a.316.316,0,0,0-.447,0l-2.685,2.685a.316.316,0,0,0,0,.447l10.29,10.29a.316.316,0,0,0,.447,0l2.685-2.685A.316.316,0,0,0,165.464,26.332Zm-2.908,2.461-.224-.224.224-.224a.316.316,0,0,0-.448-.447l-.223.223-.448-.447.671-.671a.316.316,0,0,0-.447-.447l-.671.671-.448-.448.224-.223a.316.316,0,0,0-.447-.448l-.224.224-.447-.447.671-.671a.317.317,0,0,0-.448-.448l-.671.671-.447-.447.224-.224a.316.316,0,1,0-.448-.447l-.223.223-.448-.447.671-.671a.316.316,0,0,0-.447-.447l-.671.671-.447-.448.223-.223a.316.316,0,0,0-.447-.448l-.224.224-.447-.447.671-.671a.317.317,0,1,0-.448-.448l-.671.671-.447-.447.224-.224a.316.316,0,1,0-.448-.447l-.223.223-.448-.447.671-.671a.316.316,0,0,0-.447-.447l-.671.671-.447-.448.223-.223a.316.316,0,1,0-.447-.448l-.224.224-.223-.224,1.566-1.566,9.843,9.843Zm2.013-2.014-9.843-9.843.223-.224,9.843,9.843Z" transform="translate(-163.735 191.366)" fill="#6aff74"/>
  </g>
</svg>
