<svg xmlns="http://www.w3.org/2000/svg" width="12" height="11" viewBox="0 0 12 11">
  <g id="ico-feedback" transform="translate(-223 -495)">
    <path id="Path_176" data-name="Path 176" d="M106.916,128.5h5.5a.25.25,0,1,0,0-.5h-5.5a.25.25,0,1,0,0,.5Z" transform="translate(118.834 369.501)" fill="#fff"/>
    <path id="Path_177" data-name="Path 177" d="M109.916,256h-3a.25.25,0,1,0,0,.5h3a.25.25,0,1,0,0-.5Z" transform="translate(118.834 244.5)" fill="#fff"/>
    <path id="Path_178" data-name="Path 178" d="M11.043,22.333c-.014,0-.029,0-.043,0v0a1,1,0,0,0-1-1H1a1,1,0,0,0-1,1v9.75a.25.25,0,0,0,.154.231.247.247,0,0,0,.1.019.25.25,0,0,0,.177-.073l2.427-2.427H10a1,1,0,0,0,1-1V24.686l.72-.72h0a.957.957,0,0,0-.677-1.634Zm-.543,6.5a.5.5,0,0,1-.5.5H2.75a.25.25,0,0,0-.177.073L.5,31.479V22.333a.5.5,0,0,1,.5-.5h9a.5.5,0,0,1,.5.5V22.5a.94.94,0,0,0-.134.11l-2.72,2.72H2.75a.25.25,0,1,0,0,.5H7.245L7,27.034a.25.25,0,0,0,.245.3.255.255,0,0,0,.049,0l1.25-.25a.248.248,0,0,0,.128-.068L10.5,25.186ZM8.376,26.6l-.808.162.162-.809L10,23.686l.647.647Zm2.99-2.99L11,23.979l-.647-.647.366-.366a.457.457,0,0,1,.646.647Z" transform="translate(223 473.667)" fill="#fff"/>
  </g>
</svg>
