<svg xmlns="http://www.w3.org/2000/svg" width="12" height="12" viewBox="0 0 12 12">
  <g id="ico-help" transform="translate(28 229)">
    <path id="Path_179" data-name="Path 179" d="M12,8.121A3.888,3.888,0,0,0,9.159,4.383,4.582,4.582,0,1,0,.635,6.911L.017,9.147l2.236-.618a4.565,4.565,0,0,0,2.13.631,3.88,3.88,0,0,0,5.712,2.3l1.888.522-.522-1.888A3.865,3.865,0,0,0,12,8.121ZM2.364,7.768l-1.339.37L1.4,6.8l-.084-.132A3.878,3.878,0,1,1,2.5,7.853Zm8.611,3.206L9.981,10.7l-.133.086A3.177,3.177,0,0,1,5.11,9.133,4.591,4.591,0,0,0,9.133,5.11a3.177,3.177,0,0,1,1.653,4.738l-.086.133Zm0,0" transform="translate(-28 -229)" fill="#fff"/>
    <path id="Path_180" data-name="Path 180" d="M180.5,271h.7v.7h-.7Zm0,0" transform="translate(-204.27 -493.648)" fill="#fff"/>
    <path id="Path_181" data-name="Path 181" d="M137.609,91.406a.7.7,0,0,1-.229.519l-.826.756v.858h.7v-.548l.6-.547a1.406,1.406,0,1,0-2.355-1.038h.7a.7.7,0,0,1,1.406,0Zm0,0" transform="translate(-160.324 -316.891)" fill="#fff"/>
  </g>
</svg>
