<svg xmlns="http://www.w3.org/2000/svg" width="16" height="16" viewBox="0 0 16 16">
  <g id="ico-download" transform="translate(-1562 -663)">
    <path id="Path_16" data-name="Path 16" d="M14.29,5.865A3.162,3.162,0,0,0,10.5,3.109,4.291,4.291,0,0,0,2.083,4.3v0A3.005,3.005,0,0,0,3,10.163H5.583V11.1H3.537L8,16l4.463-4.9H10.417v-.939h3.409a2.174,2.174,0,0,0,.464-4.3ZM8,14.611,5.659,12.039h.862V6.84H9.479v5.2h.862Zm5.826-5.386H10.417V5.9H5.583V9.225H3a2.067,2.067,0,0,1-.355-4.1l.428-.074-.041-.432c-.01-.11-.016-.218-.016-.321a3.354,3.354,0,0,1,6.667-.521l.091.581.546-.218A2.223,2.223,0,0,1,13.37,6.2c0,.014,0,.029,0,.043l-.015.5.48,0a1.237,1.237,0,0,1-.008,2.473Z" transform="translate(1562 662.996)"/>
  </g>
</svg>
