<svg width="34" height="34" viewBox="0 0 34 34" fill="none" xmlns="http://www.w3.org/2000/svg">
<circle cx="17" cy="17" r="17" fill="#C6EDE6"/>
<path d="M14.0667 12.2579L9.36667 16.2446C9.3 16.3008 9.26667 16.3569 9.2 16.4131C9.16667 16.4411 9.16667 16.4692 9.13333 16.4973C9.1 16.5254 9.1 16.5534 9.06667 16.6096C9.06667 16.6377 9.03333 16.6657 9.03333 16.7219C9.03333 16.75 9 16.778 9 16.8061L9 16.9746C9 17.0307 9 17.1149 9.03333 17.1711C9.03333 17.1992 9.06667 17.2272 9.06667 17.2553C9.06667 17.2834 9.1 17.3115 9.1 17.3395C9.1 17.3676 9.13333 17.3957 9.16667 17.4238C9.16667 17.508 9.2 17.5361 9.2 17.5361C9.23333 17.5922 9.3 17.6484 9.36667 17.7045L14.0667 21.6912C14.3 21.8877 14.6 22 14.9333 22C15.2667 22 15.5667 21.8877 15.8 21.6912C16.0333 21.4946 16.1667 21.242 16.1667 20.9612C16.1667 20.6805 16.0333 20.4278 15.8 20.2313L13.2 18.0414L23.7667 18.0414C24.4333 18.0414 25 17.5641 25 17.0026C25 16.4411 24.4333 15.9639 23.7667 15.9639L13.2 15.9639L15.8 13.774C16.0333 13.5775 16.1667 13.3248 16.1667 13.044C16.1667 12.7633 16.0333 12.5106 15.8 12.3141C15.5667 12.1176 15.2667 12.0053 14.9333 12.0053C14.6333 11.9772 14.3 12.0614 14.0667 12.2579Z" fill="#2F353A"/>
</svg>
