<svg width="54" height="60" viewBox="0 0 54 60" fill="none" xmlns="http://www.w3.org/2000/svg">
<path d="M44.4373 22.4728L44.9605 21.5622C45.3878 20.8254 46.0461 20.25 46.8333 19.9249C47.6206 19.5998 48.4931 19.5431 49.3158 19.7637C50.1385 19.9843 50.8656 20.4698 51.3847 21.1451C51.9037 21.8204 52.1858 22.6479 52.1873 23.4997C52.1893 24.1807 52.0086 24.8497 51.6642 25.4372L50.2111 27.9559L43.5073 24.0809L44.4373 22.4728Z" fill="#3AC7A5"/>
<path d="M44.4373 37.9534L39.0704 47.2437L38.3633 44.5991L35.7186 45.3062L35.0114 42.6616L32.3667 43.3687L41.5698 27.4328L48.2736 31.3078L44.4373 37.9534Z" fill="#3AC7A5"/>
<path d="M13.4375 19.77C14.1737 19.77 15.0456 20.7096 15.7044 20.4965C15.9964 20.3606 16.2252 20.1179 16.3438 19.8184V25.1562L13.4375 23.2187L10.5312 25.1562V19.8184C10.6498 20.1179 10.8786 20.3606 11.1706 20.4965C11.8294 20.7096 12.7013 19.77 13.4375 19.77Z" fill="#2AAF8F" fill-opacity="0.16"/>
<path d="M13.4375 19.77C12.7013 19.77 11.8294 20.7097 11.1706 20.4966C10.8786 20.3606 10.6498 20.1179 10.5313 19.8184C10.3618 19.358 10.1016 18.9363 9.76596 18.5784C9.1944 18.1619 7.93502 18.4138 7.50877 17.8325C7.1019 17.2706 7.72189 16.1469 7.49908 15.4591C7.28596 14.8003 6.11377 14.2675 6.11377 13.5313C6.11377 12.795 7.28596 12.2622 7.49908 11.6034C7.72189 10.9156 7.1019 9.79188 7.50877 9.23C7.93502 8.64875 9.1944 8.90063 9.76596 8.48407C10.3375 8.0675 10.4925 6.78875 11.1706 6.56594C11.8294 6.35282 12.7013 7.2925 13.4375 7.2925C14.1738 7.2925 15.0456 6.35282 15.7044 6.56594C16.3825 6.78875 16.5375 8.0675 17.1091 8.48407C17.6806 8.90063 18.94 8.64875 19.3663 9.23C19.7731 9.79188 19.1531 10.9156 19.376 11.6034C19.5891 12.2622 20.7613 12.795 20.7613 13.5313C20.7613 14.2675 19.5891 14.8003 19.376 15.4591C19.1531 16.1469 19.7731 17.2706 19.3663 17.8325C18.94 18.4138 17.6806 18.1619 17.1091 18.5784C16.7735 18.9363 16.5132 19.358 16.3438 19.8184C16.2252 20.1179 15.9964 20.3606 15.7044 20.4966C15.0456 20.7097 14.1738 19.77 13.4375 19.77ZM16.3438 13.5313C16.3438 12.9565 16.1733 12.3946 15.854 11.9166C15.5346 11.4387 15.0807 11.0662 14.5497 10.8462C14.0186 10.6263 13.4343 10.5687 12.8705 10.6808C12.3068 10.793 11.7889 11.0698 11.3825 11.4762C10.976 11.8827 10.6993 12.4005 10.5871 12.9643C10.475 13.528 10.5325 14.1124 10.7525 14.6434C10.9725 15.1745 11.345 15.6284 11.8229 15.9477C12.3008 16.2671 12.8627 16.4375 13.4375 16.4375C14.2083 16.4375 14.9475 16.1313 15.4925 15.5863C16.0376 15.0413 16.3438 14.302 16.3438 13.5313Z" fill="#2AAF8F" fill-opacity="0.16"/>
<path d="M44.4375 11.5938H34.75V1.90625L44.4375 11.5938Z" fill="#2AAF8F" fill-opacity="0.16"/>
<path d="M6.1719 15.3331C6.31803 15.4614 6.45346 15.6013 6.57683 15.7516C6.5765 15.9655 6.55212 16.1787 6.50418 16.3871C6.39782 16.7205 6.36269 17.0724 6.40107 17.4202C6.43946 17.768 6.5505 18.1039 6.72699 18.406C6.963 18.6677 7.25079 18.8776 7.57213 19.0224C7.89346 19.1671 8.24135 19.2436 8.59377 19.2469C8.79602 19.2662 8.99629 19.3025 9.19246 19.3554C9.31223 19.5244 9.41325 19.706 9.49374 19.8969C9.51505 19.9415 9.54218 19.9938 9.56446 20.0383V25.1562C9.56443 25.3316 9.61202 25.5037 9.70214 25.6542C9.79227 25.8046 9.92155 25.9278 10.0762 26.0106C10.2308 26.0933 10.405 26.1325 10.5802 26.124C10.7554 26.1155 10.925 26.0596 11.0709 25.9622L13.4375 24.3812L15.8061 25.9603C15.9519 26.0576 16.1213 26.1134 16.2963 26.122C16.4713 26.1306 16.6454 26.0916 16.7999 26.0091C16.9545 25.9266 17.0838 25.8037 17.1741 25.6535C17.2644 25.5033 17.3122 25.3315 17.3125 25.1562V20.0374C17.3348 19.9909 17.3619 19.9405 17.3832 19.8959C17.4627 19.7126 17.557 19.536 17.6651 19.368C17.8656 19.3056 18.0721 19.265 18.2813 19.2469C18.6329 19.2431 18.9799 19.1667 19.3005 19.0223C19.6211 18.8779 19.9084 18.6687 20.1442 18.4079C20.3206 18.1056 20.4317 17.7696 20.47 17.4217C20.5084 17.0737 20.4733 16.7216 20.367 16.3881C20.3225 16.1864 20.2956 15.9812 20.2866 15.7749C20.408 15.6136 20.5463 15.4658 20.6993 15.3341C20.987 15.1218 21.2273 14.8518 21.4048 14.5414C21.5823 14.2309 21.693 13.8869 21.73 13.5312C21.6934 13.1761 21.5831 12.8324 21.4063 12.5222C21.2295 12.2119 20.9901 11.9419 20.7031 11.7294C20.557 11.6011 20.4216 11.4611 20.2982 11.3109C20.2985 11.097 20.3229 10.8838 20.3709 10.6754C20.4772 10.342 20.5124 9.99005 20.474 9.64226C20.4356 9.29447 20.3245 8.95862 20.1481 8.65649C19.912 8.39475 19.6243 8.18487 19.3029 8.04013C18.9816 7.89538 18.6337 7.81893 18.2813 7.81562C18.079 7.7963 17.8788 7.76 17.6826 7.70712C17.5628 7.53807 17.4618 7.35649 17.3813 7.16559C17.2692 6.82957 17.0884 6.52057 16.8504 6.25822C16.6124 5.99587 16.3224 5.78593 15.9989 5.64174C15.6597 5.56821 15.3088 5.56678 14.9691 5.63754C14.6293 5.7083 14.3082 5.84967 14.0265 6.05249C13.8428 6.16269 13.6479 6.25328 13.4453 6.32277C13.2365 6.25618 13.0363 6.16547 12.8485 6.05249C12.5668 5.84989 12.2456 5.70865 11.9059 5.6379C11.5662 5.56714 11.2154 5.56845 10.8761 5.64174C10.5521 5.78582 10.2617 5.99581 10.0234 6.25834C9.78503 6.52087 9.60399 6.83018 9.4918 7.16656C9.41232 7.34991 9.31804 7.52648 9.2099 7.69452C9.00946 7.7569 8.8029 7.7975 8.59377 7.81562C8.24217 7.81934 7.89515 7.89579 7.57454 8.04018C7.25393 8.18456 6.96668 8.39374 6.73086 8.65455C6.5544 8.95688 6.44339 9.29288 6.40501 9.64082C6.36663 9.98876 6.40173 10.3409 6.50805 10.6744C6.55257 10.8761 6.57948 11.0813 6.58846 11.2876C6.46706 11.4489 6.3287 11.5967 6.17577 11.7284C5.88804 11.9407 5.64775 12.2107 5.47027 12.5211C5.29279 12.8315 5.18201 13.1756 5.14502 13.5312C5.18168 13.8864 5.29192 14.2301 5.46871 14.5403C5.64551 14.8505 5.88499 15.1205 6.1719 15.3331ZM13.9732 22.4127C13.814 22.3065 13.627 22.2498 13.4356 22.2498C13.2442 22.2498 13.0571 22.3065 12.8979 22.4127L11.5 23.3456V21.4876C11.9779 21.426 12.437 21.2628 12.8466 21.009C13.0303 20.8988 13.2252 20.8082 13.4278 20.7387C13.6366 20.8053 13.8368 20.896 14.0246 21.009C14.4337 21.2647 14.8929 21.4299 15.3711 21.4934V23.3466L13.9732 22.4127ZM7.50877 13.1341C7.91263 12.807 8.22722 12.3831 8.42327 11.9018C8.55101 11.3853 8.54701 10.845 8.41165 10.3305C8.38452 10.1765 8.34577 9.9643 8.33608 9.82287C8.47849 9.78702 8.7013 9.75699 8.85049 9.73665C9.37762 9.70817 9.88906 9.54724 10.3375 9.26874C10.7391 8.92958 11.0483 8.49435 11.2365 8.00355C11.3082 7.85534 11.4177 7.62477 11.4564 7.52887C11.6168 7.59792 11.7733 7.67553 11.9253 7.76137C12.3793 8.05256 12.8994 8.22449 13.4375 8.26124C13.9748 8.22343 14.4939 8.05084 14.9468 7.75943C15.0796 7.68774 15.2646 7.58796 15.3934 7.53565C15.482 7.68676 15.5629 7.84228 15.6356 8.00162C15.8246 8.49329 16.1348 8.92918 16.5375 9.26874C16.9871 9.54828 17.4999 9.70988 18.0284 9.73859C18.1912 9.76087 18.445 9.79477 18.5438 9.79962C18.5281 9.97855 18.5023 10.1564 18.4663 10.3324C18.3318 10.8468 18.3281 11.3866 18.4556 11.9028C18.6514 12.3845 18.9661 12.8087 19.3701 13.136C19.5071 13.2606 19.6365 13.3932 19.7576 13.5332C19.6365 13.6732 19.5071 13.8058 19.3701 13.9304C18.9663 14.2574 18.6517 14.6813 18.4556 15.1626C18.3281 15.6791 18.3318 16.2192 18.4663 16.7339C18.4944 16.888 18.5331 17.1001 18.5428 17.2416C18.4004 17.2774 18.1776 17.3074 18.0284 17.3278C17.5001 17.355 16.9873 17.5153 16.5375 17.7937C16.136 18.1329 15.8267 18.5681 15.6385 19.0589C15.5668 19.2071 15.4574 19.4377 15.4186 19.5336C15.2583 19.4646 15.1018 19.387 14.9497 19.3011C14.4957 19.0099 13.9756 18.838 13.4375 18.8012C12.9002 18.8391 12.3812 19.0116 11.9282 19.3031C11.7955 19.3747 11.6105 19.4745 11.4816 19.5268C11.393 19.3757 11.3122 19.2202 11.2394 19.0609C11.0505 18.5692 10.7402 18.1333 10.3375 17.7937C9.88799 17.5142 9.37519 17.3526 8.84661 17.3239C8.68386 17.3016 8.43005 17.2677 8.33124 17.2629C8.34703 17.084 8.37258 16.9061 8.40777 16.7301C8.54314 16.2158 8.54713 15.6759 8.4194 15.1597C8.2236 14.678 7.90898 14.2537 7.5049 13.9265C7.36794 13.8019 7.23854 13.6693 7.1174 13.5293C7.23985 13.3899 7.37054 13.2579 7.50877 13.1341Z" fill="#2AAF8F"/>
<path d="M13.4375 17.4063C14.2039 17.4063 14.9531 17.179 15.5903 16.7532C16.2276 16.3274 16.7242 15.7222 17.0175 15.0142C17.3108 14.3061 17.3876 13.527 17.238 12.7753C17.0885 12.0236 16.7195 11.3331 16.1775 10.7912C15.6356 10.2493 14.9452 9.88023 14.1935 9.73071C13.4418 9.58119 12.6627 9.65793 11.9546 9.95122C11.2465 10.2445 10.6413 10.7412 10.2156 11.3784C9.78977 12.0157 9.5625 12.7649 9.5625 13.5313C9.5625 14.559 9.97076 15.5446 10.6975 16.2713C11.4242 16.998 12.4098 17.4063 13.4375 17.4063ZM13.4375 11.5938C13.8207 11.5938 14.1953 11.7074 14.5139 11.9203C14.8325 12.1332 15.0809 12.4358 15.2275 12.7898C15.3742 13.1438 15.4125 13.5334 15.3378 13.9092C15.263 14.2851 15.0785 14.6303 14.8075 14.9013C14.5366 15.1722 14.1913 15.3568 13.8155 15.4315C13.4396 15.5063 13.0501 15.4679 12.6961 15.3213C12.342 15.1746 12.0394 14.9263 11.8265 14.6077C11.6136 14.2891 11.5 13.9145 11.5 13.5313C11.5 13.0174 11.7041 12.5246 12.0675 12.1612C12.4308 11.7979 12.9236 11.5938 13.4375 11.5938Z" fill="#2AAF8F"/>
<path d="M5.6875 30.9688H16.3438V32.9062H5.6875V30.9688Z" fill="#2AAF8F"/>
<path d="M18.2812 30.9688H35.7188V32.9062H18.2812V30.9688Z" fill="#2AAF8F"/>
<path d="M5.6875 35.8125H32.8125V37.75H5.6875V35.8125Z" fill="#2AAF8F"/>
<path d="M11.5 40.6562H18.2812V42.5938H11.5V40.6562Z" fill="#2AAF8F"/>
<path d="M20.2188 40.6562H29.9062V42.5938H20.2188V40.6562Z" fill="#2AAF8F"/>
<path d="M5.6875 45.5H29.9062V47.4375H5.6875V45.5Z" fill="#2AAF8F"/>
<path d="M5.6875 50.3438H29.9062V52.2812H5.6875V50.3438Z" fill="#2AAF8F"/>
<path d="M50.7344 19.305C49.9121 18.832 48.9693 18.6102 48.0224 18.667C47.0756 18.7238 46.166 19.0567 45.4062 19.6247V11.5938C45.4043 11.3369 45.3038 11.0907 45.1253 10.9059L35.4378 1.21844C35.2531 1.04 35.0068 0.939413 34.75 0.9375H1.8125C1.55557 0.9375 1.30917 1.03956 1.12749 1.22124C0.945815 1.40292 0.84375 1.64932 0.84375 1.90625V58.0938C0.84375 58.3507 0.945815 58.5971 1.12749 58.7788C1.30917 58.9604 1.55557 59.0625 1.8125 59.0625H44.4375C44.6944 59.0625 44.9408 58.9604 45.1225 58.7788C45.3042 58.5971 45.4062 58.3507 45.4062 58.0938V38.215L50.405 29.5544L51.0541 28.4403L52.5072 25.9216C53.1495 24.8091 53.3235 23.487 52.9911 22.2461C52.6586 21.0053 51.8469 19.9473 50.7344 19.305ZM35.7188 4.24094L42.1028 10.625H35.7188V4.24094ZM43.4688 57.125H2.78125V2.875H33.7812V11.5938C33.7812 11.8507 33.8833 12.0971 34.065 12.2788C34.2467 12.4604 34.4931 12.5625 34.75 12.5625H43.4688V22.2016L31.5241 42.8844C31.4292 43.0522 31.3854 43.2442 31.3981 43.4366L31.8438 50.4019C31.8534 50.5625 31.9027 50.7182 31.9873 50.8551C32.0718 50.9921 32.1889 51.1059 32.3281 51.1866C32.4665 51.2639 32.6214 51.3069 32.7799 51.3119C32.9384 51.317 33.0957 51.284 33.2388 51.2156L39.5066 48.1156C39.6751 48.0261 39.8158 47.8921 39.9134 47.7281L43.4688 41.5766V57.125ZM34.3237 43.8531L34.7791 45.5581C34.8469 45.8067 35.0102 46.0184 35.2333 46.1472C35.4565 46.276 35.7215 46.3115 35.9706 46.2459L37.6853 45.7906L37.9372 46.7303L33.6844 48.8325L33.3841 44.105L34.3237 43.8531ZM39.4097 44.7347L39.3031 44.3472C39.2335 44.1012 39.0699 43.8925 38.8478 43.7659C38.7383 43.7002 38.6164 43.6577 38.4897 43.6411C38.3631 43.6244 38.2344 43.6339 38.1116 43.6691L36.4066 44.1244L35.9416 42.4097C35.9092 42.2871 35.8529 42.1722 35.7758 42.0715C35.6987 41.9709 35.6024 41.8866 35.4924 41.8235C35.3824 41.7604 35.2611 41.7198 35.1353 41.704C35.0095 41.6883 34.8818 41.6976 34.7597 41.7316L34.3722 41.8284L41.9188 28.76L46.9562 31.6663L39.4097 44.7347ZM48.4578 29.0603L47.925 29.9806L42.8875 27.0744L43.4203 26.1541L43.8563 25.3984L48.8937 28.3047L48.4578 29.0603ZM50.8312 24.9528L49.8625 26.6287L44.825 23.7225L45.7938 22.0466C45.9844 21.7156 46.2385 21.4255 46.5413 21.1929C46.8442 20.9602 47.1899 20.7895 47.5588 20.6905C47.9277 20.5915 48.3125 20.5662 48.6911 20.6161C49.0698 20.6659 49.4349 20.7899 49.7656 20.9809C50.4312 21.3686 50.9167 22.0035 51.1163 22.7474C51.3159 23.4914 51.2134 24.2841 50.8312 24.9528Z" fill="#2AAF8F"/>
<path d="M5.6875 40.6562H9.5625V42.5938H5.6875V40.6562Z" fill="#2AAF8F"/>
<path d="M24.0938 15.4688H27.9688V17.4062H24.0938V15.4688Z" fill="#2AAF8F"/>
<path d="M29.9062 15.4688H40.5625V17.4062H29.9062V15.4688Z" fill="#2AAF8F"/>
<path d="M22.1562 20.3125H40.5625V22.25H22.1562V20.3125Z" fill="#2AAF8F"/>
<path d="M22.1562 26.125H38.625V28.0625H22.1562V26.125Z" fill="#2AAF8F"/>
</svg>
