<svg width="60" height="60" viewBox="0 0 60 60" fill="none" xmlns="http://www.w3.org/2000/svg">
<path d="M23.2188 34.8437C23.2188 35.8604 22.8989 36.8512 22.3045 37.6759C21.7101 38.5007 20.8712 39.1174 19.9068 39.4389C18.9423 39.7604 17.9012 39.7703 16.9308 39.4672C15.9604 39.164 15.11 38.5633 14.5 37.75C13.8675 36.9135 13.5271 35.8925 13.5313 34.8437V32.9062H23.2188V34.8437Z" fill="#3AC7A5" fill-opacity="0.58"/>
<path d="M16.4375 30H12.5625V27.2972C10.6371 26.0442 9.16823 24.2026 8.37471 22.0468C7.58119 19.891 7.50555 17.5365 8.15905 15.3343C8.81256 13.132 10.1602 11.1999 12.0012 9.82587C13.8421 8.45186 16.0778 7.70953 18.375 7.70953C20.6722 7.70953 22.9079 8.45186 24.7488 9.82587C26.5898 11.1999 27.9374 13.132 28.591 15.3343C29.2445 17.5365 29.1688 19.891 28.3753 22.0468C27.5818 24.2026 26.1129 26.0442 24.1875 27.2972V30H16.4375Z" fill="#3AC7A5" fill-opacity="0.58"/>
<path d="M55.1877 13.5313H28.9249C28.1834 11.9138 27.0802 10.4882 25.7005 9.36466C24.3207 8.24108 22.7013 7.44947 20.9671 7.05093C19.233 6.65238 17.4305 6.65755 15.6986 7.06603C13.9668 7.47451 12.3519 8.27538 10.9786 9.40686C9.60537 10.5383 8.51038 11.9702 7.77816 13.5919C7.04593 15.2136 6.69605 16.9819 6.75551 18.7602C6.81497 20.5386 7.28217 22.2795 8.12108 23.8487C8.95998 25.4179 10.1482 26.7734 11.5939 27.8106V30C11.5939 30.257 11.696 30.5034 11.8777 30.685C12.0594 30.8667 12.3058 30.9688 12.5627 30.9688H24.1877C24.4446 30.9688 24.691 30.8667 24.8727 30.685C25.0544 30.5034 25.1564 30.257 25.1564 30V27.8106C26.6561 26.7365 27.8778 25.3201 28.7202 23.679C29.5626 22.038 30.0014 20.2197 30.0002 18.375C29.994 17.3944 29.8671 16.4183 29.6224 15.4688H51.8552C51.5028 16.0538 51.3154 16.7233 51.3127 17.4063V38.7188H27.0939C26.9037 38.7183 26.7179 38.7757 26.5611 38.8835L20.7486 42.7585C20.6147 42.8455 20.5046 42.9647 20.4284 43.1051C20.3522 43.2455 20.3123 43.4028 20.3123 43.5625C20.3123 43.7223 20.3522 43.8795 20.4284 44.0199C20.5046 44.1603 20.6147 44.2795 20.7486 44.3666L26.5611 48.2416C26.7179 48.3493 26.9037 48.4067 27.0939 48.4063H51.3127V55.1875C51.3127 55.7014 51.1086 56.1942 50.7452 56.5575C50.3819 56.9209 49.889 57.125 49.3752 57.125C48.8613 57.125 48.3685 56.9209 48.0052 56.5575C47.6418 56.1942 47.4377 55.7014 47.4377 55.1875V51.3125C47.4377 51.0556 47.3356 50.8092 47.154 50.6275C46.9723 50.4458 46.7259 50.3438 46.4689 50.3438H15.4689V39.8716C16.3517 40.384 17.354 40.6546 18.3747 40.656C19.3955 40.6574 20.3985 40.3897 21.2827 39.8798C22.167 39.3699 22.9011 38.6358 23.4111 37.7517C23.9212 36.8675 24.189 35.8645 24.1877 34.8438V33.875H25.1564V31.9375H11.5939V33.875H12.5627V34.8438C12.5626 35.9847 12.8997 37.1003 13.5314 38.0503V50.3438H10.6252C10.3683 50.3438 10.1219 50.4458 9.94018 50.6275C9.75851 50.8092 9.65644 51.0556 9.65644 51.3125V55.1875C9.65644 56.2152 10.0647 57.2009 10.7914 57.9276C11.5181 58.6543 12.5037 59.0625 13.5314 59.0625H49.3752C50.4029 59.0625 51.3885 58.6543 52.1152 57.9276C52.8419 57.2009 53.2502 56.2152 53.2502 55.1875V48.3094C54.3452 48.0871 55.3296 47.493 56.0367 46.6279C56.7438 45.7628 57.13 44.6798 57.13 43.5625C57.13 42.4452 56.7438 41.3623 56.0367 40.4972C55.3296 39.632 54.3452 39.038 53.2502 38.8157V23.2188H58.0939C58.3509 23.2188 58.5973 23.1167 58.779 22.935C58.9606 22.7534 59.0627 22.507 59.0627 22.25V17.4063C59.0627 16.3786 58.6544 15.3929 57.9277 14.6662C57.201 13.9395 56.2154 13.5313 55.1877 13.5313ZM23.6549 26.4932C23.5216 26.5809 23.4121 26.7002 23.336 26.8405C23.26 26.9808 23.2198 27.1377 23.2189 27.2972V29.0313H21.2814V23.2188H19.3439V29.0313H17.4064V23.2188H15.4689V29.0313H13.5314V27.2972C13.5306 27.1377 13.4904 26.9808 13.4143 26.8405C13.3383 26.7002 13.2288 26.5809 13.0955 26.4932C11.3442 25.3548 10.0077 23.6808 9.28538 21.7209C8.56305 19.761 8.49354 17.6201 9.08722 15.6174C9.6809 13.6148 10.906 11.8576 12.5798 10.608C14.2535 9.35843 16.2864 8.6833 18.3752 8.6833C20.464 8.6833 22.4968 9.35843 24.1706 10.608C25.8444 11.8576 27.0695 13.6148 27.6632 15.6174C28.2568 17.6201 28.1873 19.761 27.465 21.7209C26.7427 23.6808 25.4062 25.3548 23.6549 26.4932ZM14.5002 33.875H22.2502V34.8438C22.2502 35.8715 21.8419 36.8571 21.1152 37.5838C20.3885 38.3105 19.4029 38.7188 18.3752 38.7188C17.3475 38.7188 16.3619 38.3105 15.6352 37.5838C14.9085 36.8571 14.5002 35.8715 14.5002 34.8438V33.875ZM13.5314 57.125C13.0181 57.1235 12.5261 56.9189 12.1631 56.5559C11.8001 56.1928 11.5955 55.7009 11.5939 55.1875V52.2813H45.5002V55.1875C45.5029 55.8705 45.6903 56.54 46.0427 57.125H13.5314ZM26.4061 44.2503L27.6655 45.5L26.968 46.1878L23.0252 43.5625L26.968 40.9372L27.6655 41.625L26.4061 42.8747C26.2246 43.0576 26.1228 43.3049 26.1228 43.5625C26.1228 43.8202 26.2246 44.0674 26.4061 44.2503ZM44.5314 46.4688H29.4286L29.7193 46.1878C29.9008 46.0049 30.0026 45.7577 30.0026 45.5C30.0026 45.2424 29.9008 44.9951 29.7193 44.8122L28.4599 43.5625L29.7193 42.3128C29.9008 42.1299 30.0026 41.8827 30.0026 41.625C30.0026 41.3674 29.9008 41.1201 29.7193 40.9372L29.4286 40.6563H44.5314V46.4688ZM48.4064 46.4688H46.4689V40.6563H48.4064V46.4688ZM55.1877 43.5625C55.1854 44.3326 54.8785 45.0705 54.3339 45.615C53.7894 46.1595 53.0515 46.4665 52.2814 46.4688H50.3439V40.6563H52.2814C53.0515 40.6586 53.7894 40.9655 54.3339 41.51C54.8785 42.0546 55.1854 42.7924 55.1877 43.5625ZM57.1252 21.2813H53.2502V17.4063C53.2502 16.8924 53.4543 16.3996 53.8177 16.0363C54.181 15.6729 54.6738 15.4688 55.1877 15.4688C55.7015 15.4688 56.1944 15.6729 56.5577 16.0363C56.9211 16.3996 57.1252 16.8924 57.1252 17.4063V21.2813Z" fill="#2AAF8F"/>
<path d="M0.9375 17.4062H4.8125V19.3438H0.9375V17.4062Z" fill="#2AAF8F"/>
<path d="M31.9375 17.4062H35.8125V19.3438H31.9375V17.4062Z" fill="#2AAF8F"/>
<path d="M10.625 18.375H12.5625C12.564 16.8339 13.1769 15.3564 14.2666 14.2666C15.3564 13.1769 16.8339 12.564 18.375 12.5625V10.625C16.3203 10.6273 14.3504 11.4446 12.8975 12.8975C11.4446 14.3504 10.6273 16.3203 10.625 18.375Z" fill="white"/>
<path d="M17.4062 0.9375H19.3438V4.8125H17.4062V0.9375Z" fill="#2AAF8F"/>
<path d="M5.3584 6.72803L6.72842 5.35801L9.46846 8.09805L8.09844 9.46807L5.3584 6.72803Z" fill="#2AAF8F"/>
<path d="M27.2759 8.10144L30.0159 5.3614L31.3859 6.73142L28.6459 9.47146L27.2759 8.10144Z" fill="#2AAF8F"/>
</svg>
