<svg width="113" height="107" viewBox="0 0 113 107" fill="none" xmlns="http://www.w3.org/2000/svg">
<path d="M8.80493 102.567C8.7293 102.567 8.65365 102.546 8.58384 102.506C8.36277 102.377 8.28328 102.086 8.40545 101.854C8.45393 101.763 9.61165 99.6152 11.6788 99.5297C12.5767 99.489 13.2534 100.11 13.8546 100.655C14.3956 101.146 14.9056 101.61 15.5068 101.61C16.1041 101.61 16.585 101.201 17.1454 100.725C17.7679 100.195 18.4738 99.5969 19.4395 99.5969C20.4149 99.605 21.0762 100.187 21.6598 100.704C22.2106 101.191 22.6857 101.61 23.3586 101.61C23.9908 101.61 24.3378 101.233 24.778 100.757C25.2551 100.24 25.8504 99.5969 26.8957 99.5969C28.8135 99.603 30.3261 101.712 30.3901 101.803C30.5394 102.015 30.4987 102.316 30.2951 102.473C30.0934 102.632 29.8064 102.587 29.6571 102.375C29.6454 102.357 28.3501 100.562 26.9015 100.556C26.2325 100.549 25.8834 100.938 25.4335 101.425C24.939 101.96 24.3767 102.569 23.3605 102.569C22.356 102.569 21.6754 101.968 21.0742 101.439C20.5409 100.969 20.0794 100.562 19.4511 100.558C18.7976 100.558 18.274 101.001 17.7194 101.472C17.1144 101.987 16.4279 102.569 15.5087 102.569C14.5663 102.569 13.872 101.938 13.2593 101.382C12.7182 100.891 12.2528 100.466 11.7157 100.488C10.1546 100.554 9.21217 102.304 9.20248 102.32C9.12103 102.477 8.96589 102.567 8.80493 102.567Z" fill="#B3FFD1"/>
<path d="M30.0451 105.314C29.9054 105.314 29.7677 105.247 29.6785 105.121C29.6669 105.103 28.3715 103.297 26.921 103.291C26.2559 103.291 25.901 103.678 25.4531 104.164C24.9566 104.704 24.3962 105.314 23.3781 105.314C22.3717 105.314 21.691 104.71 21.0899 104.179C20.5566 103.704 20.0951 103.297 19.4668 103.291C18.8133 103.291 18.2897 103.737 17.7351 104.211C17.1281 104.728 16.4416 105.314 15.5224 105.314C14.58 105.314 13.8838 104.681 13.271 104.122C12.73 103.629 12.2607 103.195 11.7275 103.224C10.1761 103.289 9.22203 105.05 9.21233 105.068C9.09016 105.298 8.81282 105.382 8.59369 105.253C8.37456 105.125 8.29313 104.836 8.4153 104.604C8.46378 104.512 9.62146 102.353 11.6906 102.267C12.5787 102.225 13.2671 102.851 13.8683 103.399C14.4093 103.892 14.9193 104.358 15.5205 104.358C16.1178 104.358 16.5987 103.947 17.1591 103.468C17.7816 102.937 18.4875 102.334 19.4551 102.334C20.4305 102.343 21.0937 102.929 21.6774 103.448C22.2282 103.936 22.7052 104.358 23.3762 104.358C24.0083 104.358 24.3555 103.979 24.7957 103.501C25.2727 102.982 25.868 102.334 26.9132 102.334C28.833 102.341 30.3456 104.462 30.4096 104.551C30.5589 104.765 30.5163 105.064 30.3146 105.221C30.2351 105.284 30.1381 105.314 30.0451 105.314Z" fill="#B3FFD1"/>
<path fill-rule="evenodd" clip-rule="evenodd" d="M96.58 99.5295C96.995 99.5295 97.3344 99.8837 97.3344 100.321C97.3344 100.759 96.9969 101.113 96.58 101.113C96.1631 101.113 95.8257 100.759 95.8257 100.321C95.8257 99.8837 96.1631 99.5295 96.58 99.5295Z" fill="#B3FFD1"/>
<path fill-rule="evenodd" clip-rule="evenodd" d="M99.2577 99.5295C99.6747 99.5295 100.012 99.8837 100.012 100.321C100.012 100.759 99.6747 101.113 99.2577 101.113C98.8408 101.113 98.5034 100.759 98.5034 100.321C98.5054 99.8837 98.8428 99.5295 99.2577 99.5295Z" fill="#B3FFD1"/>
<path fill-rule="evenodd" clip-rule="evenodd" d="M101.938 99.5295C102.355 99.5295 102.692 99.8837 102.692 100.321C102.692 100.759 102.355 101.113 101.938 101.113C101.521 101.113 101.184 100.759 101.184 100.321C101.186 99.8837 101.523 99.5295 101.938 99.5295Z" fill="#B3FFD1"/>
<path fill-rule="evenodd" clip-rule="evenodd" d="M104.618 99.5295C105.035 99.5295 105.372 99.8837 105.372 100.321C105.372 100.759 105.035 101.113 104.618 101.113C104.203 101.113 103.863 100.759 103.863 100.321C103.865 99.8837 104.203 99.5295 104.618 99.5295Z" fill="#B3FFD1"/>
<path fill-rule="evenodd" clip-rule="evenodd" d="M107.298 99.5295C107.715 99.5295 108.052 99.8837 108.052 100.321C108.052 100.759 107.715 101.113 107.298 101.113C106.881 101.113 106.543 100.759 106.543 100.321C106.545 99.8837 106.883 99.5295 107.298 99.5295Z" fill="#B3FFD1"/>
<path fill-rule="evenodd" clip-rule="evenodd" d="M109.977 99.5295C110.394 99.5295 110.732 99.8837 110.732 100.321C110.732 100.759 110.394 101.113 109.977 101.113C109.561 101.113 109.223 100.759 109.223 100.321C109.225 99.8837 109.562 99.5295 109.977 99.5295Z" fill="#B3FFD1"/>
<path fill-rule="evenodd" clip-rule="evenodd" d="M96.58 102.025C96.995 102.025 97.3344 102.379 97.3344 102.817C97.3344 103.255 96.9969 103.609 96.58 103.609C96.1631 103.609 95.8257 103.255 95.8257 102.817C95.8257 102.379 96.1631 102.025 96.58 102.025Z" fill="#B3FFD1"/>
<path fill-rule="evenodd" clip-rule="evenodd" d="M99.2577 102.025C99.6747 102.025 100.012 102.379 100.012 102.817C100.012 103.255 99.6747 103.609 99.2577 103.609C98.8408 103.609 98.5034 103.255 98.5034 102.817C98.5054 102.379 98.8428 102.025 99.2577 102.025Z" fill="#B3FFD1"/>
<path fill-rule="evenodd" clip-rule="evenodd" d="M101.938 102.025C102.355 102.025 102.692 102.379 102.692 102.817C102.692 103.255 102.355 103.609 101.938 103.609C101.521 103.609 101.184 103.255 101.184 102.817C101.186 102.379 101.523 102.025 101.938 102.025Z" fill="#B3FFD1"/>
<path fill-rule="evenodd" clip-rule="evenodd" d="M104.618 102.025C105.035 102.025 105.372 102.379 105.372 102.817C105.372 103.255 105.035 103.609 104.618 103.609C104.203 103.609 103.863 103.255 103.863 102.817C103.865 102.379 104.203 102.025 104.618 102.025Z" fill="#B3FFD1"/>
<path fill-rule="evenodd" clip-rule="evenodd" d="M107.298 102.025C107.715 102.025 108.052 102.379 108.052 102.817C108.052 103.255 107.715 103.609 107.298 103.609C106.881 103.609 106.543 103.255 106.543 102.817C106.545 102.379 106.883 102.025 107.298 102.025Z" fill="#B3FFD1"/>
<path fill-rule="evenodd" clip-rule="evenodd" d="M109.977 102.025C110.394 102.025 110.732 102.379 110.732 102.817C110.732 103.255 110.394 103.609 109.977 103.609C109.561 103.609 109.223 103.255 109.223 102.817C109.225 102.379 109.562 102.025 109.977 102.025Z" fill="#B3FFD1"/>
<path fill-rule="evenodd" clip-rule="evenodd" d="M13.1644 2.40274H108.194C110.821 2.40274 112.95 4.63765 112.95 7.3977V91.2922C112.95 94.0502 110.819 96.2851 108.194 96.2851H13.1644C10.5369 96.2851 8.40771 94.0502 8.40771 91.2922V7.39566C8.40771 4.63765 10.5369 2.40274 13.1644 2.40274Z" fill="#EAFAF2"/>
<path fill-rule="evenodd" clip-rule="evenodd" d="M8.40792 10.5164C13.7599 10.5164 110.614 10.5164 110.614 10.5164C110.614 10.5164 111.106 6.1015 110.693 4.85785C110.28 3.6142 109.782 2.40311 109.782 2.40311C109.782 2.40311 17.6809 2.40311 15.3074 2.40311C12.9339 2.40311 10.8144 2.21789 9.34259 4.42634C8.15972 6.19716 8.40792 7.15585 8.40792 10.5164Z" fill="#9EFFE8"/>
<path d="M105.983 97.8161H10.9556C8.08179 97.8161 5.74316 95.3613 5.74316 92.3428V5.55185C5.74316 2.5333 8.08179 0.0785599 10.9556 0.0785599H105.983C108.857 0.0785599 111.197 2.5333 111.197 5.55185V92.3448C111.195 95.3613 108.857 97.8161 105.983 97.8161ZM10.9536 1.03522C8.58208 1.03522 6.65261 3.06047 6.65261 5.54981V92.3428C6.65261 94.8321 8.58208 96.8574 10.9536 96.8574H105.981C108.353 96.8574 110.282 94.8321 110.282 92.3428V5.55185C110.282 3.06251 108.353 1.03725 105.981 1.03725H10.9536V1.03522Z" fill="black"/>
<path d="M30.7821 11.1004H0.505487C0.253392 11.1004 0.0498047 10.8866 0.0498047 10.622C0.0498047 10.3574 0.253392 10.1437 0.505487 10.1437H30.7821C31.0342 10.1437 31.2378 10.3574 31.2378 10.622C31.2378 10.8846 31.0323 11.1004 30.7821 11.1004Z" fill="black"/>
<path d="M110.389 11.1H35.8678C35.6157 11.1 35.4121 10.8863 35.4121 10.6217C35.4121 10.3571 35.6157 10.1434 35.8678 10.1434H110.389C110.641 10.1434 110.844 10.3571 110.844 10.6217C110.844 10.8843 110.641 11.1 110.389 11.1Z" fill="black"/>
<path d="M57.6076 27.6432H20.5255C20.2734 27.6432 20.0698 27.4295 20.0698 27.1649C20.0698 26.9003 20.2734 26.6866 20.5255 26.6866H57.6076C57.8597 26.6866 58.0633 26.9003 58.0633 27.1649C58.0633 27.4275 57.8597 27.6432 57.6076 27.6432Z" fill="#666666"/>
<path d="M61.4245 31.6134H36.0055C35.7534 31.6134 35.5498 31.3997 35.5498 31.135C35.5498 30.8704 35.7534 30.6567 36.0055 30.6567H61.4245C61.6766 30.6567 61.8802 30.8704 61.8802 31.135C61.8802 31.3997 61.6766 31.6134 61.4245 31.6134Z" fill="#666666"/>
<path d="M41.0107 35.7453H20.525C20.2729 35.7453 20.0693 35.5315 20.0693 35.2669C20.0693 35.0023 20.2729 34.7886 20.525 34.7886H41.0107C41.2628 34.7886 41.4664 35.0023 41.4664 35.2669C41.4664 35.5295 41.2628 35.7453 41.0107 35.7453Z" fill="#666666"/>
<path d="M53.2158 39.8428H31.1808C30.9287 39.8428 30.7251 39.629 30.7251 39.3644C30.7251 39.0998 30.9287 38.8861 31.1808 38.8861H53.2158C53.4679 38.8861 53.6715 39.0998 53.6715 39.3644C53.6715 39.629 53.4679 39.8428 53.2158 39.8428Z" fill="#666666"/>
<path d="M39.246 43.9747H20.5231C20.271 43.9747 20.0674 43.7609 20.0674 43.4963C20.0674 43.2317 20.271 43.018 20.5231 43.018H39.246C39.4981 43.018 39.7017 43.2317 39.7017 43.4963C39.7017 43.7589 39.4981 43.9747 39.246 43.9747Z" fill="#666666"/>
<path d="M57.6078 23.5433H20.4889C20.2368 23.5433 20.0332 23.3296 20.0332 23.065C20.0332 22.8004 20.2368 22.5867 20.4889 22.5867H57.6078C57.8599 22.5867 58.0635 22.8004 58.0635 23.065C58.0635 23.3276 57.8599 23.5433 57.6078 23.5433Z" fill="#666666"/>
<path d="M31.362 31.6143H20.4889C20.2368 31.6143 20.0332 31.4006 20.0332 31.136C20.0332 30.8714 20.2368 30.6576 20.4889 30.6576H31.362C31.6141 30.6576 31.8177 30.8714 31.8177 31.136C31.8177 31.4006 31.6141 31.6143 31.362 31.6143Z" fill="#666666"/>
<path d="M61.4242 35.7453H43.7096C43.4575 35.7453 43.2539 35.5315 43.2539 35.2669C43.2539 35.0023 43.4575 34.7886 43.7096 34.7886H61.4242C61.6763 34.7886 61.8799 35.0023 61.8799 35.2669C61.8799 35.5295 61.6763 35.7453 61.4242 35.7453Z" fill="#666666"/>
<path d="M26.1063 39.8428H20.4904C20.2383 39.8428 20.0347 39.629 20.0347 39.3644C20.0347 39.0998 20.2383 38.8861 20.4904 38.8861H26.1063C26.3584 38.8861 26.562 39.0998 26.562 39.3644C26.562 39.629 26.3564 39.8428 26.1063 39.8428Z" fill="#666666"/>
<path fill-rule="evenodd" clip-rule="evenodd" d="M28.0362 16.6757C28.7789 16.6757 29.3801 17.3088 29.3801 18.0904C29.3801 18.872 28.7789 19.5051 28.0362 19.5051C27.2935 19.5051 26.6924 18.872 26.6924 18.0904C26.6904 17.3088 27.2935 16.6757 28.0362 16.6757Z" fill="#2AAF8F"/>
<path d="M24.765 16.8654L26.2135 19.5054H23.3145L24.765 16.8654Z" fill="#2AAF8F"/>
<path d="M14.0062 27.1299C13.8802 27.1299 13.7561 27.0749 13.6649 26.9691C13.4982 26.7716 13.5137 26.4683 13.7018 26.2933L16.3914 23.7774L13.7037 21.2921C13.5156 21.117 13.4962 20.8157 13.663 20.6163C13.8298 20.4188 14.1167 20.3985 14.3068 20.5735L17.3804 23.4171C17.4774 23.5087 17.5336 23.6369 17.5356 23.7754C17.5356 23.9117 17.4812 24.042 17.3823 24.1336L14.3106 27.0098C14.2234 27.0912 14.1148 27.1299 14.0062 27.1299Z" fill="#2AAF8F"/>
<path fill-rule="evenodd" clip-rule="evenodd" d="M25.2179 87.2112H37.3108C37.749 87.2112 38.1039 87.5837 38.1039 88.0437V91.9152C38.1039 94.6733 35.9747 96.9083 33.3471 96.9083H29.1836C26.556 96.9083 24.4268 94.6733 24.4268 91.9152V88.0437C24.4248 87.5837 24.7797 87.2112 25.2179 87.2112Z" fill="#91E0B0"/>
<path fill-rule="evenodd" clip-rule="evenodd" d="M29.0205 83.5495C29.0205 83.5495 28.6909 78.2511 25.9682 76.7673C23.2456 75.2834 17.6025 75.8106 17.6025 75.8106C17.6025 75.8106 20.428 82.2224 23.3523 83.0508C26.2727 83.8813 29.0205 83.5495 29.0205 83.5495Z" fill="#91E0B1"/>
<path fill-rule="evenodd" clip-rule="evenodd" d="M30.132 75.3938C30.132 75.3938 24.5491 74.9134 23.5504 71.3981C22.5517 67.8828 23.8684 67.0279 23.8684 67.0279C23.8684 67.0279 28.6001 67.726 29.4979 70.1483C30.3958 72.5725 30.132 75.3938 30.132 75.3938Z" fill="#91E0B1"/>
<path fill-rule="evenodd" clip-rule="evenodd" d="M29.7344 66.8201C29.7344 66.8201 25.9336 65.1957 25.3344 63.49C24.7352 61.7842 25.0959 60.7848 25.0959 60.7848C25.0959 60.7848 28.0745 60.7482 28.8618 62.4905C29.6511 64.235 29.7344 66.8201 29.7344 66.8201Z" fill="#91E0B1"/>
<path fill-rule="evenodd" clip-rule="evenodd" d="M30.2502 56.2932C30.2502 56.2932 27.927 53.8588 28.6639 51.2574C29.4028 48.656 30.7253 47.8866 30.7253 47.8866C30.7253 47.8866 33.1842 50.8422 32.5094 53.0059C31.8345 55.1696 30.2502 56.2932 30.2502 56.2932Z" fill="#91E0B1"/>
<path fill-rule="evenodd" clip-rule="evenodd" d="M32.5496 64.8239C32.5496 64.8239 30.7016 60.0465 32.7086 57.9988C34.7157 55.9511 38.5379 55.5013 38.5379 55.5013C38.5379 55.5013 39.4163 61.7177 36.7926 63.1588C34.1689 64.6 32.5496 64.8239 32.5496 64.8239Z" fill="#91E0B1"/>
<path fill-rule="evenodd" clip-rule="evenodd" d="M30.7796 48.4119C30.0078 49.5294 29.0363 50.767 28.9161 52.6152C28.854 53.5821 29.2516 54.3433 29.6685 54.9459C29.8857 55.2593 30.4558 55.5585 30.3821 56.0695C30.3608 56.218 30.2561 56.3646 30.1436 56.4033C29.6026 56.5885 28.8889 55.4385 28.7163 55.1555C27.6536 53.4091 28.1152 51.3267 28.9936 49.5803C29.4222 48.7274 30.0078 47.557 30.578 47.209C31.0763 46.9057 31.4215 47.8033 31.6484 48.2084C32.2767 49.3299 33.0407 50.9502 33.0368 52.66C33.033 54.0258 32.4318 54.952 31.7279 55.7397C31.5223 55.9697 30.7641 56.7513 30.578 56.0308C30.4674 55.5972 31.1481 55.0721 31.3711 54.783C31.8093 54.209 32.1468 53.637 32.1642 52.7027C32.2011 50.7975 31.3614 49.7411 30.7796 48.4119Z" fill="#91E0B0"/>
<path fill-rule="evenodd" clip-rule="evenodd" d="M38.8275 55.027C39.2231 55.6661 39.1533 56.5496 39.1455 57.3149C39.1009 61.8683 37.4933 64.1094 33.7933 64.889C33.3066 64.9908 32.624 65.1393 32.6046 64.5979C32.5872 64.1358 33.1263 64.1216 33.6343 64.0158C34.9084 63.7471 36.134 63.2117 36.8457 62.4342C38.1527 61.0073 38.3039 58.6807 38.2322 55.9837C35.2536 56.5964 32.4243 57.6731 32.4049 61.5182C32.4029 61.9965 32.4844 62.6031 32.5639 63.1405C32.6201 63.513 32.8529 64.3536 32.2866 64.3882C31.6157 64.431 31.5342 62.3385 31.5342 61.5589C31.5342 57.1948 34.73 55.7069 38.2729 55.027C38.3834 55.0066 38.6064 54.9374 38.8275 55.027Z" fill="#91E0B0"/>
<path fill-rule="evenodd" clip-rule="evenodd" d="M25.1502 60.1465C25.8483 59.947 26.7946 60.523 27.45 60.8548C28.0085 61.1357 28.6543 61.5143 29.0363 61.9784C29.7403 62.8333 30.1727 64.6103 30.1068 65.9313C30.0738 66.5847 29.8333 66.8717 29.1158 66.8473C28.3828 66.8209 27.1844 66.0677 26.6977 65.6403C26.0849 65.1049 25.54 64.2826 25.1909 63.4358C24.8787 62.6745 24.2077 60.4152 25.1502 60.1465ZM29.2341 65.9293C29.3873 62.8557 27.7739 61.6385 25.5477 61.0604C25.7669 63.7432 27.0642 65.2942 29.2341 65.9293Z" fill="#91E0B0"/>
<path fill-rule="evenodd" clip-rule="evenodd" d="M40.0954 66.9285C35.9358 67.0466 32.7905 68.3656 32.7614 73.0045C32.7575 73.5988 33.1919 75.2965 32.5636 75.3758C31.8693 75.4634 31.8926 73.6823 31.8887 73.0452C31.8732 68.1071 35.0942 66.3138 39.6183 66.0126C39.9751 65.9882 40.6849 65.8599 40.8866 66.1795C41.1425 66.5825 40.8769 67.8974 40.8071 68.3005C40.1342 72.2473 38.2454 74.4232 34.6637 75.3331C34.3903 75.4023 33.2597 75.7992 33.1977 75.1662C33.1453 74.6329 33.89 74.582 34.3864 74.4599C37.9526 73.5765 39.8064 71.1135 40.0954 66.9285Z" fill="#91E0B0"/>
<path fill-rule="evenodd" clip-rule="evenodd" d="M30.264 74.7509C30.7643 75.8704 29.1392 75.4389 28.5594 75.3331C25.7243 74.816 23.3119 73.725 23.0889 70.2565C23.0579 69.7599 23.0773 68.9843 23.1685 68.2597C23.2305 67.763 23.3488 66.4868 23.8821 66.5947C27.2602 67.2827 30.4656 68.8419 30.7003 72.7948C30.7391 73.4523 30.869 74.6288 30.264 74.7509ZM24.1594 67.7183C23.9887 68.5386 23.8898 69.4545 23.9616 70.4234C24.1846 73.4624 27.0197 74.2278 29.8684 74.6267C29.752 73.9815 29.8606 73.3912 29.8296 72.8375C29.6357 69.5461 26.9828 68.16 24.2001 67.5941C24.1536 67.6002 24.1555 67.6592 24.1594 67.7183Z" fill="#91E0B0"/>
<path fill-rule="evenodd" clip-rule="evenodd" d="M45.882 74.0017C45.882 74.0994 45.882 74.1971 45.882 74.2928C45.5931 76.0962 45.1452 77.6717 44.5343 79.1189C43.8866 80.6578 43.1691 81.8974 42.1956 82.9049C40.7141 84.4356 38.7109 85.6162 35.616 85.1928C35.0381 85.1134 33.4189 84.9404 33.5953 84.1934C33.7408 83.5726 35.1971 84.2117 35.616 84.2769C38.4006 84.7063 40.2409 83.6662 41.5615 82.2801C43.4522 80.2954 44.2493 77.8875 44.9318 74.6225C41.4685 75.5324 37.3573 75.6891 35.2204 77.9506C34.3555 78.8665 33.7757 80.4115 33.4751 81.9869C33.3801 82.4856 33.5119 83.4036 32.8797 83.3609C32.5249 83.3365 32.4609 83.0739 32.5617 82.3615C32.7653 80.9305 33.0737 79.8619 33.5934 78.8238C35.2553 75.4958 39.4788 74.7691 43.5434 73.9549C44.1445 73.8409 45.6513 73.3198 45.882 74.0017Z" fill="#91E0B0"/>
<path fill-rule="evenodd" clip-rule="evenodd" d="M18.3727 76.249C19.0476 77.7145 19.8988 79.1414 21.0682 80.3688C22.3519 81.7163 23.8024 83.1269 26.3408 82.9478C26.8256 82.9132 28.1075 82.3758 28.2044 83.0312C28.3169 83.8047 26.4747 83.9045 25.825 83.9045C23.562 83.9085 21.6887 82.3962 20.4341 80.951C19.4393 79.8029 18.6093 78.6773 17.8181 77.2057C17.6145 76.827 17.1587 76.1492 17.2635 75.7483C17.4089 75.1926 18.6539 75.2679 19.0476 75.2495C22.4392 75.0806 25.7494 75.4755 27.452 77.4133C28.3789 78.4677 28.8754 79.6482 29.2749 81.4069C29.4067 81.983 29.5793 82.7788 29.1158 82.8623C28.4817 82.9783 28.5457 82.1254 28.441 81.6552C28.1152 80.1836 27.5005 78.7262 26.6569 77.8692C24.9621 76.1472 21.4851 76.0373 18.3727 76.249Z" fill="#91E0B0"/>
<path fill-rule="evenodd" clip-rule="evenodd" d="M32.4296 75.2271C32.4296 75.2271 31.1691 69.7557 34.3319 67.9869C37.4948 66.216 40.9524 66.3646 40.9524 66.3646C40.9524 66.3646 40.838 71.8014 37.9001 73.44C34.9622 75.0745 32.4296 75.2271 32.4296 75.2271Z" fill="#91E0B1"/>
<path fill-rule="evenodd" clip-rule="evenodd" d="M32.5498 84.0484C32.5498 84.0484 32.8019 77.9277 36.3157 76.4743C39.8295 75.021 46.3064 73.9768 46.3064 73.9768C46.3064 73.9768 44.5689 82.6704 40.0021 84.3395C35.3519 86.0412 32.8252 84.4311 32.5498 84.0484Z" fill="#91E0B1"/>
<path fill-rule="evenodd" clip-rule="evenodd" d="M108.075 47.054C107.577 43.9662 105.938 42.4254 101.732 40.8948C97.5261 39.3641 92.4882 37.4406 92.494 30.4917C92.4998 23.5427 93.0564 15.3033 87.6966 15.5109C84.7511 15.6248 84.2081 17.7152 84.2081 17.7152C84.2081 17.7152 76.6842 14.8473 72.9883 17.1331C69.2923 19.4189 67.5354 22.4191 67.0409 25.7064C66.5465 28.9936 65.2298 35.2546 67.3977 36.7343C69.5657 38.2141 71.2837 36.6936 71.2837 36.6936C71.2837 36.6936 71.7918 38.1368 72.5519 37.9841C73.3121 37.8314 73.8201 37.5689 73.8201 37.5689C73.8201 37.5689 74.8266 39.8771 73.3838 40.1498C71.9411 40.4226 62.0806 39.7773 59.9844 43.437C57.8882 47.0967 55.7416 54.9637 55.7416 54.9637L53.6415 66.4069L60.7368 68.9878L64.3455 59.9159L65.2977 61.4567C65.2977 61.4567 64.5298 61.6196 64.9001 62.2892C65.2705 62.9568 65.9705 63.7873 65.9705 63.7873C65.9705 63.7873 64.809 64.174 65.1774 65.2447C65.5458 66.3133 66.1722 66.0365 67.0002 65.7434C67.8282 65.4503 68.3886 66.242 68.3886 66.242C68.3886 66.242 66.0074 67.7177 66.6434 68.4057C67.2814 69.0937 68.4798 68.019 69.0227 68.363C69.5657 68.709 70.0136 69.1548 70.0136 69.1548L67.7545 75.3547C67.7545 75.3547 43.9652 77.6588 41.4308 79.3502C40.1684 80.1929 38.1245 82.0533 37.3876 87.3821C36.3095 95.1737 35.2876 105.609 35.2876 105.609L69.5812 105.86L67.1631 97.0382C67.1631 97.0382 79.75 96.8285 84.1712 96.8713C88.5925 96.916 93.896 97.832 96.223 95.4566C98.5499 93.0792 100.956 87.9194 98.8389 82.9733C96.7233 78.0272 92.8527 70.5307 92.8527 70.5307L94.5185 58.2957C94.5185 58.2957 98.3677 59.6656 101.013 56.9279C103.586 54.2655 103.219 50.3209 104.35 49.7225C105.467 49.1261 108.573 50.1418 108.075 47.054ZM81.3944 39.8974C79.4786 38.7596 80.1262 34.1962 80.1262 34.1962C80.1262 34.1962 81.8501 34.3224 82.585 34.3203C83.32 34.3203 84.21 33.9865 84.21 33.9865L86.153 41.4362C86.1511 41.4362 83.3103 41.0332 81.3944 39.8974Z" fill="white"/>
<path fill-rule="evenodd" clip-rule="evenodd" d="M65.259 61.5771L64.4271 60.1625L62.8021 64.4491L54.7935 64.9905L55.0708 61.7033L59.3524 47.5123C59.3524 47.5123 58.313 45.4707 67.4405 46.1811C76.568 46.8894 83.4558 46.0549 88.0167 47.4288C92.5775 48.8027 94.9142 50.1746 94.9142 50.1746C94.9142 50.1746 93.6169 74.8909 89.5234 76.6821C85.4279 78.4733 80.4443 74.3515 80.4443 74.3515C80.4443 74.3515 81.8153 73.0305 82.0305 71.8133C82.1333 71.2332 82.0286 70.2379 81.8929 69.3586C81.8715 69.2181 88.992 70.2399 88.9688 70.1076C88.9067 69.7453 87.2798 69.1673 85.5675 68.6523C85.4589 68.6197 86.1047 52.7026 85.9961 52.6721C85.3465 52.4808 83.9445 68.1882 83.3783 68.0376C83.2736 68.0091 83.1708 67.9826 83.0699 67.9562C82.1818 67.7221 81.5555 67.5715 81.5555 67.5715C81.5555 67.5715 78.8543 67.1888 76.0445 65.1167C73.2347 63.0447 67.6984 58.3163 66.9654 58.9575C66.2324 59.5987 67.7585 61.3288 67.7585 61.3288L65.259 61.5771Z" fill="#B3FFD1"/>
<path fill-rule="evenodd" clip-rule="evenodd" d="M73.4653 34.2777C73.4653 34.2777 73.9268 36.3966 73.8221 37.0663C73.7174 37.7339 73.3858 37.8581 73.3858 37.8581C73.3858 37.8581 72.6683 38.7353 71.9586 37.8988C71.2488 37.0642 71.1267 36.7752 71.1267 36.7752C71.1267 36.7752 68.3363 39.1058 66.6861 35.7351C65.0359 32.3644 67.07 22.6289 68.8657 20.2963C74.2817 13.2659 83.8513 18.1734 83.8513 18.1734C83.8513 18.1734 85.7071 15.1365 87.9351 15.5517C90.1632 15.967 91.3286 16.197 91.9801 19.6307C92.6297 23.0645 91.7377 34.7683 94.8345 37.0663C97.9313 39.3643 107.487 42.7574 107.918 44.8478C108.346 46.9402 108.37 48.2734 107.125 49.0916C105.88 49.9119 104.585 49.2972 103.952 50.1317C103.32 50.9663 102.744 57.5305 99.1957 58.3712C95.647 59.2118 94.4778 58.3712 94.4778 58.3712C94.4778 58.3712 95.2224 49.7389 94.7958 48.0515C94.3672 46.3641 93.8747 43.7669 91.4256 43.0993C88.9764 42.4317 86.153 41.7681 86.153 41.7681L84.2895 33.8625C84.2895 33.8625 83.702 34.0823 82.2282 34.2777C80.7545 34.4731 80.1669 34.5281 80.1669 34.5281L80.3647 32.7797C80.3647 32.7797 81.8404 33.8788 82.9419 32.739C84.0433 31.5971 84.2779 29.6634 83.3374 29.5759C82.3969 29.4884 81.7919 29.3683 81.7919 29.3683C81.7919 29.3683 79.5677 26.1706 78.1056 24.0415C76.6435 21.9125 75.6468 19.6307 75.6468 19.6307C75.6468 19.6307 71.8364 20.679 70.4926 24.125C69.1487 27.571 68.8928 31.0923 70.2541 32.4479C71.6153 33.8035 73.4653 34.2777 73.4653 34.2777Z" fill="#2AAF8F"/>
<path fill-rule="evenodd" clip-rule="evenodd" d="M67.6365 75.1432L69.5795 69.0674C69.5795 69.0674 71.6059 71.3695 73.1475 71.7725C74.6891 72.1756 74.7861 71.4937 76.3975 72.5216C78.0089 73.5495 85.684 77.5349 87.9741 77.2662C91.5072 76.8509 92.9306 71.0235 92.9306 71.0235C92.9306 71.0235 98.2845 79.8573 99.1145 84.1744C100.229 89.9652 98.0208 95.2818 94.5148 96.4501C91.0108 97.6185 67.3979 97.1992 67.3979 97.1992L69.5388 106.104H37.3472C37.3472 106.104 39.3445 84.7993 40.7174 82.426C42.6585 79.0675 45.6738 78.7236 45.6738 78.7236L67.6365 75.1432Z" fill="#353535"/>
<path d="M14.9059 8.36911C14.7896 8.36911 14.6732 8.32229 14.584 8.22866L10.5098 3.95004C10.3314 3.76278 10.3314 3.45949 10.5098 3.27426C10.6882 3.08699 10.9771 3.08699 11.1536 3.27426L15.2278 7.55287C15.4062 7.74014 15.4062 8.04343 15.2278 8.22866C15.1386 8.32229 15.0223 8.36911 14.9059 8.36911Z" fill="#2AAF8F"/>
<path d="M10.8297 8.36911C10.7134 8.36911 10.597 8.32229 10.5078 8.22866C10.3294 8.04139 10.3294 7.7381 10.5078 7.55287L14.5821 3.27426C14.7605 3.08699 15.0494 3.08699 15.2259 3.27426C15.4043 3.46152 15.4043 3.76481 15.2259 3.95004L11.1517 8.22866C11.0644 8.32229 10.948 8.36911 10.8297 8.36911Z" fill="#2AAF8F"/>
<path fill-rule="evenodd" clip-rule="evenodd" d="M94.7265 59.0101C94.3212 62.1487 93.945 65.5642 93.497 68.7883C93.4369 69.2279 93.2624 69.8121 93.2992 70.1195C93.3419 70.4716 93.848 71.1311 94.0516 71.4913C95.8337 74.6341 97.6099 77.8276 98.8878 81.4772C99.6402 83.6266 100.263 86.0305 99.9582 88.8007C99.7003 91.1394 98.7773 93.1585 97.4606 94.7503C96.1459 96.3399 94.5655 97.4798 92.0291 97.663C90.7958 97.7525 89.4636 97.6365 88.0655 97.6223C81.3328 97.549 74.5109 97.6141 67.9276 97.8726C68.5365 100.187 69.2365 102.517 69.9501 104.946C70.1208 105.526 70.3632 106.407 69.5138 106.277C69.1066 106.216 68.9903 105.294 68.839 104.779C67.8694 101.449 66.9386 98.2492 65.9458 94.8337C65.8488 94.4999 65.4339 93.4354 66.1436 93.3784C66.8106 93.3255 66.8708 94.4694 67.0162 94.9599C67.2276 95.6805 67.4157 96.2259 67.6115 96.8325C74.7902 96.6534 82.8279 96.228 90.2858 96.5822C93.0723 96.7145 94.6275 96.1242 96.1129 94.7095C97.4645 93.4211 98.3914 91.5933 98.8083 89.4663C99.2543 87.1927 98.7967 84.5853 98.1354 82.5173C96.8498 78.4994 94.8098 75.1572 93.022 71.7417C92.5507 73.1624 92.1144 74.4346 91.3174 75.5276C90.5864 76.529 89.4772 77.4877 87.988 77.6078C86.6092 77.7198 85.2325 77.329 84.0632 76.8588C81.3057 75.7515 78.9302 74.345 76.1359 73.1136C75.5794 72.8693 74.9996 72.5152 74.511 72.4053C74.2899 72.3564 74.0165 72.4134 73.7973 72.3646C72.9655 72.1732 72.1976 71.6827 71.6178 71.241C70.9972 70.7667 70.5513 70.0991 69.9928 69.576C69.5293 71.3773 69.0794 73.193 68.6043 74.9862C69.285 75.0798 70.4679 74.6727 70.3884 75.5683C70.3321 76.2095 69.4944 76.0405 68.8428 76.067C64.41 76.2522 59.7425 76.4598 55.5229 76.816C50.6421 77.2292 45.3017 77.4653 42.0847 79.5211C38.6757 81.699 37.9641 86.3643 37.4463 91.463C37.01 95.7659 36.5446 100.238 36.0599 104.736C35.9784 105.495 36.087 106.177 35.4645 106.193C34.8304 106.21 34.9603 105.387 35.0282 104.736C35.4742 100.521 35.9551 96.0489 36.3759 91.7541C36.8588 86.8161 37.6344 82.0451 40.3802 79.5211C43.223 76.9076 47.7994 76.411 52.6685 75.9835C57.464 75.5642 62.3118 75.2101 67.4544 75.0676C68.1196 73.1299 68.5171 70.9112 69.1202 68.9104C68.3212 68.9959 67.4331 69.4518 66.7021 69.0773C65.2574 68.3364 66.6555 66.4129 67.8113 66.1239C67.0996 65.9326 66.5624 66.5371 65.8682 66.5391C64.3887 66.5473 64.1327 64.3877 65.2729 63.7526C64.9122 63.4473 64.5457 63.2641 64.4798 62.7125C64.4158 62.1731 64.9394 61.5462 64.441 61.2144C64.2006 61.7945 63.9698 62.3991 63.7274 63.087C63.5393 63.6203 63.3512 64.6747 62.7753 64.7093C62.6435 64.7174 62.3002 64.4691 62.2595 64.2106C62.2032 63.8544 62.4786 63.5247 62.6163 63.1705C62.9847 62.224 63.39 60.9702 63.7662 60.1336C63.4172 59.6899 63.0778 59.3133 62.8141 58.8024C61.5032 56.2602 62.0462 51.6642 63.6072 49.6491C63.8922 49.2827 64.2762 48.9041 64.7571 48.5255C64.8754 48.4319 65.9652 47.5506 66.1436 48.3586C66.2657 48.9082 65.6142 49.1972 65.271 49.4822C64.1346 50.4246 63.5587 51.5746 63.2504 53.3923C62.816 55.9549 63.2155 58.4157 64.7959 59.5087C64.9879 60.097 65.3194 60.5407 65.5483 61.0903C65.8682 61.0109 66.161 60.901 66.5779 60.9234C66.6322 60.732 66.3763 60.6689 66.2599 60.5081C65.7635 59.8039 66.0389 58.5216 66.9735 58.3872C67.7628 58.2732 68.7323 58.9246 69.2326 59.2604C71.0787 60.5041 72.8162 62.0184 74.5846 63.256C77.2316 65.1082 79.6846 66.6633 82.8686 67.3757C83.5997 62.8937 84.2706 58.2203 84.9687 53.5612C85.0502 53.0137 85.0443 52.0041 85.7618 52.1466C86.3125 52.2565 86.0449 53.3332 85.9596 53.895C85.2809 58.4177 84.5945 63.1115 83.8983 67.5853C84.4665 67.9253 85.7734 67.565 85.7211 68.4585C85.6784 69.2055 84.7127 68.8656 84.1349 68.7496C83.429 68.6071 82.8609 68.5155 82.3121 68.3344C83.2817 70.5265 82.4808 73.1665 81.0827 74.284C82.2462 74.86 83.3243 75.4218 84.61 75.9062C85.8103 76.3581 87.476 76.8588 88.8121 76.2807C91.0227 75.3241 91.8837 72.4093 92.3394 69.4152C93.2682 63.3089 93.9993 56.938 94.2824 50.274C92 48.9591 89.4694 48.0431 86.5123 47.5689C83.5842 47.1007 80.2702 47.0885 76.7603 46.9867C73.5356 46.8931 70.0587 46.6163 66.8902 46.4881C64.4798 46.3904 61.7107 46.2499 59.9539 47.1537C59.3954 47.4406 58.6314 47.8233 58.4084 48.2345C58.2494 48.5276 58.1776 49.0242 58.0516 49.4415C57.4466 51.4382 56.9676 53.319 56.2676 55.3096C56.095 55.8002 55.6955 57.2799 55.1584 57.2229C55.0168 57.2087 54.7551 56.8912 54.7221 56.765C54.6038 56.3151 55.0808 55.6251 55.2767 55.1C55.5307 54.4202 55.6761 53.8787 55.8313 53.3943C56.2443 52.1018 56.5934 50.7686 56.861 49.8587C57.5474 47.5343 58.1543 45.0042 59.438 43.3677C61.4955 40.7461 65.0577 40.0276 69.3083 39.8729C71.0089 39.8118 73.8187 40.4652 73.5104 38.4155C72.5311 38.961 71.1291 38.3382 70.974 37.2513C70.0607 37.7744 68.5055 38.3728 67.3672 37.7092C65.0189 36.3394 65.587 30.7623 66.1378 27.6399C66.6768 24.5827 67.1597 21.7596 68.7536 19.8178C70.3689 17.8495 72.5873 16.6181 75.2556 16.0726C78.2477 15.4599 81.2999 16.0644 83.6191 17.4465C84.6003 16.4756 85.5272 15.236 87.2646 15.0752C89.5121 14.8676 91.0285 16.0563 91.9031 17.4465C94.6644 21.843 91.7576 31.9734 94.837 36.0463C96.7974 38.6374 100.678 39.5391 103.757 41.1634C105.82 42.2523 108.706 43.6303 108.593 46.946C108.535 48.7108 107.686 50.1702 105.739 50.1905C105.19 50.1966 104.564 50.0928 104.273 50.274C103.961 50.4673 103.836 51.481 103.757 51.9797C103.036 56.4882 100.901 59.3276 95.632 59.0955C95.347 59.0793 95.1298 59.0223 94.7265 59.0101ZM102.615 52.6839C102.91 51.3812 102.875 49.8384 103.765 49.3132C104.467 48.898 105.683 49.3601 106.54 48.9794C107.589 48.5154 107.763 46.7303 107.412 45.6515C106.959 44.2532 105.285 43.1825 104.122 42.5312C103.008 41.9063 101.612 41.2957 100.435 40.7827C97.9823 39.7141 95.3567 38.6903 93.8539 36.4961C92.3413 34.2856 92.2288 30.8335 92.2288 27.0089C92.2288 23.2678 92.351 19.3028 90.6426 17.4383C89.9969 16.732 88.7597 15.9952 87.3519 16.1479C86.0449 16.2904 85.2751 17.1839 84.577 18.0612C86.6868 19.4921 88.2769 21.8797 88.5813 25.2585C88.942 29.2886 87.3519 32.8283 84.577 34.1208C85.2615 36.4269 85.8568 38.8247 86.52 41.1532C90.1598 41.8127 93.2314 42.9586 94.6469 45.8958C95.409 47.4793 95.3392 49.5575 95.2403 51.7212C95.1434 53.8991 95.0503 55.9834 94.804 57.9211C99.6654 58.5358 101.766 56.4271 102.615 52.6839ZM85.6881 32.0466C87.6214 30.0173 88.1857 25.6737 86.8768 22.476C85.4826 19.0687 81.5946 16.6262 76.8864 16.9417C72.5912 17.2307 69.0639 19.5939 68.0459 23.6403C67.532 25.688 67.0724 27.7682 66.8165 30.2555C66.6865 31.5195 66.6187 32.6268 66.7777 34.0007C66.8863 34.9512 67.1073 36.372 67.9276 36.7892C68.6586 37.1597 69.5157 36.7567 70.0277 36.4982C70.3961 36.3129 70.8072 36.03 71.2552 36.1236C71.9494 36.2681 71.7903 37.3856 72.4438 37.5383C72.8607 37.636 73.3262 37.3367 73.396 37.0396C73.4638 36.7465 73.3009 36.2234 73.2369 35.8326C73.1652 35.3888 73.0644 34.9756 73.0392 34.6256C70.6249 34.1716 69.126 32.413 68.9553 29.7568C68.8564 28.2119 69.2093 26.7423 69.6301 25.5964C69.7601 25.2442 70.0936 24.7618 70.1052 24.4728C70.113 24.2632 69.8008 24.0678 69.8279 23.7645C69.8473 23.5365 70.1983 23.1111 70.4233 22.8078C71.7962 20.9474 73.3223 19.5389 75.6958 18.855C76.0351 18.7573 76.6266 18.5273 76.9252 18.6474C77.6407 18.9364 77.0241 19.9623 76.2911 19.7709C77.9491 23.0521 79.8552 26.0727 81.9204 28.9243C83.5086 28.6007 84.3831 29.6001 84.2202 31.1287C84.0573 32.6614 82.7988 33.5061 81.168 33.5C81.0342 33.5 80.7802 33.3819 80.6522 33.5834C82.8861 33.7666 84.6158 33.1722 85.6881 32.0466ZM73.7954 20.8945C74.6409 21.4013 75.3099 22.5371 75.3021 23.7665C75.2905 25.6635 73.6112 26.9051 72.566 27.76C73.1536 28.2099 73.1148 29.0444 72.4865 29.0505C72.1976 29.0525 71.8776 28.5722 71.7729 28.4256C71.5712 28.1447 71.2959 27.8252 71.3366 27.469C71.3928 26.9947 71.9222 26.899 72.3275 26.5958C73.1167 26.0055 74.0785 25.1547 74.2298 24.141C74.3539 23.3167 73.9486 22.0099 73.3572 21.9774C72.9189 21.9529 72.8336 22.4781 72.3663 22.5188C71.2629 24.487 69.7698 26.5754 69.9889 29.7181C70.1576 32.1383 71.6604 33.5773 74.0708 33.6302C74.6816 33.6424 76.3434 33.1214 76.3299 34.0047C76.3163 34.9431 74.604 34.5075 74.0708 34.7538C74.3481 36.5307 75.1935 39.5839 73.6752 40.5385C73.2195 40.8234 72.6145 40.9211 72.0502 40.9537C70.495 41.0433 68.9922 40.915 67.5708 41.0372C63.3861 41.3954 59.9907 42.7836 59.0483 46.4453C61.1988 44.9859 64.6253 45.2729 67.7686 45.4459C70.877 45.6169 74.1619 45.9039 77.282 45.9039C80.561 45.9039 83.78 46.0138 86.6771 46.486C89.5781 46.9603 92.0892 47.8884 94.2494 48.9835C94.135 45.104 91.6219 43.5306 88.3835 42.6594C85.0036 41.7516 81.2204 41.9205 80.0588 38.8735C79.6981 37.925 79.5411 36.7546 79.543 35.2545C79.545 34.2795 79.5198 32.4334 80.1771 32.2991C80.4486 32.2441 80.7511 32.4008 81.0497 32.4232C82.6321 32.5413 83.6927 31.4035 82.9132 30.0092C82.1705 29.6957 80.9489 30.6727 80.6929 29.885C80.5843 29.5471 80.8035 29.4291 80.8112 29.1767C80.1131 28.1936 79.0563 26.6935 78.3543 25.5557C78.1022 25.1486 77.8637 24.5379 77.4429 24.4321C76.9775 24.314 76.07 24.829 76.134 23.9334C76.165 23.5039 76.6479 23.3737 77.0066 23.3513C76.4326 22.2623 75.8606 21.1693 75.2226 20.1475C74.6855 20.3307 74.2356 20.6075 73.7954 20.8945ZM80.6134 34.7517C80.5766 36.5857 80.6716 38.5336 81.645 39.5371C82.5331 40.455 83.8809 40.5975 85.3721 40.9089C84.7574 38.7534 84.2609 36.4717 83.5493 34.4179C82.6999 34.6663 81.7304 34.7843 80.6134 34.7517ZM67.0181 59.5922C67.1267 60.042 67.5592 60.2293 67.8907 60.5081C68.1991 60.7666 68.457 61.1534 68.8021 61.3834C69.3063 61.7192 69.8532 61.88 70.4271 62.2566C70.7646 62.4784 71.7109 62.9629 71.6953 63.5043C71.6876 63.7872 71.451 63.9928 71.2202 64.003C70.9352 64.0172 70.5861 63.6468 70.2681 63.4208C69.4052 62.8061 68.1991 62.0958 67.0181 62.0062C66.3084 61.9533 65.6937 62.0001 65.5114 62.5476C65.9167 63.0728 66.6691 62.9262 67.2954 62.8815C68.3193 62.8061 69.2113 63.1746 69.9908 63.6305C70.3748 63.8544 71.4898 64.5078 71.4568 65.0879C71.4452 65.3036 71.3133 65.5092 71.0612 65.5458C70.5532 65.6191 69.9327 64.8579 69.5545 64.6299C68.9088 64.2411 67.9528 63.7913 67.0181 64.005C66.4092 64.1455 65.6472 64.4671 65.591 65.2955C66.2076 65.6089 66.6652 65.0695 67.2566 65.0044C67.4641 64.982 67.6658 64.9841 67.8113 65.0044C68.5113 65.1021 68.7925 65.6904 69.2773 65.8776C69.4712 65.9529 69.795 65.9204 70.0316 66.0018C70.5687 66.187 71.7264 66.9055 71.6953 67.5406C71.6837 67.7868 71.5072 68.0331 71.2202 68.0392C70.8014 68.0494 70.4698 67.4347 70.0703 67.2068C69.7659 67.0337 69.3315 66.9116 68.8817 66.9564C68.0924 67.0358 67.3187 67.51 67.1384 68.1207C67.9838 68.2428 68.4841 67.7176 69.318 67.8296C70.3981 67.9741 70.9721 69.118 71.6973 69.8691C72.4051 70.6039 73.1478 70.9845 74.0747 71.3265C74.8174 71.2756 75.3351 71.5972 75.9769 71.8679C77.4158 72.4724 78.8022 73.1543 80.0995 73.7812C80.7588 73.0892 81.647 72.2526 81.7246 70.9092C81.7905 69.7938 81.3949 68.8432 81.0497 67.9558C76.9271 66.5676 73.8129 64.0966 70.6249 61.6317C69.6205 60.8542 68.3096 59.7326 67.1364 59.468C67.0453 59.4538 67.0918 59.5881 67.0181 59.5922Z" fill="black"/>
<path fill-rule="evenodd" clip-rule="evenodd" d="M72.766 23.7667C73.0142 23.7158 73.305 23.8155 73.3613 24.1412C73.4485 24.6562 72.7563 25.9161 72.3704 25.9304C71.2844 25.9691 72.3103 23.8603 72.766 23.7667Z" fill="black"/>
<path fill-rule="evenodd" clip-rule="evenodd" d="M76.8086 25.5556C77.148 25.4599 77.5184 25.6125 77.4427 26.1804C77.3962 26.5244 76.6826 27.5361 76.3723 27.5524C75.1836 27.6175 76.3607 25.6818 76.8086 25.5556Z" fill="black"/>
<path fill-rule="evenodd" clip-rule="evenodd" d="M75.8181 30.0904C76.0896 30.0314 76.425 30.1739 76.4522 30.5056C76.5045 31.1346 75.3371 31.7717 74.7864 31.8368C74.0398 31.9244 72.981 31.6313 72.9635 31.0471C72.9597 30.8985 73.0256 30.583 73.2797 30.5056C73.7548 30.3611 74.096 30.8293 74.6681 30.754C75.1277 30.697 75.3992 30.184 75.8181 30.0904Z" fill="black"/>
<path fill-rule="evenodd" clip-rule="evenodd" d="M74.7868 77.6917C75.578 77.653 77.4125 77.3212 77.4028 78.1904C77.397 78.7359 76.823 78.7318 76.1733 78.7318C72.1437 78.7318 68.1296 78.9191 64.4393 79.2305C57.8596 79.7862 52.1371 80.7449 50.4461 86.4707C49.8934 88.3434 49.7732 90.5255 49.812 93.1289C49.8605 96.4101 50.0834 100.261 50.2871 103.616C50.3123 104.029 50.3298 104.693 50.3666 105.364C50.4034 106.022 50.4655 106.602 49.9303 106.612C49.2167 106.626 49.3252 104.788 49.2573 103.699C49.0402 100.245 48.8908 96.7602 48.7822 93.4627C48.7027 91.0526 48.8113 88.6467 49.2573 86.8046C50.6497 81.0726 55.3949 79.0819 61.7438 78.4C65.8801 77.9563 70.0882 77.6917 74.7073 77.6937C74.7345 77.6917 74.7616 77.6937 74.7868 77.6917Z" fill="black"/>
<path fill-rule="evenodd" clip-rule="evenodd" d="M41.8644 74.8939H73.8786C74.1287 74.8939 74.3323 75.1727 74.3323 75.5147L74.1229 77.1777C73.9367 78.0204 73.5101 78.7308 72.8954 78.7308H42.8611C42.2464 78.7308 41.7616 78.0245 41.5658 77.1472L41.4067 75.5147C41.4106 75.1727 41.6143 74.8939 41.8644 74.8939Z" fill="#F5F5F5"/>
<path d="M72.8965 79.2083H42.8622C42.071 79.2083 41.3884 78.4409 41.1228 77.2563C41.1131 77.1952 40.9521 75.516 40.9521 75.516C40.9521 74.8992 41.3516 74.4168 41.8636 74.4168H73.8777C74.3877 74.4168 74.7891 74.8992 74.7891 75.516C74.7852 75.5791 74.568 77.2868 74.568 77.2868C74.3024 78.4898 73.678 79.2083 72.8965 79.2083ZM42.0187 77.067C42.1797 77.755 42.5326 78.2537 42.8642 78.2537H72.8984C73.2067 78.2537 73.519 77.7876 73.676 77.0935L73.8777 75.4915C73.8738 75.4345 73.8563 75.3938 73.8428 75.3735H41.9004C41.8868 75.3958 41.8694 75.4386 41.8655 75.4976L42.0187 77.067Z" fill="black"/>
<path fill-rule="evenodd" clip-rule="evenodd" d="M36.3104 55.561L58.5801 55.5691C59.3072 55.5691 60.1237 56.2632 60.4049 57.1181L65.9587 74.0148C66.2399 74.8697 65.28 76.4615 64.5528 76.4615L42.2811 76.4533C41.5539 76.4533 40.7375 75.7592 40.4564 74.9043L34.9006 58.0015C34.6194 57.1466 35.5832 55.561 36.3104 55.561Z" fill="#F5F5F5"/>
<path d="M64.5521 76.9411L42.2804 76.933C41.3593 76.933 40.3684 76.1106 40.0252 75.0603L34.4694 58.1576C34.2387 57.4533 34.5722 56.5902 34.9619 56.0162C35.3653 55.4218 35.8559 55.0819 36.3117 55.0819L58.5813 55.0901C59.5024 55.0901 60.4934 55.9124 60.8386 56.9607L66.3924 73.8573C66.6251 74.5657 66.2721 75.4592 65.8979 76.0088C65.4926 76.6032 65.0039 76.9411 64.5521 76.9411ZM36.3097 56.0386C36.2089 56.0386 35.9529 56.2035 35.7027 56.5719C35.3983 57.0197 35.2393 57.5673 35.3304 57.8461L40.8862 74.7489C41.1014 75.4023 41.753 75.9763 42.2804 75.9763L64.5521 75.9844C64.6452 75.9844 64.8915 75.8419 65.1533 75.4572C65.4597 75.0053 65.6206 74.4537 65.5275 74.1728L59.9736 57.2762C59.7584 56.6228 59.1068 56.0508 58.5794 56.0508L36.3097 56.0386Z" fill="black"/>
<path fill-rule="evenodd" clip-rule="evenodd" d="M47.7586 66.0101C46.5428 66.0304 45.9785 67.1214 46.5001 68.4466C47.0198 69.7717 48.4277 70.8301 49.6436 70.8098C50.8594 70.7894 51.4237 69.6984 50.9021 68.3733C50.3805 67.0482 48.9745 65.9897 47.7586 66.0101Z" fill="#D6D6D6"/>
<path fill-rule="evenodd" clip-rule="evenodd" d="M31.2387 65.4257C31.611 65.0716 31.4365 63.4371 32.2296 63.5531C33.0034 63.6671 32.1424 65.6069 31.9911 66.0913C31.7662 66.8098 31.4016 67.5609 31.3163 68.1715C31.1592 69.2931 31.359 70.6527 31.3958 71.874C31.4501 73.6794 31.4346 75.0859 31.4753 76.7428C31.6459 76.3479 31.7216 75.9469 31.8709 75.4116C31.9368 75.1755 32.0221 74.286 32.5457 74.3715C33.0615 74.4549 32.7396 75.3607 32.664 75.6619C32.3945 76.7305 32.1792 77.5121 31.9116 78.4912C31.7933 78.9247 31.5877 79.3949 31.5141 79.8631C31.3667 80.8197 31.4714 81.9555 31.5141 82.8999C31.5587 83.9177 31.5626 84.9231 31.5548 85.8533C31.8244 85.4747 32.0338 85.0025 32.2684 84.4794C32.441 84.0947 32.6271 83.189 33.141 83.2724C33.7693 83.3742 33.2283 84.3777 33.0615 84.7705C32.6252 85.7943 32.0725 87.0176 31.516 87.7666C31.5296 89.4357 31.4772 91.1027 31.4772 92.8837C31.4772 93.4618 31.4578 94.1213 31.0816 94.1742C30.5173 94.2515 30.6066 93.2969 30.6066 92.7596C30.6066 91.288 30.6473 90.4351 30.6473 88.9737C30.6473 88.3488 30.7559 87.5712 30.6473 87.1011C30.5658 86.7449 30.1199 86.3052 29.8542 85.9368C29.2686 85.1226 28.8187 84.4794 28.2679 83.6897C28.0236 83.3396 27.6106 82.9203 27.8724 82.3178C28.3727 81.8293 28.6306 82.5478 28.902 82.9406C29.4605 83.7467 30.1839 84.7583 30.6861 85.3954C30.6551 84.3573 30.7288 83.3925 30.6861 82.442C30.6415 81.4792 30.7597 80.5205 30.6473 79.57C30.5484 78.7354 30.1063 77.7482 29.8542 76.9076C29.5866 76.0141 29.2123 75.1103 29.2608 74.1618C30.2071 73.3945 30.275 75.4014 30.5697 76.0344C30.5988 73.8809 30.5348 71.4669 30.4514 69.2931C30.1256 68.7761 29.858 68.1715 29.5788 67.5874C29.319 67.0439 28.8749 66.4211 29.063 65.7148C29.9317 65.1571 29.9822 66.6551 30.4107 67.0866C30.4107 63.0768 30.0229 59.0345 30.0927 55.2282C30.9362 54.4547 30.8936 56.6388 30.9246 57.3491C31.0409 59.9708 31.1301 63.1684 31.2387 65.4257Z" fill="#91E0B1"/>
</svg>
