<svg width="131" height="106" viewBox="0 0 131 106" fill="none" xmlns="http://www.w3.org/2000/svg">
<path d="M25.9513 49.348C25.5421 49.1989 25.3432 48.7694 25.4739 48.3757C25.6046 47.9821 26.0137 47.7733 26.3888 47.9105L25.9513 49.348Z" fill="#B2FFD5"/>
<path d="M23.1535 48.1271C23.055 48.1271 22.9565 48.1052 22.8618 48.0615C22.4679 47.8845 22.2974 47.4412 22.4527 47.0575C22.608 46.6738 23.0304 46.4948 23.396 46.6598C23.8108 46.8527 23.9737 47.3 23.8108 47.6798C23.6914 47.9621 23.4301 48.1271 23.1535 48.1271ZM20.1987 46.6479C20.0889 46.6479 19.9752 46.6201 19.871 46.5644C19.4771 46.3497 19.3388 45.8924 19.5225 45.5226C19.7062 45.1528 20.14 45.0097 20.4923 45.2025C20.8806 45.4133 21.0208 45.8666 20.8389 46.2383C20.712 46.4968 20.4601 46.6479 20.1987 46.6479ZM17.3387 44.9739C17.2118 44.9739 17.0848 44.9401 16.9693 44.8665C16.5905 44.6279 16.4806 44.1647 16.6852 43.8068C16.8897 43.449 17.331 43.3336 17.672 43.5484C18.0508 43.7869 18.1607 44.2502 17.9561 44.6081C17.8197 44.8427 17.583 44.9739 17.3387 44.9739ZM14.5941 43.101C14.452 43.101 14.3081 43.0573 14.1812 42.9638C13.8175 42.6915 13.7418 42.2203 13.9728 41.8823C14.2039 41.5423 14.6528 41.4628 14.9748 41.7053C15.3309 41.9678 15.4104 42.439 15.1832 42.7809C15.043 42.9897 14.8195 43.101 14.5941 43.101ZM11.9954 41.0135C11.8344 41.0135 11.6715 40.9578 11.5389 40.8405C11.1942 40.5323 11.1582 40.0552 11.4158 39.7391C11.6734 39.4229 12.128 39.3852 12.4291 39.6556C12.7606 39.9418 12.8042 40.417 12.5504 40.7391C12.4083 40.92 12.2037 41.0135 11.9954 41.0135ZM9.59178 38.6893C9.40616 38.6893 9.22055 38.6138 9.07849 38.4627C8.76975 38.1326 8.77352 37.6535 9.05574 37.3632C9.33985 37.0709 9.79446 37.0749 10.0729 37.3731C10.3816 37.7032 10.3778 38.1803 10.0956 38.4726C9.95543 38.6177 9.77362 38.6893 9.59178 38.6893ZM7.44012 36.1087C7.22608 36.1087 7.01395 36.0093 6.87378 35.8184C6.60103 35.4387 6.6635 34.9655 6.97982 34.715C7.29613 34.4645 7.74694 34.5301 7.98749 34.8641C8.25077 35.218 8.19583 35.6932 7.8833 35.9496C7.75072 36.055 7.59543 36.1087 7.44012 36.1087ZM5.62177 33.2616C5.36985 33.2616 5.1274 33.1225 4.99481 32.8779C4.77888 32.4882 4.89253 32.027 5.23536 31.8162C5.57819 31.6055 6.01761 31.7268 6.21839 32.0866C6.44189 32.5002 6.31881 32.9614 5.97219 33.1662C5.86233 33.2298 5.74109 33.2616 5.62177 33.2616ZM4.22959 30.1601C3.93979 30.1601 3.66708 29.9752 3.55722 29.675C3.4019 29.2297 3.59509 28.7962 3.96822 28.6531C4.34136 28.5119 4.75425 28.7127 4.88873 29.1044C5.04215 29.5259 4.85655 29.9633 4.48531 30.1104C4.40197 30.1442 4.31482 30.1601 4.22959 30.1601ZM3.35264 26.8598C3.0136 26.8598 2.71244 26.6073 2.64615 26.2434C2.5647 25.7882 2.8223 25.3945 3.21248 25.317C3.60266 25.2414 3.97768 25.5098 4.05155 25.9194C4.133 26.3747 3.8754 26.7683 3.48522 26.8459C3.43976 26.8558 3.39621 26.8598 3.35264 26.8598ZM3.04009 23.4501C2.64801 23.4501 2.32605 23.1181 2.32227 22.7045C2.32227 22.2313 2.64422 21.8933 3.04009 21.8933C3.43785 21.8933 3.75985 22.2313 3.75985 22.6488C3.76554 23.1021 3.44733 23.4441 3.04957 23.4501C3.04578 23.4501 3.04198 23.4501 3.04009 23.4501ZM50.3944 22.6826C50.0743 22.6826 49.7826 22.456 49.6993 22.116C49.5875 21.6747 49.8167 21.2611 50.1993 21.1538C50.5819 21.0484 50.9759 21.287 51.0782 21.6886C51.1899 22.1439 50.957 22.5554 50.5725 22.6588C50.5137 22.6747 50.4531 22.6826 50.3944 22.6826ZM3.27875 20.0304C3.24465 20.0304 3.2087 20.0285 3.17271 20.0225C2.78063 19.9609 2.50785 19.5771 2.56657 19.1656C2.63854 18.6984 3.00981 18.418 3.39999 18.4856C3.79207 18.5532 4.05723 18.9409 3.99472 19.3525C3.936 19.762 3.62915 20.0304 3.27875 20.0304ZM49.3545 19.43C49.0704 19.43 48.8014 19.2531 48.6878 18.9608C48.5211 18.5314 48.6973 18.092 49.0648 17.9329C49.4322 17.7759 49.8527 17.9608 50.0023 18.3465C50.169 18.7759 49.9929 19.2153 49.6254 19.3724C49.5364 19.4121 49.4454 19.43 49.3545 19.43ZM4.00799 16.6864C3.93791 16.6864 3.86785 16.6764 3.79588 16.6526C3.41706 16.5293 3.20302 16.1078 3.32046 15.7102C3.44357 15.2748 3.84319 15.0461 4.2239 15.1634C4.60461 15.2807 4.82245 15.7002 4.71069 16.0999C4.59894 16.4776 4.31484 16.6864 4.00799 16.6864ZM47.932 16.3325C47.682 16.3325 47.4415 16.1953 47.3108 15.9488C47.0968 15.5491 47.2199 15.0879 47.5646 14.8851C47.9112 14.6823 48.3488 14.8095 48.5439 15.1714C48.7541 15.569 48.631 16.0342 48.2844 16.2351C48.1726 16.3007 48.0514 16.3325 47.932 16.3325ZM5.1918 13.4914C5.08194 13.4914 4.97209 13.4655 4.86792 13.4099C4.51372 13.221 4.37168 12.7677 4.55162 12.3959C4.74292 11.9883 5.17476 11.8333 5.53085 12.0182C5.88694 12.2031 6.03278 12.6544 5.85663 13.0282C5.707 13.3403 5.45319 13.4914 5.1918 13.4914ZM46.2085 13.4258C45.9793 13.4258 45.7538 13.3105 45.6156 13.0977C45.3656 12.724 45.4451 12.2548 45.7709 12.0142C46.0967 11.7756 46.5437 11.8571 46.7729 12.1991C47.0267 12.5868 46.9433 13.056 46.6176 13.2926C46.4907 13.382 46.3486 13.4258 46.2085 13.4258ZM44.2121 10.708C44.0075 10.708 43.803 10.6165 43.6609 10.4396C43.3787 10.0916 43.4127 9.61647 43.7158 9.3441C44.017 9.07371 44.4716 9.11148 44.7291 9.4276C45.0171 9.78745 44.9773 10.2626 44.6742 10.531C44.5397 10.6503 44.3769 10.708 44.2121 10.708ZM6.93815 10.5966C6.78284 10.5966 6.62751 10.5449 6.49681 10.4356C6.18429 10.1791 6.12938 9.70395 6.37372 9.37591C6.63131 9.01605 7.08399 8.95044 7.4003 9.20095C7.71661 9.45146 7.78101 9.92464 7.54236 10.2586C7.36242 10.4972 7.15029 10.5966 6.93815 10.5966ZM41.9922 8.18898C41.8085 8.18898 41.6247 8.11541 41.4846 7.96829C41.174 7.6482 41.1701 7.17104 41.4486 6.87282C41.727 6.57658 42.1816 6.57062 42.4657 6.86287C42.782 7.1949 42.782 7.67206 42.5017 7.96829C42.3596 8.11541 42.1759 8.18898 41.9922 8.18898ZM9.15613 8.07963C8.96104 8.07963 8.76788 7.99811 8.62582 7.83508C8.35686 7.52692 8.37769 7.04976 8.66938 6.76943C9.00274 6.4553 9.45729 6.47916 9.72246 6.78931C9.98764 7.09947 9.9649 7.57662 9.66942 7.85497C9.50274 8.01402 9.32849 8.07963 9.15613 8.07963ZM11.734 5.97218C11.501 5.97218 11.2719 5.85289 11.1336 5.63419C10.9139 5.28627 11.0048 4.81905 11.3362 4.58842C11.698 4.33394 12.1451 4.42539 12.3667 4.77133C12.5883 5.11727 12.5011 5.58648 12.1716 5.81909C12.0087 5.93242 11.8704 5.97218 11.734 5.97218ZM39.528 5.93639C39.3802 5.93639 39.2306 5.88868 39.1018 5.78927C38.7495 5.52087 38.6775 5.04769 38.9124 4.71169C39.1454 4.3737 39.5962 4.30014 39.9163 4.54468C40.2761 4.82302 40.3424 5.29621 40.1076 5.63022C39.9655 5.83102 39.7477 5.93639 39.528 5.93639ZM14.5752 4.28026C14.3081 4.28026 14.0505 4.12319 13.9255 3.85082C13.7531 3.47505 13.9046 3.02374 14.2626 2.84481C14.6547 2.644 15.0865 2.80107 15.2589 3.17484C15.4332 3.5506 15.2835 4.00192 14.9274 4.18284C14.7854 4.2564 14.6793 4.28026 14.5752 4.28026ZM36.7475 4.13711C36.6376 4.13711 36.524 4.10928 36.4198 4.05361C36.0296 3.84684 35.8875 3.39155 36.0675 3.01976C36.2474 2.64798 36.6793 2.49887 37.0335 2.68774C37.4293 2.90048 37.5695 3.35576 37.3876 3.72755C37.2588 3.988 37.0069 4.13711 36.7475 4.13711ZM17.6057 2.99591C17.3064 2.99591 17.0261 2.79709 16.9238 2.48296C16.7969 2.08732 16.9996 1.65986 17.3746 1.52666C17.8046 1.38152 18.2099 1.60022 18.3312 1.99785C18.4524 2.39548 18.244 2.81896 17.8652 2.9462C17.7591 2.98199 17.6815 2.99591 17.6057 2.99591ZM33.732 2.81697C33.66 2.81697 33.5862 2.80504 33.5123 2.78119C33.1051 2.64202 32.891 2.21456 33.0142 1.81693C33.1373 1.42129 33.5351 1.2006 33.912 1.32983C34.3287 1.47099 34.537 1.89447 34.4158 2.2921C34.3192 2.61418 34.0351 2.81697 33.732 2.81697ZM20.765 2.11515C20.4298 2.11515 20.1286 1.86663 20.0605 1.50876C19.9828 1.10119 20.2347 0.701573 20.6249 0.620058C21.0567 0.530591 21.4356 0.795016 21.5132 1.20259C21.5909 1.61016 21.339 2.00978 20.9488 2.0913C20.8579 2.10919 20.8105 2.11515 20.765 2.11515ZM30.5651 1.97399C30.5215 1.97399 30.478 1.97002 30.4325 1.96206C30.0045 1.88254 29.7431 1.49286 29.8113 1.08131C29.8794 0.67175 30.2526 0.395396 30.6428 0.468958C31.0841 0.554449 31.3417 0.948104 31.2697 1.35766C31.2072 1.71951 30.9041 1.97399 30.5651 1.97399ZM24.0021 1.64197C23.6289 1.64197 23.3145 1.33977 23.2861 0.94214C23.2577 0.526615 23.5532 0.16477 23.949 0.132959C24.3809 0.0951845 24.7294 0.403349 24.7635 0.818874C24.7976 1.2344 24.504 1.60022 24.1082 1.63402C24.0381 1.64197 24.0191 1.64197 24.0021 1.64197ZM27.3167 1.58829C26.8394 1.56443 26.5345 1.21054 26.5534 0.795016C26.5724 0.379491 26.9076 0.0613857 27.3073 0.0792791C27.7391 0.0971725 28.0498 0.447089 28.0346 0.862614C28.0195 1.2682 27.7012 1.58829 27.3167 1.58829Z" fill="#B2FFD5"/>
<path d="M50.9455 26.0744C50.8432 26.0744 50.739 26.0506 50.6386 26.0029C50.3829 25.8796 50.2068 25.6072 50.2068 25.311C50.1973 24.8934 50.5099 24.5475 50.9076 24.5355C51.1671 24.5256 51.4076 24.6707 51.5365 24.8914C51.6766 25.1062 51.7088 25.3905 51.5952 25.643C51.474 25.9134 51.2145 26.0744 50.9455 26.0744Z" fill="#B2FFD5"/>
<path d="M68.4262 72.1817C68.3467 72.1817 68.2671 72.1678 68.1876 72.14C67.8126 72.0028 67.6156 71.5714 67.7462 71.1777C67.8845 70.7483 68.2937 70.5355 68.6687 70.6687C69.0456 70.8019 69.2464 71.2294 69.1195 71.625C69.0001 71.9869 68.7217 72.1817 68.4262 72.1817ZM69.6006 69.0086C69.5059 69.0086 69.4093 68.9887 69.3165 68.947C68.9528 68.782 68.7842 68.3366 68.9414 67.9549C69.1233 67.5235 69.5494 67.3525 69.9112 67.5235C70.2748 67.6925 70.4378 68.1398 70.2749 68.5195C70.1423 68.8376 69.8771 69.0086 69.6006 69.0086ZM71.078 65.9807C70.9549 65.9807 70.8298 65.9469 70.7143 65.8773C70.3714 65.6665 70.2559 65.2053 70.4567 64.8454C70.6916 64.4398 71.1348 64.3265 71.4738 64.5432C71.8129 64.7599 71.9208 65.2252 71.7144 65.581C71.5647 65.8475 71.3242 65.9807 71.078 65.9807ZM72.9948 63.243C72.8186 63.243 72.6425 63.1754 72.5042 63.0402C72.2144 62.7559 72.1974 62.2787 72.4682 61.9745C72.7694 61.6365 73.224 61.6186 73.5138 61.9029C73.8036 62.1873 73.8206 62.6644 73.5497 62.9686C73.3793 63.1615 73.188 63.243 72.9948 63.243ZM75.5708 61.219C75.298 61.219 75.0385 61.056 74.9173 60.7796C74.7506 60.3999 74.9097 59.9526 75.2696 59.7796C75.6882 59.5887 76.1125 59.7657 76.2697 60.1474C76.4269 60.5291 76.2602 60.9745 75.8946 61.1395C75.7715 61.1972 75.6712 61.219 75.5708 61.219ZM78.7812 60.7657C78.3229 60.7538 78.0085 60.4079 78.0179 59.9903C78.0274 59.5808 78.3475 59.2547 78.7358 59.2547C79.1942 59.2666 79.5086 59.6126 79.4991 60.0301C79.4896 60.4417 79.1695 60.7657 78.7812 60.7657ZM81.9709 60.6842C81.5978 60.6842 81.2834 60.382 81.2549 59.9844C81.2265 59.5688 81.522 59.207 81.9179 59.1752C82.3459 59.1374 82.6964 59.4436 82.7305 59.8571C82.7645 60.2727 82.4728 60.6385 82.077 60.6743C82.0069 60.6822 81.988 60.6842 81.9709 60.6842ZM85.1719 60.1991C84.8405 60.1991 84.5431 59.9565 84.4692 59.6026C84.3859 59.1951 84.6321 58.7935 85.0204 58.706C85.4617 58.6125 85.8405 58.877 85.9182 59.2845C85.9977 59.6941 85.7458 60.0917 85.3556 60.1733C85.2723 60.1931 85.2212 60.1991 85.1719 60.1991ZM88.3256 59.4416C87.9979 59.4416 87.7024 59.205 87.6248 58.8571C87.5357 58.4515 87.7763 58.0459 88.1627 57.9525C88.5927 57.8491 88.9791 58.1036 89.0681 58.5092C89.1571 58.9147 88.9146 59.3203 88.5264 59.4118C88.4336 59.4337 88.3786 59.4416 88.3256 59.4416ZM104.439 58.9625C104.041 58.9625 103.719 58.6245 103.719 58.207C103.719 57.7894 104.041 57.4515 104.439 57.4515C104.876 57.4515 105.196 57.7835 105.202 58.197C105.208 58.6145 104.889 58.9565 104.492 58.9605L104.439 58.9625ZM101.245 58.8511C100.751 58.8133 100.454 58.4515 100.484 58.036C100.514 57.6205 100.855 57.3083 101.255 57.3401C101.694 57.3739 101.991 57.7358 101.961 58.1513C101.933 58.5489 101.618 58.8511 101.245 58.8511ZM91.5058 58.8293C91.1516 58.8293 90.8428 58.5549 90.7936 58.1771C90.7406 57.7636 91.0152 57.3839 91.4092 57.3282C91.8543 57.2705 92.2142 57.5628 92.2634 57.9763C92.3127 58.3899 92.0323 58.7676 91.6383 58.8193C91.5702 58.8253 91.538 58.8293 91.5058 58.8293ZM107.672 58.7895C107.303 58.7895 106.988 58.4933 106.956 58.0996C106.922 57.6841 107.215 57.3183 107.609 57.2825C108.037 57.2387 108.392 57.5409 108.43 57.9545C108.469 58.37 108.181 58.7398 107.786 58.7796C107.714 58.7895 107.693 58.7895 107.672 58.7895ZM98.0139 58.6086C97.5461 58.5907 97.2373 58.2408 97.2506 57.8232C97.2657 57.4057 97.6048 57.0837 97.9968 57.0976C98.4457 57.1214 98.7507 57.4753 98.7318 57.8908C98.7128 58.2964 98.3946 58.6086 98.0139 58.6086ZM94.7314 58.5688C94.3431 58.5688 94.023 58.2427 94.0135 57.8332C94.0041 57.4157 94.3185 57.0697 94.7144 57.0598C95.1538 57.0558 95.4853 57.3779 95.4947 57.7954C95.5042 58.2129 95.1898 58.5589 94.7939 58.5688C94.7428 58.5688 94.7371 58.5688 94.7314 58.5688ZM110.88 58.3183C110.541 58.3183 110.238 58.0658 110.174 57.702C110.1 57.2924 110.358 56.8988 110.748 56.8212C111.18 56.7337 111.555 57.0041 111.631 57.4137C111.704 57.8232 111.449 58.2189 111.059 58.2964C110.969 58.3143 110.924 58.3183 110.88 58.3183ZM114.032 57.531C113.72 57.531 113.432 57.3143 113.341 56.9842C113.233 56.5826 113.453 56.1651 113.835 56.0518C114.25 55.9226 114.65 56.1492 114.763 56.5488C114.877 56.9485 114.661 57.368 114.28 57.4872C114.163 57.523 114.097 57.531 114.032 57.531ZM117.087 56.4037C116.809 56.4037 116.544 56.2327 116.426 55.9484C116.269 55.5667 116.436 55.1213 116.801 54.9563C117.209 54.7774 117.633 54.9583 117.786 55.342C117.94 55.7257 117.771 56.1671 117.406 56.3282C117.279 56.3818 117.182 56.4037 117.087 56.4037ZM119.993 54.9026C119.747 54.9026 119.506 54.7694 119.372 54.5289C119.171 54.169 119.286 53.7078 119.629 53.497C120.019 53.2644 120.457 53.3897 120.654 53.7515C120.851 54.1133 120.732 54.5746 120.387 54.7814C120.241 54.8708 120.116 54.9026 119.993 54.9026ZM122.679 53.0079C122.465 53.0079 122.253 52.9085 122.112 52.7177C121.868 52.3896 121.923 51.9144 122.237 51.658C122.578 51.3737 123.031 51.4293 123.277 51.7554C123.524 52.0814 123.472 52.5566 123.162 52.8151C122.989 52.9562 122.832 53.0079 122.679 53.0079ZM125.052 50.7017C124.88 50.7017 124.709 50.638 124.571 50.5088C124.276 50.2305 124.253 49.7533 124.518 49.4432C124.813 49.0992 125.268 49.0753 125.562 49.3537C125.857 49.632 125.88 50.1092 125.615 50.4193C125.444 50.6162 125.247 50.7017 125.052 50.7017ZM127.007 47.9998C126.878 47.9998 126.747 47.964 126.63 47.8864C126.293 47.6677 126.187 47.2025 126.397 46.8486C126.632 46.453 127.075 46.3456 127.412 46.5663C127.749 46.787 127.852 47.2522 127.641 47.6061C127.482 47.8745 127.247 47.9998 127.007 47.9998ZM128.454 44.9638C128.369 44.9638 128.282 44.9479 128.198 44.9141C127.827 44.765 127.641 44.3296 127.783 43.9399C127.942 43.5045 128.359 43.3117 128.73 43.4628C129.1 43.6139 129.285 44.0493 129.141 44.439C129.016 44.7789 128.744 44.9638 128.454 44.9638ZM96.921 42.0472C96.4626 42.0353 96.1482 41.6893 96.1577 41.2718C96.1672 40.8623 96.4873 40.5362 96.8755 40.5362C97.3339 40.5481 97.6483 40.8941 97.6389 41.3116C97.6294 41.7212 97.3093 42.0472 96.921 42.0472ZM100.101 41.8126C99.7659 41.8126 99.4667 41.5661 99.3966 41.2082C99.3171 40.8006 99.569 40.401 99.9591 40.3195C100.4 40.23 100.777 40.5004 100.851 40.91C100.925 41.3195 100.669 41.7152 100.279 41.7927C100.198 41.8086 100.149 41.8126 100.101 41.8126ZM93.6916 41.7629C93.6613 41.7629 93.631 41.7609 93.6007 41.7569C93.1555 41.6933 92.8809 41.3116 92.9339 40.9C92.9889 40.4865 93.3487 40.2002 93.7446 40.2559C94.1727 40.3135 94.453 40.6893 94.4037 41.1028C94.3583 41.4826 94.0495 41.7629 93.6916 41.7629ZM129.342 41.7013C129.299 41.7013 129.253 41.6973 129.21 41.6874C128.819 41.6098 128.562 41.2162 128.636 40.8066C128.719 40.3513 129.094 40.0789 129.484 40.1585C129.874 40.236 130.13 40.6316 130.056 41.0412C129.982 41.4488 129.681 41.7013 129.342 41.7013ZM90.4944 41.1923C90.447 41.1923 90.3996 41.1883 90.3523 41.1784C89.9185 41.0869 89.6666 40.6873 89.7461 40.2797C89.8257 39.8722 90.2046 39.6077 90.5928 39.6893C91.0228 39.7807 91.2766 40.1783 91.199 40.5859C91.1308 40.9458 90.8296 41.1923 90.4944 41.1923ZM87.3312 40.4428C87.2725 40.4428 87.2138 40.4348 87.155 40.4189C86.7251 40.3036 86.494 39.892 86.5925 39.4885C86.691 39.0849 87.0831 38.8423 87.4676 38.9457C87.8938 39.059 88.1267 39.4686 88.0282 39.8722C87.9449 40.2141 87.6532 40.4428 87.3312 40.4428ZM102.992 40.3851C102.795 40.3851 102.6 40.3016 102.457 40.1346C102.192 39.8245 102.215 39.3473 102.51 39.069C102.853 38.7568 103.306 38.7906 103.567 39.1047C103.829 39.4189 103.797 39.896 103.497 40.1684C103.334 40.3215 103.164 40.3851 102.992 40.3851ZM84.1965 39.564C84.1302 39.564 84.0639 39.5541 83.9995 39.5342C83.5771 39.4089 83.3555 38.9914 83.4634 38.5918C83.5714 38.1902 83.9692 37.9576 84.3499 38.0709C84.776 38.1981 84.9977 38.6157 84.8878 39.0173C84.7988 39.3493 84.5109 39.564 84.1965 39.564ZM81.0901 38.5918C81.0201 38.5918 80.9462 38.5799 80.8761 38.558C80.4556 38.4208 80.2435 37.9973 80.3609 37.5997C80.4784 37.2021 80.8818 36.9814 81.2606 37.1047C81.6811 37.2418 81.8933 37.6653 81.7758 38.0629C81.6792 38.383 81.3951 38.5918 81.0901 38.5918ZM129.679 38.3274C129.265 38.3174 128.95 37.9695 128.96 37.554C128.971 37.0987 129.291 36.7726 129.679 36.7726C130.094 36.7826 130.409 37.1285 130.399 37.546C130.388 38.0013 130.068 38.3274 129.679 38.3274ZM105.497 38.226C105.282 38.226 105.068 38.1246 104.925 37.9297C104.685 37.5997 104.744 37.1245 105.06 36.872C105.416 36.5897 105.867 36.6553 106.105 36.9893C106.344 37.3214 106.282 37.7945 105.963 38.047C105.802 38.1763 105.649 38.226 105.497 38.226ZM78.0028 37.542C77.9289 37.542 77.8531 37.5301 77.7774 37.5043C77.355 37.3552 77.1523 36.9257 77.2792 36.5321C77.4061 36.1364 77.8133 35.9257 78.1903 36.0589C78.6032 36.202 78.8097 36.6275 78.6846 37.0251C78.5862 37.3412 78.3058 37.542 78.0028 37.542ZM74.9362 36.4307C74.8567 36.4307 74.7771 36.4167 74.6976 36.3889C74.279 36.2338 74.0839 35.8024 74.2165 35.4088C74.349 35.0171 74.762 34.8103 75.1351 34.9495C75.548 35.1006 75.745 35.532 75.6143 35.9257C75.512 36.2378 75.2336 36.4307 74.9362 36.4307ZM108.136 36.2517C107.905 36.2517 107.678 36.1344 107.537 35.9177C107.316 35.5718 107.403 35.1026 107.734 34.87C108.109 34.6115 108.555 34.7089 108.772 35.0568C108.99 35.4048 108.897 35.874 108.566 36.1026C108.412 36.21 108.274 36.2517 108.136 36.2517ZM71.8887 35.2696C71.8053 35.2696 71.7201 35.2537 71.6367 35.2219C71.2257 35.0628 71.0363 34.6294 71.1727 34.2377C71.3091 33.8461 71.7238 33.6453 72.0951 33.7904C72.5118 33.9534 72.6993 34.3888 72.561 34.7785C72.4531 35.0807 72.1785 35.2696 71.8887 35.2696ZM129.528 34.9336C129.17 34.9336 128.861 34.6533 128.816 34.2715C128.766 33.8023 129.051 33.4285 129.445 33.3828C129.837 33.3351 130.195 33.6353 130.238 34.0489C130.291 34.4982 130.011 34.8759 129.617 34.9276C129.588 34.9316 129.558 34.9336 129.528 34.9336ZM110.886 34.4524C110.64 34.4524 110.399 34.3192 110.265 34.0787C110.064 33.7188 110.18 33.2576 110.523 33.0468C110.907 32.8122 111.346 32.9355 111.545 33.2973C111.744 33.6572 111.627 34.1204 111.284 34.3292C111.134 34.4187 111.009 34.4524 110.886 34.4524ZM68.8543 34.0608C68.7691 34.0608 68.6819 34.0449 68.5986 34.0111C68.1838 33.8441 68.0001 33.4067 68.144 33.017C68.288 32.6273 68.7028 32.4345 69.074 32.5856C69.4831 32.7486 69.6687 33.186 69.5267 33.5757C69.4168 33.8759 69.1441 34.0608 68.8543 34.0608ZM113.739 32.8361C113.475 32.8361 113.222 32.683 113.095 32.4186C112.917 32.0468 113.061 31.5935 113.417 31.4066C113.816 31.1998 114.246 31.3529 114.422 31.7267C114.599 32.1005 114.453 32.5538 114.097 32.7367C113.956 32.8102 113.847 32.8361 113.739 32.8361ZM65.837 32.8142C65.748 32.8142 65.6571 32.7963 65.5699 32.7605C65.1608 32.5895 64.9809 32.1502 65.1286 31.7625C65.2763 31.3748 65.6931 31.1859 66.0624 31.343C66.4715 31.514 66.6514 31.9533 66.5037 32.341C66.392 32.6353 66.1211 32.8142 65.837 32.8142ZM128.757 31.6571C128.511 31.6571 128.27 31.5239 128.136 31.2833C127.912 30.8996 128.02 30.4344 128.359 30.2177C128.698 30.001 129.14 30.1143 129.348 30.4702C129.577 30.8797 129.462 31.343 129.119 31.5537C129.005 31.6233 128.88 31.6571 128.757 31.6571ZM62.8311 31.5318C62.7421 31.5318 62.6493 31.514 62.5602 31.4762C62.1492 31.2972 61.9731 30.8559 62.1246 30.4702C62.2761 30.0845 62.6966 29.9016 63.064 30.0606C63.4675 30.2336 63.6455 30.673 63.4959 31.0587C63.3842 31.3549 63.1152 31.5318 62.8311 31.5318ZM116.692 31.4344C116.406 31.4344 116.137 31.2555 116.025 30.9593C115.877 30.5716 116.057 30.1322 116.425 29.9791C116.824 29.8041 117.245 29.989 117.396 30.3747C117.548 30.7604 117.373 31.2018 117.006 31.3609C116.87 31.4165 116.781 31.4344 116.692 31.4344ZM119.749 30.3131C119.434 30.3131 119.146 30.0964 119.057 29.7624C118.949 29.3608 119.171 28.9452 119.554 28.8319C119.966 28.7027 120.366 28.9293 120.48 29.329C120.593 29.7286 120.378 30.1481 119.997 30.2674C119.879 30.3032 119.813 30.3131 119.749 30.3131ZM59.8403 30.2157C59.7494 30.2157 59.6566 30.1978 59.5657 30.158C59.1508 29.9692 58.9823 29.5258 59.1395 29.1441C59.2967 28.7623 59.721 28.5854 60.0846 28.7504C60.4805 28.9234 60.6548 29.3648 60.5032 29.7485C60.3896 30.0407 60.1225 30.2157 59.8403 30.2157ZM126.183 29.7544C126.124 29.7544 126.064 29.7465 126.005 29.7306C125.586 29.6252 125.35 29.2176 125.442 28.812C125.535 28.4065 125.925 28.1579 126.31 28.2554C126.747 28.3727 126.978 28.7842 126.88 29.1878C126.795 29.5278 126.503 29.7544 126.183 29.7544ZM122.917 29.6172C122.556 29.6172 122.245 29.3329 122.203 28.9472C122.16 28.5337 122.442 28.1599 122.838 28.1122C123.268 28.0585 123.626 28.3508 123.675 28.7643C123.724 29.1779 123.444 29.5556 123.05 29.6053C122.972 29.6153 122.944 29.6172 122.917 29.6172ZM56.859 28.8677C56.7605 28.8677 56.662 28.8458 56.5673 28.8021C56.1695 28.6212 56.0029 28.1778 56.1601 27.7941C56.3173 27.4124 56.7416 27.2354 57.1052 27.4005C57.5162 27.5913 57.6791 28.0386 57.5162 28.4184C57.3969 28.7027 57.1336 28.8677 56.859 28.8677ZM53.891 27.4879C53.7925 27.4879 53.694 27.4661 53.5993 27.4223C53.1939 27.2295 53.0329 26.7821 53.1977 26.4044C53.3606 26.0246 53.7868 25.8557 54.1485 26.0266C54.5482 26.2135 54.7111 26.6609 54.5482 27.0406C54.4289 27.3209 54.1656 27.4879 53.891 27.4879Z" fill="#B2FFD5"/>
<path d="M67.5151 75.4124C67.4601 75.4124 67.4052 75.4064 67.3484 75.3925C66.962 75.2971 66.7233 74.8895 66.8142 74.4839C66.9127 74.0544 67.2972 73.8059 67.6874 73.9033C68.0738 74.0007 68.3106 74.4083 68.2178 74.8139C68.1363 75.1798 67.8409 75.4124 67.5151 75.4124Z" fill="#B2FFD5"/>
<path fill-rule="evenodd" clip-rule="evenodd" d="M81.0511 90.0504H103.321C105.245 90.0504 106.806 91.6886 106.806 93.7087V95.007C106.806 97.027 105.245 98.6653 103.321 98.6653H81.0511C79.1267 98.6653 77.5659 97.027 77.5659 95.007V93.7087C77.5659 91.6886 79.1267 90.0504 81.0511 90.0504Z" fill="#B2FFD5"/>
<path d="M103.322 99.191H81.0521C78.853 99.191 77.0649 97.3142 77.0649 95.0058V93.7075C77.0649 91.3992 78.853 89.5223 81.0521 89.5223H103.322C105.521 89.5223 107.309 91.3992 107.309 93.7075V95.0058C107.309 97.3142 105.519 99.191 103.322 99.191ZM81.0502 90.5741C79.4042 90.5741 78.0651 91.9798 78.0651 93.7075V95.0058C78.0651 96.7336 79.4042 98.1393 81.0502 98.1393H103.32C104.966 98.1393 106.305 96.7336 106.305 95.0058V93.7075C106.305 91.9798 104.966 90.5741 103.32 90.5741H81.0502Z" fill="black"/>
<path fill-rule="evenodd" clip-rule="evenodd" d="M82.7047 91.5095H102.389C103.84 91.5095 105.018 92.7442 105.018 94.2691C105.018 95.7921 103.842 97.0288 102.389 97.0288H82.7047C81.2538 97.0288 80.0757 95.7941 80.0757 94.2691C80.0757 92.7462 81.2519 91.5095 82.7047 91.5095Z" fill="white"/>
<path d="M102.388 97.5547H82.7038C80.9783 97.5547 79.5747 96.0814 79.5747 94.2701C79.5747 92.4589 80.9783 90.9856 82.7038 90.9856H102.388C104.113 90.9856 105.517 92.4589 105.517 94.2701C105.517 96.0794 104.113 97.5547 102.388 97.5547ZM82.7038 92.0354C81.5314 92.0354 80.5767 93.0374 80.5767 94.2681C80.5767 95.4988 81.5314 96.5009 82.7038 96.5009H102.388C103.56 96.5009 104.515 95.4988 104.515 94.2681C104.515 93.0374 103.56 92.0354 102.388 92.0354H82.7038Z" fill="black"/>
<path fill-rule="evenodd" clip-rule="evenodd" d="M87.0609 81.8332H103.322C105.247 81.8332 106.807 83.4715 106.807 85.4915V85.8136C106.807 87.8336 105.247 89.4719 103.322 89.4719H87.0609C85.1346 89.4719 83.5757 87.8336 83.5757 85.8136V85.4915C83.5757 83.4715 85.1346 81.8332 87.0609 81.8332Z" fill="#B2FFD5"/>
<path d="M103.322 89.998H87.0604C84.8613 89.998 83.0732 88.1212 83.0732 85.8128V85.4907C83.0732 83.1824 84.8613 81.3055 87.0604 81.3055H103.322C105.521 81.3055 107.309 83.1824 107.309 85.4907V85.8128C107.309 88.1212 105.519 89.998 103.322 89.998ZM87.0604 82.3573C85.4144 82.3573 84.0753 83.763 84.0753 85.4907V85.8128C84.0753 87.5406 85.4144 88.9463 87.0604 88.9463H103.322C104.968 88.9463 106.307 87.5406 106.307 85.8128V85.4907C106.307 83.763 104.968 82.3573 103.322 82.3573H87.0604Z" fill="black"/>
<path fill-rule="evenodd" clip-rule="evenodd" d="M58.2208 69.6329H90.4034C91.5342 69.6329 92.2084 70.6449 91.9092 71.8954L86.5962 94.1171C86.297 95.3656 85.1397 96.3796 84.0089 96.3796H51.8263C50.6955 96.3796 50.0212 95.3676 50.3205 94.1171L55.6335 71.8954C55.9308 70.6449 57.09 69.6329 58.2208 69.6329Z" fill="white"/>
<path d="M90.4034 70.6846C90.6079 70.6846 90.7613 70.7503 90.8561 70.8775C90.983 71.0465 91.0114 71.3248 90.9375 71.639L85.6245 93.8606C85.437 94.642 84.6832 95.3279 84.0089 95.3279H51.8263C51.6217 95.3279 51.4683 95.2623 51.3736 95.135C51.2467 94.966 51.2183 94.6877 51.2922 94.3736L56.6051 72.1519C56.7926 71.3706 57.5465 70.6866 58.2208 70.6866H90.4034V70.6846ZM90.4034 69.6329H58.2208C57.09 69.6329 55.9327 70.6449 55.6335 71.8954L50.3205 94.1171C50.0212 95.3656 50.6955 96.3796 51.8263 96.3796H84.0089C85.1397 96.3796 86.297 95.3676 86.5962 94.1171L91.9092 71.8954C92.2084 70.6449 91.5342 69.6329 90.4034 69.6329Z" fill="black"/>
<path fill-rule="evenodd" clip-rule="evenodd" d="M33.5598 94.9124H84.8386C85.3197 94.9124 85.7099 95.3219 85.7099 95.8269V96.9801C85.7099 98.1928 84.7742 99.175 83.6188 99.175H34.7796C33.6242 99.175 32.6885 98.1928 32.6885 96.9801V95.8269C32.6885 95.3219 33.0787 94.9124 33.5598 94.9124Z" fill="white"/>
<path d="M84.7079 95.9641V96.9801C84.7079 97.6103 84.2193 98.1233 83.6188 98.1233H34.7796C34.1791 98.1233 33.6905 97.6103 33.6905 96.9801V95.9641H84.7079ZM84.8386 94.9124H33.5598C33.0787 94.9124 32.6885 95.3219 32.6885 95.8269V96.9801C32.6885 98.1928 33.6242 99.175 34.7796 99.175H83.6188C84.7742 99.175 85.7099 98.1928 85.7099 96.9801V95.8269C85.7099 95.3219 85.3197 94.9124 84.8386 94.9124Z" fill="black"/>
<path fill-rule="evenodd" clip-rule="evenodd" d="M59.9966 72.208H87.2242C88.1807 72.208 88.766 72.9973 88.533 73.9715L84.3774 91.3023C84.1444 92.2765 83.1784 93.0658 82.2238 93.0658H54.9962C54.0396 93.0658 53.4544 92.2765 53.6874 91.3023L57.843 73.9715C58.0741 72.9993 59.0401 72.208 59.9966 72.208Z" fill="#B2FFD5"/>
<path d="M82.2211 93.5937H54.9934C54.3816 93.5937 53.8381 93.3313 53.499 92.874C53.16 92.4167 53.0501 91.7984 53.1997 91.1741L57.3554 73.8434C57.6452 72.6306 58.8063 71.6822 59.9958 71.6822H87.2234C87.8352 71.6822 88.3788 71.9447 88.7178 72.4C89.0569 72.8572 89.1667 73.4775 89.0171 74.0998L84.8615 91.4306C84.5698 92.6434 83.4106 93.5937 82.2211 93.5937ZM59.9958 72.734C59.2684 72.734 58.5051 73.3602 58.3271 74.0998L54.1714 91.4306C54.0976 91.7408 54.1392 92.0251 54.2888 92.2259C54.4385 92.4287 54.6885 92.54 54.9934 92.54H82.2211C82.9484 92.54 83.7117 91.9137 83.8898 91.1741L88.0454 73.8434C88.1193 73.5332 88.0776 73.2489 87.928 73.0461C87.7784 72.8433 87.5283 72.732 87.2234 72.732H59.9958V72.734Z" fill="black"/>
<path fill-rule="evenodd" clip-rule="evenodd" d="M104.5 70.8374C105.198 69.8155 105.911 68.9426 107.928 68.6166C110.159 68.2567 111.525 69.726 111.525 69.726C111.525 69.726 110.839 71.4398 108.267 71.8136C105.693 72.1894 104.5 70.8374 104.5 70.8374Z" fill="white"/>
<path d="M107.388 72.4063C105.231 72.4063 104.181 71.2512 104.132 71.1955L103.854 70.8794L104.092 70.5295C104.861 69.4061 105.676 68.4478 107.85 68.0959C110.309 67.7002 111.818 69.2908 111.883 69.3584L112.114 69.6069L111.985 69.929C111.953 70.0105 111.157 71.9232 108.333 72.3348C107.998 72.3845 107.682 72.4063 107.388 72.4063ZM105.191 70.7462C105.657 71.0643 106.634 71.5216 108.197 71.2949C109.788 71.0643 110.555 70.2889 110.873 69.8415C110.405 69.4876 109.402 68.9111 108.002 69.1357C106.458 69.3862 105.782 69.9588 105.191 70.7462Z" fill="black"/>
<path fill-rule="evenodd" clip-rule="evenodd" d="M24.7052 18.5597H110.917C115.249 18.5597 118.76 22.2458 118.76 26.7927V56.0783C118.76 60.6252 115.249 64.3112 110.917 64.3112H24.7052C20.3735 64.3112 16.8618 60.6252 16.8618 56.0783V26.7927C16.8637 22.2458 20.3735 18.5597 24.7052 18.5597Z" fill="white"/>
<path d="M110.917 18.5593C115.249 18.5593 118.76 22.2454 118.76 26.7923V56.0779C118.76 60.6248 115.249 64.3108 110.917 64.3108H24.7053C20.3735 64.3108 16.8618 60.6248 16.8618 56.0779V26.7923C16.8618 22.2454 20.3735 18.5593 24.7053 18.5593H110.917ZM110.917 17.5076H24.7053C19.828 17.5076 15.8599 21.6728 15.8599 26.7923V56.0779C15.8599 61.1974 19.828 65.3626 24.7053 65.3626H110.917C115.794 65.3626 119.762 61.1974 119.762 56.0779V26.7923C119.762 21.6728 115.794 17.5076 110.917 17.5076Z" fill="#2AAF8F"/>
<path fill-rule="evenodd" clip-rule="evenodd" d="M101.074 73.9044C101.074 73.9044 101.418 72.286 102.006 71.284C102.593 70.2819 103.445 69.3296 103.445 69.3296L101.074 73.9044Z" fill="white"/>
<path d="M101.073 74.4286C101.037 74.4286 101.001 74.4246 100.963 74.4167C100.692 74.3531 100.524 74.0727 100.582 73.7884C100.598 73.7188 100.952 72.0706 101.575 71.0069C102.181 69.971 103.039 69.0087 103.075 68.967C103.265 68.7542 103.581 68.7443 103.784 68.9431C103.986 69.1419 103.996 69.474 103.806 69.6867C103.799 69.6967 102.98 70.6152 102.429 71.5576C101.893 72.4742 101.564 74.0011 101.56 74.0171C101.509 74.2616 101.302 74.4286 101.073 74.4286Z" fill="black"/>
<path fill-rule="evenodd" clip-rule="evenodd" d="M100.96 71.4585C103.951 71.4585 106.364 73.6813 106.349 76.4231C106.334 79.1648 103.896 81.3856 100.906 81.3856C97.9147 81.3856 95.5015 79.1628 95.5167 76.4231C95.5318 73.6813 97.9696 71.4585 100.96 71.4585Z" fill="white"/>
<path d="M100.905 81.9118C99.2074 81.9118 97.5936 81.2358 96.476 80.0568C95.5252 79.0528 95.0062 77.7624 95.0138 76.4204C95.0308 73.3943 97.6978 70.9329 100.96 70.9329C102.657 70.9329 104.27 71.6089 105.388 72.7879C106.339 73.7919 106.858 75.0823 106.85 76.4243C106.833 79.4504 104.166 81.9118 100.905 81.9118ZM100.96 71.9846C98.2471 71.9846 96.0309 73.9768 96.0177 76.4263C96.012 77.486 96.4268 78.512 97.1882 79.3152C98.1183 80.2974 99.4745 80.862 100.906 80.862C103.619 80.862 105.835 78.8698 105.85 76.4223C105.856 75.3626 105.439 74.3367 104.68 73.5335C103.746 72.5473 102.391 71.9846 100.96 71.9846Z" fill="black"/>
<path d="M101.202 94.928H86.0488C85.7723 94.928 85.5469 94.6934 85.5469 94.4011C85.5469 94.1108 85.7704 93.8742 86.0488 93.8742H101.202C101.479 93.8742 101.704 94.1089 101.704 94.4011C101.702 94.6914 101.479 94.928 101.202 94.928Z" fill="black"/>
<path d="M101.157 93.4851H88.25C87.9734 93.4851 87.748 93.2505 87.748 92.9582C87.748 92.6679 87.9715 92.4333 88.25 92.4333H101.157C101.433 92.4333 101.659 92.6679 101.659 92.9582C101.659 93.2485 101.433 93.4851 101.157 93.4851Z" fill="black"/>
<path d="M128.134 99.9917H6.34718C6.07064 99.9917 5.84521 99.7571 5.84521 99.4668C5.84521 99.1766 6.06875 98.94 6.34718 98.94H128.134C128.41 98.94 128.634 99.1746 128.634 99.4668C128.634 99.7551 128.41 99.9917 128.134 99.9917Z" fill="black"/>
<path fill-rule="evenodd" clip-rule="evenodd" d="M26.2717 19.8024H112.483C116.815 19.8024 120.327 23.4884 120.327 28.0354V57.3209C120.327 61.8679 116.815 65.5539 112.483 65.5539H26.2717C21.9399 65.5539 18.4282 61.8679 18.4282 57.3209V28.0354C18.4282 23.4884 21.9399 19.8024 26.2717 19.8024Z" fill="#DBFFF2"/>
<path fill-rule="evenodd" clip-rule="evenodd" d="M70.5607 64.309L73.6916 54.7141C73.6916 54.7141 72.6499 53.4775 71.8297 52.716C71.0096 51.9545 70.3485 51.2945 70.3485 51.2945L67.5547 49.03C67.5547 49.03 66.227 48.0259 66.4959 47.2088C66.7668 46.3897 67.3426 46.7635 67.3426 46.7635C67.3426 46.7635 68.0339 45.3598 68.8654 45.8748C69.697 46.3897 70.0511 47.0736 70.0511 47.0736L71.2009 48.4852C71.271 48.4733 76.8074 49.8272 76.8642 49.5151C76.921 49.199 74.5118 47.6522 75.4683 45.9622C76.152 44.7534 80.1599 49.1751 80.4194 49.871C80.6789 50.5668 81.3248 52.1514 80.9687 54.1793C80.6127 56.2072 78.8113 64.307 78.8113 64.307H83.2549L97.4303 48.4951L99.1653 47.9623L103.185 42.2762V41.6539C103.185 41.6539 100.023 42.1728 98.5308 39.966C97.0382 37.7591 97.3034 28.0171 97.3034 28.0171L102.34 26.3749L108.772 28.2398L110.085 33.747L110.551 35.2123C110.551 35.2123 110.888 35.8982 110.17 36.5006C109.452 37.103 108.223 37.4788 108.223 37.4788L109.07 40.9441C109.07 40.9441 108.056 44.6282 106.446 44.6302C104.836 44.6322 103.484 43.5208 103.484 43.5208L100.987 49.9604L93.4129 55.3801L83.1299 64.309H70.5607Z" fill="white"/>
<path fill-rule="evenodd" clip-rule="evenodd" d="M106.447 34.5942C106.795 35.1748 107.079 35.6838 107.42 35.2603C107.759 34.8368 108.326 33.8546 108.943 33.8387C109.561 33.8228 109.917 34.2821 109.917 34.2821C109.917 34.2821 112.169 29.0531 110.383 26.6414C108.597 24.2297 105.931 24.679 103.95 24.4205C101.969 24.1621 97.8984 23.3986 97.8984 23.3986L97.9836 25.9296L94.6821 26.373L97.2222 28.904L99.1694 27.8383C99.1694 27.8383 101.567 28.1743 103.569 28.1942C105.572 28.2121 107.004 28.0172 107.125 28.9934C107.244 29.9716 106.098 34.0137 106.447 34.5942Z" fill="#2AAF8F"/>
<path fill-rule="evenodd" clip-rule="evenodd" d="M82.5786 64.4861C82.5786 64.4861 85.8156 57.7283 87.1907 53.0264C88.5658 48.3244 91.4733 45.9744 93.6231 45.698C95.7729 45.4197 101.705 44.7656 101.705 44.7656C101.705 44.7656 100.995 45.5469 100.732 47.3422C100.468 49.1375 99.866 50.8891 100.393 50.4517C100.919 50.0143 104.836 46.543 104.836 46.543C104.836 46.543 106.175 50.9388 106.571 51.1177C106.967 51.2986 108.636 48.4993 109.153 47.2985C109.67 46.0976 110.295 43.2565 110.295 43.2565L119.265 46.5887L119.307 57.1597C119.307 57.1597 118.383 61.7524 115.795 63.1123C113.208 64.4722 110.844 64.8002 110.844 64.8002L82.5786 64.4861Z" fill="#2AAF8F"/>
<path fill-rule="evenodd" clip-rule="evenodd" d="M108.655 37.7905C108.773 38.4585 108.881 39.1385 108.917 39.894C109.703 40.5779 110.122 41.6475 110.442 42.8205C112.976 43.7291 115.959 44.6834 118.719 45.6557C119.297 45.8584 121.441 46.266 121.071 47.0732C120.874 47.5007 120.134 47.1945 119.764 47.0732C116.783 46.0871 113.626 44.9081 110.659 43.918C110.565 45.8883 109.693 47.2879 108.83 48.8109C108.525 49.3497 108.205 49.9362 107.784 50.5942C107.568 50.9342 106.964 52.1152 106.521 52.1033C105.922 52.0874 105.585 50.3795 105.388 49.8169C105.066 48.8944 104.763 48.1309 104.473 47.3018C103.464 48.0633 102.456 49.1687 101.38 50.1827C101.155 50.3954 100.617 51.0674 100.204 51.0058C99.4767 50.8964 99.9673 48.7234 100.073 48.1707C100.268 47.1488 100.572 46.3217 100.858 45.5185C97.4955 45.9042 94.6487 45.9181 92.2318 46.936C89.8793 47.9281 88.6955 50.0415 87.7447 52.652C86.8336 55.1491 86.0627 57.7814 85.0873 60.3342C84.4433 62.0202 83.6553 64.0223 82.8655 65.8215C82.6079 66.41 82.3238 67.3962 81.82 67.3306C80.9676 67.2212 81.8597 65.8474 81.9942 65.5472C82.8276 63.6823 83.6402 61.6325 84.3467 59.7855C85.3448 57.177 86.1461 54.2425 87.1348 51.6917C88.2106 48.9182 89.5611 46.9678 92.1447 45.93C94.7169 44.8962 97.772 44.8922 101.293 44.5125C101.801 43.751 102.21 42.8822 102.818 42.2261C99.8006 42.2857 98.0182 40.5083 97.2852 37.882C96.6431 35.5836 96.6886 33.0984 96.8496 30.3369C96.8704 29.985 96.9879 29.5615 96.9367 29.2852C96.842 28.7822 95.9575 28.1658 95.4991 27.6847C95.1733 27.3427 94.0596 26.5733 94.1922 25.9928C94.3627 25.2432 96.9102 25.9411 97.5031 25.8099C97.6338 25.3407 96.8572 23.0125 97.6773 23.0205C98.6092 23.0284 99.6206 23.3406 100.553 23.4778C101.534 23.6229 102.524 23.7223 103.558 23.7978C105.653 23.9509 107.796 23.8118 109.178 24.8496C111.606 26.6707 111.792 30.8041 110.659 34.2237C111.417 35.9515 110.303 37.713 108.655 37.7905ZM108.96 25.8556C107.816 24.7581 105.735 24.8436 103.82 24.7581C101.914 24.6746 99.8328 24.3327 98.2437 24.0265C98.1527 24.7661 98.6755 26.1101 98.3743 26.5415C97.9595 27.136 96.5958 26.458 95.804 26.633C96.0749 27.0087 96.3382 27.301 96.7189 27.6847C96.9291 27.8954 97.7303 28.4303 97.808 28.6907C97.916 29.0486 97.7398 29.7564 97.7209 30.1997C97.5561 33.9335 97.4747 37.9615 99.2456 39.894C100.395 41.1505 102.572 41.737 104.299 40.7171C104.668 40.5004 105.534 39.6216 105.911 39.7568C106.614 40.0073 105.871 40.6554 105.562 40.9C105 41.3473 104.343 41.7469 103.776 42.0432C103.916 42.5521 103.996 43.1247 104.081 43.6894C105.108 44.767 106.388 43.9458 107.131 43.1864C107.421 42.8901 108.25 42.079 108.307 41.5859C108.339 41.3115 108.182 40.89 108.133 40.5342C107.974 39.3949 107.854 38.2776 107.697 37.2418C107.977 36.7328 108.735 36.9654 109.265 36.693C110.057 36.2855 110.504 34.2933 109.178 34.3152C108.557 34.3251 108.334 35.019 108.002 35.2755C107.428 35.7208 106.419 35.7765 106.085 35.0468C105.39 33.5299 107.356 30.6212 106.564 29.2394C106.136 28.4899 104.002 28.5535 102.644 28.5535C101.878 28.5535 101.373 28.5336 100.509 28.4621C99.9351 28.4143 98.8251 28.4402 98.8535 27.8219C98.8839 27.1598 99.901 27.4501 100.553 27.5018C102.615 27.6668 105.61 27.3288 106.826 28.142C108.385 29.1838 107.309 31.9433 107 33.4921C106.932 33.8341 106.801 34.2913 107 34.6353C107.451 34.8063 107.655 34.2297 107.958 33.9494C108.485 33.4603 109.265 33.1462 109.962 33.5836C110.817 30.7822 110.546 27.3745 108.96 25.8556ZM105.04 45.2004C104.182 45.093 102.947 44.431 103.166 43.3713C101.977 44.8982 101.195 46.8486 100.858 49.2701C101.755 48.5842 102.716 47.5305 103.646 46.6637C103.852 46.4708 104.392 45.8644 104.691 45.8863C105.072 45.9141 105.178 46.5483 105.301 46.8923C105.773 48.1985 106.242 49.3139 106.608 50.5505C107.233 49.7751 107.762 48.7373 108.351 47.6697C109.214 46.103 110.349 44.1148 109.222 42.0909C109.22 42.0631 109.216 42.0372 109.178 42.0452C108.551 43.0333 106.998 45.4449 105.04 45.2004Z" fill="black"/>
<path fill-rule="evenodd" clip-rule="evenodd" d="M98.6361 30.52C98.6607 30.51 98.6702 30.4742 98.7232 30.4742C101.36 30.4882 102.174 33.0072 101.468 35.7788C101.307 36.4091 101.087 37.101 100.684 37.1049C100.066 37.1109 100.278 36.3673 100.422 35.916C100.86 34.5461 101.051 32.3014 99.8124 31.6632C99.4885 31.4962 98.3425 31.5737 98.2876 31.023C98.2573 30.7248 98.4353 30.5915 98.6361 30.52Z" fill="black"/>
<path fill-rule="evenodd" clip-rule="evenodd" d="M103.776 30.6573C103.958 30.6255 104.244 30.5658 104.473 30.6115C104.931 30.703 105.894 31.5062 105.693 32.1663C105.638 32.3473 105.407 32.4546 105.214 32.4407C104.82 32.4129 104.767 31.6772 104.255 31.5719C103.814 31.4804 103.549 31.8681 103.21 31.7548C102.971 31.6732 102.884 31.4188 102.948 31.1603C103.022 30.864 103.429 30.7189 103.776 30.6573Z" fill="black"/>
<path fill-rule="evenodd" clip-rule="evenodd" d="M99.8561 32.5776C99.8807 33.2476 100.148 34.6692 99.3333 34.4982C98.7064 34.367 98.8787 31.4841 99.8561 32.5776Z" fill="black"/>
<path fill-rule="evenodd" clip-rule="evenodd" d="M104.429 32.8977C104.587 33.4703 104.465 34.4306 104.125 34.7725C103.073 35.1006 103.534 32.0069 104.429 32.8977Z" fill="black"/>
<path fill-rule="evenodd" clip-rule="evenodd" d="M108.699 34.9554C108.867 34.9236 109.216 34.842 109.265 35.2755C109.314 35.699 108.189 36.5062 107.784 36.4644C107.566 36.4426 107.403 36.2258 107.392 36.0529C107.369 35.7149 107.708 35.5757 107.958 35.4127C108.087 35.3292 108.36 35.019 108.699 34.9554Z" fill="black"/>
<path fill-rule="evenodd" clip-rule="evenodd" d="M102.948 37.836C102.401 37.9911 101.848 38.6174 101.075 38.6591C100.501 38.691 99.283 38.345 99.8115 37.6988C100.116 37.3251 100.713 37.7565 100.988 37.7446C101.753 37.7088 103.691 35.7802 103.863 37.6074C103.973 38.7725 103.033 39.6592 102.12 39.8938C101.74 39.9913 101.107 40.0807 101.206 39.4365C101.285 38.9097 102.189 39.0329 102.556 38.7049C102.88 38.4166 102.821 38.2675 102.948 37.836Z" fill="black"/>
<path fill-rule="evenodd" clip-rule="evenodd" d="M66.0474 47.7163C66.0474 47.4717 66.0474 47.2291 66.0474 46.9846C66.2444 46.3981 66.6857 46.07 67.4414 46.07C68.2199 45.0421 69.5364 45.7141 70.0989 46.4358C70.4247 46.8554 70.6842 47.6646 71.2316 47.8534C71.4097 47.9151 71.6749 47.9012 71.8852 47.9449C73.4232 48.271 74.6241 48.6328 76.1545 48.9509C75.8893 48.5652 75.1071 48.1775 74.8911 47.4419C74.6657 46.6764 74.9006 45.8692 75.5882 45.6585C76.5485 45.3642 77.7816 46.2012 78.3328 46.6188C79.0791 47.1834 79.7591 47.921 80.2061 48.5851C81.1835 50.0405 81.9222 52.4025 81.426 54.9872C81.2119 56.1085 80.7725 57.204 80.4675 58.3711C79.7061 61.2858 79.1625 64.2662 78.5942 67.4712C78.5052 67.9722 78.4408 69.0101 77.8972 68.9802C77.3687 68.9504 77.4937 68.2426 77.5922 67.6541C78.2305 63.8407 79.1454 59.6853 80.0319 56.4962C80.3482 55.359 80.5982 54.4245 80.5982 53.2037C80.5982 50.6986 79.5735 49.0006 78.2457 47.8077C77.6168 47.2431 76.7815 46.5452 75.7625 46.6645C75.645 47.6367 76.6376 47.8952 77.0694 48.5394C77.2664 48.8356 77.7153 49.5951 77.3308 50.0027C77.0619 50.289 76.2909 50.0107 75.8932 49.9112C74.5464 49.5752 73.105 49.2233 71.9723 48.9509C72.6996 51.0087 76.1489 50.631 77.7229 52.0605C77.846 52.1719 79.5773 54.4702 78.3764 54.5299C77.8195 54.5577 77.577 53.2912 77.2437 52.9294C76.111 51.7026 73.5046 51.8975 72.0594 50.6886C71.0044 49.8059 70.957 48.4479 69.6633 47.8992C69.9929 50.6031 71.9401 52.2037 73.7149 53.661C74.0653 53.9493 75.4613 54.7526 75.1526 55.3987C74.8552 56.0191 74.2585 55.2059 74.107 55.353C72.658 59.6217 71.0953 63.9739 69.6197 68.2486C69.4625 68.7019 69.2352 69.8749 68.6613 69.8034C67.9434 69.7139 68.5325 68.3838 68.6613 68.0199C70.2505 63.5544 71.8567 59.0232 73.4099 54.6671C72.2128 53.5457 70.796 52.653 69.9247 51.1917C69.3564 50.7801 68.8356 50.2811 68.1821 49.8198C67.3202 49.2114 66.2803 48.8615 66.0474 47.7163ZM68.2692 46.6645C68.3639 47.1138 68.523 47.4956 68.792 47.762C68.7674 47.2788 69.0515 47.1198 69.2712 46.8931C69.0837 46.7142 68.5552 46.2987 68.2692 46.6645ZM67.3107 47.0303C67.2596 47.1138 67.0835 47.0661 67.0058 47.1218C66.824 48.0642 67.6574 48.3247 68.1821 48.6766C67.8639 48.1557 67.5911 47.589 67.3107 47.0303Z" fill="black"/>
<path fill-rule="evenodd" clip-rule="evenodd" d="M92.9285 57.5922C93.5649 57.453 93.5327 58.5286 93.6691 59.3299C94.1654 62.2506 94.6351 65.0381 95.1503 68.1099C95.2999 69.0006 95.8909 71.291 95.2374 71.4023C94.6218 71.5057 94.6559 70.7522 94.5404 70.0762C93.9343 66.5412 93.3414 63.0479 92.7978 59.5585C92.6804 58.807 92.2826 57.7334 92.9285 57.5922Z" fill="black"/>
<path fill-rule="evenodd" clip-rule="evenodd" d="M84.6111 27.0413C86.7382 27.0413 88.4619 28.8506 88.4619 31.0833C88.4619 33.3161 86.7382 35.1254 84.6111 35.1254C82.4839 35.1254 80.7603 33.3161 80.7603 31.0833C80.7603 28.8526 82.4839 27.0413 84.6111 27.0413Z" fill="#F6F6F6"/>
<path d="M84.6111 27.0411C86.7383 27.0411 88.462 28.8504 88.462 31.0831C88.462 33.3159 86.7383 35.1252 84.6111 35.1252C82.484 35.1252 80.7603 33.3159 80.7603 31.0831C80.7603 28.8524 82.484 27.0411 84.6111 27.0411ZM84.6111 25.9893C81.9347 25.9893 79.7583 28.2738 79.7583 31.0831C79.7583 33.8925 81.9347 36.1769 84.6111 36.1769C87.2876 36.1769 89.4639 33.8925 89.4639 31.0831C89.4639 28.2758 87.2857 25.9893 84.6111 25.9893Z" fill="black"/>
<path fill-rule="evenodd" clip-rule="evenodd" d="M64.1092 4.83326C74.3562 4.83326 82.6656 13.5533 82.6656 24.3112C82.6656 35.0692 74.3581 43.7892 64.1092 43.7892C53.8602 43.7892 45.5527 35.0692 45.5527 24.3112C45.5527 13.5533 53.8602 4.83326 64.1092 4.83326Z" fill="#2AAF8F"/>
<path d="M64.1092 4.83288C74.3563 4.83288 82.6657 13.5529 82.6657 24.3109C82.6657 35.0688 74.3582 43.7889 64.1092 43.7889C53.8603 43.7889 45.5528 35.0688 45.5528 24.3109C45.5528 13.5549 53.8603 4.83288 64.1092 4.83288ZM64.1092 3.78115C53.3242 3.78115 44.5508 12.9903 44.5508 24.3109C44.5508 35.6314 53.3242 44.8406 64.1092 44.8406C74.8942 44.8406 83.6676 35.6314 83.6676 24.3109C83.6676 12.9903 74.8923 3.78115 64.1092 3.78115Z" fill="black"/>
<path d="M80.4543 42.6106C79.8425 42.6106 79.2477 42.5907 78.6795 42.5569C74.0655 42.2806 68.5215 40.9684 63.0703 38.8629C40.8658 30.284 30.5032 18.1762 30.0732 17.6652L30.4483 17.3173L30.1982 16.862C30.4047 16.7367 30.6661 16.7825 30.8252 16.9693C31.2476 17.4723 41.4472 29.3894 63.4169 37.8768C74.4803 42.1514 85.0115 42.7856 87.9094 39.352C88.9834 38.0796 88.955 36.2604 87.8223 33.9403C87.6954 33.6818 87.7939 33.3657 88.0401 33.2325C88.2863 33.0993 88.5875 33.2027 88.7144 33.4611C90.3812 36.8788 89.6027 38.9305 88.6576 40.0499C86.9377 42.0857 83.5208 42.6106 80.4543 42.6106Z" fill="black"/>
<path fill-rule="evenodd" clip-rule="evenodd" d="M31.1866 7.69565C36.6323 7.69565 41.0476 12.3302 41.0476 18.0463C41.0476 23.7624 36.6323 28.397 31.1866 28.397C25.741 28.397 21.3257 23.7624 21.3257 18.0463C21.3257 12.3302 25.741 7.69565 31.1866 7.69565Z" fill="#F6F6F6"/>
<path d="M31.1871 28.924C25.4725 28.924 20.8242 24.045 20.8242 18.0465C20.8242 12.05 25.4725 7.16897 31.1871 7.16897C36.9018 7.16897 41.55 12.0481 41.55 18.0465C41.55 24.045 36.9018 28.924 31.1871 28.924ZM31.1871 8.22273C26.0256 8.22273 21.8262 12.6306 21.8262 18.0485C21.8262 23.4664 26.0256 27.8743 31.1871 27.8743C36.3487 27.8743 40.548 23.4664 40.548 18.0485C40.548 12.6306 36.3487 8.22273 31.1871 8.22273Z" fill="black"/>
<path fill-rule="evenodd" clip-rule="evenodd" d="M32.6896 8.69815C38.1353 8.69815 41.2284 13.5375 40.9841 17.8917C40.8951 19.4723 41.8081 22.0629 41.0485 23.6515C39.5673 26.7492 35.527 28.463 31.9281 28.463C26.4824 28.463 22.8306 24.7629 22.8306 19.0468C22.8306 13.3307 27.2439 8.69815 32.6896 8.69815Z" fill="#B2FFD5"/>
<path d="M31.1871 28.924C25.4725 28.924 20.8242 24.045 20.8242 18.0465C20.8242 12.05 25.4725 7.16897 31.1871 7.16897C36.9018 7.16897 41.55 12.0481 41.55 18.0465C41.55 24.045 36.9018 28.924 31.1871 28.924ZM31.1871 8.22273C26.0256 8.22273 21.8262 12.6306 21.8262 18.0485C21.8262 23.4664 26.0256 27.8743 31.1871 27.8743C36.3487 27.8743 40.548 23.4664 40.548 18.0485C40.548 12.6306 36.3487 8.22273 31.1871 8.22273Z" fill="black"/>
<path fill-rule="evenodd" clip-rule="evenodd" d="M3.89254 12.6509C5.86814 12.6509 7.46872 14.3408 7.46872 16.4265C7.46872 18.5121 5.86814 20.2021 3.89254 20.2021C1.91694 20.2021 0.316406 18.5121 0.316406 16.4265C0.316406 14.3408 1.91884 12.6509 3.89254 12.6509Z" fill="#B2FFD5"/>
<path fill-rule="evenodd" clip-rule="evenodd" d="M128.07 28.0184C129.261 28.0184 130.227 29.0324 130.227 30.285C130.227 31.5356 129.261 32.5495 128.07 32.5495C126.878 32.5495 125.912 31.5356 125.912 30.285C125.912 29.0324 126.878 28.0184 128.07 28.0184Z" fill="#B2FFD5"/>
<path d="M67.192 51.8643H48.6426C48.366 51.8643 48.1406 51.6297 48.1406 51.3375C48.1406 51.0472 48.3641 50.8126 48.6426 50.8126H67.192C67.4686 50.8126 67.6939 51.0472 67.6939 51.3375C67.6939 51.6277 67.4705 51.8643 67.192 51.8643Z" fill="#F6F6F6"/>
<path d="M53.2548 53.9085H48.6426C48.366 53.9085 48.1406 53.6739 48.1406 53.3816C48.1406 53.0913 48.3641 52.8567 48.6426 52.8567H53.2548C53.5314 52.8567 53.7568 53.0913 53.7568 53.3816C53.7568 53.6719 53.5314 53.9085 53.2548 53.9085Z" fill="#F6F6F6"/>
<path d="M67.2204 55.9326H48.6578C48.3812 55.9326 48.1577 55.698 48.1577 55.4057C48.1577 55.1154 48.3812 54.8808 48.6578 54.8808H67.2204C67.497 54.8808 67.7205 55.1154 67.7205 55.4057C67.7205 55.698 67.497 55.9326 67.2204 55.9326Z" fill="#F6F6F6"/>
<path d="M67.2619 57.994H56.1338C55.8572 57.994 55.6318 57.7594 55.6318 57.4691C55.6318 57.1788 55.8553 56.9422 56.1338 56.9422H67.2619C67.5385 56.9422 67.7639 57.1768 67.7639 57.4691C67.762 57.7594 67.5385 57.994 67.2619 57.994Z" fill="#F6F6F6"/>
<path d="M67.2204 55.9303H48.6558C48.3793 55.9303 48.1558 55.6957 48.1558 55.4034C48.1558 55.1131 48.3793 54.8785 48.6558 54.8785H67.2204C67.4969 54.8785 67.7224 55.1131 67.7224 55.4034C67.7224 55.6937 67.4969 55.9303 67.2204 55.9303Z" fill="#F6F6F6"/>
<path d="M54.6504 57.994H53.6767C53.4002 57.994 53.1748 57.7594 53.1748 57.4671C53.1748 57.1768 53.3983 56.9422 53.6767 56.9422H54.6504C54.9269 56.9422 55.1523 57.1768 55.1523 57.4671C55.1523 57.7594 54.9269 57.994 54.6504 57.994Z" fill="#F6F6F6"/>
<path d="M67.2614 59.9923H59.897C59.6205 59.9923 59.395 59.7577 59.395 59.4674C59.395 59.1771 59.6186 58.9405 59.897 58.9405H67.2614C67.538 58.9405 67.7615 59.1751 67.7615 59.4674C67.7634 59.7577 67.538 59.9923 67.2614 59.9923Z" fill="#F6F6F6"/>
<path d="M67.192 51.8643H48.6426C48.366 51.8643 48.1406 51.6297 48.1406 51.3375C48.1406 51.0472 48.3641 50.8126 48.6426 50.8126H67.192C67.4686 50.8126 67.6939 51.0472 67.6939 51.3375C67.6939 51.6277 67.4705 51.8643 67.192 51.8643Z" fill="#F6F6F6"/>
<path d="M67.2202 53.9085H56.1338C55.8572 53.9085 55.6318 53.6739 55.6318 53.3816C55.6318 53.0913 55.8553 52.8567 56.1338 52.8567H67.2202C67.4968 52.8567 67.7222 53.0913 67.7222 53.3816C67.7203 53.6719 67.4968 53.9085 67.2202 53.9085Z" fill="#F6F6F6"/>
<path d="M67.2204 55.9326H48.6578C48.3812 55.9326 48.1577 55.698 48.1577 55.4057C48.1577 55.1154 48.3812 54.8808 48.6578 54.8808H67.2204C67.497 54.8808 67.7205 55.1154 67.7205 55.4057C67.7205 55.698 67.497 55.9326 67.2204 55.9326Z" fill="#F6F6F6"/>
<path d="M51.9857 57.994H48.6842C48.4076 57.994 48.1841 57.7594 48.1841 57.4691C48.1841 57.1788 48.4076 56.9422 48.6842 56.9422H51.9857C52.2622 56.9422 52.4876 57.1768 52.4876 57.4691C52.4857 57.7594 52.2622 57.994 51.9857 57.994Z" fill="#F6F6F6"/>
<path d="M67.2204 55.9303H48.6558C48.3793 55.9303 48.1558 55.6957 48.1558 55.4034C48.1558 55.1131 48.3793 54.8785 48.6558 54.8785H67.2204C67.4969 54.8785 67.7224 55.1131 67.7224 55.4034C67.7224 55.6937 67.4969 55.9303 67.2204 55.9303Z" fill="#F6F6F6"/>
<path d="M57.0222 59.9923H48.6861C48.4095 59.9923 48.1841 59.7577 48.1841 59.4674C48.1841 59.1771 48.4076 58.9405 48.6861 58.9405H57.0222C57.2987 58.9405 57.5242 59.1751 57.5242 59.4674C57.5223 59.7577 57.2987 59.9923 57.0222 59.9923Z" fill="#F6F6F6"/>
<path fill-rule="evenodd" clip-rule="evenodd" d="M13.2229 104.107H38.7819C38.7819 104.107 37.5943 101.887 36.7078 100.332C35.8214 98.7771 34.3384 96.9997 34.3384 96.9997C34.3384 96.9997 35.2987 96.6617 36.8764 95.1348C38.4542 93.6059 40.5585 91.0034 40.5585 91.0034C40.5585 91.0034 42.5019 90.3255 43.4792 89.226C44.4547 88.1265 45.2559 86.6056 45.2559 86.6056L55.1999 95.5344C55.1999 95.5344 58.4691 99.6459 62.5206 98.3775C66.572 97.1091 74.0727 89.2717 74.0727 89.2717C74.0727 89.2717 75.6334 89.3692 76.2736 87.0947C76.9138 84.8202 77.4082 81.8142 78.77 81.9871C80.1319 82.1581 81.5184 83.6671 81.6055 82.9653C81.6926 82.2615 81.2305 81.4583 80.6319 81.1441C80.0334 80.828 79.092 80.1938 79.4898 80.2554C79.8876 80.3171 82.1775 80.5338 81.5203 79.1441C80.863 77.7563 77.7548 77.812 77.7548 77.812C77.7548 77.812 77.8154 77.2434 77.1203 76.8338C76.4251 76.4243 76.3172 76.2115 76.3172 76.2115C76.3172 76.2115 77.8741 75.8775 77.2472 75.1001C76.6202 74.3248 75.5785 73.2969 74.0727 74.3446C70.2182 77.0326 69.1215 83.0945 69.1215 83.0945L61.1663 87.8025L50.1635 75.3208C50.1635 75.3208 45.9851 68.0183 43.0114 67.7261C41.7386 67.6008 39.9846 67.1654 38.441 66.9706C36.3783 66.7121 34.6698 66.6147 34.7589 65.6822C34.9161 64.0539 37.3405 59.2406 37.3405 59.2406C37.3405 59.2406 39.7952 59.8967 40.8105 59.1074C42.4394 57.8409 43.4338 51.5564 43.4338 51.5564C43.4338 51.5564 42.0322 50.6975 41.5302 50.447C41.0283 50.1965 40.6836 50.0036 40.6836 50.0036C40.6836 50.0036 42.8826 45.6376 40.979 44.0511C39.0774 42.4645 33.2833 39.4624 30.4005 40.6314C27.5177 41.8005 26.5915 43.2518 26.5915 43.2518C26.5915 43.2518 22.5419 41.4605 20.7937 43.6077C19.0454 45.7529 17.0736 54.7374 15.547 56.8449C14.0185 58.9523 7.35885 64.3462 8.26801 67.905C9.17718 71.4638 11.3156 70.8355 11.3156 70.8355C11.3156 70.8355 8.62981 76.2513 10.469 79.4979C12.3081 82.7446 12.543 82.9176 12.543 82.9176L8.01419 91.6237C8.01419 91.6237 5.97047 95.6796 7.92896 97.3973C9.88746 99.1171 12.5847 98.8328 14.064 97.7969C15.5451 96.7611 17.0547 94.5841 17.1532 94.7769C17.2517 94.9698 18.2953 97.3536 18.2953 97.3536C18.2953 97.3536 17.1229 98.6121 16.0111 100.063C14.9049 101.515 13.2229 104.107 13.2229 104.107Z" fill="#F6F6F6"/>
<path fill-rule="evenodd" clip-rule="evenodd" d="M13.8158 83.852C13.8158 83.852 6.98756 94.5563 8.86461 97.622C10.7417 100.688 17.1172 94.6457 17.1172 94.6457C17.1172 94.6457 16.3141 92.9976 16.2289 90.914C16.1436 88.8304 16.6096 84.2954 16.6096 84.2954L18.0908 84.1185C18.0908 84.1185 17.2706 88.7727 17.8786 91.7589C18.5491 95.0493 19.8258 97.1329 19.8258 97.1329H34.6792C34.6792 97.1329 37.6624 95.5583 38.7004 93.8902C39.7365 92.2222 40.6892 90.4249 40.6892 90.4249C40.6892 90.4249 42.2215 90.5621 43.3125 89.226C44.4035 87.888 45.1745 86.5162 45.1745 86.5162C45.1745 86.5162 57.3364 97.7453 60.2818 98.5525C63.4885 99.4332 68.1517 94.7332 68.1517 94.7332C68.1517 94.7332 68.4794 91.3573 66.5019 88.9596C64.5245 86.5619 62.6513 87.049 62.6513 87.049L61.2118 87.7608C61.2118 87.7608 51.1996 77.5337 48.9399 73.947C46.6802 70.3604 44.1043 67.6843 41.5776 67.3742C39.0508 67.064 34.5315 66.8573 34.6376 65.6425C34.7437 64.4257 35.5259 63.0221 35.5259 63.0221L31.3362 62.3998C31.3362 62.3998 30.8892 65.9546 28.3738 66.8851C25.8584 67.8175 25.6236 68.2629 25.6236 68.2629L24.6084 83.854C24.6084 83.854 21.6195 84.4584 20.4186 84.4763C19.2158 84.4922 13.8158 83.852 13.8158 83.852Z" fill="#2AAF8F"/>
<path fill-rule="evenodd" clip-rule="evenodd" d="M14.958 104.152L38.9948 104.285C38.9948 104.285 38.0913 102.497 36.9207 100.553C35.7501 98.6085 34.0435 96.9543 34.0435 96.9543L19.951 97.2644C19.951 97.2644 18.949 98.6601 17.6231 100.33C16.2991 102 14.958 104.152 14.958 104.152Z" fill="black"/>
<path fill-rule="evenodd" clip-rule="evenodd" d="M6.6084 95.246C6.6084 95.0771 6.6084 94.91 6.6084 94.743C6.67659 93.58 7.16148 92.5481 7.65394 91.4964C9.048 88.5141 10.4761 85.7009 12.141 83.174C10.889 81.9194 9.58401 80.4323 9.44006 78.0067C9.36809 76.782 9.62759 75.5673 9.87571 74.44C10.1182 73.3405 10.3265 72.2371 10.7906 71.3762C8.23734 71.3881 7.29027 68.9626 7.78462 66.3462C8.09715 64.69 9.00822 63.193 9.83215 62.1392C11.66 59.8071 14.3969 58.3916 15.8005 55.7374C17.2646 52.9698 17.6908 49.2281 18.85 46.2717C19.3993 44.8701 20.1891 43.3472 21.3767 42.6135C22.5605 41.8819 25.0417 41.9356 26.3865 42.6135C27.4131 41.6751 28.5628 40.7148 30.2202 40.3271C33.728 39.506 37.7 40.8997 39.8479 42.4306C41.0241 43.2696 42.1909 44.546 42.2003 46.3175C42.2079 47.7827 41.6378 48.7868 41.1548 49.8385C41.7193 50.6556 43.638 50.3972 43.8558 51.5761C43.9846 52.274 43.5111 53.2283 43.333 53.9083C42.7516 56.141 42.4845 59.0914 40.6756 59.8528C39.6907 60.2684 38.4368 60.0576 37.4519 59.8528C37.0636 60.9066 36.6734 61.8927 36.2321 62.8709C35.8021 63.8232 35.2225 64.8153 35.2301 66.0261C35.857 66.539 36.7813 66.5211 37.5826 66.5748C40.3631 66.7597 42.8349 67.0241 44.6835 68.221C47.0114 69.726 48.5247 72.4081 50.1726 74.6229C53.5592 79.1738 57.302 83.3827 61.2815 87.2457C63.7703 85.8341 66.2118 84.3708 68.6874 82.9473C68.9601 80.0187 70.1421 77.7224 71.7805 75.8595C72.7502 74.7581 74.6689 72.8972 76.7468 74.0761C77.5252 74.5175 78.4761 75.8317 77.1824 76.3625C77.5593 76.442 77.7601 77.0325 78.2715 77.1856C78.6901 77.3109 79.1996 77.2294 79.6656 77.3228C80.7736 77.5475 82.3268 78.2413 82.1923 79.6092C82.1317 80.2235 81.7093 80.653 80.9289 80.6152C81.4404 81.0088 82.4518 82.0367 81.9745 83.1759C81.8836 83.3946 81.6733 83.6332 81.3646 83.6789C80.283 83.84 79.7129 82.5517 78.6636 82.8101C77.8567 83.0089 77.5215 84.5319 77.2695 85.5538C76.9892 86.689 76.6843 87.874 76.0933 88.5261C75.5365 89.1424 74.8659 89.3631 74.3072 89.7607C73.7522 90.1564 73.2654 90.8065 72.7389 91.3155C71.11 92.8941 69.5776 94.421 67.8597 95.8882C65.7932 97.6557 62.7797 100.115 59.1033 98.5861C57.6808 97.9937 56.5084 97.0612 55.3132 96.1169C51.7447 93.2976 48.7236 90.2438 45.337 87.2457C44.3691 89.0191 43.0849 90.4605 41.1112 91.1783C39.6187 93.7589 37.5466 95.7272 35.0123 97.2143C36.7984 99.2581 38.2 101.624 39.1944 104.576C39.3403 105.01 39.5789 105.598 39.0637 105.674C38.6281 105.738 38.4519 105.121 38.3231 104.759C37.5238 102.497 36.7473 100.916 35.4479 99.2263C35.1089 98.7869 34.3171 97.6358 33.836 97.4887C33.3701 97.3455 32.6144 97.443 31.9628 97.443C28.1007 97.443 24.5568 97.3455 20.7668 97.5801C20.155 97.6179 19.2648 97.5185 18.8935 97.6716C18.742 97.7332 18.7098 97.938 18.545 98.1289C18.401 98.2979 18.2116 98.3973 18.1093 98.4947C16.3914 100.149 14.9064 101.974 13.7094 103.982C13.5313 104.282 13.4044 104.845 12.8381 104.759C12.3892 103.944 13.1658 103.137 13.5351 102.564C14.4064 101.218 15.3534 100.059 16.3668 98.952C16.9009 98.3694 17.5336 97.94 17.9351 97.3058C17.6055 96.7531 17.2873 96.1864 17.0638 95.5224C16.7664 95.6954 16.5448 96.0214 16.2797 96.2998C14.753 97.9022 11.141 100.373 8.3074 98.4947C7.33762 97.8505 6.78455 96.8028 6.6084 95.246ZM40.4161 44.21C38.7701 42.3233 34.6695 40.7566 31.3548 41.192C29.7069 41.4087 28.2352 41.9674 27.4775 43.0668C27.845 43.1702 28.1386 43.3491 28.3924 43.5698C28.6045 44.4625 29.2447 44.8621 29.3508 45.8105C29.5232 47.3533 28.345 47.8662 27.3468 48.417C27.1972 50.6835 27.0135 52.9142 26.8676 55.1847C28.0799 56.0435 29.3016 57.1271 30.135 58.5228C30.3073 58.8111 30.6634 59.8628 31.0063 59.8946C31.262 59.9185 31.5764 59.4373 31.7468 59.2087C32.406 58.324 32.7848 57.314 33.1409 56.2821C32.1882 55.5604 31.6843 53.3297 32.7924 52.4867C32.7223 52.3157 32.6162 52.1825 32.6617 51.8923C32.9041 51.4926 33.3833 51.4469 33.7508 51.2978C36.2264 50.2878 37.9216 48.7748 39.327 46.5879C39.524 46.2837 39.7968 45.6574 40.1547 45.6733C41.1851 45.721 39.9596 47.3414 39.8498 47.5481C40.096 47.8384 40.2267 48.6456 40.5468 49.0114C41.4787 47.3931 41.4711 45.4208 40.4161 44.21ZM26.343 49.8365C26.3941 49.1466 26.3619 47.9279 26.5608 47.6416C26.7275 47.401 27.4188 47.3195 27.6935 47.1386C28.0079 46.9318 28.3924 46.6376 28.4341 46.224C28.4833 45.7489 28.2276 45.3453 28.042 45.0351C27.8374 44.6951 27.6253 44.381 27.3885 44.1206C25.9736 43.4227 23.606 42.5579 21.943 43.4346C20.1474 44.381 19.35 47.4189 18.7192 49.6993C18.1226 51.8545 17.6245 54.2283 16.7153 56.0097C14.7587 59.8449 10.8512 61.0338 9.1787 64.9266C8.90784 65.5569 8.65404 66.4615 8.61237 67.0758C8.4741 69.0978 9.19954 70.1714 10.747 70.3225C11.6543 70.412 12.3854 70.0919 12.4896 70.5969C12.5691 70.9826 12.2774 71.1237 12.0104 71.3742C11.2489 72.092 11.105 73.1198 10.8341 74.3465C10.6523 75.1696 10.4477 76.0384 10.3985 76.8158C10.1636 80.4959 12.5691 82.6928 15.1034 83.4921C17.7097 84.3132 20.9884 84.0149 23.9905 83.4921C24.5909 72.5771 25.5285 60.8191 26.343 49.8365ZM34.7509 51.9837C35.0596 52.1607 35.4953 52.4549 35.84 52.8983C36.0824 53.2084 36.8079 54.5067 35.8836 54.453C35.4706 54.4292 35.1202 53.4828 34.838 53.2184C34.1789 52.6 33.2905 53.0374 33.0954 53.6756C32.8492 54.4749 33.4326 55.2741 33.8796 55.5505C34.3247 55.8248 35.84 55.634 35.84 56.3278C35.84 57.1331 34.5406 56.8269 33.9667 56.6479C33.3341 58.31 32.7299 60.5905 30.8301 60.9006C30.7525 61.2605 30.6426 61.5865 30.5687 61.9523C32.1616 62.1233 33.9175 62.1273 35.4479 62.3639C35.6903 61.7635 35.9574 61.2267 36.2321 60.5348C36.3666 60.1928 36.6336 58.8568 37.0598 58.7514C37.5238 58.6361 38.2227 59.0317 38.8023 59.0715C41.0203 59.2266 41.3916 57.9462 41.8518 56.1449C41.5223 55.7712 40.0544 55.0435 40.0657 54.4073C40.0695 54.1687 40.3081 53.9063 40.5449 53.9043C41.1359 53.9003 41.6226 55.0475 42.1132 55.1389C42.3424 53.9918 42.6549 52.9321 42.941 51.8465C41.1719 51.2322 39.7039 50.3057 39.1944 48.3712C38.0674 49.9478 36.5389 51.101 34.7509 51.9837ZM26.038 66.1613C28.5079 65.3998 29.3849 62.9683 30.0459 60.3081C29.2069 58.7355 28.2125 57.3239 26.7786 56.3756C26.5191 59.6242 26.3127 62.9285 26.038 66.1613ZM25.9509 67.2587C25.6498 71.8216 25.2747 77.0206 24.9925 81.8001C24.9489 82.5437 25.0493 83.4284 24.8618 83.9036C24.5948 84.5816 23.3787 84.5756 22.5964 84.681C20.9069 84.9096 18.7912 85.1343 17.0202 84.9096C16.0486 89.1961 16.8706 94.1267 18.7628 96.7531C23.0321 96.3594 27.7086 96.4787 32.2677 96.4787C32.9496 96.4787 33.7129 96.6318 34.2281 96.5244C34.5425 96.4608 34.8702 96.1347 35.1865 95.93C36.8155 94.8802 38.1413 93.7032 39.2815 92.226C39.6509 91.7469 40.1339 90.6713 40.5449 90.3512C40.9313 90.049 41.4787 89.9695 41.8954 89.711C43.1209 88.9535 43.9353 87.8322 44.64 86.5558C44.3142 86.1144 43.9183 85.85 43.4637 85.4126C43.1853 85.1462 42.3708 84.6014 42.5053 84.0408C42.5508 83.8539 42.7288 83.7366 42.8538 83.7207C43.1948 83.675 43.5148 84.17 43.8122 84.4523C45.9336 86.4743 47.9755 88.367 50.0419 90.2597C52.3887 92.4089 54.7961 94.7908 57.4478 96.5702C58.8684 97.5245 60.5598 98.3973 62.5448 97.8963C64.2685 97.4608 65.564 96.4469 66.8577 95.3812C69.0605 93.566 71.0152 91.552 73.0438 89.5738C73.3506 89.2736 73.6537 88.8541 73.9151 88.705C74.0875 88.6056 74.3186 88.6135 74.4814 88.5221C74.9853 88.2418 75.5289 87.7209 75.7883 87.196C76.635 85.4742 76.4589 82.4622 78.228 81.8459C78.7602 81.661 79.5368 81.814 79.927 81.983C80.3683 82.1739 80.7244 82.5735 81.1032 82.5318C80.9933 81.6629 80.3399 81.4641 79.7091 81.1599C78.9856 80.812 77.9173 80.3667 77.1389 80.7027C76.5763 80.9452 76.1653 81.8081 75.6141 81.7087C75.4702 81.6828 75.2372 81.482 75.222 81.2514C75.1766 80.6112 76.2884 79.9352 76.7468 79.7424C77.3491 79.4899 77.94 79.6609 78.62 79.6509C78.87 79.647 79.1296 79.5316 79.3606 79.5137C80.0974 79.4601 80.73 79.7225 81.1903 79.468C81.0634 78.6171 79.7735 78.299 78.7943 78.2334C77.2393 78.128 76.4664 78.802 75.7012 79.6052C75.3925 79.9293 74.9474 80.8836 74.4814 80.8398C74.311 80.8239 74.0685 80.6052 74.0458 80.3826C73.9852 79.7901 74.9663 78.8974 75.222 78.6449C75.8224 78.0544 76.3054 77.6827 76.9646 77.456C75.955 76.4182 74.9777 77.3665 74.3508 78.1876C74.061 78.5654 73.6764 79.6847 73.1745 79.6509C72.2634 79.5913 73.0874 78.3149 73.2617 78.0505C73.5155 77.6628 73.7371 77.3288 73.9587 77.0902C74.1481 75.7661 75.1008 75.0483 76.7032 75.3525C76.4627 74.6428 75.097 74.6447 74.3943 74.941C73.684 75.2412 73.1025 75.8416 72.521 76.4957C71.0967 78.0982 70.214 79.8577 69.7329 82.3946C69.589 83.1541 69.6609 84.1919 68.7745 84.0408C66.5527 85.3828 64.3045 86.697 62.0221 87.9734C61.9804 88.5798 63.7419 89.1066 63.5468 89.9397C63.5089 90.0987 63.3517 90.2359 63.1983 90.2597C62.8214 90.3194 62.1717 89.5281 61.8042 89.1623C60.5087 87.872 59.145 86.6691 58.0577 85.4126C54.8529 81.7087 51.794 78.5396 48.9093 74.5294C47.4091 72.4419 46.106 70.3324 44.2914 69.1336C43.1436 68.3761 41.5696 67.9645 39.8914 67.7617C38.4368 67.5868 35.8513 67.7399 34.838 67.0301C33.6504 66.1971 34.5993 64.3342 35.0123 63.2804C33.4496 63.1532 31.8548 63.0578 30.2638 62.9603C29.3641 64.9584 28.1746 66.6504 25.9509 67.2587ZM8.65403 91.5421C8.22597 92.4964 7.68425 93.399 7.60849 94.5144C7.4437 96.924 8.96468 98.3297 11.1808 98.1269C12.948 97.9658 14.5068 96.7769 15.5808 95.7033C15.8668 95.417 16.56 94.7053 16.5827 94.3772C16.5978 94.1645 16.3365 93.7132 16.2342 93.3712C15.486 90.8383 15.5732 87.5002 16.1035 84.7744C14.8799 84.5816 13.8098 84.2237 12.9233 83.677C11.4819 85.9116 9.86625 88.8462 8.65403 91.5421Z" fill="black"/>
<path fill-rule="evenodd" clip-rule="evenodd" d="M38.5875 49.6976C39.0781 49.4471 39.2466 49.9819 39.4588 50.3835C39.6937 50.8289 40.1009 51.8071 39.241 51.664C38.9436 51.6162 37.9662 50.0177 38.5875 49.6976Z" fill="black"/>
</svg>
