<svg width="123" height="106" viewBox="0 0 123 106" fill="none" xmlns="http://www.w3.org/2000/svg">
<path d="M115.822 62.427C115.727 62.427 115.633 62.4052 115.543 62.3577C115.228 62.1954 115.099 61.7956 115.254 61.467C115.422 61.1008 115.801 60.9622 116.116 61.1226C116.431 61.2809 116.565 61.6808 116.412 62.0113C116.28 62.2904 116.055 62.427 115.822 62.427ZM116.729 60.121C116.655 60.121 116.582 60.1071 116.51 60.0794C116.182 59.9527 116.012 59.5707 116.133 59.2243C116.263 58.8443 116.627 58.6622 116.955 58.7869C117.285 58.9116 117.457 59.2916 117.34 59.638C117.23 59.9527 116.987 60.121 116.729 60.121ZM117.477 57.7536C117.417 57.7536 117.357 57.7437 117.294 57.7259C116.959 57.621 116.768 57.2489 116.868 56.8965C116.976 56.5086 117.326 56.3047 117.664 56.4076C118 56.5105 118.194 56.8787 118.096 57.233C118.002 57.5675 117.749 57.7536 117.477 57.7536ZM118.09 55.3467C118.041 55.3467 117.992 55.3407 117.941 55.3288C117.6 55.2437 117.391 54.8835 117.472 54.5272C117.557 54.1353 117.894 53.9116 118.237 53.9907C118.579 54.0719 118.794 54.4282 118.716 54.7865C118.637 55.1408 118.377 55.3467 118.09 55.3467ZM118.569 52.906C118.531 52.906 118.494 52.9021 118.456 52.8961C118.111 52.8308 117.883 52.4844 117.945 52.1222C118.009 51.7243 118.337 51.4809 118.682 51.5422C119.027 51.6036 119.261 51.948 119.203 52.3102C119.139 52.6804 118.871 52.906 118.569 52.906ZM118.914 50.4397C118.496 50.3942 118.245 50.0656 118.283 49.6994C118.332 49.2837 118.646 49.0244 118.995 49.0699C119.342 49.1155 119.589 49.448 119.548 49.8122C119.506 50.1883 119.233 50.4397 118.914 50.4397ZM119.114 47.9575C118.729 47.9357 118.462 47.623 118.481 47.2548C118.501 46.8451 118.797 46.56 119.152 46.5838C119.501 46.6036 119.769 46.9183 119.75 47.2845C119.729 47.6824 119.448 47.9575 119.114 47.9575ZM119.165 45.4674C118.818 45.4674 118.535 45.1745 118.531 44.8103C118.531 44.3906 118.814 44.0917 119.165 44.0917C119.516 44.0917 119.799 44.3906 119.799 44.7568C119.804 45.1586 119.523 45.4615 119.173 45.4654C119.171 45.4654 119.167 45.4674 119.165 45.4674ZM119.059 42.9773C118.733 42.9773 118.456 42.7141 118.428 42.3657C118.399 41.948 118.663 41.6293 119.012 41.6036C119.367 41.5739 119.665 41.855 119.689 42.2212C119.721 42.621 119.461 42.9437 119.112 42.9734C119.093 42.9773 119.076 42.9773 119.059 42.9773ZM118.79 40.5031C118.482 40.5031 118.211 40.2675 118.164 39.9369C118.109 39.5213 118.35 39.1848 118.697 39.1353C119.044 39.0858 119.365 39.3392 119.412 39.7034C119.471 40.1012 119.231 40.4397 118.886 40.4951C118.854 40.5011 118.822 40.5031 118.79 40.5031ZM118.352 38.0545C118.062 38.0545 117.8 37.8447 117.734 37.5359C117.647 37.1361 117.862 36.7798 118.203 36.6986C118.545 36.6194 118.884 36.8431 118.961 37.2014C119.048 37.6012 118.833 37.9575 118.492 38.0387C118.445 38.0506 118.398 38.0545 118.352 38.0545ZM117.743 35.6476C117.47 35.6476 117.219 35.4615 117.136 35.1725C117.021 34.7925 117.206 34.4184 117.54 34.3055C117.873 34.1927 118.23 34.3867 118.337 34.737C118.454 35.1408 118.262 35.513 117.928 35.6179C117.864 35.6377 117.804 35.6476 117.743 35.6476ZM116.963 33.296C116.71 33.296 116.472 33.1377 116.372 32.8764C116.229 32.4845 116.393 32.1005 116.719 31.9678C117.047 31.8372 117.413 32.0094 117.538 32.3518C117.679 32.726 117.521 33.1119 117.194 33.2485C117.119 33.2802 117.04 33.296 116.963 33.296ZM116.014 31.0138C115.778 31.0138 115.552 30.8752 115.443 30.6377C115.273 30.2636 115.407 29.8657 115.722 29.7073C116.039 29.549 116.416 29.6895 116.567 30.0221C116.736 30.3883 116.604 30.7861 116.289 30.9465C116.201 30.992 116.106 31.0138 116.014 31.0138ZM114.903 28.8127C114.683 28.8127 114.47 28.6919 114.353 28.4762C114.158 28.1199 114.264 27.7121 114.568 27.53C114.873 27.3479 115.26 27.4587 115.433 27.7774C115.627 28.1337 115.522 28.5415 115.218 28.7236C115.118 28.783 115.011 28.8127 114.903 28.8127ZM113.628 26.7145C113.43 26.7145 113.234 26.6175 113.112 26.4354C112.886 26.1028 112.951 25.6872 113.234 25.4734C113.519 25.2596 113.915 25.3269 114.119 25.6258C114.347 25.9623 114.281 26.378 113.994 26.5918C113.885 26.6729 113.757 26.7145 113.628 26.7145ZM112.154 24.7668C111.978 24.7668 111.805 24.6915 111.681 24.5431L112.154 24.1017L111.673 24.5352C111.42 24.2303 111.447 23.8107 111.711 23.5692C111.975 23.3277 112.374 23.3554 112.606 23.6325C112.863 23.9354 112.838 24.355 112.576 24.6005C112.454 24.7113 112.305 24.7668 112.154 24.7668ZM110.476 23.009C110.327 23.009 110.179 22.9556 110.059 22.8447C109.759 22.5597 109.74 22.1401 109.976 21.8669C110.211 21.5938 110.613 21.574 110.872 21.8214C111.156 22.0827 111.185 22.5043 110.954 22.7814C110.828 22.9318 110.653 23.009 110.476 23.009ZM108.607 21.4789C108.484 21.4789 108.36 21.4413 108.25 21.3622C107.924 21.1227 107.854 20.707 108.054 20.4061C108.256 20.1052 108.65 20.032 108.937 20.2418C109.254 20.4694 109.329 20.8831 109.131 21.188C109.008 21.376 108.81 21.4789 108.607 21.4789ZM106.574 20.1963C106.474 20.1963 106.374 20.1725 106.28 20.1211C105.933 19.931 105.812 19.5292 105.976 19.2026C106.138 18.878 106.521 18.7513 106.832 18.9215C107.179 19.1116 107.3 19.5134 107.136 19.84C107.023 20.0656 106.802 20.1963 106.574 20.1963ZM104.415 19.167C104.339 19.167 104.264 19.1531 104.188 19.1234C103.817 18.9691 103.658 18.5831 103.787 18.2406C103.917 17.8982 104.285 17.7319 104.611 17.8685C104.969 18.013 105.133 18.397 105.007 18.7414C104.911 19.0047 104.669 19.167 104.415 19.167ZM29.5876 19.1076C29.5235 19.1076 29.4594 19.0977 29.3953 19.0759C29.0615 18.9651 28.8767 18.589 28.9842 18.2386C29.1049 17.8527 29.4651 17.6587 29.797 17.7735C30.1289 17.8883 30.3118 18.2604 30.2024 18.6088C30.1062 18.9275 29.8573 19.1076 29.5876 19.1076ZM102.165 18.3792C102.106 18.3792 102.048 18.3713 101.99 18.3535C101.62 18.2485 101.42 17.8824 101.512 17.528C101.605 17.1737 101.954 16.9639 102.291 17.0609C102.676 17.1757 102.87 17.5439 102.774 17.8982C102.695 18.1892 102.442 18.3792 102.165 18.3792ZM99.8587 17.8032C99.8172 17.8032 99.7776 17.7992 99.7361 17.7913C99.3533 17.7141 99.1289 17.3638 99.1968 17.0035C99.2646 16.6432 99.5965 16.4057 99.9398 16.477C100.324 16.5562 100.549 16.9065 100.481 17.2668C100.421 17.5835 100.155 17.8032 99.8587 17.8032ZM97.5166 17.4073C97.4902 17.4073 97.4638 17.4053 97.4373 17.4014C97.0413 17.344 96.8 17.0094 96.8471 16.6452C96.8942 16.281 97.213 16.0257 97.5618 16.0752C97.9427 16.1246 98.1898 16.4572 98.1464 16.8234C98.1049 17.1599 97.8315 17.4073 97.5166 17.4073ZM95.1556 17.1559C94.72 17.1262 94.4578 16.8075 94.4805 16.4414C94.505 16.0752 94.8086 15.798 95.1575 15.8238C95.5554 15.8574 95.8156 16.1801 95.7873 16.5463C95.759 16.8927 95.4818 17.1559 95.1556 17.1559ZM92.7852 17.0174C92.376 17.0055 92.1006 16.6987 92.1101 16.3325C92.1195 15.9643 92.4061 15.6674 92.7607 15.6852C93.1604 15.703 93.432 16.0118 93.4188 16.38C93.4037 16.7363 93.1227 17.0174 92.7852 17.0174ZM90.4091 16.956C90.0093 16.9501 89.7284 16.6472 89.734 16.281C89.7397 15.9129 90.0207 15.612 90.3771 15.6239C90.7693 15.6298 91.0484 15.9326 91.0446 16.2988C91.039 16.665 90.7561 16.956 90.4091 16.956ZM85.6608 16.952C85.2704 16.952 84.9857 16.6531 84.9857 16.287C84.9857 15.9188 85.2704 15.6219 85.6193 15.6219C86.0115 15.6219 86.2944 15.9208 86.2944 16.287C86.2963 16.6551 86.0115 16.952 85.6608 16.952ZM88.0349 16.9461C87.6427 16.9461 87.3599 16.6472 87.3599 16.281C87.3599 15.9129 87.6446 15.6159 87.9935 15.6159C88.3857 15.6159 88.6686 15.9148 88.6686 16.281C88.6686 16.6472 88.3857 16.9461 88.0349 16.9461ZM83.2885 16.9421C82.8887 16.9362 82.6077 16.6334 82.6134 16.2672C82.619 15.903 82.9019 15.61 83.247 15.61C83.6468 15.6159 83.9277 15.9188 83.9221 16.285C83.9164 16.6512 83.6336 16.9421 83.2885 16.9421ZM80.9143 16.8768C80.4881 16.8531 80.2204 16.5403 80.2392 16.1721C80.2581 15.806 80.5541 15.5209 80.9068 15.5447C81.2896 15.5605 81.5611 15.8713 81.546 16.2394C81.5347 16.5957 81.2537 16.8768 80.9143 16.8768ZM30.408 16.762C30.3269 16.762 30.2439 16.7462 30.1628 16.7105C29.8404 16.568 29.6876 16.1781 29.8215 15.8396C29.9686 15.4635 30.3401 15.3012 30.6644 15.4417C30.9888 15.5823 31.1434 15.9702 31.0095 16.3107L30.4231 16.0573L31.0039 16.3246C30.8907 16.6076 30.655 16.762 30.408 16.762ZM78.5477 16.7026C78.0875 16.6532 77.8368 16.3246 77.8764 15.9584C77.916 15.5922 78.229 15.3309 78.576 15.3705C78.9569 15.4081 79.2115 15.7347 79.1775 16.1009C79.1474 16.4433 78.8701 16.7026 78.5477 16.7026ZM76.198 16.3523C76.1584 16.3523 76.1169 16.3483 76.0754 16.3404C75.6964 16.2672 75.4701 15.9208 75.5323 15.5585C75.5946 15.1963 75.9265 14.9568 76.2697 15.0241C76.66 15.1033 76.8844 15.4536 76.8184 15.8139C76.7619 16.1326 76.496 16.3523 76.198 16.3523ZM73.9012 15.7367C73.8352 15.7367 73.7673 15.7248 73.7013 15.703C73.3392 15.5823 73.1525 15.2102 73.2581 14.8578C73.3637 14.5075 73.7201 14.3115 74.0539 14.4224C74.4348 14.555 74.6159 14.933 74.5046 15.2814C74.4141 15.5605 74.1671 15.7367 73.9012 15.7367ZM71.7043 14.8083C71.6119 14.8083 71.5175 14.7866 71.427 14.741C71.0782 14.5668 70.9443 14.169 71.0952 13.8364C71.246 13.5039 71.6251 13.3634 71.94 13.5217C72.2964 13.7018 72.4265 14.1017 72.2738 14.4322C72.1663 14.6698 71.94 14.8083 71.7043 14.8083ZM31.3754 14.4817C31.2811 14.4817 31.1849 14.46 31.0963 14.4125C30.7813 14.2501 30.6531 13.8503 30.8078 13.5217C30.9775 13.1555 31.3565 13.017 31.6714 13.1773C31.9863 13.3376 32.1184 13.7355 31.9656 14.0661C31.8355 14.3452 31.6092 14.4817 31.3754 14.4817ZM69.6488 13.5672C69.5281 13.5672 69.4074 13.5316 69.2999 13.4544C68.9793 13.2327 68.8964 12.821 69.0887 12.5122C69.2811 12.2054 69.6733 12.1183 69.9675 12.3202C70.288 12.5479 70.371 12.9655 70.1749 13.2703C70.0523 13.4623 69.8524 13.5672 69.6488 13.5672ZM32.4917 12.2806C32.3842 12.2806 32.2768 12.2529 32.1768 12.1935C31.8732 12.0114 31.7676 11.6037 31.9411 11.285C32.1429 10.9247 32.5313 10.8178 32.8331 11.0039C33.1348 11.19 33.2366 11.5977 33.0593 11.9144C32.9255 12.1599 32.7124 12.2806 32.4917 12.2806ZM67.7762 12.053C67.6291 12.053 67.4801 11.9996 67.3595 11.8887C67.0672 11.6254 67.0351 11.2058 67.2633 10.9267C67.4915 10.6476 67.8912 10.614 68.1571 10.8535C68.457 11.1286 68.4834 11.5482 68.2533 11.8254C68.1288 11.9758 67.9535 12.053 67.7762 12.053ZM66.0526 10.3428C65.8885 10.3428 65.7245 10.2755 65.6 10.1429C65.3285 9.85783 65.3285 9.43622 65.5755 9.17493C65.8226 8.91563 66.2242 8.91563 66.4732 9.17493C66.7523 9.47185 66.7485 9.89346 66.4977 10.1528C66.3732 10.2794 66.2129 10.3428 66.0526 10.3428ZM33.7646 10.1745C33.642 10.1745 33.5176 10.1369 33.4082 10.0578C33.1197 9.84992 33.0443 9.43622 33.2423 9.13139C33.4704 8.78895 33.8665 8.71571 34.1531 8.92553C34.4397 9.13732 34.5095 9.55102 34.3096 9.85189C34.1663 10.0736 33.9664 10.1745 33.7646 10.1745ZM64.4026 8.5534C64.2366 8.5534 64.0707 8.48412 63.9462 8.34952C63.6747 8.05459 63.6822 7.63297 63.9349 7.37763C64.1876 7.12228 64.5893 7.13021 64.8325 7.39545C65.1041 7.69236 65.0965 8.11397 64.8439 8.36733C64.7194 8.49006 64.561 8.5534 64.4026 8.5534ZM35.2053 8.19314C35.0601 8.19314 34.9131 8.14168 34.7943 8.03281C34.5284 7.7933 34.4963 7.37367 34.7245 7.09457C34.9734 6.7838 35.3732 6.74818 35.641 6.98373C35.9087 7.21928 35.9446 7.64089 35.7183 7.92196C35.5636 8.11397 35.3845 8.19314 35.2053 8.19314ZM62.7224 6.79568C62.5659 6.79568 62.4093 6.7363 62.2868 6.61358C62.0058 6.34636 61.9869 5.92475 62.2226 5.65159C62.4584 5.38041 62.86 5.35864 63.1184 5.60606C63.4126 5.89704 63.4239 6.31864 63.1844 6.58586C63.0599 6.7264 62.8921 6.79568 62.7224 6.79568ZM36.829 6.37406C36.6649 6.37406 36.5009 6.30677 36.3764 6.17415C36.1312 5.91089 36.135 5.49126 36.3858 5.23195C36.6781 4.94098 37.0798 4.95286 37.3212 5.22008C37.5606 5.4873 37.5493 5.90891 37.2948 6.16228C37.1496 6.31073 36.9893 6.37406 36.829 6.37406ZM60.9139 5.1884C60.78 5.1884 60.6462 5.14485 60.5311 5.0538C60.2256 4.82023 60.1634 4.40258 60.3689 4.10567C60.5745 3.80876 60.9724 3.74344 61.2552 3.95919C61.5777 4.21454 61.6324 4.63219 61.4193 4.92515C61.2967 5.09736 61.1063 5.1884 60.9139 5.1884ZM38.6374 4.76482C38.4451 4.76482 38.2565 4.67376 38.132 4.50155C37.9208 4.2086 37.9755 3.79094 38.2546 3.56924C38.5809 3.31984 38.9769 3.38516 39.1843 3.68207C39.3898 3.97898 39.3276 4.39466 39.0447 4.6124C38.9071 4.72126 38.7713 4.76482 38.6374 4.76482ZM58.9282 3.83647C58.8245 3.83647 58.7208 3.81073 58.6246 3.75531C58.2795 3.55341 58.1683 3.14763 58.338 2.82697C58.5077 2.50432 58.8943 2.38952 59.1998 2.56766C59.5392 2.76362 59.6523 3.16743 59.4845 3.49007C59.3714 3.71177 59.1526 3.83647 58.9282 3.83647ZM40.6307 3.41881C40.4063 3.41881 40.1894 3.2941 40.0744 3.07241C39.9066 2.74977 40.0197 2.34596 40.3271 2.16782C40.6703 1.97186 41.055 2.08865 41.2247 2.41129C41.3925 2.73394 41.2794 3.13774 40.972 3.3139C40.8381 3.39308 40.7344 3.41881 40.6307 3.41881ZM56.7785 2.79925C56.703 2.79925 56.6257 2.7854 56.5522 2.75571C56.1958 2.61913 56.0241 2.23711 56.1448 1.89269C56.2636 1.54629 56.6276 1.36814 56.9576 1.49284C57.3329 1.64328 57.4969 2.02927 57.3725 2.3717C57.2744 2.63694 57.0349 2.79925 56.7785 2.79925ZM42.7861 2.39149C42.5259 2.39149 42.2826 2.22325 42.1902 1.95207C42.0714 1.60567 42.2411 1.22365 42.5711 1.09894C42.9389 0.958406 43.3028 1.13853 43.4216 1.48295C43.5404 1.82935 43.3707 2.21137 43.0407 2.33608C42.9313 2.37764 42.8578 2.39149 42.7861 2.39149ZM54.5137 2.08072C54.4646 2.08072 54.4156 2.07479 54.3647 2.06292C53.9913 1.97384 53.7763 1.61755 53.8536 1.25928C53.931 0.901003 54.2704 0.675354 54.6117 0.75651C55.0002 0.853501 55.2114 1.21375 55.1284 1.57004C55.0605 1.87685 54.8003 2.08072 54.5137 2.08072ZM45.0641 1.71652C44.7662 1.71652 44.5003 1.49482 44.4418 1.17811C44.3758 0.817861 44.6002 0.467505 44.9434 0.398225C45.3262 0.319049 45.66 0.55461 45.7279 0.916842C45.7958 1.27709 45.5695 1.62745 45.2263 1.69673C45.1452 1.71256 45.1056 1.71652 45.0641 1.71652ZM52.1847 1.6413C52.1583 1.6413 52.1319 1.63932 52.1055 1.63536C51.7095 1.57993 51.4681 1.24344 51.5153 0.879232C51.5624 0.515021 51.883 0.259676 52.23 0.309161C52.6109 0.358647 52.858 0.691181 52.8146 1.05737C52.7731 1.39387 52.4997 1.6413 52.1847 1.6413ZM49.8257 1.42752C49.3995 1.40377 49.1317 1.08904 49.1506 0.722851C49.1694 0.35666 49.4692 0.0716289 49.8181 0.0953818C50.199 0.111217 50.4725 0.421986 50.4574 0.790157C50.4442 1.14645 50.1632 1.42752 49.8257 1.42752ZM47.4119 1.41169C47.0743 1.41169 46.7933 1.13061 46.7783 0.772337C46.7632 0.404166 47.0366 0.0953784 47.3855 0.0795431C47.772 0.059749 48.0662 0.338854 48.0851 0.707025C48.104 1.07322 47.8362 1.38794 47.4873 1.40773C47.4307 1.41169 47.4213 1.41169 47.4119 1.41169Z" fill="#2AAF8F"/>
<path fill-rule="evenodd" clip-rule="evenodd" d="M50.1274 101.564C49.8332 101.564 49.6559 100.845 49.5522 100.416C49.5239 100.299 49.4976 100.19 49.4693 100.093C46.7896 90.8177 43.5668 79.7865 39.9726 68.3L39.9009 68.0743L39.6746 68.0941C33.9721 68.6048 28.5694 68.8641 23.6193 68.8641C21.3299 68.8641 19.1311 68.8067 17.0832 68.6939C13.7907 68.5118 9.6929 68.2881 6.53991 67.4567C4.77861 66.9936 3.47555 66.3344 2.55718 65.4457C1.50115 64.4223 0.946743 63.0941 0.86377 61.3839V59.5213C1.56716 53.9552 2.97017 49.5807 4.45615 44.9508C4.81822 43.8206 5.19348 42.6508 5.55743 41.4671C6.00436 40.0043 6.42677 38.4762 6.83598 36.9976C8.0391 32.6369 9.2837 28.1278 11.3807 24.6104C12.861 22.1243 14.8109 20.3884 17.1737 19.4481C18.6729 18.8523 20.57 18.5237 22.5123 18.5237C23.921 18.5237 25.3108 18.6979 26.5365 19.0285C28.6241 19.5926 30.4514 20.5071 31.9656 21.7482C33.5289 23.0289 34.7226 24.6302 35.5127 26.5047C35.7183 26.9936 36.2124 28.2664 36.3538 29.5411C36.4914 30.7842 36.2501 31.5997 35.6353 31.962C35.4279 32.0847 35.1903 32.146 34.9301 32.146C34.3455 32.146 33.7043 31.8155 33.4403 31.376C33.2215 31.0118 33.1593 30.5012 33.0952 29.9588C33.0386 29.4837 32.9802 28.9928 32.8123 28.5138C32.4522 27.4766 31.9185 26.865 31.4056 26.2712C31.3641 26.2236 30.8907 26.5483 30.8907 26.5483C31.5866 28.2011 32.0373 30.5388 31.4791 32.0372C31.2585 32.633 30.8889 33.0506 30.3835 33.2802C30.2364 33.3475 30.0723 33.3693 29.8988 33.3931C29.7121 33.4168 29.5009 33.4465 29.2878 33.5336C29.0748 33.6227 28.939 33.7969 28.8183 33.9493C28.7391 34.0502 28.6637 34.1452 28.575 34.2125C28.3204 34.3986 28.081 34.4936 27.8641 34.4936C27.0683 34.4936 26.4799 33.1734 26.1952 31.9402L25.6314 31.9996C25.5842 33.397 25.0581 35.3626 24.0398 35.3626C23.8041 35.3626 23.5382 35.2616 23.2496 35.0657L22.9027 34.8281L22.814 35.2537C22.6311 36.1306 22.4425 37.0075 22.2596 37.8527C21.7373 40.2893 21.2432 42.5894 20.8057 45.0577L20.7246 45.5249L21.1621 45.4041C25.3202 44.2581 29.7706 43.0922 34.4624 42.534C36.3972 42.3044 38.5356 42.1876 40.8212 42.1876C43.6442 42.1876 46.6614 42.3618 49.7879 42.7082L50.0671 42.7379L50.101 42.4449C50.1255 42.241 50.0444 42.047 49.9671 41.859C49.9181 41.7383 49.8672 41.6136 49.8559 41.5146L49.8031 41.0573L49.4259 41.2909C48.9978 41.5562 48.6037 41.7145 48.3699 41.7145C48.2398 41.7145 48.1945 41.6868 48.1775 41.5186C48.153 41.2652 48.2718 41.1761 48.7282 40.9782C48.9488 40.8832 49.177 40.7822 49.3542 40.612L49.4862 40.4853L49.4353 40.3052C49.2863 39.7747 49.1581 39.2897 48.9865 38.6365L48.962 38.5455C48.9224 38.399 48.879 38.2347 48.8507 38.0783L48.7904 37.7478L48.4849 37.8487C48.3076 37.9081 48.0983 37.9398 47.8796 37.9398C47.6853 37.9398 47.493 37.914 47.327 37.8646C46.8254 37.8586 46.1975 37.4687 45.9919 37.34C44.6568 36.5106 43.2085 35.4338 42.5938 33.7533C42.0167 32.1757 42.8653 30.6377 43.1388 30.2042C43.7422 29.2482 44.4664 28.6286 45.5167 27.8804L45.6902 27.7577L45.6317 27.5479C45.1716 25.903 45.3998 24.3195 46.2088 23.5119C46.9933 22.73 48.2096 22.3203 50.0369 22.2193L50.1953 22.2114L50.2726 22.0649C50.365 21.8887 50.4518 21.7126 50.5347 21.5443C50.7931 21.0178 51.0382 20.521 51.4154 20.1092C52.2828 19.1591 53.9404 18.5713 55.7413 18.5713C56.6898 18.5713 57.6063 18.7415 58.3889 19.0641L58.7076 19.1948L58.7755 18.8424C58.9188 18.0903 59.3016 17.4628 59.8805 17.0253C60.4595 16.5879 61.2063 16.3563 62.0398 16.3563C62.3585 16.3563 62.6903 16.3899 63.0222 16.4572C63.6106 16.576 64.4083 16.9303 64.9646 17.3163C65.0438 17.3697 65.1965 17.5043 65.3606 17.6488C66.0055 18.213 66.4901 18.6128 66.839 18.6128C67.1973 18.6089 67.4821 18.31 67.7555 18.021C67.9007 17.8686 68.0648 17.6944 68.1779 17.6449C68.3099 17.5875 68.5965 17.5004 68.8511 17.4964C70.5955 17.4964 72.0645 18.9751 72.9998 20.2161C73.937 21.4592 74.7536 22.9952 75.4966 24.9113C76.7053 28.0269 78.1649 32.6706 76.8788 36.9936L76.7487 37.4311L77.1824 37.3816C78.8381 37.1935 80.4693 37.0985 82.0326 37.0985C84.8895 37.0985 87.6352 37.4172 90.1904 38.0486C92.5702 38.6365 94.8595 39.5094 96.9923 40.6476C100.768 42.6587 104.139 45.4912 107.3 49.3095C110.366 53.015 112.989 57.4865 115.316 62.9813C117.619 68.4148 119.486 73.9215 120.866 79.3451C121.598 82.2172 122.328 85.2972 122.535 88.6087C122.78 92.5279 122.182 95.4258 120.71 97.4705C119.263 99.4796 117.072 100.721 114.015 101.265C113.148 101.419 112.235 101.497 111.3 101.497C109.501 101.497 107.585 101.206 105.757 100.653C105.718 100.642 50.2481 100.642 50.2481 100.642L50.299 100.988C50.3782 101.532 50.2273 101.558 50.1783 101.566C50.1576 101.562 50.1425 101.564 50.1274 101.564Z" fill="white"/>
<path fill-rule="evenodd" clip-rule="evenodd" d="M54.0897 51.8946C54.0916 51.9362 53.2072 57.3538 57.6538 58.3415C62.1645 59.3431 65.4684 58.3633 67.5126 56.7065C69.5586 55.0498 70.9861 53.4464 71.3595 51.1206C71.7348 48.7968 71.8102 44.7192 71.8102 44.7192C71.8102 44.7192 70.543 41.6591 70.6241 40.509C70.7051 39.359 71.7819 36.0989 73.1623 36.5561C74.5427 37.0134 75.4554 38.5316 75.4554 38.5316C75.4554 38.5316 78.0917 35.4991 77.0922 31.0989C76.0928 26.6987 72.0384 17.5023 70.0112 18.7692C67.9859 20.036 67.5182 20.1844 66.7375 20.0142C65.9549 19.846 62.1721 16.9699 61.1707 18.4683C60.1713 19.9667 59.845 20.6397 58.9191 20.5724C57.9932 20.5071 53.4655 19.2482 52.4925 21.5601C51.5213 23.8721 50.8594 23.9493 50.1598 24.0522C49.4583 24.1551 47.3877 24.1828 47.499 26.1583C47.6102 28.1338 47.3217 28.0328 46.8446 28.779C46.3675 29.5233 43.7934 31.4215 44.7571 33.5039C45.7207 35.5862 48.6455 37.1995 48.6455 37.1995L48.44 35.0518C48.44 35.0518 51.3478 37.72 55.3569 36.2968C59.366 34.8736 64.0955 31.7482 65.425 33.1615C66.7545 34.5748 67.5257 38.6345 68.0858 39.8202C68.6459 41.0059 69.172 41.6175 69.1079 42.4845C69.0457 43.3515 67.7577 46.7917 67.7577 48.0704C67.7577 49.3491 68.0594 50.6337 67.307 50.5625C66.5527 50.4912 64.1446 49.0363 62.8868 49.7034C61.629 50.3704 59.1002 51.5205 58.0158 51.6373C56.9315 51.7541 56.3583 50.9009 55.9283 51.5086C55.4984 52.1143 55.3418 52.8091 54.9043 52.5834C54.4725 52.3538 54.0897 51.8946 54.0897 51.8946Z" fill="#2AAF8F"/>
<path fill-rule="evenodd" clip-rule="evenodd" d="M6.94155 39.7784C6.94155 39.7784 8.24839 42.6545 11.7295 43.086C15.2106 43.5175 21.0207 42.0982 21.0207 42.0982L19.9986 48.371C19.9986 48.371 33.627 43.7451 38.743 43.6461C43.8591 43.5472 51.7586 45.0634 51.7586 45.0634C51.7586 45.0634 52.7033 45.578 52.6166 47.4704C52.5317 49.3607 50.9269 56.1619 55.1963 57.5238C59.4657 58.8856 68.2099 59.7902 70.2579 53.2265C72.3058 46.6647 71.9777 44.333 71.9777 44.333C71.9777 44.333 75.1156 42.4803 75.2514 41.0689C75.3871 39.6556 75.4154 39.3944 75.4154 39.3944L75.9887 38.9213C75.9887 38.9213 92.738 39.0064 100.309 44.7863C108.165 50.7819 117.326 68.1928 119.29 79.6476C121.251 91.0866 121.892 96.8448 119.165 98.5807C116.406 100.336 111.688 102.66 105.252 100.222C98.814 97.781 89.0193 91.4489 88.5516 90.4315C88.5516 90.4315 94.3673 89.8792 94.7728 84.804C95.1782 79.7268 93.5037 76.4271 93.5037 76.4271C93.4829 76.3915 86.0304 72.6524 83.213 69.1508C80.2656 65.485 74.9195 58.3828 69.2754 59.8872C63.6313 61.3915 65.3417 62.8029 66.3694 63.6243C67.3972 64.4458 69.7525 61.9359 71.4855 63.2799C73.2185 64.6259 75.0043 66.5024 75.0043 66.5024C75.0043 66.5024 71.1857 66.445 69.8468 68.0067C68.5079 69.5685 68.2099 70.6275 68.2099 70.6275C68.2099 70.6275 64.2932 69.3112 63.5031 70.7126C62.7148 72.114 66.3562 74.3389 67.433 75.0079C68.5098 75.6769 68.6192 75.9105 68.6192 75.9105L69.3565 77.3278L70.0108 77.8424C70.0108 77.8424 69.0378 81.0016 70.8707 81.7082C72.7037 82.4149 73.4486 82.31 73.4486 82.31C73.4486 82.31 74.7328 82.5297 75.9868 82.6959C77.2409 82.8642 77.9518 83.0819 77.9518 83.0819L87.2411 89.612C87.2411 89.612 91.8216 92.88 96.6133 95.6274C99.2797 97.1555 104.994 100.469 108.032 101.556C108.375 101.678 108.656 102.644 109.014 103.274C110.168 105.311 110.2 105.679 110.2 105.679H51.6322L39.8462 67.1873C39.8462 67.1873 22.4595 69.4933 12.7101 68.0463C2.9607 66.5994 1.28803 66.1263 3.86964 55.6315C6.45125 45.1366 7.79958 41.1956 7.79958 41.1956L6.94155 39.7784Z" fill="#242529"/>
<path fill-rule="evenodd" clip-rule="evenodd" d="M0.598633 61.327C0.598633 60.6975 0.598633 60.0661 0.598633 59.4366C1.48117 52.4335 3.49329 47.2256 5.30551 41.3092C7.07058 35.5471 8.32271 29.1437 11.157 24.3852C12.5355 22.0713 14.4401 20.1552 17.0915 19.1022C19.7655 18.0392 23.5484 17.8413 26.6259 18.6726C30.818 19.8049 34.1388 22.39 35.7926 26.3191C36.4338 27.8413 37.454 31.1805 35.7926 32.1603C34.8818 32.6987 33.6428 32.1841 33.2148 31.4735C32.7584 30.7174 32.9112 29.5614 32.5604 28.5519C32.2096 27.5444 31.6929 26.9664 31.1687 26.3607C32.1568 28.7083 32.7018 32.4929 30.5144 33.4905C30.1579 33.6528 29.7808 33.5954 29.4093 33.7478C29.1472 33.8567 29.0265 34.1932 28.7549 34.3931C27.1275 35.5847 26.2488 33.3242 25.9301 31.9446C25.866 33.8231 25.0306 36.5725 23.1071 35.2522C22.4112 38.5677 21.6946 41.6971 21.1025 45.0463C25.1192 43.9398 29.6394 42.7403 34.4424 42.1682C39.3699 41.5804 44.9272 41.8001 49.8302 42.3405C49.8566 42.1108 49.619 41.7882 49.5851 41.4814C49.1004 41.7823 47.9916 42.3563 47.9067 41.4814C47.8313 40.7035 48.761 40.7173 49.174 40.3215C49.0231 39.7831 48.8911 39.2882 48.7252 38.6469C48.58 38.0907 48.3141 37.2296 48.9703 37.1425C49.6228 37.0554 49.6416 37.8274 49.7887 38.3876C49.9433 38.9774 50.1338 39.4861 50.279 39.977C53.0643 39.3595 54.9915 40.7451 56.2135 42.1247C57.2111 43.253 58.1012 44.694 58.0559 46.7209C58.0408 47.3761 57.7259 48.1005 57.8107 48.6548C57.8881 49.1674 58.8102 49.2842 58.7932 49.8998C58.7895 50.0384 58.6575 50.3412 58.5066 50.4145C57.8881 50.7233 57.0131 49.783 56.8283 49.3832C56.5473 48.7755 56.7755 47.8907 56.8698 47.2791C57.1149 45.6876 56.5473 44.5416 55.8873 43.5855C54.9086 42.1643 53.2151 40.6639 50.6901 41.0934C51.2276 43.3302 52.7154 45.2027 53.1869 47.58C53.2604 47.9481 53.2302 48.6132 53.3509 48.9121C53.7432 49.8919 54.4616 50.9806 55.0688 51.7466C55.4611 51.3982 55.6761 50.8539 56.1739 50.6718C56.8981 50.4085 57.6844 50.8381 58.4651 50.844C60.0171 50.8539 61.1976 49.6207 62.6383 49.2545C64.194 48.8586 65.3519 49.6009 66.8945 50.0285C67.2773 49.5712 67.2433 48.92 67.3037 48.3539C67.4357 47.1009 67.6261 45.8242 67.958 44.8325C68.1353 44.306 68.4182 43.8448 68.5709 43.3717C68.7821 42.7225 68.4898 41.996 68.2843 41.4814C67.7996 40.272 67.4093 39.2308 67.0152 37.9165C66.6154 36.5804 66.0534 34.0685 64.888 33.6212C63.9602 33.2649 63.0494 33.7973 62.3102 34.0942C60.2 34.9414 58.4368 35.9687 56.2531 36.6714C54.9802 37.0812 53.2981 37.6077 51.4652 37.3167C50.7297 37.1999 50.0678 36.9228 49.4606 36.4577C49.0929 36.1746 48.0727 35.4679 48.1915 34.7831C48.2235 34.601 48.3744 34.3911 48.6007 34.3535C49.2004 34.2546 49.6794 35.1928 50.115 35.5135C51.8631 36.7961 54.7502 35.9766 56.5812 35.2997C57.9805 34.7811 59.1233 34.2387 60.3471 33.6667C61.6841 33.0432 63.7566 31.8595 65.3387 32.5503C67.4979 33.4925 68.009 37.6275 68.899 39.981C69.2573 40.9272 69.7816 41.7902 69.7985 42.7739C69.8117 43.4727 69.544 43.9636 69.2667 44.5772C69.0291 45.1057 68.8764 45.6698 68.735 46.3804C68.503 47.5562 68.4842 49.4703 68.0391 50.4184C67.2471 52.1088 65.3293 50.4956 63.947 50.3333C63.7207 50.3056 63.4793 50.3096 63.2512 50.3333C61.7067 50.4917 60.596 51.8357 58.9139 52.0079C58.1615 52.0851 57.279 51.6912 56.7038 51.7921C56.0098 51.9149 56.1041 53.0016 55.1895 53.0372C54.1637 53.0788 53.8601 51.8575 53.3075 51.2755C53.1378 53.154 53.0511 54.6088 53.6753 55.6579C55.4064 58.5617 61.3937 58.7438 64.9295 57.4612C67.2245 56.6298 69.1706 55.2759 70.2492 52.9501C71.1563 50.9964 71.3694 49.1575 71.4769 46.6773C71.5033 46.0598 71.2317 44.7494 71.4354 44.2724C71.541 44.0269 71.9973 43.9418 72.2123 43.7993C72.4216 43.6627 72.7158 43.4054 72.9082 43.2411C74.0547 42.2633 75.8367 39.9355 74.3809 38.0432C74.1509 37.7443 73.6115 37.3919 72.9892 37.485C72.2613 37.5938 71.9502 38.3678 71.7616 38.9458C71.5919 39.4683 71.5712 40.6085 71.0658 40.749C69.94 41.0637 70.5113 39.0131 70.698 38.4727C70.9677 37.6948 71.4297 36.9268 72.0482 36.5824C73.6757 35.6758 75.1145 36.8357 75.65 37.9145C76.393 36.0816 76.6948 33.9675 76.4685 31.7724C76.2592 29.7415 75.6368 27.772 75.0353 26.1014C74.132 23.5855 73.0402 21.0103 71.1487 19.4011C70.5924 18.928 69.6383 18.1877 68.735 18.3282C68.0655 18.4312 67.877 19.3199 67.1792 19.4446C66.2307 19.6129 65.4764 18.732 64.888 18.2847C63.8169 17.4711 61.7727 16.5923 60.3452 17.6829C59.6984 18.1778 59.755 19.7613 58.912 19.9593C58.5141 20.0523 58.1521 19.8326 57.7259 19.7019C57.3242 19.5792 56.8226 19.4862 56.4568 19.4446C53.8299 19.1418 52.0365 20.0701 51.3011 21.8931C51.1427 22.2871 51.0692 22.7621 50.7693 22.9244C50.445 23.0986 49.8887 23.0471 49.5002 23.0966C47.4862 23.348 46.0097 23.8468 46.3076 26.3607C46.3642 26.8377 46.6716 27.4454 46.5942 27.9501C46.5207 28.4173 45.7815 28.6885 45.4477 28.9379C45.0687 29.2209 44.618 29.6445 44.3427 29.9691C43.7524 30.6679 42.9623 31.6932 43.3206 33.1481C43.709 34.7296 45.1894 35.7173 46.4302 36.4992C46.9639 36.8357 47.5899 37.0198 47.6182 37.4869C47.6842 38.6528 46.3265 37.8215 45.8588 37.5305C44.3351 36.5823 42.9547 35.4759 42.34 33.7934C41.8214 32.3741 42.34 30.8797 42.9132 29.9711C43.5563 28.9517 44.3276 28.3064 45.3685 27.5661C44.8914 25.8579 45.1177 24.1299 46.0229 23.2273C46.9506 22.3029 48.3706 21.9446 50.032 21.8516C50.4167 21.1172 50.6882 20.4145 51.22 19.8326C52.6589 18.2609 56.0287 17.6948 58.5047 18.7162C58.8913 16.6992 60.8053 15.6323 63.0871 16.0955C63.7641 16.232 64.5995 16.6279 65.1332 16.9981C65.45 17.2178 66.4683 18.2471 66.8511 18.2431C67.266 18.2392 67.6865 17.4692 68.0787 17.2989C68.2503 17.2237 68.569 17.1327 68.8557 17.1267C70.7207 17.0891 72.2859 18.7023 73.2344 19.9632C74.3564 21.4537 75.156 23.1441 75.7707 24.7316C77.0832 28.1125 78.441 32.7126 77.1624 37.0158C91.9147 35.3373 101.098 41.2795 107.527 49.0427C110.786 52.9778 113.407 57.6373 115.589 62.7878C117.793 67.9896 119.718 73.5577 121.153 79.1971C121.891 82.093 122.622 85.161 122.832 88.5181C123.069 92.3067 122.543 95.3688 120.95 97.5818C119.413 99.7176 117.076 100.957 114.074 101.491C110.87 102.059 107.523 101.541 104.827 100.589C99.7595 98.8031 95.1205 95.7984 90.9134 92.9856C87.1871 90.4955 83.4326 87.853 79.8232 85.167C79.3631 84.8245 78.6484 84.0921 78.2675 84.007C77.7659 83.8942 77.153 84.0466 76.6307 84.007C75.5709 83.9239 74.6713 83.6191 73.8473 83.3202C73.3985 83.1579 72.9591 82.8808 72.5782 82.8055C72.2312 82.7363 71.8955 82.8194 71.5957 82.762C69.8457 82.4354 68.635 80.2957 69.346 78.2529C68.4842 77.1385 67.5168 76.0934 66.2363 75.0304C65.7121 74.5949 65.1332 74.1476 64.5184 73.6132C63.8358 73.0193 62.8627 72.3127 63.2078 71.1211C63.6792 69.498 66.4928 69.1773 67.8732 70.2185C69.0009 68.0075 71.0658 66.7822 73.8887 66.3527C74.0076 66.2161 73.7813 66.0716 73.7247 66.0102C73.0326 65.2363 71.8955 64.306 70.7772 64.0764C69.2479 63.7636 68.0372 64.6563 66.7266 64.591C65.6744 64.5395 65.0106 63.6072 65.0087 62.5285C65.0049 59.7573 68.9367 59.1061 71.3109 59.3931C73.1627 59.6167 74.8297 60.4323 76.0574 61.2399C78.8257 63.0589 80.6304 65.652 82.8103 67.8551C87.2871 72.382 92.5917 75.8756 98.811 78.4647C97.1779 74.8048 95.0734 71.0478 93.0406 67.6393C92.835 67.2949 92.1618 66.323 92.918 66.0934C93.544 65.9033 93.8797 66.8614 94.1871 67.382C96.3897 71.1112 98.6714 75.1769 100.406 79.1515C102.647 80.0878 104.927 80.9706 107.323 81.8139C107.831 81.992 109.407 82.2374 109.411 82.9302C109.415 83.8546 108.195 83.3419 107.733 83.1876C103.077 81.6337 98.6884 79.781 94.5963 77.7759C95.0244 78.8309 95.6674 80.1234 95.8654 81.5565C96.0842 83.1381 95.8013 84.8305 95.2921 86.1092C94.321 88.5577 92.4333 90.254 89.6858 90.7054C93.28 93.1757 97.0214 95.6935 101.185 97.7501C103.156 98.722 105.451 99.6919 107.978 100.199C113.671 101.341 119.228 99.4841 120.95 95.3016C121.885 93.0312 121.883 89.779 121.523 86.7109C120.874 81.2002 119.189 76.1824 117.635 71.5902C114.451 62.1781 110.654 53.5281 104.295 47.192C101.24 44.1496 97.572 41.4141 93.082 39.7613C88.6448 38.1283 82.7537 37.4988 76.7532 38.2589C76.5439 38.8072 76.2007 39.2644 76.0574 39.8048C75.8707 40.5174 75.8763 41.04 75.6482 41.5665C74.9938 43.0768 73.902 44.015 72.5782 44.9176C72.7611 49.5277 71.9596 53.1124 69.9174 55.5708C67.9599 57.9263 64.6315 59.3555 60.7092 59.4366C56.6981 59.5197 52.8738 58.2549 52.1968 54.8404C51.7876 52.7779 52.3666 50.6975 52.1554 48.4826C51.9649 46.4853 51.0126 45.2007 50.3544 43.5855C45.3723 42.9818 39.6264 42.7997 34.5989 43.3717C29.5866 43.9398 25.0721 45.171 20.8083 46.3785C20.4538 48.344 20.005 50.5946 19.5807 52.6928C19.4789 53.1955 19.4167 54.4485 18.8038 54.4544C17.8119 54.4643 18.453 52.6017 18.6001 51.8772C19.1866 48.9873 19.7108 46.0974 20.2784 43.3282C18.0382 44.1694 15.0888 44.8266 12.3394 44.1872C9.83698 43.6053 8.10585 41.9663 6.7745 40.2779C5.46767 44.9176 3.83839 49.3515 2.64093 54.1951C2.05257 56.5764 1.40764 59.7038 1.86399 62.184C2.34486 64.8048 4.10992 65.7945 6.48786 66.4794C8.7866 67.1425 11.4399 67.3543 14.1818 67.5542C22.3754 68.146 31.4949 67.9402 39.3077 67.1682C39.3341 66.6258 38.2686 64.9512 39.2662 64.8048C39.9677 64.7038 40.1431 65.939 40.3712 66.6951C40.6277 67.5463 40.8823 68.2687 41.1067 69.015C44.1824 79.203 47.243 89.201 50.2338 99.5553C50.3582 99.9888 51.0296 101.655 50.2338 101.788C49.5398 101.903 49.3757 100.684 49.2098 100.113C46.0775 89.2703 43.0151 78.8705 39.715 68.3262C32.996 68.9279 24.7307 69.3475 17.0859 68.9279C13.4463 68.728 9.56922 68.4944 6.486 67.6828C3.21232 66.8218 0.779666 65.1136 0.598633 61.327ZM30.2692 27.2653C29.7223 25.7728 29.2339 24.886 28.4683 23.7419C28.1572 23.2768 27.3783 22.1049 28.3872 22.0673C29.1509 22.0376 29.3225 23.2273 29.7789 23.6568C31.3988 24.787 33.1261 26.2439 33.7484 28.5539C33.9427 29.2744 33.8974 30.6322 34.3217 31.0024C34.5254 31.1825 35.01 31.2518 35.2212 31.1311C35.7869 30.8104 35.4984 29.1853 35.3023 28.3817C34.6159 25.559 33.1469 23.7399 31.3743 22.3247C29.0058 20.4343 25.5699 19.0567 21.3477 19.3179C16.4654 19.6188 13.418 22.3009 11.4436 26.1905C9.74835 29.5297 8.76776 33.2708 7.67968 37.1861C7.53636 37.7007 7.18937 38.5479 7.22898 38.8607C7.27423 39.213 7.96255 39.8919 8.25107 40.2363C9.37309 41.5645 10.6837 42.578 12.5883 43.0273C15.4566 43.7062 18.3719 42.7997 20.5274 41.9545C21.112 39.6762 21.3986 37.1485 22.0416 34.8246C22.102 34.6049 22.3226 34.3377 22.3283 34.0942C22.3358 33.827 22.1246 33.5083 22.0831 33.2352C22.002 32.7007 22.0567 31.709 21.9191 31.0875C21.7437 30.2918 21.4061 29.8365 20.9781 29.2843C20.6971 28.922 20.2879 28.544 20.3652 28.1243C20.3973 27.9501 20.6085 27.7106 20.8555 27.6948C21.3684 27.6611 21.9153 28.5499 22.1246 28.8547C22.5036 29.409 22.7488 29.8543 22.943 30.5293C23.3541 31.9604 22.8582 34.023 24.0896 34.3951C25.4172 32.4711 24.5648 28.5855 23.8444 26.62C23.6766 26.1608 22.7997 24.6544 23.7633 24.5574C24.429 24.4901 24.742 25.751 24.9495 26.3191C25.221 27.0594 25.3342 27.9521 25.6038 28.6825C25.7434 29.0606 26.0602 29.409 26.2582 29.7989C26.4619 30.1968 26.6316 30.6283 26.79 31.044C27.1332 31.9426 27.2991 32.9125 27.895 33.536C28.6889 33.0808 28.6927 31.9268 28.5909 30.9588C28.3193 28.3915 27.433 26.4854 26.4223 24.6861C26.1394 24.1813 25.6114 23.1738 26.5033 23.1402C27.1388 23.1164 27.516 24.2823 27.7706 24.7732C28.8492 26.8456 29.9392 29.6267 29.6941 32.5048C31.6458 31.9347 30.8312 28.8013 30.2692 27.2653ZM73.4418 79.8839C73.4513 79.5455 73.7171 79.3416 73.9736 79.3257C74.247 79.3099 74.6016 79.6286 74.9146 79.8839C79.0124 83.2113 82.98 86.1151 87.3135 89.1198C87.6058 89.3217 88.0093 89.686 88.2545 89.7216C88.7504 89.7968 89.5651 89.5533 90.0554 89.4207C92.8425 88.6666 94.8169 86.2537 94.8018 82.6769C94.7924 80.1432 93.5893 78.4192 92.5106 76.6634C88.3507 74.3218 84.977 71.9405 81.5846 68.245C80.0722 66.5961 78.6258 64.7157 76.8381 63.2628C75.2465 61.9683 72.7347 60.3095 69.9626 60.5134C68.6218 60.6124 65.9195 61.0677 66.1571 62.7462C66.3099 63.825 67.6469 63.2272 68.4483 63.0471C71.3449 62.3938 73.0175 63.6864 74.4224 65.1096C74.7468 65.4382 75.0994 66.0934 75.4464 66.1844C76.0517 66.3428 76.989 65.8954 76.9607 66.7862C76.938 67.5166 75.5991 67.3206 74.6695 67.4295C72.1859 67.7264 69.8117 68.7022 68.982 70.6084C68.6275 71.4219 68.816 72.2771 69.3082 72.8412C70.7565 71.2775 72.465 70.3392 75.1598 69.9631C75.9499 69.8523 77.3529 69.5712 77.3284 70.4362C77.3057 71.2161 75.5237 71.0518 74.7091 71.2102C72.6988 71.6001 71.4052 72.2889 70.2474 73.5716C69.7627 74.11 69.0706 74.9829 69.1838 75.9766C69.246 76.5249 69.6005 76.7802 69.9607 77.18C71.2921 75.9172 72.91 75.1907 74.9127 74.6464C75.6105 74.4564 76.6099 74.1614 76.591 74.9908C76.5741 75.6935 75.503 75.6915 74.9542 75.8499C74.2621 76.0478 73.6115 76.2755 73.1118 76.4952C72.0841 76.9445 70.6679 77.76 70.3303 78.7715C69.9852 79.8008 70.5679 81.0894 71.3939 81.4773C72.2481 81.8792 73.5644 81.4853 74.4639 81.1329C74.347 80.644 73.423 80.5648 73.4418 79.8839ZM64.2337 71.5942C64.6749 72.3642 65.4255 72.8946 66.1156 73.4409C66.8153 73.9952 67.5054 74.593 68.1617 75.074C68.2484 74.5791 68.4483 74.201 68.652 73.8289C68.1202 73.2133 67.6525 72.5304 67.6299 71.3804C66.7926 70.7668 64.7258 70.3966 64.2337 71.5942ZM74.628 82.376C75.2597 82.5443 76.0215 82.8035 76.7155 82.762C76.2233 82.4473 75.8217 82.0395 75.3238 81.7307C75.239 82.1009 74.8769 82.1781 74.628 82.376Z" fill="black"/>
<path fill-rule="evenodd" clip-rule="evenodd" d="M61.7361 38.9474C62.6055 38.8722 63.654 39.183 64.3951 39.5908C64.9741 39.9095 66.1584 40.5627 66.1546 41.1803C66.1527 41.4713 65.9226 41.7029 65.7454 41.7385C65.3154 41.8256 65.108 41.4832 64.8854 41.309C64.1858 40.7587 63.1901 40.0183 61.8153 40.1054C61.3363 40.1371 60.8404 40.3073 60.4651 40.4499C60.0144 40.6201 58.8716 41.2951 58.8282 40.3212C58.8037 39.759 59.5976 39.4839 59.9748 39.3334C60.582 39.0939 61.0987 39.0029 61.7361 38.9474Z" fill="black"/>
<path fill-rule="evenodd" clip-rule="evenodd" d="M73.1545 39.2479C73.3355 39.2083 73.7221 39.2103 73.8088 39.5903C73.9295 40.1169 73.4524 40.6573 73.2356 41.0512C73.0093 41.459 72.7509 42.1122 72.3341 42.1261C72.0758 42.134 71.791 41.9004 71.7608 41.6094C71.7193 41.2155 72.1154 40.7662 72.3341 40.3643C72.6 39.8794 72.6981 39.3469 73.1545 39.2479Z" fill="black"/>
<path fill-rule="evenodd" clip-rule="evenodd" d="M62.4342 44.1016C62.9188 44.0086 63.1338 44.5292 63.4167 45.0458C63.6844 45.5367 64.303 46.5938 63.4582 46.7204C62.8547 46.8115 62.436 45.7188 62.189 45.2596C61.9533 44.8261 61.8665 44.2105 62.4342 44.1016Z" fill="black"/>
<path fill-rule="evenodd" clip-rule="evenodd" d="M55.1078 44.832C55.6528 44.6281 55.8526 45.0696 56.0488 45.5625C56.2694 46.1127 56.607 47.152 55.681 47.0233C55.2435 46.9619 54.3346 45.123 55.1078 44.832Z" fill="black"/>
<path fill-rule="evenodd" clip-rule="evenodd" d="M63.1696 50.9762C63.4921 50.8871 63.8032 51.0573 63.8655 51.3622C63.9711 51.8788 63.4959 52.5954 63.1696 52.9081C62.9301 53.1377 62.3738 53.4169 61.9419 53.4663C61.1009 53.5653 59.8845 53.5138 59.9788 52.6924C60.0693 51.8907 61.7703 52.4766 62.3116 52.0906C62.7302 51.7937 62.6001 51.1325 63.1696 50.9762Z" fill="black"/>
<path fill-rule="evenodd" clip-rule="evenodd" d="M76.696 82.8287C76.002 82.8703 75.2401 82.6089 74.6084 82.4427C74.8554 82.2447 75.2194 82.1675 75.3043 81.7974C75.8021 82.1062 76.2038 82.5139 76.696 82.8287Z" fill="black"/>
<path fill-rule="evenodd" clip-rule="evenodd" d="M16.7572 55.1154H68.3252C71.0369 55.1154 73.924 57.8767 74.7726 61.2813L82.938 94.0643C83.7865 97.4708 82.2742 100.23 79.5624 100.23H27.9944C25.2827 100.23 22.3956 97.4688 21.547 94.0643L13.3817 61.2813C12.5331 57.8767 14.0436 55.1154 16.7572 55.1154Z" fill="#E6FFF9"/>
<path fill-rule="evenodd" clip-rule="evenodd" d="M16.7572 55.1154H68.3252C71.0369 55.1154 73.924 57.8767 74.7726 61.2813L82.938 94.0643C83.7865 97.4708 82.2742 100.23 79.5624 100.23H27.9944C25.2827 100.23 22.3956 97.4688 21.547 94.0643L13.3817 61.2813C12.5331 57.8767 14.0436 55.1154 16.7572 55.1154Z" fill="#E6FFF9"/>
<path d="M69.1604 54.6857C71.429 54.6857 73.9635 57.1719 74.697 60.1133L82.8623 92.8903C83.2546 94.462 83.0849 95.899 82.3966 96.8313C81.9232 97.4766 81.2312 97.8171 80.3958 97.8171H28.8259C26.5573 97.8171 24.0228 95.3329 23.2893 92.3895L15.1239 59.6125C14.7317 58.0408 14.9014 56.6038 15.5878 55.6715C16.063 55.0262 16.7532 54.6857 17.5886 54.6857H69.1604ZM69.1604 53.698H17.5905C14.8788 53.698 13.3664 56.4573 14.215 59.8639L22.3803 92.6409C23.2289 96.0455 26.1141 98.8068 28.8278 98.8068H80.3977C83.1094 98.8068 84.6218 96.0455 83.7732 92.6409L75.6078 59.8639C74.7592 56.4573 71.8721 53.698 69.1604 53.698Z" fill="#69E8C9"/>
<path d="M42.3042 94.9617H30.3123C30.052 94.9617 29.8408 94.74 29.8408 94.4668C29.8408 94.1937 30.052 93.972 30.3123 93.972H42.3042C42.5644 93.972 42.7756 94.1937 42.7756 94.4668C42.7737 94.742 42.5625 94.9617 42.3042 94.9617Z" fill="#2AAF8F"/>
<path d="M35.6605 92.8791H29.4656C29.2054 92.8791 28.9941 92.6574 28.9941 92.3842C28.9941 92.111 29.2054 91.8893 29.4656 91.8893H35.6605C35.9207 91.8893 36.132 92.111 36.132 92.3842C36.1301 92.6574 35.9189 92.8791 35.6605 92.8791Z" fill="#2AAF8F"/>
<path d="M41.5665 92.8573H37.8006C37.5403 92.8573 37.3291 92.6356 37.3291 92.3624C37.3291 92.0893 37.5403 91.8676 37.8006 91.8676H41.5665C41.8268 91.8676 42.038 92.0893 42.038 92.3624C42.038 92.6356 41.8268 92.8573 41.5665 92.8573Z" fill="#2AAF8F"/>
<path d="M41.0142 90.8165H29.0222C28.762 90.8165 28.5508 90.5948 28.5508 90.3216C28.5508 90.0485 28.762 89.8268 29.0222 89.8268H41.0142C41.2744 89.8268 41.4856 90.0485 41.4856 90.3216C41.4856 90.5948 41.2744 90.8165 41.0142 90.8165Z" fill="#2AAF8F"/>
<path d="M25.8296 92.6637C25.7183 92.6637 25.609 92.6221 25.5184 92.541C25.3242 92.3608 25.3035 92.0481 25.4751 91.8442L26.6047 90.4942L24.9018 89.2214C24.6906 89.063 24.6397 88.7543 24.7905 88.5326C24.9414 88.3109 25.2356 88.2574 25.4468 88.4158L27.5759 90.0053C27.6852 90.0865 27.755 90.2112 27.7701 90.3517C27.7852 90.4903 27.7437 90.6288 27.6569 90.7337L26.1841 92.4955C26.0898 92.6063 25.9597 92.6637 25.8296 92.6637Z" fill="#2AAF8F"/>
<path d="M40.2558 86.2835H28.2639C28.0037 86.2835 27.7925 86.0618 27.7925 85.7886C27.7925 85.5154 28.0037 85.2937 28.2639 85.2937H40.2558C40.5161 85.2937 40.7273 85.5154 40.7273 85.7886C40.7273 86.0637 40.5161 86.2835 40.2558 86.2835Z" fill="#2AAF8F"/>
<path d="M39.7656 84.1355H27.7737C27.5135 84.1355 27.3022 83.9138 27.3022 83.6406C27.3022 83.3675 27.5135 83.1458 27.7737 83.1458H39.7656C40.0259 83.1458 40.2371 83.3675 40.2371 83.6406C40.2371 83.9138 40.0259 84.1355 39.7656 84.1355Z" fill="#2AAF8F"/>
<path d="M39.0698 81.6026H27.0779C26.8177 81.6026 26.6064 81.3809 26.6064 81.1077C26.6064 80.8345 26.8177 80.6128 27.0779 80.6128H39.0698C39.33 80.6128 39.5413 80.8345 39.5413 81.1077C39.5394 81.3809 39.33 81.6026 39.0698 81.6026Z" fill="#2AAF8F"/>
<path d="M23.8853 83.4486C23.774 83.4486 23.6646 83.409 23.5741 83.3259C23.3799 83.1458 23.3591 82.833 23.5307 82.6291L24.6603 81.2791L22.9575 80.0063C22.7462 79.848 22.6953 79.5392 22.8462 79.3175C22.997 79.0958 23.2894 79.0423 23.5025 79.2007L25.6296 80.7902C25.739 80.8713 25.8088 80.9961 25.8239 81.1366C25.839 81.2752 25.7975 81.4137 25.7107 81.5186L24.2379 83.2804C24.1455 83.3912 24.0154 83.4486 23.8853 83.4486Z" fill="#2AAF8F"/>
<path d="M37.78 76.0812H22.5125C22.2522 76.0812 22.041 75.8595 22.041 75.5863C22.041 75.3132 22.2522 75.0915 22.5125 75.0915H37.78C38.0403 75.0915 38.2515 75.3132 38.2515 75.5863C38.2515 75.8595 38.0403 76.0812 37.78 76.0812Z" fill="#2AAF8F"/>
<path d="M36.9822 73.0509H21.7146C21.4544 73.0509 21.2432 72.8292 21.2432 72.556C21.2432 72.2829 21.4544 72.0612 21.7146 72.0612H36.9822C37.2425 72.0612 37.4537 72.2829 37.4537 72.556C37.4537 72.8312 37.2425 73.0509 36.9822 73.0509Z" fill="#2AAF8F"/>
<path fill-rule="evenodd" clip-rule="evenodd" d="M19.9909 61.7916H32.7221C34.0799 61.7916 35.5206 63.0268 35.9431 64.551L36.7973 67.6311C37.2198 69.1552 36.4635 70.3904 35.1058 70.3904H22.3746C21.0187 70.3904 19.5761 69.1552 19.1536 67.6311L18.2993 64.551C17.8788 63.0268 18.635 61.7916 19.9909 61.7916Z" fill="#69E8C9"/>
<path fill-rule="evenodd" clip-rule="evenodd" d="M49.9576 89.4836H76.7966C77.351 89.4836 77.9413 90.0458 78.1167 90.7406L79.2142 95.0994C79.3877 95.7942 79.0784 96.3564 78.524 96.3564H51.6794C51.125 96.3564 50.5328 95.7942 50.3612 95.0994L49.2712 90.7406C49.0939 90.0458 49.4032 89.4836 49.9576 89.4836Z" fill="#2AAF8F"/>
<path fill-rule="evenodd" clip-rule="evenodd" d="M48.5848 82.9535C47.9625 82.9535 47.459 83.482 47.459 84.1352C47.459 84.7885 47.9625 85.317 48.5848 85.317H63.3658C63.3376 84.5291 63.2999 83.7413 63.2471 82.9535H48.5848Z" fill="#69E8C9"/>
<path fill-rule="evenodd" clip-rule="evenodd" d="M72.6096 82.9535H63.2466C63.2994 83.7413 63.3371 84.5272 63.3654 85.317H72.6096C73.232 85.317 73.7355 84.7885 73.7355 84.1352C73.7355 83.484 73.232 82.9535 72.6096 82.9535Z" fill="#2AAF8F"/>
<path fill-rule="evenodd" clip-rule="evenodd" d="M70.7282 74.6204H51.8662C51.9284 75.4062 51.9718 76.1941 51.9907 76.9839H70.7282C71.3505 76.9839 71.854 76.4554 71.854 75.8021C71.854 75.1489 71.3486 74.6204 70.7282 74.6204Z" fill="#2AAF8F"/>
<path fill-rule="evenodd" clip-rule="evenodd" d="M46.703 74.6204C46.0807 74.6204 45.5771 75.1489 45.5771 75.8021C45.5771 76.4554 46.0807 76.9839 46.703 76.9839H51.9908C51.972 76.1941 51.9286 75.4062 51.8663 74.6204H46.703Z" fill="#69E8C9"/>
<path fill-rule="evenodd" clip-rule="evenodd" d="M44.3705 65.4256H68.3958C69.0181 65.4256 69.5216 65.9542 69.5216 66.6074C69.5216 67.2606 69.0181 67.7891 68.3958 67.7891H44.3705C43.7481 67.7891 43.2446 67.2606 43.2446 66.6074C43.2446 65.9542 43.7481 65.4256 44.3705 65.4256Z" fill="#69E8C9"/>
<path fill-rule="evenodd" clip-rule="evenodd" d="M51.5535 72.0405C53.4299 72.0405 54.9499 73.638 54.9499 75.6056C54.9499 77.5751 53.428 79.1726 51.5535 79.1726C49.6771 79.1726 48.1553 77.5751 48.1553 75.6056C48.1553 73.638 49.6771 72.0405 51.5535 72.0405Z" fill="#77D9C1"/>
<path fill-rule="evenodd" clip-rule="evenodd" d="M62.849 80.891C64.7254 80.891 66.2454 82.4884 66.2454 84.456C66.2454 86.4256 64.7235 88.0211 62.849 88.0211C60.9726 88.0211 59.4526 86.4236 59.4526 84.456C59.4526 82.4884 60.9726 80.891 62.849 80.891Z" fill="#77D9C1"/>
<path fill-rule="evenodd" clip-rule="evenodd" d="M66.7772 63.3631C68.6536 63.3631 70.1755 64.9606 70.1755 66.9282C70.1755 68.8977 68.6536 70.4932 66.7772 70.4932C64.9008 70.4932 63.3809 68.8977 63.3809 66.9282C63.3809 64.9606 64.9008 63.3631 66.7772 63.3631Z" fill="#77D9C1"/>
<path d="M32.3883 53.1084C32.1111 53.1084 31.8546 52.9144 31.7773 52.6194C31.683 52.2651 31.8773 51.8771 32.2148 51.7801C32.5505 51.6812 32.8956 51.8692 32.9899 52.2235C33.0936 52.6194 32.8956 52.9856 32.558 53.0846C32.5015 53.1005 32.4449 53.1084 32.3883 53.1084ZM31.7377 50.7112C31.4624 50.7112 31.2097 50.5232 31.1286 50.2322C31.0305 49.8799 31.2172 49.4899 31.5548 49.385C31.8924 49.2821 32.2375 49.4642 32.3355 49.8185C32.4449 50.2124 32.2526 50.5826 31.915 50.6855C31.8565 50.7033 31.7962 50.7112 31.7377 50.7112Z" fill="#2AAF8F"/>
<path fill-rule="evenodd" clip-rule="evenodd" d="M13.4657 28.0516H37.0667C38.3076 28.0516 39.6295 29.3165 40.0161 30.8763L43.7519 45.8925C44.1404 47.4523 43.4483 48.7172 42.2074 48.7172H18.6083C17.3674 48.7172 16.0455 47.4523 15.657 45.8925L11.9212 30.8763C11.5327 29.3165 12.2229 28.0516 13.4657 28.0516Z" fill="#E6FFF9"/>
<path fill-rule="evenodd" clip-rule="evenodd" d="M13.4657 28.0516H37.0667C38.3076 28.0516 39.6295 29.3165 40.0161 30.8763L43.7519 45.8925C44.1404 47.4523 43.4483 48.7172 42.2074 48.7172H18.6083C17.3674 48.7172 16.0455 47.4523 15.657 45.8925L11.9212 30.8763C11.5327 29.3165 12.2229 28.0516 13.4657 28.0516Z" fill="#E6FFF9"/>
<path fill-rule="evenodd" clip-rule="evenodd" d="M30.5346 29.6876H33.2351C35.6659 29.6876 38.1589 32.0352 38.8058 34.9332C39.4526 37.8291 38.0062 40.1787 35.5773 40.1787H32.8749C30.446 40.1787 27.951 37.8291 27.3042 34.9332C26.6573 32.0352 28.1038 29.6876 30.5346 29.6876Z" fill="#AEF0E0"/>
<path d="M37.883 28.1805C38.6015 28.1805 39.616 29.0376 39.9215 30.2669L43.6592 45.2831C43.7969 45.8334 43.7497 46.3362 43.5366 46.6272C43.4159 46.7895 43.25 46.8706 43.0256 46.8706H19.4246C18.7061 46.8706 17.6915 46.0135 17.3841 44.7843L13.6483 29.768C13.5125 29.2177 13.5578 28.715 13.7709 28.424C13.8916 28.2617 14.0575 28.1805 14.282 28.1805H37.883ZM37.883 27.1927H14.282C13.0411 27.1927 12.349 28.4576 12.7375 30.0174L16.4733 45.0337C16.8617 46.5935 18.1818 47.8584 19.4246 47.8584H43.0256C44.2664 47.8584 44.9585 46.5935 44.5701 45.0337L40.8324 30.0174C40.4458 28.4556 39.1238 27.1927 37.883 27.1927Z" fill="#69E8C9"/>
<path fill-rule="evenodd" clip-rule="evenodd" d="M20.2666 27.0273L21.3038 28.4881L22.4881 31.5979L22.9916 34.3018L23.91 34.9333L25.0358 33.7416L25.5978 30.1667L27.1517 33.8346L28.055 34.2385L29.0922 33.2428L30.4236 32.8687L31.0158 32.0294L31.4891 30.1647L30.3633 25.1903L32.6432 26.8689L33.2052 28.6088L33.7087 31.1901L34.5083 31.9363L36.0188 31.3761C36.0188 31.3761 36.1075 28.7039 36.0188 28.5475C35.9302 28.3911 34.0632 24.351 34.0632 24.351L32.2265 22.2369L28.7905 20.2476L22.8389 21.8628C22.8389 21.8628 20.9134 23.8522 20.8833 24.1946C20.8588 24.541 20.2666 27.0273 20.2666 27.0273Z" fill="white"/>
<path fill-rule="evenodd" clip-rule="evenodd" d="M35.7937 26.3192C34.1398 22.392 30.8189 19.8048 26.6267 18.6725C23.549 17.8412 19.7661 18.0391 17.092 19.1021C14.4406 20.1552 12.5359 22.0713 11.1573 24.3853C8.83401 28.2849 7.5743 33.2909 6.22217 38.1426H7.37062C7.47246 37.816 7.60258 37.4557 7.67801 37.1865C8.76613 33.2692 9.74675 29.5299 11.4421 26.1906C13.4165 22.3009 16.464 19.6187 21.3464 19.3179C25.5688 19.0585 29.0047 20.4343 31.3733 22.3247C33.146 23.738 34.6169 25.5591 35.3015 28.3819C35.4957 29.1855 35.7842 30.8106 35.2204 31.1313C35.0073 31.2521 34.5245 31.1828 34.3208 31.0027C33.8984 30.6325 33.9418 29.2746 33.7475 28.5541C33.1252 26.244 31.3978 24.7871 29.7779 23.6568C29.3215 23.2273 29.1499 22.0376 28.3862 22.0673C27.3791 22.105 28.1561 23.2788 28.4673 23.742C29.2329 24.8841 29.7213 25.7709 30.2682 27.2654C30.8302 28.8015 31.6467 31.935 29.6949 32.5071C29.9401 29.6289 28.8501 26.8458 27.7714 24.7753C27.5168 24.2843 27.1396 23.1204 26.5041 23.1422C25.6121 23.1758 26.1383 24.1854 26.423 24.6882C27.4338 26.4875 28.3202 28.3937 28.5917 30.9611C28.6936 31.9291 28.6898 33.0831 27.8959 33.5384C27.298 32.9148 27.134 31.9449 26.7908 31.0462C26.6324 30.6305 26.4626 30.199 26.259 29.8011C26.0591 29.4112 25.7441 29.0628 25.6046 28.6847C25.333 27.9543 25.2218 27.0615 24.9502 26.3212C24.7428 25.7531 24.4297 24.4942 23.764 24.5595C22.8004 24.6565 23.6773 26.1609 23.8451 26.6221C24.5655 28.5857 25.4179 32.4714 24.0903 34.3974C22.8607 34.0253 23.3567 31.9627 22.9437 30.5316C22.7495 29.8566 22.5062 29.4112 22.1253 28.8569C21.9159 28.5521 21.369 27.6633 20.8561 27.6969C20.6091 27.7128 20.396 27.9523 20.3658 28.1265C20.2885 28.5442 20.6996 28.9242 20.9787 29.2865C21.4068 29.8387 21.7443 30.294 21.9197 31.0898C22.0574 31.7093 22.0027 32.703 22.0838 33.2375C22.1592 33.7165 22.3968 34.2965 22.608 34.6231C22.8098 34.9319 23.1059 35.2565 23.3718 35.4169C25.1086 36.3195 25.8686 33.7383 25.929 31.9488C26.2477 33.3305 27.1246 35.5911 28.7539 34.3974C29.0255 34.1975 29.1462 33.861 29.4083 33.7521C29.7779 33.5997 30.1569 33.6571 30.5134 33.4948C32.7028 32.4972 32.1559 28.7104 31.1677 26.3648C31.692 26.9705 32.2087 27.5485 32.5595 28.556C32.9121 29.5636 32.7575 30.7216 33.2139 31.4777C33.6419 32.1884 34.8809 32.703 35.7918 32.1646C37.4551 31.1808 36.4348 27.8414 35.7937 26.3192Z" fill="black"/>
</svg>
