<svg width="117" height="106" viewBox="0 0 117 106" fill="none" xmlns="http://www.w3.org/2000/svg">
<path fill-rule="evenodd" clip-rule="evenodd" d="M33.0805 36.2495C44.7267 36.2495 54.1674 46.1591 54.1674 58.3836C54.1674 70.6081 44.7267 80.5167 33.0805 80.5167C21.4344 80.5167 11.9937 70.6072 11.9937 58.3836C11.9937 46.1591 21.4344 36.2495 33.0805 36.2495Z" fill="#68D8B0"/>
<path fill-rule="evenodd" clip-rule="evenodd" d="M33.0808 40.6667C42.4023 40.6667 49.9595 48.5992 49.9595 58.3836C49.9595 68.1681 42.4023 76.1005 33.0808 76.1005C23.7585 76.1005 16.2021 68.1681 16.2021 58.3836C16.2021 48.5992 23.7585 40.6667 33.0808 40.6667Z" fill="#BDEFD7"/>
<path d="M24.8573 99.7353L22.748 101.946L23.5079 102.744L25.6171 100.534L24.8573 99.7353Z" fill="#2AAF8F"/>
<path d="M23.5113 99.7428L22.7515 100.542L24.861 102.752L25.6208 101.953L23.5113 99.7428Z" fill="#2AAF8F"/>
<path fill-rule="evenodd" clip-rule="evenodd" d="M24.1843 95.1427C24.9915 95.1427 25.6472 95.8291 25.6472 96.6756C25.6472 97.522 24.9924 98.2076 24.1843 98.2076C23.377 98.2076 22.7222 97.5211 22.7222 96.6756C22.7213 95.8282 23.377 95.1427 24.1843 95.1427Z" fill="#2AAF8F"/>
<path d="M19.6556 95.2601L18.0718 98.1347H21.2403L19.6556 95.2601Z" fill="#2AAF8F"/>
<path d="M80.8957 82.6772C80.6794 82.6772 80.475 82.5386 80.3933 82.3134C80.2877 82.022 80.4265 81.6966 80.7041 81.5849C81.0081 81.466 81.3172 81.6153 81.4211 81.9076C81.5241 82.1998 81.3819 82.5243 81.1035 82.6325C81.0243 82.6646 80.9595 82.6772 80.8957 82.6772Z" fill="#2AAF8F"/>
<path d="M83.6341 81.6048C83.4169 81.6048 83.2117 81.4653 83.1308 81.2392C83.0261 80.9478 83.1666 80.6216 83.4442 80.5126L83.4876 80.4956C83.766 80.3847 84.076 80.5331 84.1799 80.8245C84.2846 81.1159 84.1441 81.4421 83.8665 81.552L83.8231 81.569C83.7609 81.5932 83.6971 81.6048 83.6341 81.6048ZM86.3853 80.4902C86.1699 80.4902 85.9664 80.3535 85.8838 80.13C85.7765 79.8395 85.9136 79.5124 86.1903 79.3998L86.2269 79.3846C86.5028 79.2675 86.8153 79.4069 86.9269 79.6956C87.0384 79.9843 86.9056 80.3132 86.6305 80.4303L86.5803 80.4518C86.5156 80.4777 86.45 80.4902 86.3853 80.4902ZM89.117 79.3229C88.9083 79.3229 88.7099 79.1942 88.6222 78.9806C88.5056 78.6937 88.6316 78.3621 88.9049 78.2396L88.9484 78.22C89.2217 78.0984 89.5376 78.2307 89.6543 78.5176C89.7709 78.8045 89.644 79.1361 89.3707 79.2586L89.3281 79.2773C89.26 79.3086 89.1876 79.3229 89.117 79.3229ZM91.7677 77.9724C91.5855 77.9724 91.4075 77.8749 91.307 77.6989C91.1538 77.4316 91.2355 77.0848 91.4901 76.924L91.5276 76.9007C91.7813 76.738 92.1117 76.8221 92.2667 77.0884C92.4217 77.3548 92.3416 77.7015 92.0879 77.8642L92.0453 77.891C91.9576 77.9456 91.8622 77.9724 91.7677 77.9724ZM94.2345 76.2831C94.0651 76.2831 93.899 76.1991 93.7943 76.0435C93.624 75.7879 93.6819 75.4367 93.9254 75.257L93.9629 75.2293C94.2064 75.0496 94.5411 75.1104 94.7122 75.3643C94.8834 75.619 94.8255 75.9712 94.5837 76.1508L94.5445 76.1803C94.4491 76.2491 94.3418 76.2831 94.2345 76.2831ZM96.5719 74.4034C96.417 74.4034 96.2637 74.3337 96.1573 74.1988C95.9682 73.9583 95.9997 73.6026 96.2279 73.4042L96.2577 73.3782C96.4834 73.1753 96.8223 73.2031 97.0156 73.4408C97.2089 73.6777 97.1816 74.0334 96.956 74.2363L96.9134 74.2738C96.8146 74.3605 96.6929 74.4034 96.5719 74.4034ZM98.7424 72.3155C98.6062 72.3155 98.47 72.261 98.3652 72.1537C98.1532 71.9348 98.1506 71.5781 98.3593 71.3556L98.395 71.3171C98.6054 71.0973 98.9451 71.0973 99.1554 71.3171C99.3658 71.5379 99.3658 71.8954 99.1554 72.1153L99.1256 72.1466C99.0209 72.2592 98.8812 72.3155 98.7424 72.3155ZM100.7 70.0077C100.582 70.0077 100.463 69.9675 100.364 69.8835C100.132 69.6886 100.096 69.3329 100.281 69.0898L100.308 69.0549C100.491 68.81 100.83 68.7689 101.063 68.9611C101.296 69.1541 101.336 69.509 101.152 69.7539L101.12 69.7959C101.013 69.9353 100.858 70.0077 100.7 70.0077ZM102.401 67.4827C102.303 67.4827 102.206 67.455 102.117 67.3969C101.865 67.2325 101.788 66.8839 101.945 66.6193L101.968 66.58C102.123 66.3145 102.455 66.2314 102.708 66.395C102.961 66.5585 103.04 66.9062 102.884 67.1717L102.858 67.2164C102.755 67.388 102.579 67.4827 102.401 67.4827ZM103.8 64.7647C103.724 64.7647 103.647 64.7477 103.574 64.712C103.305 64.5806 103.187 64.2454 103.313 63.963L103.334 63.9156C103.46 63.6331 103.78 63.5125 104.049 63.6448C104.318 63.777 104.433 64.1131 104.307 64.3956L104.288 64.4376C104.197 64.644 104.003 64.7647 103.8 64.7647ZM104.878 61.8893C104.823 61.8893 104.767 61.8804 104.712 61.8616C104.43 61.7651 104.275 61.4469 104.367 61.1502L104.383 61.1001C104.477 60.8043 104.781 60.6434 105.063 60.7435C105.345 60.8418 105.498 61.1618 105.403 61.4576L105.389 61.5005C105.315 61.7383 105.105 61.8893 104.878 61.8893ZM23.8723 60.3225C23.5573 60.3118 23.3248 60.0508 23.335 59.7398L23.3367 59.6906C23.3461 59.3787 23.5964 59.1257 23.8919 59.1454C24.1891 59.1561 24.4216 59.4162 24.4113 59.7281L24.4096 59.7773C24.4003 60.0821 24.1618 60.3225 23.8723 60.3225ZM105.634 58.9032C105.598 58.9032 105.563 58.8996 105.526 58.8915C105.235 58.8299 105.047 58.5322 105.106 58.2266L105.116 58.172C105.178 57.8672 105.463 57.6742 105.754 57.7376C106.044 57.8029 106.229 58.1023 106.168 58.4071L106.159 58.4491C106.109 58.7181 105.884 58.9032 105.634 58.9032ZM23.8996 57.23C23.6058 57.23 23.3657 56.9815 23.3623 56.6722L23.3614 56.6231C23.358 56.3111 23.5964 56.0564 23.8936 56.0528C24.1934 56.0528 24.4335 56.3013 24.4369 56.6115L24.4377 56.6606C24.4411 56.9725 24.2027 57.2282 23.9064 57.2309C23.9038 57.23 23.9021 57.23 23.8996 57.23ZM106.087 55.849C106.067 55.849 106.047 55.8481 106.026 55.8455C105.731 55.8106 105.519 55.5317 105.551 55.2225L105.555 55.1805C105.584 54.8703 105.847 54.6451 106.144 54.6746C106.439 54.705 106.656 54.9821 106.626 55.2922L106.62 55.3476C106.59 55.6363 106.357 55.849 106.087 55.849ZM23.8281 54.1383C23.5419 54.1383 23.3044 53.9015 23.2916 53.5985L23.2899 53.543C23.2805 53.2311 23.513 52.971 23.8093 52.9603C24.1005 52.9442 24.3551 53.1936 24.3645 53.5055L24.3662 53.5484C24.379 53.8603 24.1491 54.1231 23.8527 54.1374C23.8442 54.1383 23.8357 54.1383 23.8281 54.1383ZM106.269 52.7636C105.96 52.7565 105.725 52.4982 105.732 52.1871L105.733 52.138C105.739 51.8305 105.979 51.5865 106.27 51.5865C106.579 51.5937 106.814 51.852 106.807 52.1639L106.806 52.2131C106.799 52.5196 106.56 52.7636 106.269 52.7636ZM23.6961 51.0484C23.41 51.0484 23.1724 50.8125 23.1596 50.5095L23.1579 50.4666C23.1417 50.1555 23.3691 49.8892 23.6654 49.8722C23.9669 49.8507 24.2155 50.0939 24.2317 50.4049L24.2342 50.4594C24.2479 50.7705 24.0179 51.0341 23.7208 51.0484C23.7122 51.0484 23.7037 51.0484 23.6961 51.0484ZM106.218 49.672C105.934 49.672 105.698 49.4396 105.681 49.1384L105.679 49.0839C105.665 48.7728 105.895 48.5092 106.192 48.4949C106.494 48.4841 106.74 48.7228 106.753 49.0338L106.755 49.0767C106.771 49.3878 106.544 49.6541 106.248 49.6711C106.237 49.672 106.227 49.672 106.218 49.672ZM23.5215 47.9613C23.2405 47.9613 23.0046 47.7324 22.9859 47.4348L22.9825 47.3857C22.9629 47.0746 23.1869 46.8056 23.4832 46.7859C23.7804 46.7663 24.0358 47.0004 24.0554 47.3115L24.0588 47.3597C24.0784 47.6708 23.8545 47.9398 23.5581 47.9604C23.5462 47.9604 23.5334 47.9613 23.5215 47.9613ZM105.97 46.5911C105.699 46.5911 105.467 46.3774 105.436 46.0887L105.432 46.0449C105.396 45.7357 105.606 45.4542 105.901 45.4166C106.198 45.3764 106.464 45.5998 106.5 45.9091L106.506 45.9636C106.538 46.2738 106.326 46.5526 106.031 46.5866C106.01 46.5893 105.99 46.5911 105.97 46.5911ZM23.3146 44.8759C23.0336 44.8759 22.7977 44.647 22.779 44.3494L22.7756 44.3065C22.7526 43.9955 22.974 43.7246 23.2703 43.7005C23.5683 43.6791 23.8246 43.9097 23.8476 44.2198L23.8519 44.2743C23.8715 44.5854 23.6475 44.8544 23.3512 44.875C23.3393 44.8759 23.3274 44.8759 23.3146 44.8759ZM71.5 43.5557C71.2113 43.5557 70.9721 43.3153 70.9627 43.0096C70.9533 42.6977 71.1858 42.4376 71.4821 42.4268L71.5179 42.4251C71.8151 42.4018 72.068 42.6467 72.0841 42.9578C72.1003 43.2688 71.873 43.5352 71.5766 43.5521L71.5179 43.5548C71.5119 43.5557 71.506 43.5557 71.5 43.5557ZM105.557 43.5289C105.299 43.5289 105.071 43.3332 105.027 43.057L105.02 43.0096C104.97 42.7021 105.168 42.4108 105.461 42.3589C105.756 42.3089 106.031 42.5144 106.081 42.8219L106.088 42.8711C106.137 43.1785 105.939 43.469 105.647 43.5209C105.617 43.5262 105.587 43.5289 105.557 43.5289ZM68.6168 43.3135C68.5836 43.3135 68.5495 43.3099 68.5154 43.3028L68.4644 43.292C68.1731 43.2304 67.985 42.9327 68.0437 42.6271C68.1025 42.3214 68.3843 42.1247 68.6772 42.1855L68.7173 42.1936C69.0093 42.2517 69.2001 42.5475 69.1447 42.8541C69.0953 43.1258 68.8705 43.3135 68.6168 43.3135ZM74.4037 43.0963C74.1652 43.0963 73.9481 42.9292 73.8842 42.6762C73.8085 42.375 73.9796 42.0658 74.2666 41.9862L74.3074 41.9746C74.5935 41.8933 74.889 42.0702 74.9674 42.3705C75.0457 42.6709 74.8762 42.9819 74.5901 43.0632L74.5407 43.0766C74.4956 43.09 74.4496 43.0963 74.4037 43.0963ZM65.8102 42.3902C65.7378 42.3902 65.6646 42.375 65.5939 42.3419L65.5539 42.3232C65.2814 42.1989 65.1562 41.8664 65.2746 41.5813C65.3929 41.2953 65.7097 41.163 65.9813 41.2882L66.0273 41.3087C66.299 41.4347 66.4224 41.7672 66.3024 42.0523C66.2138 42.2651 66.0171 42.3902 65.8102 42.3902ZM77.1532 42.0014C76.9548 42.0014 76.764 41.8861 76.6704 41.6868C76.5393 41.407 76.6482 41.0692 76.9139 40.9306L76.9531 40.9101C77.2188 40.7706 77.5415 40.8833 77.6743 41.1621C77.8072 41.441 77.6999 41.7797 77.4342 41.9192L77.3899 41.9424C77.3141 41.9826 77.2332 42.0014 77.1532 42.0014ZM23.1017 41.7914C22.8156 41.7914 22.578 41.5554 22.5653 41.2524L22.5636 41.2095C22.5474 40.8985 22.7747 40.6321 23.0711 40.6151C23.3699 40.5963 23.6211 40.8359 23.6373 41.1478L23.6399 41.2032C23.6526 41.5143 23.4236 41.778 23.1264 41.7923C23.1179 41.7914 23.1094 41.7914 23.1017 41.7914ZM63.2301 40.9038C63.1262 40.9038 63.0206 40.8725 62.9287 40.8064L62.8963 40.784C62.6477 40.6124 62.5796 40.263 62.7422 40.002C62.9057 39.741 63.2386 39.6695 63.4873 39.8402L63.5332 39.8724C63.7793 40.0476 63.8423 40.3988 63.6754 40.6562C63.5716 40.818 63.4021 40.9038 63.2301 40.9038ZM105.007 40.49C104.758 40.49 104.535 40.3085 104.482 40.0431L104.472 39.9966C104.409 39.6918 104.594 39.3915 104.884 39.3254C105.175 39.2592 105.461 39.4532 105.524 39.758L105.534 39.8071C105.596 40.1119 105.411 40.4122 105.12 40.4766C105.082 40.4864 105.044 40.49 105.007 40.49ZM79.6677 40.397C79.5017 40.397 79.3373 40.3166 79.2317 40.1646C79.0572 39.9126 79.1108 39.5595 79.3509 39.3763L79.3876 39.3486C79.6277 39.1645 79.964 39.2199 80.1386 39.472C80.314 39.724 80.2612 40.0771 80.0211 40.2603L79.9819 40.2898C79.8874 40.3622 79.7776 40.397 79.6677 40.397ZM60.8919 39.0277C60.7624 39.0277 60.633 38.9795 60.53 38.8811L60.5019 38.8543C60.2796 38.6479 60.2583 38.2912 60.4542 38.058C60.6509 37.8238 60.9906 37.8023 61.2129 38.0079L61.2537 38.0463C61.4734 38.2564 61.4896 38.613 61.2895 38.8436C61.1831 38.9652 61.0375 39.0277 60.8919 39.0277ZM23.0489 38.6997C22.7458 38.6961 22.5082 38.4405 22.5108 38.1295L22.5116 38.074C22.5184 37.7666 22.7577 37.5226 23.0489 37.5226C23.358 37.5297 23.593 37.788 23.5862 38.1L23.5854 38.142C23.5828 38.4503 23.3427 38.6997 23.0489 38.6997ZM81.9174 38.403C81.7769 38.403 81.6364 38.3458 81.5317 38.2314C81.3248 38.0079 81.3299 37.6504 81.5436 37.4332L81.5742 37.4019C81.7854 37.1838 82.126 37.1856 82.3346 37.4082C82.5433 37.6298 82.5407 37.9873 82.3287 38.2063L82.2921 38.2439C82.1873 38.3502 82.0519 38.403 81.9174 38.403ZM104.336 37.4797C104.099 37.4797 103.883 37.3143 103.817 37.0632L103.804 37.0113C103.728 36.7101 103.899 36.4009 104.186 36.3213C104.474 36.2409 104.768 36.4214 104.844 36.7226L104.855 36.7655C104.933 37.0667 104.764 37.3769 104.477 37.4582C104.431 37.4725 104.383 37.4797 104.336 37.4797ZM58.8704 36.7843C58.7103 36.7843 58.551 36.7092 58.4446 36.5653L58.4165 36.5278C58.2343 36.282 58.276 35.9271 58.511 35.7359C58.746 35.5446 59.0832 35.5884 59.2655 35.8351L59.2944 35.8744C59.4766 36.1211 59.4332 36.475 59.199 36.6663C59.1011 36.7459 58.9853 36.7843 58.8704 36.7843ZM83.8972 36.1139C83.7788 36.1139 83.6605 36.0737 83.5608 35.9897C83.3292 35.7949 83.2926 35.4391 83.4782 35.196L83.5063 35.1585C83.692 34.9154 84.03 34.876 84.2625 35.07C84.4941 35.2648 84.5316 35.6197 84.3468 35.8637L84.317 35.903C84.2105 36.0415 84.0539 36.1139 83.8972 36.1139ZM23.2047 35.6134C23.1869 35.6134 23.169 35.6125 23.1511 35.6107C22.8556 35.5803 22.6393 35.3033 22.6691 34.9931L22.6726 34.9502C22.6989 34.6401 22.9621 34.413 23.2558 34.4381C23.5513 34.4658 23.7702 34.7393 23.7438 35.0503L23.7386 35.1048C23.7114 35.3962 23.4772 35.6134 23.2047 35.6134ZM103.374 34.5596C103.165 34.5596 102.967 34.4318 102.879 34.2173L102.859 34.1664C102.745 33.8786 102.874 33.5478 103.148 33.4281C103.422 33.3083 103.737 33.4442 103.852 33.732L103.868 33.7722C103.984 34.0591 103.858 34.3907 103.585 34.5131C103.517 34.5453 103.445 34.5596 103.374 34.5596ZM57.3385 34.1512C57.1341 34.1512 56.94 34.0287 56.8489 33.8213L56.8276 33.7713C56.7067 33.4862 56.8284 33.1528 57.1001 33.0259C57.3717 32.8998 57.6893 33.0268 57.8102 33.3119L57.8273 33.3512C57.9507 33.6345 57.8324 33.9697 57.5624 34.0993C57.4901 34.1351 57.4134 34.1512 57.3385 34.1512ZM85.6045 33.5952C85.5074 33.5952 85.4095 33.5675 85.3209 33.5094C85.0689 33.345 84.9922 32.9964 85.1489 32.7318L85.1779 32.6835C85.3388 32.4217 85.6717 32.3466 85.9212 32.5155C86.1707 32.6844 86.2431 33.0339 86.0813 33.2958L86.0609 33.3298C85.9595 33.5005 85.7841 33.5952 85.6045 33.5952ZM23.5803 32.5495C23.5488 32.5495 23.5164 32.5468 23.4849 32.5405C23.1928 32.4851 22.9987 32.1919 23.0506 31.8854L23.0574 31.8443C23.106 31.5368 23.3844 31.3276 23.6765 31.3804C23.9694 31.4313 24.167 31.7227 24.1184 32.0302L24.1091 32.0856C24.0622 32.3582 23.8357 32.5495 23.5803 32.5495ZM102.052 31.7996C101.868 31.7996 101.689 31.7004 101.588 31.5216L101.563 31.4769C101.414 31.2079 101.5 30.862 101.757 30.7047C102.014 30.5483 102.343 30.6394 102.492 30.9085L102.514 30.9478C102.665 31.2159 102.579 31.5618 102.324 31.7209C102.24 31.7737 102.145 31.7996 102.052 31.7996ZM56.5296 31.19C56.2647 31.19 56.034 30.9844 55.9974 30.7011L55.9905 30.6457C55.9548 30.3364 56.1643 30.0549 56.4589 30.0173C56.7535 29.978 57.0217 30.1997 57.0575 30.5089L57.0626 30.55C57.1026 30.8593 56.8957 31.1435 56.6019 31.1846C56.5772 31.1882 56.5534 31.19 56.5296 31.19ZM87.0384 30.8924C86.9592 30.8924 86.8792 30.8736 86.8034 30.8352C86.5369 30.6984 86.4253 30.3606 86.5556 30.0808L86.576 30.0361C86.7063 29.7555 87.0282 29.6393 87.2947 29.776C87.5621 29.9128 87.6728 30.2506 87.5425 30.5304L87.5221 30.5751C87.4293 30.7762 87.2377 30.8924 87.0384 30.8924ZM24.1882 29.5275C24.1431 29.5275 24.098 29.5213 24.052 29.5088C23.765 29.4301 23.593 29.1217 23.668 28.8205L23.6799 28.7732C23.7548 28.472 24.0477 28.2914 24.3364 28.3701C24.6234 28.4487 24.7954 28.7571 24.7204 29.0592L24.7085 29.1066C24.6447 29.3586 24.4267 29.5275 24.1882 29.5275ZM100.417 29.2308C100.255 29.2308 100.095 29.1548 99.9891 29.0091L99.9558 28.9635C99.7796 28.7133 99.8298 28.3593 100.068 28.1743C100.307 27.9893 100.644 28.042 100.82 28.2923L100.843 28.3245C101.024 28.5721 100.979 28.926 100.742 29.1155C100.645 29.1933 100.53 29.2308 100.417 29.2308ZM56.6292 28.1144C56.596 28.1144 56.5619 28.1109 56.5279 28.1037C56.2366 28.0456 56.045 27.7498 56.1004 27.4432L56.1106 27.3887C56.1694 27.083 56.4529 26.8864 56.7441 26.9471C57.0354 27.0088 57.2235 27.3064 57.1648 27.6121L57.1571 27.6541C57.1077 27.9258 56.8821 28.1144 56.6292 28.1144ZM88.1845 28.0429C88.1241 28.0429 88.0628 28.0322 88.0023 28.009C87.723 27.9035 87.5783 27.5799 87.6787 27.2868L87.6932 27.2439C87.792 26.9498 88.1002 26.7952 88.3795 26.8998C88.6597 27.0034 88.8061 27.3261 88.7074 27.6202L88.6903 27.6702C88.6112 27.8999 88.4051 28.0429 88.1845 28.0429ZM98.5134 26.8712C98.3703 26.8712 98.2273 26.8113 98.1217 26.6933L98.0893 26.6575C97.8858 26.4305 97.8969 26.073 98.1132 25.8594C98.3295 25.6458 98.6701 25.6574 98.8736 25.8844L98.9051 25.9202C99.1086 26.1472 99.0975 26.5047 98.8812 26.7183C98.7782 26.8211 98.6454 26.8712 98.5134 26.8712ZM25.0338 26.5682C24.9742 26.5682 24.9137 26.5574 24.855 26.536C24.5748 26.4323 24.4284 26.1096 24.5271 25.8156L24.5416 25.7709C24.6395 25.4768 24.9461 25.3213 25.2262 25.4241C25.5064 25.5269 25.6545 25.8487 25.5566 26.1427L25.5404 26.191C25.463 26.4234 25.2552 26.5682 25.0338 26.5682ZM57.6118 25.2114C57.5284 25.2114 57.4441 25.1908 57.3649 25.1479C57.1018 25.004 56.9987 24.6635 57.135 24.3873L57.158 24.3417C57.2959 24.0664 57.6203 23.9601 57.8843 24.104C58.1474 24.2488 58.2488 24.5902 58.1108 24.8664L58.0904 24.9075C57.9942 25.1005 57.806 25.2114 57.6118 25.2114ZM89.0173 25.0764C88.9781 25.0764 88.939 25.0719 88.899 25.0621C88.6094 24.9942 88.4272 24.6921 88.4919 24.3873L88.5039 24.3319C88.5728 24.0289 88.8632 23.8403 89.1519 23.9136C89.4405 23.986 89.6193 24.2899 89.5504 24.5938L89.5419 24.6349C89.4857 24.8985 89.2634 25.0764 89.0173 25.0764ZM96.3914 24.7278C96.2654 24.7278 96.1377 24.6814 96.0355 24.5866L96.0065 24.5598C95.7809 24.3569 95.7545 24.0012 95.9469 23.7643C96.1402 23.5275 96.4791 23.4997 96.7048 23.7026L96.7465 23.7402C96.9688 23.9466 96.99 24.3033 96.7942 24.5366C96.6886 24.6635 96.5396 24.7278 96.3914 24.7278ZM26.1195 23.6964C26.0437 23.6964 25.9671 23.6794 25.8938 23.6437C25.6247 23.5123 25.5072 23.1771 25.6324 22.8938L25.6486 22.8571C25.7695 22.5729 26.088 22.4451 26.3587 22.5711C26.6304 22.698 26.7521 23.0314 26.6312 23.3165L26.6091 23.3684C26.5163 23.5748 26.3221 23.6964 26.1195 23.6964ZM94.0881 22.799C93.9765 22.799 93.865 22.7633 93.7688 22.6882L93.7313 22.6596C93.4929 22.4746 93.4418 22.1206 93.6189 21.8704C93.7952 21.6201 94.1324 21.5674 94.3708 21.7524L94.4083 21.781C94.6467 21.966 94.6978 22.3199 94.5206 22.5702C94.4151 22.7195 94.2524 22.799 94.0881 22.799ZM59.2714 22.6649C59.1454 22.6649 59.0177 22.6185 58.9155 22.5237C58.6932 22.3173 58.6711 21.9606 58.8678 21.7273L58.8934 21.697C59.0866 21.4601 59.4255 21.4315 59.6512 21.6344C59.8769 21.8373 59.9032 22.193 59.7108 22.4299L59.675 22.4737C59.5686 22.6006 59.4204 22.6649 59.2714 22.6649ZM89.495 22.0259C89.4771 22.0259 89.4593 22.025 89.4405 22.0232C89.145 21.9919 88.9296 21.7157 88.9586 21.4056L88.9628 21.3636C88.9884 21.0534 89.2498 20.8237 89.5453 20.8505C89.8407 20.8773 90.0596 21.1517 90.034 21.4619L90.0289 21.5173C90.0017 21.8087 89.7675 22.0259 89.495 22.0259ZM91.6357 21.0811C91.5412 21.0811 91.4458 21.0552 91.359 20.9998L91.3121 20.9694C91.0601 20.8049 90.9835 20.4564 91.1401 20.1918C91.2977 19.9272 91.6289 19.8468 91.881 20.0112L91.9142 20.0327C92.1688 20.1936 92.2505 20.5404 92.0972 20.8076C91.9959 20.9837 91.8179 21.0811 91.6357 21.0811ZM27.441 20.9363C27.3516 20.9363 27.2614 20.9131 27.1779 20.8639C26.919 20.7111 26.8271 20.367 26.9727 20.0953L26.9948 20.0541C27.1396 19.7815 27.4657 19.6832 27.7263 19.8361C27.986 19.988 28.0788 20.3312 27.934 20.6038L27.9102 20.6485C27.8123 20.8326 27.6292 20.9363 27.441 20.9363ZM61.3823 20.5136C61.2248 20.5136 61.069 20.4412 60.9625 20.3026C60.7769 20.0595 60.8135 19.7047 61.0451 19.5089L61.0749 19.483C61.304 19.2846 61.6429 19.3177 61.8319 19.5572C62.021 19.7976 61.9895 20.1534 61.7612 20.3518L61.7187 20.3884C61.619 20.4724 61.5007 20.5136 61.3823 20.5136ZM89.0616 19.5742C88.9799 19.5742 88.8973 19.5545 88.8198 19.5134L88.7781 19.4911C88.5132 19.3507 88.4068 19.0111 88.5413 18.7331C88.6358 18.5374 88.824 18.4239 89.0199 18.423C89.0182 18.4015 89.0156 18.3524 89.0156 18.3524C88.9994 18.0413 89.2268 17.775 89.5231 17.758C89.822 17.7374 90.0732 17.9796 90.0894 18.2907L90.0919 18.3398C90.1081 18.6473 89.8867 18.911 89.5955 18.9333C89.61 19.0433 89.5938 19.1586 89.5427 19.2649C89.4473 19.4607 89.2583 19.5742 89.0616 19.5742ZM63.781 18.7215C63.5988 18.7215 63.4208 18.6241 63.3195 18.448C63.1662 18.1807 63.248 17.834 63.5026 17.6731L63.5358 17.6516C63.7878 17.4872 64.1191 17.5676 64.2766 17.8322C64.4341 18.0967 64.3567 18.4444 64.1046 18.6098L64.0578 18.6402C63.9709 18.6956 63.8756 18.7215 63.781 18.7215ZM28.9908 18.3086C28.8852 18.3086 28.7787 18.2755 28.6851 18.2085C28.4407 18.0306 28.3802 17.6793 28.5497 17.4228L28.5735 17.3862C28.7404 17.1287 29.0751 17.0617 29.3203 17.2369C29.5664 17.4121 29.6294 17.7633 29.4625 18.0208L29.4336 18.0654C29.3288 18.2245 29.1619 18.3086 28.9908 18.3086ZM86.3861 18.2773C86.3172 18.2773 86.2473 18.263 86.1792 18.2335L86.1358 18.2147C85.8616 18.0949 85.7322 17.7642 85.8463 17.4764C85.9604 17.1886 86.2755 17.0528 86.5496 17.1725L86.5931 17.1913C86.8673 17.3111 86.9967 17.6418 86.8826 17.9296C86.7966 18.1468 86.5965 18.2773 86.3861 18.2773ZM66.3662 17.2405C66.167 17.2405 65.9754 17.1243 65.8826 16.9232C65.7523 16.6434 65.863 16.3056 66.1304 16.1688L66.1772 16.1456C66.4454 16.0115 66.7664 16.1313 66.8933 16.4128C67.021 16.6944 66.9069 17.0313 66.6387 17.1645L66.6012 17.1833C66.5255 17.2217 66.4446 17.2405 66.3662 17.2405ZM83.6255 17.1949C83.5685 17.1949 83.5106 17.1851 83.4535 17.1654L83.411 17.1502C83.1291 17.0519 82.9767 16.7319 83.0712 16.436C83.1649 16.1402 83.4697 15.9802 83.7516 16.0794L83.7975 16.0955C84.0785 16.1947 84.2301 16.5156 84.1356 16.8106C84.059 17.0465 83.8495 17.1949 83.6255 17.1949ZM80.7926 16.3413C80.7491 16.3413 80.7057 16.3359 80.6614 16.3243L80.6171 16.3127C80.3285 16.2376 80.1531 15.9319 80.2246 15.6289C80.2961 15.3268 80.5856 15.1418 80.876 15.2169L80.9228 15.2294C81.2107 15.3054 81.3861 15.6111 81.3137 15.9141C81.2532 16.1697 81.0335 16.3413 80.7926 16.3413ZM69.0868 16.0624C68.8543 16.0624 68.6406 15.9033 68.5716 15.6575C68.4873 15.359 68.65 15.0444 68.9352 14.9568L68.9787 14.9434C69.2631 14.8549 69.5628 15.0238 69.648 15.3224C69.7331 15.6209 69.5713 15.9355 69.2869 16.0249L69.2401 16.0392C69.1881 16.0553 69.1371 16.0624 69.0868 16.0624ZM89.1152 15.881C88.8743 15.881 88.6546 15.7103 88.5941 15.4538L88.5839 15.41C88.5098 15.1079 88.6827 14.8004 88.9696 14.7226C89.2575 14.6449 89.5504 14.8263 89.6245 15.1275L89.6372 15.1794C89.7087 15.4824 89.5342 15.788 89.2464 15.864C89.2021 15.8747 89.1578 15.881 89.1152 15.881ZM30.756 15.8345C30.6376 15.8345 30.5192 15.7943 30.4196 15.7103C30.188 15.5154 30.1514 15.1597 30.337 14.9166L30.3719 14.8719C30.5618 14.6315 30.9007 14.5984 31.1289 14.7968C31.358 14.9961 31.3895 15.3519 31.1996 15.5914L31.1749 15.6227C31.0693 15.763 30.9135 15.8345 30.756 15.8345ZM77.9017 15.7389C77.8744 15.7389 77.8463 15.7362 77.8182 15.7317L77.7774 15.7255C77.4836 15.6808 77.2792 15.3948 77.3218 15.0864C77.3644 14.778 77.636 14.5635 77.9306 14.6082L77.9826 14.6163C78.2763 14.6645 78.4773 14.9523 78.4313 15.2607C78.3913 15.5396 78.1622 15.7389 77.9017 15.7389ZM71.9777 15.4931C71.7044 15.4931 71.471 15.2759 71.4429 14.9845C71.414 14.6744 71.6294 14.3982 71.9249 14.3669L71.9777 14.3615C72.2732 14.3347 72.5346 14.5635 72.5601 14.8746C72.5865 15.1847 72.3677 15.4591 72.0714 15.4859L72.0305 15.4895C72.0135 15.4922 71.9956 15.4931 71.9777 15.4931ZM74.9699 15.4296C74.9461 15.4287 74.8992 15.4269 74.8992 15.4269C74.6029 15.4126 74.373 15.149 74.3858 14.8379C74.3985 14.526 74.6523 14.2802 74.9469 14.299L74.9938 14.3008C75.2901 14.3142 75.52 14.5778 75.5072 14.8898C75.4936 15.1928 75.256 15.4296 74.9699 15.4296ZM32.717 13.5321C32.5791 13.5321 32.442 13.4767 32.3364 13.3667C32.126 13.146 32.126 12.7885 32.3364 12.5686L32.3636 12.54C32.5705 12.3156 32.9103 12.3103 33.124 12.5275C33.3369 12.7447 33.3429 13.1022 33.1359 13.3256L33.0976 13.3667C32.992 13.4767 32.8549 13.5321 32.717 13.5321ZM88.0917 12.9878C87.895 12.9878 87.706 12.8743 87.6115 12.6776L87.5927 12.6392C87.4565 12.3621 87.5587 12.0216 87.8226 11.8786C88.0866 11.7347 88.411 11.8428 88.5473 12.1199L88.5711 12.169C88.7057 12.447 88.5992 12.7867 88.3344 12.927C88.2561 12.9681 88.1726 12.9878 88.0917 12.9878ZM34.8568 11.4102C34.707 11.4102 34.5571 11.3441 34.4507 11.2163C34.2557 10.9812 34.2795 10.6246 34.5035 10.4199L34.5426 10.385C34.7683 10.183 35.1072 10.2098 35.3005 10.4476C35.4938 10.6844 35.4674 11.0402 35.2409 11.2431L35.2094 11.2717C35.108 11.3646 34.982 11.4102 34.8568 11.4102ZM86.4415 10.4351C86.2925 10.4351 86.1443 10.3707 86.0379 10.2438L86.0072 10.2072C85.8105 9.97388 85.8318 9.61725 86.0549 9.41078C86.2772 9.20521 86.6169 9.22666 86.8136 9.46084L86.8443 9.49748C87.041 9.73076 87.0197 10.0874 86.7966 10.2939C86.6952 10.3886 86.5675 10.4351 86.4415 10.4351ZM37.1568 9.4796C36.989 9.4796 36.8238 9.39827 36.7191 9.24364C36.5463 8.9898 36.6016 8.63764 36.8434 8.4562L36.8741 8.43207C37.1125 8.24706 37.4497 8.29979 37.626 8.55005C37.8022 8.80032 37.752 9.15426 37.5136 9.33928L37.4693 9.37324C37.3748 9.44475 37.2649 9.4796 37.1568 9.4796ZM84.2369 8.39364C84.1288 8.39364 84.0189 8.35967 83.9244 8.28817L83.8861 8.25957C83.6451 8.07813 83.5889 7.72597 83.7618 7.47213C83.9346 7.21829 84.2701 7.16019 84.512 7.34164L84.5503 7.37024C84.7913 7.55168 84.8475 7.90384 84.6746 8.15767C84.5699 8.3123 84.4047 8.39364 84.2369 8.39364ZM39.5955 7.74474C39.415 7.74474 39.2387 7.6491 39.1374 7.47571C38.9816 7.21025 39.0608 6.86256 39.3137 6.69899L39.3511 6.67486C39.6032 6.5104 39.9344 6.59084 40.0919 6.85541C40.2486 7.11997 40.172 7.46766 39.9199 7.63301L39.8774 7.66072C39.7888 7.71793 39.6917 7.74474 39.5955 7.74474ZM81.7701 6.70525C81.6773 6.70525 81.5836 6.68022 81.4976 6.6266L81.4559 6.60068C81.2004 6.44158 81.117 6.09479 81.2686 5.82664C81.4201 5.55851 81.7497 5.47091 82.0051 5.63001L82.0434 5.65414C82.2989 5.81234 82.384 6.15825 82.2333 6.42728C82.1328 6.60604 81.954 6.70525 81.7701 6.70525ZM42.1543 6.21187C41.961 6.21187 41.7737 6.10194 41.6775 5.90977C41.5395 5.63358 41.6409 5.29215 41.904 5.14736L41.9482 5.12322C42.2122 4.98022 42.5366 5.08837 42.6729 5.36455C42.8091 5.64163 42.7069 5.98217 42.443 6.12517L42.4038 6.14663C42.3238 6.19042 42.2386 6.21187 42.1543 6.21187ZM79.1747 5.2421C79.0955 5.2421 79.0155 5.22333 78.9397 5.1849L78.8996 5.16434C78.6323 5.02938 78.5199 4.69152 78.6484 4.41087C78.777 4.13021 79.0989 4.01223 79.3663 4.14719L79.4106 4.16954C79.6771 4.30629 79.7878 4.64415 79.6583 4.92391C79.5655 5.12501 79.3739 5.2421 79.1747 5.2421ZM44.8144 4.881C44.6058 4.881 44.4074 4.7523 44.3197 4.53868C44.2031 4.25177 44.3291 3.92017 44.6024 3.79772L44.6433 3.77895C44.9158 3.65471 45.2325 3.7861 45.35 4.07212C45.4684 4.35813 45.3432 4.69063 45.0707 4.81397L45.0256 4.83453C44.9566 4.86581 44.8851 4.881 44.8144 4.881ZM76.4745 4.00687C76.4098 4.00687 76.3443 3.99436 76.2804 3.96844L76.2353 3.94967C75.9585 3.83615 75.8223 3.50813 75.9313 3.21764C76.0394 2.92716 76.3519 2.78415 76.6287 2.89856L76.6704 2.91554C76.9471 3.02816 77.0842 3.35529 76.9769 3.64577C76.8926 3.87012 76.69 4.00687 76.4745 4.00687ZM47.558 3.75392C47.3358 3.75392 47.128 3.60823 47.0505 3.37495C46.9526 3.08089 47.1008 2.75823 47.3809 2.65634L47.4252 2.64025C47.7062 2.53836 48.0127 2.69298 48.1098 2.98704C48.2077 3.2811 48.0596 3.60376 47.7794 3.70566L47.7351 3.72175C47.6764 3.74409 47.6168 3.75392 47.558 3.75392ZM73.6884 3.00134C73.6373 3.00134 73.5854 2.9933 73.5343 2.97721L73.484 2.96112C73.2005 2.86906 73.0421 2.55266 73.1298 2.25502C73.2175 1.95739 73.5198 1.79114 73.8025 1.8832L73.8417 1.89571C74.1261 1.98509 74.2879 2.29971 74.2027 2.59824C74.1337 2.84314 73.92 3.00134 73.6884 3.00134ZM50.3714 2.83152C50.1355 2.83152 49.9193 2.66706 49.8537 2.4168C49.7745 2.11648 49.9431 1.80544 50.2292 1.72232L50.276 1.70891C50.5622 1.62757 50.8585 1.80455 50.936 2.10486C51.0143 2.40518 50.8449 2.71622 50.5587 2.79756L50.5153 2.81007C50.4668 2.82527 50.4182 2.83152 50.3714 2.83152ZM70.8384 2.22195C70.7992 2.22195 70.76 2.21748 70.72 2.20854L70.6783 2.19871C70.3879 2.13257 70.2031 1.83225 70.2662 1.52747C70.3292 1.22268 70.6136 1.02783 70.9056 1.09487L70.9559 1.10649C71.2454 1.17442 71.4276 1.47652 71.3629 1.78131C71.3067 2.04319 71.0845 2.22195 70.8384 2.22195ZM53.2376 2.11469C52.9873 2.11469 52.7625 1.92968 52.7114 1.66243C52.6526 1.35675 52.8408 1.05912 53.132 0.997445L53.178 0.987613C53.4701 0.925047 53.7528 1.12347 53.8115 1.42915C53.8703 1.73483 53.6821 2.03246 53.3909 2.09414L53.3449 2.10397C53.3083 2.11112 53.2725 2.11469 53.2376 2.11469ZM67.9407 1.66511C67.9151 1.66511 67.8896 1.66333 67.8632 1.65975L67.8164 1.6526C67.5226 1.60791 67.3191 1.321 67.3625 1.01264C67.4051 0.704279 67.6784 0.489767 67.9722 0.536244L68.0173 0.543395C68.3111 0.588085 68.5146 0.874101 68.4729 1.18246C68.4337 1.46311 68.2038 1.66511 67.9407 1.66511ZM56.1438 1.60433C55.8781 1.60433 55.6474 1.39787 55.6116 1.11453C55.5725 0.805278 55.7794 0.521943 56.0731 0.480829L56.1191 0.474572C56.4112 0.434351 56.6837 0.650651 56.7237 0.959012C56.7629 1.26827 56.556 1.5516 56.2613 1.59361L56.2153 1.59987C56.1915 1.60255 56.1668 1.60433 56.1438 1.60433ZM65.0115 1.32815C64.9978 1.32815 64.9842 1.32726 64.9697 1.32636L64.9289 1.32279C64.6325 1.30223 64.4086 1.0332 64.4282 0.722155C64.4478 0.411112 64.7041 0.176043 65.0004 0.1966L65.0523 0.200176C65.3487 0.224308 65.5701 0.495129 65.5471 0.806172C65.5258 1.10291 65.2899 1.32815 65.0115 1.32815ZM59.0756 1.30044C58.792 1.30044 58.5553 1.06806 58.5391 0.767738C58.5229 0.456696 58.7495 0.190344 59.0458 0.173362L59.0866 0.17068C59.3838 0.150123 59.6393 0.385192 59.6589 0.696234C59.6785 1.00728 59.4545 1.27631 59.1582 1.29687L59.1062 1.30044C59.096 1.30044 59.0858 1.30044 59.0756 1.30044ZM62.0678 1.20659H62.015C61.7178 1.20302 61.4803 0.947392 61.4837 0.63635C61.4871 0.324414 61.7263 0.0741498 62.0278 0.0786188H62.0686C62.3658 0.0786188 62.6059 0.331564 62.6059 0.642606C62.6051 0.953649 62.365 1.20659 62.0678 1.20659Z" fill="#2AAF8F"/>
<path d="M23.5577 63.4296C23.487 63.4296 23.4155 63.4144 23.3473 63.3831C23.0774 63.2598 22.9497 62.938 23.0638 62.6538C23.16 62.3588 23.4631 62.2086 23.7433 62.3087C24.0243 62.4097 24.1716 62.7378 24.0754 63.0327C24.0618 63.0738 24.0541 63.0917 24.0541 63.0917C23.9638 63.3018 23.7646 63.4296 23.5577 63.4296Z" fill="#2AAF8F"/>
<path d="M67.3991 105.204H16.2019C15.9047 105.204 15.6646 104.951 15.6646 104.64C15.6646 104.328 15.9055 104.076 16.2019 104.076H67.3991C67.6962 104.076 67.9364 104.329 67.9364 104.64C67.9364 104.951 67.6954 105.204 67.3991 105.204Z" fill="black"/>
<path d="M116.072 105.204H71.4201C71.1229 105.204 70.8828 104.951 70.8828 104.64C70.8828 104.328 71.1238 104.076 71.4201 104.076H116.072C116.369 104.076 116.609 104.329 116.609 104.64C116.609 104.951 116.368 105.204 116.072 105.204Z" fill="black"/>
<path fill-rule="evenodd" clip-rule="evenodd" d="M25.7875 18.9755C27.6728 18.9755 29.2013 20.5799 29.2013 22.5579C29.2013 24.5359 27.6728 26.1404 25.7875 26.1404C23.9022 26.1404 22.3745 24.5359 22.3745 22.5579C22.3745 20.579 23.9022 18.9755 25.7875 18.9755Z" fill="#5DE6AC"/>
<path fill-rule="evenodd" clip-rule="evenodd" d="M79.041 1.60168C80.4094 1.60168 81.5189 2.76634 81.5189 4.20272C81.5189 5.6391 80.4094 6.80375 79.041 6.80375C77.6725 6.80375 76.563 5.6391 76.563 4.20272C76.563 2.76634 77.6725 1.60168 79.041 1.60168Z" fill="#5DE6AC"/>
<path fill-rule="evenodd" clip-rule="evenodd" d="M106.253 54.0157C107.621 54.0157 108.731 55.1804 108.731 56.6168C108.731 58.0531 107.621 59.2178 106.253 59.2178C104.884 59.2178 103.775 58.0531 103.775 56.6168C103.774 55.1804 104.884 54.0157 106.253 54.0157Z" fill="#5DE6AC"/>
<path fill-rule="evenodd" clip-rule="evenodd" d="M19.4745 68.6413C19.4745 68.6413 18.9406 61.1531 19.9889 57.1077C21.0362 53.0624 22.1398 50.7769 22.1398 50.7769C22.1398 50.7769 22.9887 52.99 24.2907 53.1822C25.5927 53.3743 26.0678 52.5931 26.0678 52.5931C26.0678 52.5931 27.3374 53.9356 28.3124 53.5745C29.2874 53.2143 29.668 52.8389 29.668 52.8389C29.668 52.8389 30.442 53.7685 31.8189 53.0847C33.1958 52.4001 32.8476 51.4652 32.8476 51.4652C32.8476 51.4652 35.7572 53.1982 34.858 47.8328C33.9588 42.4673 31.2867 38.161 30.8371 37.5264C30.3875 36.8927 28.0195 34.3918 23.4494 35.5144C18.8793 36.637 13.7941 37.0115 9.60977 45.6733C5.42543 54.3352 1.76648 68.5645 1.42758 74.2857C1.08868 80.006 2.44514 86.5978 7.27236 88.2236C15.9791 91.1561 39.2058 81.1071 39.2058 81.1071L43.3671 103.585H67.1661C67.1661 103.585 66.708 104.886 67.774 105.107C68.8401 105.327 70.6275 104.944 72.1219 104.37C73.6163 103.796 74.5751 102.837 75.9554 103.29C77.3365 103.744 78.2706 103.94 79.7897 104.026C81.3088 104.113 87.6245 103.457 91.2443 103.535C94.8649 103.614 105.72 104.483 107.749 103.682C109.777 102.882 113.08 100.733 111.63 95.6332C110.18 90.5332 102.062 67.2381 91.8523 60.1502C80.2419 52.089 67.5399 52.6906 67.5399 52.6906L66.7454 50.6786C66.7454 50.6786 74.3605 46.7084 73.6648 37.9187C72.97 29.1291 68.3343 28.6429 68.3343 28.6429L69.5503 27.3674L67.5867 27.1216C67.5867 27.1216 67.5475 24.7227 67.8209 24.8147C68.0934 24.9077 64.5945 26.0911 64.5945 26.0911C64.5945 26.0911 57.5568 22.2004 53.3733 23.3427C49.1889 24.4849 47.7184 26.1805 46.5935 25.6496C45.4687 25.1186 43.7878 24.7665 43.7878 24.7665C43.7878 24.7665 43.1764 25.2929 43.3671 26.2877C43.5579 27.2825 43.7418 28.398 43.7418 28.398C43.7418 28.398 42.2755 28.3086 42.0115 29.0362C41.7476 29.7628 41.4708 29.5814 42.1052 30.8524C43.3348 33.3157 46.407 35.6619 46.407 35.6619C46.407 35.6619 46.4794 39.5982 47.4825 44.8394C48.4856 50.0807 49.1234 52.0417 50.0072 52.8881C50.8911 53.7345 51.8772 55.0958 51.8772 55.0958C51.8772 55.0958 44.3208 55.6365 38.5978 57.5493C32.8748 59.4629 19.4745 68.6413 19.4745 68.6413Z" fill="#FEFEFF"/>
<path fill-rule="evenodd" clip-rule="evenodd" d="M65.6695 47.8821L66.6981 50.1891C66.6981 50.1891 70.6348 48.1771 72.4026 44.2997C74.1704 40.4213 74.006 34.7357 72.5431 32.2258C71.0802 29.716 67.8205 28.4959 67.8205 28.4959L69.5499 27.3178L67.6331 26.7288L68.3816 24.5202L64.0797 27.4644C64.0797 27.4644 59.0743 23.8275 54.4948 25.0591C49.9152 26.2917 48.6013 28.2036 47.7616 27.9551C46.9229 27.7067 45.0495 26.2864 45.0495 26.2864C45.0495 26.2864 44.5922 26.946 44.6288 28.1026C44.6655 29.2583 45.4233 30.9003 45.4233 30.9003C45.4233 30.9003 43.4861 29.8849 43.5065 30.6053C43.5321 31.5376 43.676 31.5403 44.582 32.519C46.2246 34.2951 47.2941 34.531 47.2941 34.531L47.7616 33.2555C47.7616 33.2555 50.7276 35.0369 53.1391 34.7277C55.5498 34.4193 61.1155 32.5816 62.6312 34.4336C64.5182 36.7406 63.6599 42.8749 63.6599 42.8749L65.437 41.2553C65.437 41.2553 69.0995 39.4265 69.3175 41.9909C69.5346 44.5571 65.6695 47.8821 65.6695 47.8821Z" fill="#2AAF8F"/>
<path fill-rule="evenodd" clip-rule="evenodd" d="M71.9813 89.2536C71.9813 89.2536 67.7433 78.0901 68.6153 71.6351C69.4872 65.1791 71.3265 53.2308 71.3265 53.2308C71.3265 53.2308 88.4623 53.4284 95.2191 62.9482C97.892 66.7147 101.345 71.2927 103.962 76.3463C107.961 84.0651 110.009 89.3368 110.836 92.5911C111.719 96.0653 112.012 98.5501 111.21 100.394C110.408 102.238 107.684 104.166 103.775 104.124C99.8666 104.081 88.3925 103.632 88.3925 103.632C88.3925 103.632 90.9189 98.1139 89.8886 95.0437C88.8583 91.9744 87.1766 89.007 87.1766 89.007C87.1766 89.007 78.71 88.9033 76.1418 89.0561C73.5745 89.209 71.9813 89.2536 71.9813 89.2536Z" fill="#323232"/>
<path fill-rule="evenodd" clip-rule="evenodd" d="M52.4842 80.1735C52.4842 80.1735 49.9476 72.3877 50.3333 68.3459C50.719 64.3041 55.0089 55.8801 55.0089 55.8801C55.0089 55.8801 52.9261 55.5208 52.4374 55.2419C51.9495 54.9621 51.5961 55.3894 51.5961 55.3894C51.5961 55.3894 39.2798 56.1098 31.2577 61.1803C23.2347 66.2508 19.2412 68.64 19.2412 68.64C19.2412 68.64 19.2846 63.4327 19.8491 59.5107C20.2298 56.8695 21.2047 54.9961 21.2047 54.9961C21.2047 54.9961 14.7247 58.4533 12.3677 57.4004C8.75562 55.788 7.13094 51.6095 7.13094 51.6095C7.13094 51.6095 3.91477 61.0132 2.22197 67.7068C0.528308 74.4023 0.438048 83.0972 4.93404 86.5544C9.42917 90.0116 17.7834 89.1973 26.2542 85.4255C34.7259 81.6537 40.4208 87.0942 40.4208 87.0942L52.4842 80.1735Z" fill="#323232"/>
<path fill-rule="evenodd" clip-rule="evenodd" d="M110.176 89.3973C109.16 86.4612 108.05 83.8298 106.904 81.1529C102.301 70.4094 96.5874 60.7376 86.3335 56.0783C81.1853 53.7383 75.0723 52.2823 67.9613 52.0052C67.7126 51.5467 67.4606 51.0917 67.3065 50.5331C70.8752 48.7089 73.3156 45.257 74.0385 40.3259C74.8628 34.7039 72.6897 30.4405 69.1764 28.5001C69.6924 28.0952 70.4818 27.8306 70.3915 27.028C70.2944 26.1601 69.1645 26.2638 68.1478 26.2423C68.2031 25.5782 69.2777 24.6049 68.7089 23.9363C68.2644 23.4134 67.1472 24.1821 66.6048 24.427C65.8078 24.7863 65.0363 25.1135 64.5016 25.3592C61.0189 23.4429 54.7926 21.6652 50.2898 23.6414C49.1514 24.141 48.047 25.1537 47.0175 25.2118C45.7445 25.2833 44.9449 23.7745 43.8388 24.0829C42.6654 24.4109 42.8689 26.8269 42.9038 28.2051C41.4792 27.9128 40.9436 28.9747 41.1744 30.3145C41.6606 33.146 44.3812 34.9202 46.1762 36.252C46.2102 37.1547 46.0995 37.9055 46.1293 38.8038C46.0791 38.8404 46.0229 38.8744 45.9625 38.9066C45.959 39.1113 45.9497 39.3159 45.9318 39.5206C45.9344 39.6761 45.7836 39.6851 45.7768 39.8218C45.7717 39.9344 45.7913 39.5841 45.7768 39.6958C45.8867 39.6404 46.0791 39.7226 46.1481 39.6958C46.4683 45.0604 47.3581 50.5501 49.7287 53.6721C50.0701 54.1217 50.5053 54.481 50.8042 54.9476C44.1836 55.6465 38.4487 56.9551 33.4137 59.2655C28.3762 61.5769 24.0215 64.5345 19.7631 67.4599C19.7418 61.2882 20.9297 56.3839 22.5212 51.9042C23.0363 52.5513 23.5787 53.7731 24.5776 53.9653C25.4895 54.1405 26.0081 53.6391 26.5411 53.1797C26.9575 53.5997 27.7511 53.9823 28.5507 53.867C29.0804 53.7901 29.3784 53.4183 29.7198 53.3271C30.9511 54.5123 32.8602 53.766 33.1327 52.2966C34.9941 52.4673 35.6515 51.2169 35.6574 49.3524C35.666 46.5262 34.335 43.9789 33.5074 41.992C32.563 39.7244 31.6 37.4381 29.9072 36.1036C28.0628 34.6485 25.0519 34.6646 22.287 35.1714C19.6056 35.663 17.2367 36.4531 15.4621 37.674C11.8883 40.1338 9.50918 44.2765 7.60776 48.7151C5.65098 53.2833 4.20681 58.252 2.97978 63.1911C2.37862 65.6106 1.69911 68.2187 1.15669 70.8957C0.621945 73.5342 0.226843 76.7009 0.782881 79.5816C1.26824 82.095 2.32923 84.451 3.7751 86.1081C5.29249 87.8484 7.01766 88.9808 9.85234 89.3955C12.7151 89.8147 15.5226 89.2856 18.0337 88.6599C25.5594 86.7847 31.7771 83.8647 39.0243 81.6919C40.3893 89.3535 41.7262 97.0447 42.9515 104.854H44.1675C42.788 96.47 41.3396 87.4801 39.7728 79.0426C39.6383 78.3178 39.4586 75.8125 38.6045 75.9018C37.707 75.9957 38.2724 77.4249 38.3704 77.9629C38.5424 78.9032 38.6463 79.8042 38.791 80.4656C33.5023 82.1763 28.4307 84.0783 23.0832 85.8632C18.5676 87.3702 10.6264 90.0909 6.1125 86.648C4.01352 85.0472 2.75754 82.7269 2.09251 79.9257C1.39938 77.0048 1.84557 73.3036 2.51315 70.2584C3.81171 64.3396 5.30016 58.4432 7.18796 53.2306C8.37667 55.4151 9.59604 57.6058 12.3771 58.0392C15.4229 58.5139 17.8702 56.9694 19.9973 56.0765C19.156 59.1529 18.548 63.2287 18.548 67.4608C18.548 68.5137 18.2227 71.1942 19.3901 70.8957C20.039 70.7303 19.6686 69.5961 19.764 69.0312C26.3359 64.3379 33.3447 59.5256 42.7182 57.5003C44.9483 57.0176 47.6093 56.6074 50.0105 56.2731C50.7718 56.1667 51.8847 55.8897 52.5353 55.9299C52.9772 55.9567 53.46 56.3142 54.0314 56.2731C52.0261 59.3594 50.2779 62.2249 50.0114 66.971C49.7568 71.4954 50.8084 76.1065 51.5075 80.2207C52.9474 88.6921 54.6402 97.0143 56.5093 104.855C56.8993 104.823 57.4127 104.92 57.7253 104.806C55.4355 95.0801 53.3314 84.8756 51.7391 74.3815C51.2129 70.9135 50.7233 66.8441 51.7859 63.4387C54.0561 64.9716 57.1862 65.8868 60.7149 65.3032C63.8596 64.783 66.6099 63.419 68.8494 62.2607C67.6352 71.9414 69.9385 81.169 71.5138 88.8575C68.1852 89.2892 63.8604 89.3482 61.6967 91.0652C61.3033 91.3771 61.0487 91.7516 60.9022 92.194C60.4433 93.5767 61.5835 94.9174 62.5848 95.0399C63.7114 95.1775 64.5638 94.4187 65.577 94.0585C66.6321 93.6822 67.8174 93.5839 69.0368 93.8619C67.7774 94.3508 66.3519 95.0202 65.0627 95.9721C63.9217 96.8159 62.6317 97.9617 62.4452 99.5053C62.2613 101.03 62.9212 102.453 64.2683 102.5C64.1329 103.911 65.4008 104.319 66.5588 103.922C66.7019 104.774 67.2886 105.279 67.9145 105.493C70.5397 106.387 72.9937 103.759 75.8616 104.07C76.5854 104.149 77.2905 104.45 78.0117 104.61C80.3917 105.138 82.919 104.807 85.5851 104.659C88.992 104.469 92.6398 104.403 96.1975 104.561C99.5133 104.707 103.466 104.841 106.529 104.315C109.746 103.762 112.002 102.407 112.185 98.9172C112.374 95.3616 111.128 92.1484 110.176 89.3973ZM12.7969 56.863C9.89492 56.5967 8.88077 53.8268 7.74826 51.5628C9.27928 47.462 11.0606 43.8832 13.4985 41.1107C16.1212 38.1281 19.3995 36.6488 24.4847 36.1546C26.4398 35.9642 28.4707 36.3181 29.5802 37.3809C31.0848 38.8217 31.944 41.2894 32.8526 43.515C33.2834 44.5697 33.7637 45.7155 34.1145 46.999C34.4747 48.3147 35.0222 51.4493 33.1795 51.0721C32.4106 48.4854 31.7192 46.2759 30.7953 43.6133C30.6097 43.0797 30.2691 41.5451 29.6262 41.5522C28.5064 41.5656 29.4976 43.5204 29.7198 44.1532C30.4385 46.2 30.9162 47.8088 31.5898 49.9441C31.8231 50.6842 32.3757 52.4736 31.4024 52.6925C30.883 52.8087 30.5279 52.3395 30.0928 52.0544C29.6338 49.4766 28.5269 46.9758 27.5221 44.5956C27.2079 43.852 26.6152 41.6943 25.699 42.9278C25.7756 43.8064 26.2227 44.5366 26.5403 45.2829C27.173 46.7684 27.7554 48.2477 28.3166 49.8458C28.5839 50.6064 28.9288 51.4779 28.8309 52.3976C28.0747 53.0143 27.2164 52.2188 26.7276 51.8086C26.0924 49.5812 25.1753 47.4057 24.2029 45.2329C23.9628 44.6957 23.5813 43.4703 22.9401 43.515C21.8187 43.5937 22.8967 45.2722 23.0806 45.6744C23.8189 47.2913 24.3775 48.6865 25.0442 50.3856C25.2205 50.8343 26.026 52.6049 25.091 52.7408C24.5742 52.8168 24.0164 52.0204 23.7354 51.5637C22.8013 50.0451 22.2299 47.9465 21.1638 46.6075C20.899 46.2751 20.4162 45.8264 19.9956 45.7245C18.8281 45.4394 18.0311 46.5164 17.0502 46.4601C16.6823 46.4395 16.3715 46.2429 16.1152 46.0677C15.8061 45.8559 15.0014 45.3035 14.8064 46.1169C14.614 46.9204 16.2429 47.7221 17.097 47.7364C18.0865 47.7534 18.8673 46.8909 19.5749 46.9517C20.1667 47.0026 20.641 47.9956 20.8837 48.4729C21.2498 49.1915 21.3614 49.617 21.7718 50.3865C21.3341 51.6611 20.8573 52.8936 20.5099 54.2629C18.2849 55.3713 16.0786 57.1633 12.7969 56.863ZM58.4712 64.2726C55.9277 64.2815 53.9139 63.3207 52.2066 62.2115C53.0138 60.0315 54.2111 58.0017 55.479 56.4697C55.2116 58.3029 57.2033 58.1206 56.6941 56.1265C58.9983 55.5902 60.835 54.4587 62.4912 53.084C62.8701 52.7694 63.9243 52.1536 63.9404 51.5628C63.9515 51.1534 63.6714 50.9416 63.3793 50.9246C62.8607 50.896 62.0782 51.855 61.6499 52.2001C60.0243 53.5113 58.1587 54.8368 55.5726 55.0459C50.8229 55.4302 49.3804 51.2499 48.4199 47.5872C47.7821 45.1569 47.4432 42.1591 47.3521 39.1979C50.3741 38.1862 51.9052 41.0249 51.6454 44.1514C51.5577 45.2132 50.8587 46.0266 50.8978 46.9981C50.9259 47.6917 51.4726 48.8126 52.0661 48.8134C52.2875 48.8134 52.6426 48.5471 52.6741 48.2736C52.726 47.8195 52.1547 47.471 52.1129 46.9972C52.0772 46.5834 52.3871 45.9783 52.5336 45.5252C53.7504 41.7551 51.5254 37.1127 47.3445 38.3605C47.0549 37.2021 48.0606 34.1784 46.9238 34.1399C46.4785 34.1247 46.3839 34.4081 46.269 34.8273C45.403 34.1909 44.4612 33.5134 43.7443 32.6678C43.052 31.8518 42.3197 30.8204 42.3418 29.4296C42.9532 29.3438 43.1303 29.738 43.6506 29.6262C44.7031 29.3992 43.66 26.3406 44.2109 25.3566C45.3008 25.8008 46.034 26.6937 47.3896 26.4363C48.454 26.2343 49.2186 25.5166 50.335 24.9642C51.3406 24.4672 52.6341 24.074 53.8875 23.9828C57.5064 23.7209 60.7141 24.9311 63.2839 26.1422C63.6731 26.3254 64.1252 26.6204 64.4531 26.6329C65.3591 26.666 66.2753 25.7123 67.1174 25.5532C67.0059 26.1074 66.5444 26.5006 66.65 27.0744C66.7726 27.7412 67.5398 27.5419 68.2866 27.516C67.9247 27.8646 67.246 27.8556 67.2579 28.4974C67.2656 28.9264 67.8693 29.2169 68.3326 29.4788C71.3043 31.1555 73.3428 34.1158 72.9605 39.1461C72.5739 44.2372 70.3345 47.3905 66.8364 49.4016C66.5844 49.0771 66.4635 48.615 66.369 48.1261C67.7373 46.8819 69.7588 45.6762 70.0151 43.2683C70.2186 41.3556 68.8979 39.98 67.1634 39.9809C65.8904 39.9809 65.0415 40.8774 64.4054 41.3055C64.6668 36.8848 64.2989 32.9208 60.4314 32.6687C59.0843 32.5811 57.6529 32.8993 56.3645 33.2578C55.0898 33.6117 53.902 34.1408 52.6247 34.1408C51.1916 34.1408 50.0046 33.5938 48.9785 33.0611C48.5817 32.8555 47.4415 32.1557 47.3887 33.1594C47.3504 33.8932 48.838 34.3956 49.3992 34.6315C50.2583 34.9926 51.086 35.2894 52.1104 35.368C55.2669 35.6093 57.3949 33.5929 60.6655 33.9451C63.4857 34.2481 63.5232 38.6152 63.1434 41.8945C63.0992 42.2771 62.9518 42.6766 63.0029 42.9743C63.0557 43.2781 63.3759 43.6812 63.8442 43.6616C64.3688 43.6392 64.6293 42.909 65.0125 42.4836C65.5013 41.941 66.3417 41.1312 67.3967 41.2564C68.4381 41.3806 69.11 42.3754 68.7055 43.6616C68.324 44.8763 67.4393 45.7021 66.4618 46.4583C66.1007 46.7371 65.2654 47.1733 65.153 47.7838C65.0457 48.3665 65.3744 48.9859 65.5268 49.4034C65.7141 49.9137 65.916 50.3847 66.088 50.7771C66.5026 51.7281 66.6917 52.5415 67.3967 53.3289C68.399 53.1761 69.4582 53.3325 70.5286 53.3772C69.9113 55.6412 69.471 58.0902 69.0325 60.5419C66.3272 62.2285 62.7611 64.2574 58.4712 64.2726ZM78.199 103.383C77.253 103.165 76.3189 102.796 75.3473 102.794C73.2024 102.788 71.3614 104.173 69.4097 104.364C68.6536 104.438 68.0498 104.318 67.7271 103.824C68.4449 102.435 70.0194 101.759 71.6543 100.978C72.3525 100.645 73.1129 100.297 73.9917 99.9477C74.6065 99.7037 76.1443 99.4454 76.1418 98.7214C76.1375 97.5014 74.1262 98.6097 73.7107 98.7706C71.6015 99.5857 69.3169 100.483 67.6803 101.862C67.3984 102.1 67.097 102.603 66.7453 102.746C66.6261 102.794 65.6307 103.114 65.3897 102.648C64.9537 101.803 66.7794 100.695 67.166 100.39C69.1074 98.86 71.2175 97.8553 73.7107 96.8078C74.1509 96.6228 74.8279 96.3573 74.833 95.9247C74.8424 95.1167 73.996 95.3375 73.5242 95.5315C70.8828 96.621 67.9647 98.0055 65.904 99.8011C65.7269 99.9558 65.5149 100.066 65.2961 100.243C65.0559 100.438 64.5842 101.278 64.0809 101.175C63.7191 101.102 63.536 100.273 63.6603 99.6045C63.7625 99.0557 64.0682 98.59 64.4079 98.1816C66.1416 96.1008 69.7614 94.6591 72.8694 93.8627C73.6409 93.6652 73.9415 93.5839 73.9449 93.1272C73.9534 91.8267 71.9677 93.0691 71.2337 93.078C70.8258 93.0834 70.1906 92.7544 69.5502 92.6365C68.0677 92.363 66.2608 92.4488 65.0151 92.9314C64.3671 93.1826 63.4193 93.8788 62.7245 93.7653C62.3149 93.6983 61.9692 93.1799 62.0237 92.6856C62.142 91.6131 64.6804 91.0884 65.9977 90.8211C69.2982 90.1508 72.9052 89.9157 76.4696 89.7414C77.3858 89.6967 78.3378 89.6431 79.2745 89.6431C81.0703 89.6431 82.5145 89.5448 84.4636 89.5448C85.1389 89.5448 86.1896 89.3884 86.6614 89.5448C87.0386 89.6699 87.4924 90.6165 87.7368 91.0169C88.6692 92.548 89.5965 94.4929 89.6068 96.8078C89.6187 99.4937 88.7348 101.302 87.9242 103.285C84.4517 103.222 81.4101 104.124 78.199 103.383ZM110.223 101.322C108.64 103.35 104.097 103.518 100.639 103.432C96.7203 103.333 92.9838 103.219 89.2789 103.235C90.1143 101.152 91.0058 98.7447 90.7282 95.8747C90.4753 93.2594 89.2585 91.2028 88.2971 89.594C90.8772 89.5975 93.3866 89.711 96.011 89.8389C96.7842 89.8773 97.9516 90.1749 97.9746 89.3482C97.995 88.6322 97.0532 88.6993 96.4785 88.6608C94.4766 88.5277 92.4253 88.4124 90.4012 88.3668C89.3275 85.8293 87.9999 83.3749 86.6145 81.0063C86.285 80.4423 85.7094 78.9041 85.0248 78.9452C84.9209 78.9515 84.5752 79.1061 84.5104 79.3376C84.3265 79.9972 85.4309 81.253 85.6327 81.5953C86.8896 83.7262 88.0842 86.1153 89.0456 88.3176C83.5031 88.2774 77.9035 88.289 72.7298 88.7591C71.0778 80.9402 68.8145 71.6938 70.0654 62.064C70.3515 59.8599 70.704 57.7729 71.1877 55.685C71.3554 54.9592 71.6032 54.0949 71.6552 53.5256C77.7256 54.1602 83.7645 55.8477 88.1106 58.3834C97.1154 63.6371 102.076 72.9094 106.483 83.2131C107.541 85.6872 108.528 88.2801 109.475 91.1134C110.333 93.6849 112.048 98.9833 110.223 101.322Z" fill="black"/>
<path fill-rule="evenodd" clip-rule="evenodd" d="M57.629 35.9585C58.3716 35.9326 59.2657 36.0577 60.1538 36.4492C60.5924 36.6423 62.4445 37.4968 61.5095 38.2163C61.0522 38.5685 60.2466 37.8829 59.9197 37.7256C58.6858 37.133 57.1641 37.0579 55.7122 37.5299C55.2277 37.6872 53.7409 38.6105 53.7486 37.4316C53.752 36.8363 54.8036 36.5306 55.3384 36.3518C56.1525 36.0783 56.8396 35.9853 57.629 35.9585Z" fill="black"/>
<path fill-rule="evenodd" clip-rule="evenodd" d="M66.7921 42.9757C67.0331 42.9096 67.435 42.8792 67.5406 43.3189C67.6887 43.9401 66.5187 45.1468 66.0444 45.1352C65.7234 45.1271 65.5207 44.926 65.4833 44.6445C65.4092 44.0948 66.4489 43.0705 66.7921 42.9757Z" fill="black"/>
<path fill-rule="evenodd" clip-rule="evenodd" d="M51.832 49.7961C52.4962 49.5995 53.0497 50.555 53.983 50.5809C54.7519 50.6023 56.1339 49.6477 56.1339 50.8267C56.1339 51.6338 54.5279 51.8921 53.7028 51.8081C52.778 51.7134 51.4352 51.0591 51.4122 50.3851C51.4002 50.0508 51.5876 49.8685 51.832 49.7961Z" fill="black"/>
<path fill-rule="evenodd" clip-rule="evenodd" d="M57.4901 41.3571C57.9142 41.3196 58.2863 41.6503 58.3229 42.0963L58.4183 43.2708C58.454 43.7168 58.1398 44.1092 57.7166 44.1477C57.2925 44.1861 56.9196 43.8545 56.8838 43.4085L56.7884 42.234C56.7527 41.7888 57.0669 41.3956 57.4901 41.3571Z" fill="black"/>
<path fill-rule="evenodd" clip-rule="evenodd" d="M49.5892 41.3596C50.0141 41.3211 50.3871 41.6518 50.4237 42.0979L50.5191 43.2715C50.5557 43.7166 50.2406 44.109 49.8166 44.1465C49.3917 44.1849 49.0187 43.8542 48.9821 43.4082L48.8867 42.2346C48.8501 41.7895 49.1643 41.3971 49.5892 41.3596Z" fill="black"/>
<path fill-rule="evenodd" clip-rule="evenodd" d="M28.1709 71.4381L23.4023 72.8119L17.978 52.0519C17.978 52.0519 19.2153 51.7024 21.0742 51.1786C21.288 51.1188 24.6217 56.7785 24.8516 56.7141C28.1028 55.797 33.0528 55.7523 35.7922 53.2782C36.6667 52.4881 35.7845 48.0082 35.8186 46.8945C35.8305 46.5173 37.99 46.4074 37.99 46.4074L39.8608 52.1002L29.4806 64.7138L28.1709 71.4381Z" fill="#BDEFD7"/>
<path fill-rule="evenodd" clip-rule="evenodd" d="M43.4233 61.5319C45.8392 60.8561 47.2732 58.2623 46.6251 55.7381C45.978 53.2148 43.4949 51.7168 41.0791 52.3934C41.062 52.3979 39.6647 46.9482 39.6647 46.9482L19.4287 52.6124L24.8505 73.7478L30.6094 72.1353C29.9725 69.6174 31.4056 67.0334 33.8154 66.3585C36.227 65.6837 38.7041 67.1728 39.359 69.6863L45.0864 68.0836L43.4072 61.5363C43.4216 61.5328 43.4233 61.5319 43.4233 61.5319Z" fill="#2AAF8F"/>
<path d="M37.7891 46.9559L38.9762 51.5895L39.2521 52.6647L40.2799 52.3903C40.623 52.2938 40.9449 52.25 41.2651 52.25C42.9239 52.25 44.3817 53.4209 44.8109 55.0968C45.0638 56.0836 44.9352 57.1142 44.4481 58C43.9585 58.8902 43.1657 59.5275 42.2163 59.7939C42.2094 59.7957 41.1518 60.0772 41.1518 60.0772L41.4354 61.1838L42.9171 66.9642L38.8876 68.0931C37.9279 66.023 35.9021 64.6527 33.6472 64.6527C33.1431 64.6527 32.639 64.7216 32.1477 64.8583C29.3989 65.6279 27.6354 68.3326 27.8329 71.1902L23.7702 72.328L18.6423 52.3206L37.7891 46.9559ZM38.5487 45.5749L17.3232 51.5215L23.0098 73.709L29.0498 72.017C28.3822 69.373 29.8843 66.6603 32.4125 65.9524C32.8255 65.8371 33.2393 65.7816 33.6455 65.7816C35.7378 65.7816 37.652 67.2368 38.2268 69.4463L44.2335 67.7632L42.4726 60.8906C45.0238 60.1764 46.5276 57.453 45.8489 54.8046C45.2801 52.5861 43.3616 51.1229 41.2642 51.1229C40.8572 51.1229 40.4433 51.1783 40.0321 51.2936C40.015 51.2963 38.5487 45.5749 38.5487 45.5749Z" fill="black"/>
<path d="M53.9341 43.7819C53.6736 43.7819 53.4453 43.5835 53.4036 43.3046C53.3968 43.2671 53.3449 43.0365 53.155 43.0061C52.9906 42.9748 52.7564 43.2689 52.6909 43.3886C52.5427 43.6586 52.214 43.7524 51.9569 43.596C51.6997 43.4405 51.6111 43.0955 51.7593 42.8255C51.9815 42.4206 52.5597 41.7663 53.3193 41.8897C54.0976 42.0157 54.4067 42.7281 54.4663 43.1294C54.5123 43.4378 54.3122 43.7265 54.0184 43.7748C53.9895 43.7792 53.9614 43.7819 53.9341 43.7819Z" fill="black"/>
<path fill-rule="evenodd" clip-rule="evenodd" d="M51.7876 42.778C51.7876 44.9053 50.1442 46.6295 48.1184 46.6295C46.0917 46.6295 44.4482 44.9044 44.4482 42.778C44.4482 40.6507 46.0917 38.9256 48.1184 38.9256C50.1442 38.9256 51.7876 40.6507 51.7876 42.778Z" fill="#A29A9A"/>
<path d="M48.1184 39.9562C49.6 39.9562 50.8058 41.2219 50.8058 42.7771C50.8058 44.3324 49.6 45.598 48.1184 45.598C46.6358 45.598 45.4301 44.3324 45.4301 42.7771C45.4301 41.2219 46.6358 39.9562 48.1184 39.9562ZM48.1184 38.9256C46.0917 38.9256 44.4482 40.6507 44.4482 42.778C44.4482 44.9053 46.0917 46.6295 48.1184 46.6295C50.145 46.6295 51.7876 44.9044 51.7876 42.778C51.7876 40.6507 50.1442 38.9256 48.1184 38.9256Z" fill="white"/>
<path fill-rule="evenodd" clip-rule="evenodd" d="M61.5773 42.778C61.5773 44.9053 59.9347 46.6295 57.908 46.6295C55.8814 46.6295 54.2388 44.9044 54.2388 42.778C54.2388 40.6507 55.8814 38.9256 57.908 38.9256C59.9347 38.9256 61.5773 40.6507 61.5773 42.778Z" fill="#A29A9A"/>
<path d="M57.9066 39.9563C59.3883 39.9563 60.594 41.222 60.594 42.7772C60.594 44.3325 59.3883 45.5981 57.9066 45.5981C56.4249 45.5981 55.2191 44.3325 55.2191 42.7772C55.2191 41.222 56.4249 39.9563 57.9066 39.9563ZM57.9066 38.9257C55.8799 38.9257 54.2373 40.6508 54.2373 42.7781C54.2373 44.9054 55.8799 46.6296 57.9066 46.6296C59.9332 46.6296 61.5759 44.9045 61.5759 42.7781C61.5767 40.6508 59.9341 38.9257 57.9066 38.9257Z" fill="white"/>
<path d="M57.9068 47.512C55.4186 47.512 53.3945 45.3882 53.3945 42.7774C53.3945 40.1665 55.4186 38.0428 57.9068 38.0428C60.395 38.0428 62.42 40.1665 62.42 42.7774C62.42 45.3882 60.3959 47.512 57.9068 47.512ZM57.9068 39.1717C56.0113 39.1717 54.47 40.7895 54.47 42.7783C54.47 44.7661 56.0122 46.3839 57.9068 46.3839C59.8024 46.3839 61.3445 44.7661 61.3445 42.7783C61.3445 40.7895 59.8024 39.1717 57.9068 39.1717Z" fill="black"/>
<path d="M48.178 47.5135C45.6923 47.5135 43.6699 45.3889 43.6699 42.778C43.6699 40.1662 45.6923 38.0416 48.178 38.0416C50.6636 38.0416 52.6852 40.1662 52.6852 42.778C52.686 45.3889 50.6636 47.5135 48.178 47.5135ZM48.178 39.1696C46.285 39.1696 44.7454 40.7883 44.7454 42.7771C44.7454 44.7659 46.285 46.3837 48.178 46.3837C50.0709 46.3837 51.6105 44.7659 51.6105 42.7771C51.6105 40.7883 50.0709 39.1696 48.178 39.1696Z" fill="black"/>
<path d="M73.2393 81.2408H68.9458V90.6394H73.2393V81.2408Z" fill="#A7FFEA"/>
<path fill-rule="evenodd" clip-rule="evenodd" d="M71.4893 88.9329C71.2849 88.9329 71.084 88.949 70.8881 88.9785V81.7636H64.6523C64.6761 81.5741 64.6889 81.3801 64.6889 81.1826C64.6889 78.7648 62.8215 76.8046 60.5181 76.8046C58.2138 76.8046 56.3472 78.7648 56.3472 81.1826C56.3472 81.3801 56.36 81.5732 56.3839 81.7636H50.0688V103.617H70.8881V97.6442C71.0848 97.6737 71.2849 97.6898 71.4893 97.6898C73.7927 97.6898 75.6601 95.7296 75.6601 93.3118C75.6601 90.8931 73.7927 88.9329 71.4893 88.9329Z" fill="#8FFFE4"/>
<path d="M60.5179 76.805C62.8213 76.805 64.6887 78.7651 64.6887 81.1829C64.6887 81.3805 64.6759 81.5735 64.6521 81.7639H70.8879V88.9789C71.0846 88.9494 71.2847 88.9333 71.4891 88.9333C73.7925 88.9333 75.6599 90.8934 75.6599 93.3112C75.6599 95.729 73.7925 97.6892 71.4891 97.6892C71.2847 97.6892 71.0838 97.6731 70.8879 97.6436V103.616H50.0687V81.763H56.3837C56.3598 81.5735 56.347 81.3796 56.347 81.182C56.3462 78.7651 58.2136 76.805 60.5179 76.805ZM60.5179 75.6761C57.8015 75.6761 55.5602 77.8543 55.2971 80.635H50.0687H48.9932V81.7639V103.617V104.746H50.0687H70.8879H71.9634V103.617V98.7967C74.6347 98.5446 76.7363 96.1804 76.7363 93.3121C76.7363 90.443 74.6355 88.0797 71.9634 87.8276V81.7639V80.635H70.8879H65.7387C65.4755 77.8543 63.2343 75.6761 60.5179 75.6761Z" fill="black"/>
<path fill-rule="evenodd" clip-rule="evenodd" d="M49.508 88.9329C49.3036 88.9329 49.1026 88.949 48.9068 88.9785V81.7636H42.671C42.6948 81.5741 42.7076 81.3801 42.7076 81.1826C42.7076 78.7648 40.8402 76.8046 38.5368 76.8046C36.2333 76.8046 34.3659 78.7648 34.3659 81.1826C34.3659 81.3801 34.3778 81.5732 34.4025 81.7636H28.0884V103.617H48.9076V97.6442C49.1035 97.6737 49.3045 97.6898 49.5088 97.6898C51.8122 97.6898 53.6797 95.7296 53.6797 93.3118C53.6797 90.8931 51.8122 88.9329 49.508 88.9329Z" fill="#F0F0F0"/>
<path d="M38.5369 76.805C40.8403 76.805 42.7078 78.7651 42.7078 81.1829C42.7078 81.3805 42.695 81.5735 42.6711 81.7639H48.9069V88.9789C49.1028 88.9494 49.3038 88.9333 49.5081 88.9333C51.8115 88.9333 53.679 90.8934 53.679 93.3112C53.679 95.729 51.8115 97.6892 49.5081 97.6892C49.3038 97.6892 49.1028 97.6731 48.9069 97.6436V103.616H28.0877V81.763H34.4019C34.378 81.5735 34.3652 81.3796 34.3652 81.182C34.3661 78.7651 36.2335 76.805 38.5369 76.805ZM38.5369 75.6761C35.8205 75.6761 33.5793 77.8543 33.3161 80.635H28.0877H27.0122V81.7639V103.617V104.746H28.0877H48.9069H49.9824V103.617V98.7967C52.6537 98.5446 54.7545 96.1804 54.7545 93.3121C54.7545 90.443 52.6537 88.0797 49.9824 87.8276V81.7639V80.635H48.9069H43.7577C43.4946 77.8543 41.2533 75.6761 38.5369 75.6761Z" fill="black"/>
<path fill-rule="evenodd" clip-rule="evenodd" d="M50.7604 90.0451C50.556 90.0451 50.3559 90.0612 50.1592 90.0907V82.8757H43.9234C43.9473 82.6853 43.96 82.4922 43.96 82.2947C43.96 79.8769 42.0926 77.9167 39.7892 77.9167C37.4858 77.9167 35.6184 79.8769 35.6184 82.2947C35.6184 82.4913 35.6303 82.6853 35.655 82.8757H29.3408V104.729H50.1601V98.7563C50.3568 98.7858 50.5569 98.8019 50.7613 98.8019C53.0647 98.8019 54.9321 96.8417 54.9321 94.4239C54.9321 92.0052 53.0647 90.0451 50.7604 90.0451Z" fill="#8EF2CE"/>
<path d="M73.2393 60.1311H68.9458V81.5355H73.2393V60.1311Z" fill="#48D399"/>
<path fill-rule="evenodd" clip-rule="evenodd" d="M49.9526 58.8757V64.8518C52.0551 65.0771 53.696 66.9407 53.696 69.2075C53.696 71.4742 52.0551 73.3378 49.9526 73.5631V80.6815H70.9005V58.8757H49.9526Z" fill="#F0F0F0"/>
<path d="M70.9004 58.8763V80.6812H49.9526V73.5628C52.055 73.3375 53.6959 71.4739 53.6959 69.2071C53.6959 66.9404 52.055 65.0768 49.9526 64.8515V58.8754H70.9004V58.8763ZM71.975 57.7483H70.9004H49.9526H48.8779V58.8763V64.8524V65.8714L49.8436 65.9751C51.4274 66.1449 52.6213 67.5348 52.6213 69.2089C52.6213 70.8831 51.4274 72.273 49.8436 72.4419L48.8779 72.5456V73.5645V80.683V81.811H49.9526H70.9004H71.975V80.683V58.8763V57.7483Z" fill="black"/>
<path fill-rule="evenodd" clip-rule="evenodd" d="M51.7764 60.1311V66.1072C53.8788 66.3324 55.5197 68.196 55.5197 70.4628C55.5197 72.7295 53.8788 74.5941 51.7764 74.8184V81.9368H72.7242V60.1311H51.7764Z" fill="#48D399"/>
<path fill-rule="evenodd" clip-rule="evenodd" d="M81.5519 89.0377L80.4755 89.0931C80.4755 89.0931 66.8739 89.6955 65.2841 90.2104C63.6942 90.7252 61.6455 91.5779 61.6097 92.2456C61.5748 92.9133 61.3627 93.8769 62.3165 94.2853C63.2702 94.6929 64.9656 93.4326 65.3547 93.3951C65.7431 93.3575 70.3005 93.5059 70.3005 93.5059L69.7708 94.3658C69.7708 94.3658 64.3201 96.3545 63.3766 98.3639C62.4323 100.373 63.73 102.109 64.4368 101.961C65.1436 101.812 64.3925 103.378 65.7788 103.481C67.166 103.584 67.1566 103.296 67.722 104.334C68.2874 105.372 70.0484 105.166 71.0933 104.639C72.1381 104.111 74.7174 102.971 76.7662 103.615C77.5462 103.861 79.4698 103.942 81.5527 103.95V89.0377H81.5519Z" fill="#FEFEFF"/>
<path fill-rule="evenodd" clip-rule="evenodd" d="M21.6694 49.0586C21.6694 49.0586 24.4293 53.9746 25.2936 53.5938C26.1579 53.214 25.991 52.2772 26.8272 52.7456C27.6634 53.214 29.0361 53.1371 29.7267 52.7161C30.4173 52.2951 30.7945 53.8861 31.669 53.3015C32.5427 52.7161 32.6824 51.867 33.2401 51.7508C33.7979 51.6337 35.4388 51.8026 35.191 48.6492C34.9432 45.4958 33.6301 44.1139 33.6301 44.0263C33.6293 43.9378 21.6694 49.0586 21.6694 49.0586Z" fill="#FEFEFF"/>
<path d="M65.998 90.8194C69.2985 90.149 72.9057 89.9139 76.4702 89.7396C77.3864 89.6949 78.3385 89.6413 79.2752 89.6413C81.0711 89.6413 82.5153 89.543 84.4644 89.543C84.662 89.543 84.8919 89.5296 85.1295 89.5153V88.3024C80.8914 88.3077 76.6865 88.398 72.7294 88.7582C72.72 88.7144 72.7107 88.6706 72.7013 88.6268H71.4666C71.4827 88.7037 71.4981 88.7797 71.5134 88.8565C68.1847 89.2883 63.8598 89.3472 61.696 91.0643C61.3026 91.3762 61.048 91.7507 60.9015 92.1932C60.4425 93.5759 61.5828 94.9167 62.5842 95.0391C63.7107 95.1768 64.5631 94.4179 65.5765 94.0577C66.6315 93.6814 67.8169 93.5831 69.0363 93.8611C67.7768 94.35 66.3514 95.0195 65.0621 95.9714C63.9211 96.8152 62.631 97.9611 62.4445 99.5047C62.2606 101.03 62.9205 102.453 64.2677 102.499C64.1323 103.91 65.4002 104.319 66.5583 103.922C66.7013 104.774 67.2881 105.279 67.9139 105.492C70.5392 106.386 72.9934 103.758 75.8613 104.069C76.5851 104.148 77.2902 104.449 78.0115 104.609C80.2553 105.107 82.6302 104.842 85.1278 104.685V103.398C82.7554 103.595 80.521 103.919 78.198 103.382C77.2519 103.164 76.3178 102.796 75.3462 102.793C73.2011 102.788 71.3601 104.172 69.4084 104.364C68.6522 104.438 68.0485 104.317 67.7258 103.824C68.4436 102.435 70.0181 101.759 71.653 100.978C72.3513 100.644 73.1117 100.297 73.9905 99.9471C74.6053 99.7031 76.1432 99.4448 76.1406 98.7208C76.1364 97.5007 74.1251 98.6091 73.7095 98.77C71.6002 99.5851 69.3156 100.483 67.6789 101.862C67.3971 102.099 67.0956 102.603 66.7439 102.746C66.6247 102.794 65.6293 103.114 65.3883 102.647C64.9523 101.803 66.778 100.694 67.1646 100.39C69.1061 98.8594 71.2162 97.8547 73.7095 96.8071C74.1497 96.6221 74.8267 96.3566 74.8318 95.924C74.8412 95.116 73.9948 95.3368 73.523 95.5307C70.8815 96.6203 67.9633 98.0048 65.9026 99.8005C65.7255 99.9552 65.5135 100.065 65.2946 100.242C65.0545 100.437 64.5827 101.277 64.0795 101.174C63.7176 101.101 63.5345 100.272 63.6588 99.6039C63.761 99.0551 64.0667 98.5894 64.4065 98.1809C66.1402 96.1001 69.7601 94.6584 72.8682 93.862C73.6397 93.6644 73.9403 93.5831 73.9437 93.1264C73.9522 91.8258 71.9664 93.0682 71.2324 93.0772C70.8245 93.0825 70.1892 92.7536 69.5489 92.6356C68.0664 92.3621 66.2594 92.4479 65.0136 92.9306C64.3656 93.1818 63.4178 93.878 62.723 93.7645C62.3134 93.6975 61.9676 93.1791 62.0221 92.6848C62.1422 91.6113 64.6806 91.0866 65.998 90.8194Z" fill="black"/>
<path d="M33.5074 41.9941C32.5631 39.7265 31.6 37.4401 29.9071 36.1056C28.0627 34.6504 25.0516 34.6665 22.2867 35.1733C19.6052 35.6649 17.2362 36.4551 15.4616 37.676C11.8877 40.1358 9.50851 44.2787 7.60703 48.7175C6.60307 51.0611 5.73535 53.5102 4.96045 56.0066H6.23776C6.54261 55.0636 6.85853 54.1376 7.18637 53.2322C7.71773 54.2082 8.25505 55.1852 8.93543 56.0066H10.6113C9.26497 54.9546 8.53521 53.1374 7.74753 51.5643C9.2786 47.4634 11.06 43.8845 13.498 41.1119C16.1207 38.1292 19.3991 36.6499 24.4845 36.1556C26.4396 35.9652 28.4706 36.3192 29.5801 37.382C31.0848 38.8228 31.944 41.2907 32.8526 43.5163C33.2835 44.571 33.7637 45.7169 34.1146 47.0004C34.4748 48.3161 35.0223 51.4508 33.1796 51.0736C32.4106 48.4869 31.7192 46.2773 30.7953 43.6146C30.6096 43.081 30.269 41.5463 29.6261 41.5534C28.5063 41.5669 29.4975 43.5217 29.7198 44.1545C30.4385 46.2013 30.9162 47.8102 31.5897 49.9456C31.8231 50.6857 32.3757 52.4751 31.4024 52.6941C30.883 52.8103 30.5279 52.341 30.0927 52.0559C29.6338 49.4781 28.5268 46.9772 27.5219 44.5969C27.2077 43.8533 26.6151 41.6956 25.6988 42.929C25.7754 43.8077 26.2225 44.5379 26.5401 45.2843C27.1728 46.7698 27.7553 48.2491 28.3164 49.8473C28.5838 50.6079 28.9287 51.4794 28.8308 52.3991C28.0746 53.0159 27.2162 52.2204 26.7275 51.8101C26.0922 49.5827 25.1751 47.4071 24.2027 45.2342C23.9625 44.697 23.581 43.4716 22.9398 43.5163C21.8183 43.5949 22.8964 45.2736 23.0803 45.6758C23.8186 47.2927 24.3772 48.688 25.044 50.3871C25.2202 50.8358 26.0258 52.6065 25.0908 52.7424C24.5739 52.8183 24.0162 52.0219 23.7352 51.5652C22.801 50.0466 22.2296 47.9479 21.1635 46.6089C20.8987 46.2764 20.4159 45.8277 19.9952 45.7258C18.8277 45.4407 18.0307 46.5178 17.0497 46.4614C16.6819 46.4409 16.3711 46.2442 16.1147 46.0691C15.8056 45.8572 15.0009 45.3048 14.8059 46.1182C14.6135 46.9218 16.2425 47.7235 17.0966 47.7378C18.0861 47.7548 18.8669 46.8923 19.5745 46.9531C20.1664 47.004 20.6407 47.997 20.8834 48.4743C21.2495 49.193 21.3611 49.6184 21.7715 50.388C21.7579 50.4274 21.7443 50.4658 21.7306 50.5051C21.7715 50.5632 21.7962 50.6383 21.7954 50.7304C21.7945 50.9243 21.7937 51.1281 21.7809 51.3319C22.0653 51.5196 22.3429 51.7583 22.4604 52.0782C22.48 52.0228 22.4996 51.9656 22.52 51.9102C23.0352 52.5573 23.5776 53.7792 24.5765 53.9714C25.4885 54.1466 26.0071 53.6451 26.5401 53.1857C26.9565 53.6058 27.7502 53.9884 28.5498 53.8731C29.0794 53.7962 29.3774 53.4244 29.7189 53.3332C30.9502 54.5184 32.8594 53.7721 33.1319 52.3026C34.9933 52.4733 35.6507 51.2229 35.6567 49.3583C35.6669 46.5285 34.3351 43.9811 33.5074 41.9941Z" fill="black"/>
<path fill-rule="evenodd" clip-rule="evenodd" d="M64.639 81.2352C64.639 83.6771 62.7528 85.6569 60.4264 85.6569C58.1 85.6569 56.2139 83.6771 56.2139 81.2352C56.2139 78.7932 58.1 76.8143 60.4264 76.8143C62.7528 76.8143 64.639 78.7932 64.639 81.2352Z" fill="#A7FFEA"/>
<path d="M60.4265 86.306C57.7629 86.306 55.5957 84.0312 55.5957 81.2363C55.5957 78.4404 57.7629 76.1665 60.4265 76.1665C63.0901 76.1665 65.2564 78.4413 65.2564 81.2363C65.2573 84.0312 63.0901 86.306 60.4265 86.306ZM60.4265 77.4634C58.4441 77.4634 56.8321 79.1554 56.8321 81.2363C56.8321 83.3162 58.4441 85.0091 60.4265 85.0091C62.408 85.0091 64.0208 83.3171 64.0208 81.2363C64.0208 79.1554 62.408 77.4634 60.4265 77.4634Z" fill="black"/>
<path d="M68.3441 81.8103H52.5864V86.5905H68.3441V81.8103Z" fill="#8FFFE4"/>
</svg>
