<svg width="44" height="42" viewBox="0 0 44 42" fill="none" xmlns="http://www.w3.org/2000/svg">
<path fill-rule="evenodd" clip-rule="evenodd" d="M16.7814 27.9483C24.7742 27.9483 31.6057 29.1595 31.6057 33.9977C31.6057 38.8358 24.8197 40.0817 16.7814 40.0817C8.78636 40.0817 1.95703 38.8813 1.95703 34.041C1.95703 29.2007 8.74086 27.9483 16.7814 27.9483Z" stroke="#2AAF8F" stroke-width="3.5" stroke-linecap="round" stroke-linejoin="round"/>
<path fill-rule="evenodd" clip-rule="evenodd" d="M16.7813 21.0431C11.5337 21.0431 7.27832 16.79 7.27832 11.5423C7.27832 6.29464 11.5337 2.04147 16.7813 2.04147C22.0268 2.04147 26.2822 6.29464 26.2822 11.5423C26.3017 16.7705 22.0767 21.0236 16.8485 21.0431H16.7813Z" stroke="#2AAF8F" stroke-width="3.5" stroke-linecap="round" stroke-linejoin="round"/>
<path d="M31.7129 18.5776C35.1817 18.0901 37.8532 15.1131 37.8597 11.5099C37.8597 7.95875 35.2706 5.01208 31.8754 4.45525" stroke="#2AAF8F" stroke-width="3.5" stroke-linecap="round" stroke-linejoin="round"/>
<path d="M36.29 26.92C39.6505 27.4205 41.997 28.5992 41.997 31.0259C41.997 32.6964 40.892 33.7797 39.1067 34.4579" stroke="#2AAF8F" stroke-width="3.5" stroke-linecap="round" stroke-linejoin="round"/>
</svg>
