<svg width="44" height="44" viewBox="0 0 44 44" fill="none" xmlns="http://www.w3.org/2000/svg">
<path d="M42.2409 12.7614C44.5864 10.4159 44.5864 6.59955 42.2409 4.25404L37.9872 0.000351723L34.259 3.72853C30.6008 1.26416 26.3513 -0.0242266 21.8948 9.39081e-05C9.80305 0.0581882 -0.0178943 9.94427 0.00247303 22.0378C0.0123559 27.9063 2.3051 33.4221 6.45859 37.5689C10.6124 41.7163 16.1327 44.0002 22.0027 44.0002C23.1609 44.0002 24.324 43.9092 25.4595 43.7299C27.1927 43.4559 28.6598 42.4094 29.4846 40.8586C30.3228 39.2827 30.3689 37.447 29.611 35.8222C28.7823 34.0452 28.3621 32.1417 28.3621 30.1643C28.3621 27.6273 29.0737 25.1581 30.4199 23.0237C31.3913 21.4837 32.6605 20.1637 34.1448 19.1363L34.8991 41.0388L34.8998 41.0551C34.9776 42.7066 36.3338 44.0002 37.9872 44.0002C39.6406 44.0002 40.9968 42.7065 41.0746 41.0551L41.8398 18.8374C42.1182 18.4752 42.2841 18.0224 42.2841 17.5312V14.0937C42.2841 13.6953 42.1747 13.3221 41.9849 13.0019C42.072 12.9242 42.1578 12.8446 42.2409 12.7614ZM33.6903 14.0937V16.3697C31.483 17.6641 29.6118 19.4722 28.2393 21.6483C26.633 24.195 25.784 27.1397 25.784 30.1642C25.784 32.5209 26.2854 34.7912 27.2746 36.9118C27.6871 37.7962 27.6629 38.7935 27.2085 39.648C26.7673 40.4773 25.9832 41.0369 25.057 41.1833C24.0542 41.3418 23.0265 41.4221 22.0027 41.4221C16.8207 41.4221 11.9473 39.4057 8.28013 35.7445C4.61349 32.0836 2.58939 27.2143 2.58062 22.0335C2.56266 11.357 11.2325 2.62955 21.9072 2.57824C25.765 2.56002 29.4522 3.65221 32.6402 5.74782C32.2039 6.59087 31.9715 7.53121 31.9715 8.50773C31.9715 10.1146 32.5973 11.6252 33.7335 12.7614C33.8167 12.8446 33.9025 12.9242 33.9895 13.0019C33.7997 13.3221 33.6903 13.6953 33.6903 14.0937ZM38.499 40.9391C38.4833 41.2103 38.2595 41.4221 37.9871 41.4221C37.7147 41.4221 37.491 41.2103 37.4753 40.9391L36.7431 19.6797H39.231L38.499 40.9391ZM39.706 17.1016H36.2684V14.5234H39.706V17.1016ZM40.4178 10.9384C39.7685 11.5878 38.9053 11.9453 37.9871 11.9453C37.0689 11.9453 36.2057 11.5878 35.5564 10.9384H35.5563C34.216 9.59811 34.216 7.41726 35.5563 6.07705L37.9871 3.64637L40.4179 6.07705C41.0671 6.72631 41.4246 7.58956 41.4246 8.50773C41.4246 9.42589 41.0671 10.2891 40.4178 10.9384Z" fill="#2AAF8F"/>
<path d="M18.1348 29.7344C16.0024 29.7344 14.2676 31.4692 14.2676 33.6016C14.2676 35.734 16.0024 37.4688 18.1348 37.4688C20.2672 37.4688 22.002 35.734 22.002 33.6016C22.002 31.4692 20.2672 29.7344 18.1348 29.7344ZM18.1348 34.8907C17.424 34.8907 16.8457 34.3124 16.8457 33.6016C16.8457 32.8908 17.424 32.3125 18.1348 32.3125C18.8456 32.3125 19.4239 32.8908 19.4239 33.6016C19.4239 34.3124 18.8456 34.8907 18.1348 34.8907Z" fill="#2AAF8F"/>
<path d="M10.6577 22.6016C8.52536 22.6016 6.79053 24.3364 6.79053 26.4688C6.79053 28.6012 8.52536 30.336 10.6577 30.336C12.7901 30.336 14.525 28.6012 14.525 26.4688C14.525 24.3364 12.7901 22.6016 10.6577 22.6016ZM10.6577 27.7579C9.94695 27.7579 9.36868 27.1796 9.36868 26.4688C9.36868 25.758 9.94695 25.1797 10.6577 25.1797C11.3685 25.1797 11.9468 25.758 11.9468 26.4688C11.9468 27.1796 11.3685 27.7579 10.6577 27.7579Z" fill="#2AAF8F"/>
<path d="M12.4629 12.2891C10.3305 12.2891 8.5957 14.0239 8.5957 16.1563C8.5957 18.2887 10.3305 20.0235 12.4629 20.0235C14.5953 20.0235 16.3301 18.2887 16.3301 16.1563C16.3301 14.0239 14.5953 12.2891 12.4629 12.2891ZM12.4629 17.4454C11.7521 17.4454 11.1739 16.8671 11.1739 16.1563C11.1739 15.4455 11.7521 14.8672 12.4629 14.8672C13.1737 14.8672 13.752 15.4455 13.752 16.1563C13.752 16.8671 13.1737 17.4454 12.4629 17.4454Z" fill="#2AAF8F"/>
<path d="M20.4551 6.35913C18.3227 6.35913 16.5879 8.09397 16.5879 10.2264C16.5879 12.3587 18.3227 14.0936 20.4551 14.0936C22.5875 14.0936 24.3223 12.3587 24.3223 10.2264C24.3223 8.09397 22.5875 6.35913 20.4551 6.35913ZM20.4551 11.5154C19.7443 11.5154 19.166 10.9371 19.166 10.2264C19.166 9.51556 19.7443 8.93728 20.4551 8.93728C21.1659 8.93728 21.7442 9.51556 21.7442 10.2264C21.7442 10.9371 21.1659 11.5154 20.4551 11.5154Z" fill="#2AAF8F"/>
</svg>
