<svg width="45" height="45" viewBox="0 0 45 45" fill="none" xmlns="http://www.w3.org/2000/svg">
<path d="M20.9 2.04297H12.7988C6.13632 2.04297 1.95898 6.7598 1.95898 13.4375V31.4511C1.95898 38.1288 6.11682 42.8456 12.7988 42.8456H31.9175C38.6017 42.8456 42.7595 38.1288 42.7595 31.4511V22.7238" stroke="#2AAF8F" stroke-width="3" stroke-linecap="round" stroke-linejoin="round"/>
<path fill-rule="evenodd" clip-rule="evenodd" d="M15.1269 19.6615L31.3184 3.46999C33.3355 1.45499 36.605 1.45499 38.6222 3.46999L41.259 6.10682C43.2762 8.12399 43.2762 11.3957 41.259 13.4107L24.9895 29.6802C24.1077 30.562 22.9117 31.0582 21.6637 31.0582H13.5474L13.751 22.8682C13.7814 21.6635 14.2732 20.5152 15.1269 19.6615Z" stroke="#2AAF8F" stroke-width="3" stroke-linecap="round" stroke-linejoin="round"/>
<path d="M28.8579 5.97217L38.7509 15.8652" stroke="#2AAF8F" stroke-width="3" stroke-linecap="round" stroke-linejoin="round"/>
</svg>
