<svg width="18" height="19" viewBox="0 0 18 19" fill="none" xmlns="http://www.w3.org/2000/svg">
<path d="M7.54668 5.40498C7.58192 5.43988 7.62951 5.45945 7.6791 5.45945C7.72869 5.45945 7.77628 5.43988 7.81152 5.40498L10.535 2.68155C11.7959 1.42061 13.924 1.28702 15.3162 2.68155C16.7107 4.07608 16.5771 6.20186 15.3162 7.4628L12.5928 10.1862C12.5201 10.2589 12.5201 10.3784 12.5928 10.4511L13.5256 11.3839C13.5608 11.4188 13.6084 11.4384 13.658 11.4384C13.7076 11.4384 13.7552 11.4188 13.7904 11.3839L16.5139 8.66045C18.4967 6.67764 18.4967 3.46905 16.5139 1.48858C14.5311 -0.49189 11.3225 -0.494234 9.34199 1.48858L6.61856 4.21202C6.5459 4.28467 6.5459 4.4042 6.61856 4.47686L7.54668 5.40498ZM1.48574 16.5144C3.46856 18.4972 6.67715 18.4972 8.65762 16.5144L11.3834 13.7909C11.4183 13.7557 11.4379 13.7081 11.4379 13.6585C11.4379 13.6089 11.4183 13.5613 11.3834 13.5261L10.4529 12.5956C10.3803 12.523 10.2607 12.523 10.1881 12.5956L7.46465 15.319C6.20371 16.58 4.07559 16.7136 2.6834 15.319C1.28887 13.9245 1.42246 11.7987 2.6834 10.5378L5.40684 7.81436C5.44173 7.77912 5.4613 7.73153 5.4613 7.68194C5.4613 7.63234 5.44173 7.58475 5.40684 7.54951L4.47402 6.6167C4.40137 6.54405 4.28184 6.54405 4.20918 6.6167L1.48574 9.34014C-0.494726 11.323 -0.494726 14.5315 1.48574 16.5144ZM6.70059 12.2745C6.73583 12.3094 6.78341 12.329 6.83301 12.329C6.8826 12.329 6.93019 12.3094 6.96543 12.2745L12.274 6.96826C12.3089 6.93302 12.3285 6.88544 12.3285 6.83584C12.3285 6.78625 12.3089 6.73866 12.274 6.70342L11.3459 5.7753C11.2732 5.70264 11.1537 5.70264 11.0811 5.7753L5.77481 11.0815C5.70215 11.1542 5.70215 11.2737 5.77481 11.3464L6.70059 12.2745Z" fill="#8E8E8E"/>
</svg>
