<svg width="28" height="25" viewBox="0 0 28 25" fill="none" xmlns="http://www.w3.org/2000/svg">
<path d="M11.635 19.5067H2.70898" stroke="white" stroke-width="3.5" stroke-linecap="round" stroke-linejoin="round"/>
<path d="M15.6162 5.77553H24.5422" stroke="white" stroke-width="3.5" stroke-linecap="round" stroke-linejoin="round"/>
<path fill-rule="evenodd" clip-rule="evenodd" d="M9.36257 5.69886C9.36257 3.86335 7.86351 2.375 6.01478 2.375C4.16605 2.375 2.66699 3.86335 2.66699 5.69886C2.66699 7.53437 4.16605 9.02272 6.01478 9.02272C7.86351 9.02272 9.36257 7.53437 9.36257 5.69886Z" stroke="white" stroke-width="3.5" stroke-linecap="round" stroke-linejoin="round"/>
<path fill-rule="evenodd" clip-rule="evenodd" d="M25.3333 19.4511C25.3333 17.6155 23.8354 16.1272 21.9866 16.1272C20.1368 16.1272 18.6377 17.6155 18.6377 19.4511C18.6377 21.2866 20.1368 22.7749 21.9866 22.7749C23.8354 22.7749 25.3333 21.2866 25.3333 19.4511Z" stroke="white" stroke-width="3.5" stroke-linecap="round" stroke-linejoin="round"/>
</svg>
