<svg width="42" height="38" viewBox="0 0 42 38" fill="none" xmlns="http://www.w3.org/2000/svg">
<path d="M16.6667 8H5.83333C3.4401 8 1.5 9.9401 1.5 12.3333V31.8333C1.5 34.2266 3.4401 36.1667 5.83333 36.1667H36.1667C38.5599 36.1667 40.5 34.2266 40.5 31.8333V12.3333C40.5 9.9401 38.5599 8 36.1667 8H25.3333M16.6667 8V5.83333C16.6667 3.4401 18.6068 1.5 21 1.5C23.3932 1.5 25.3333 3.4401 25.3333 5.83333V8M16.6667 8C16.6667 10.3932 18.6068 12.3333 21 12.3333C23.3932 12.3333 25.3333 10.3932 25.3333 8M14.5 25.3333C16.8932 25.3333 18.8333 23.3932 18.8333 21C18.8333 18.6068 16.8932 16.6667 14.5 16.6667C12.1068 16.6667 10.1667 18.6068 10.1667 21C10.1667 23.3932 12.1068 25.3333 14.5 25.3333ZM14.5 25.3333C17.3301 25.3333 19.7377 27.1421 20.63 29.6667M14.5 25.3333C11.6699 25.3333 9.26206 27.1421 8.36975 29.6667M27.5 18.8333H34M27.5 27.5H31.8333" stroke="#2AAF8F" stroke-width="3" stroke-linecap="round" stroke-linejoin="round"/>
</svg>
