<svg width="44" height="44" viewBox="0 0 44 44" fill="none" xmlns="http://www.w3.org/2000/svg">
<path fill-rule="evenodd" clip-rule="evenodd" d="M41.9552 13.1147V30.7752C41.9552 37.3185 37.8602 41.9335 31.3168 41.9335H12.5752C6.03183 41.9335 1.9585 37.3185 1.9585 30.7752V13.1147C1.9585 6.57133 6.0535 1.9585 12.5752 1.9585H31.3168C37.8602 1.9585 41.9552 6.57133 41.9552 13.1147Z" stroke="#2AAF8F" stroke-width="3" stroke-linecap="round" stroke-linejoin="round"/>
<path d="M7.44287 31.5995L10.7535 28.1047C11.904 26.8849 13.8215 26.8264 15.0435 27.9747C15.0804 28.0115 17.0737 30.0374 17.0737 30.0374C18.2762 31.2615 20.2414 31.281 21.4655 30.0807C21.5457 30.0027 26.5225 23.9664 26.5225 23.9664C27.8052 22.4085 30.1084 22.1854 31.6684 23.4702C31.7724 23.5569 36.474 28.382 36.474 28.382" stroke="#2AAF8F" stroke-width="3" stroke-linecap="round" stroke-linejoin="round"/>
<path fill-rule="evenodd" clip-rule="evenodd" d="M18.3443 15.7881C18.3443 17.8876 16.6435 19.5885 14.544 19.5885C12.4445 19.5885 10.7437 17.8876 10.7437 15.7881C10.7437 13.6886 12.4445 11.9878 14.544 11.9878C16.6435 11.99 18.3443 13.6886 18.3443 15.7881Z" stroke="#2AAF8F" stroke-width="3" stroke-linecap="round" stroke-linejoin="round"/>
</svg>
