<svg width="40" height="38" viewBox="0 0 40 38" fill="none" xmlns="http://www.w3.org/2000/svg">
<path d="M21.5819 24.5906L16.9636 20.027L17.0182 19.9724C20.1818 16.4451 22.4363 12.3906 23.7637 8.09966H29.091V4.45424H16.3636V0.817841H12.7273V4.45424H0V8.07239H20.3091C19.0818 11.5815 17.1636 14.9087 14.5454 17.8179C12.8545 15.9361 11.4545 13.8906 10.3454 11.7269H6.7091C8.03634 14.6905 9.85458 17.4906 12.1273 20.0179L2.88179 29.1542L5.45455 31.727L14.5455 22.636L20.2001 28.2906L21.5819 24.5906Z" fill="#2AAF8F"/>
<path d="M31.8182 15.3638H28.1818L20 37.182H23.6364L25.6819 31.7275H34.3182L36.3637 37.182H40.0001L31.8182 15.3638ZM27.0455 28.0911L30.0001 20.2093L32.9546 28.0911H27.0455Z" fill="#2AAF8F"/>
</svg>
