<svg width="52" height="44" viewBox="0 0 52 44" fill="none" xmlns="http://www.w3.org/2000/svg">
<path d="M27.4827 32.1737L27.6052 32.4962L29.5524 37.6239C29.8116 38.2488 30.1209 38.9741 30.4808 39.8093C30.8355 40.6189 31.1524 41.1866 31.4308 41.5342L31.4316 41.5352C31.7042 41.8775 32.0368 42.1503 32.4364 42.3489L32.4374 42.3494C32.8172 42.5393 33.293 42.6458 33.883 42.6458C34.8678 42.6458 35.6939 42.3 36.3919 41.6032L36.3932 41.602C37.1088 40.8927 37.4325 40.145 37.4325 39.3492C37.4325 38.5456 37.0548 37.1714 36.2179 35.1624L36.216 35.1578L25.5317 8.77158L25.5276 8.76163L25.5277 8.76159C25.0258 7.44125 24.6126 6.39089 24.2907 5.60553C23.98 4.84767 23.5976 4.14053 23.1449 3.48339C22.7116 2.85895 22.1516 2.34709 21.4392 1.94604L21.4365 1.94452C20.7669 1.56206 19.8937 1.35522 18.8 1.35522C17.7261 1.35522 16.8664 1.56232 16.1898 1.94543L16.1894 1.94571C15.4786 2.34712 14.9171 2.8655 14.4856 3.50553C14.0391 4.17415 13.609 5.02511 13.1962 6.07197C13.1961 6.07225 13.196 6.07253 13.1959 6.07281L12.1238 8.82011L12.1232 8.82164L1.6637 35.3755L1.66198 35.3798C1.23642 36.4312 0.934887 37.2465 0.753634 37.8241L0.753552 37.8244C0.581847 38.3705 0.5 38.8996 0.5 39.3995C0.5 40.211 0.828219 40.9502 1.54372 41.6331C2.25833 42.3126 3.05589 42.636 3.96143 42.636C5.0935 42.636 5.79887 42.3095 6.20992 41.7618L6.21001 41.7616C6.70114 41.1076 7.32962 39.7916 8.09405 37.7457L27.4827 32.1737ZM27.4827 32.1737H27.1377H10.5168H10.1695L10.0482 32.4992L8.09423 37.7453L27.4827 32.1737ZM12.2182 26.2877L11.9784 26.9564H12.6889H24.9056H25.6206L25.3752 26.2849L19.2096 9.40828L18.7355 8.11072L18.2693 9.4111L12.2182 26.2877ZM50.5678 37.0647L50.5697 37.0693C51.2101 38.5914 51.4936 39.6164 51.5 40.2073C51.5018 40.7716 51.2773 41.3066 50.7507 41.8344C50.2451 42.3398 49.6466 42.5915 48.9376 42.5941C48.5027 42.5941 48.1567 42.5163 47.8892 42.3836C47.5983 42.2393 47.3594 42.0466 47.1663 41.803L47.1645 41.8008C46.961 41.547 46.7177 41.1258 46.4501 40.5158L46.4486 40.5124C46.1715 39.8936 45.9395 39.3483 45.7365 38.87L44.2465 34.9852L44.1228 34.6628L43.7775 34.6643L40.2179 34.6796L38.7098 30.9607L42.0693 30.9458L42.7836 30.9426L42.5361 30.2726L37.8106 17.4776L37.3322 16.1821L36.8704 17.4836L35.1822 22.2414L32.7614 16.2585C32.8053 16.1454 32.8498 16.0304 32.8954 15.9127C33.0008 15.6405 33.1118 15.3537 33.234 15.0406C33.5444 14.2485 33.8629 13.6091 34.1968 13.1095L34.1969 13.1093C34.5117 12.6378 34.9225 12.254 35.4453 11.9579L35.4463 11.9574C35.937 11.6779 36.5678 11.5225 37.3704 11.5186C38.1844 11.5161 38.8236 11.6696 39.3126 11.9457L39.3142 11.9466C39.838 12.2397 40.2546 12.6151 40.5723 13.0705C40.9123 13.5635 41.1997 14.091 41.4349 14.6576L41.4355 14.6591C41.6844 15.2537 42.0022 16.0475 42.3821 17.0451L42.3819 17.0451L42.3865 17.0564L50.5678 37.0647ZM35.1989 11.5229C34.6094 11.8567 34.1401 12.2939 33.7811 12.8317C33.4207 13.3709 33.0868 14.0455 32.7684 14.8585C32.646 15.172 32.5341 15.4609 32.4284 15.7342C32.3579 15.9163 32.2901 16.0914 32.2236 16.2623L35.1989 11.5229Z" fill="#2AAF8F" stroke="white"/>
</svg>
