<svg width="42" height="43" viewBox="0 0 42 43" fill="none" xmlns="http://www.w3.org/2000/svg">
<path d="M40.5 26.7201C34.4782 29.1576 27.8959 30.4999 21 30.4999C14.1042 30.4999 7.52181 29.1576 1.5 26.7201M29.6667 11V6.66665C29.6667 4.27341 27.7266 2.33331 25.3333 2.33331H16.6667C14.2734 2.33331 12.3333 4.27341 12.3333 6.66665V11M21 24H21.0217M5.83333 41.3333H36.1667C38.5599 41.3333 40.5 39.3932 40.5 37V15.3333C40.5 12.9401 38.5599 11 36.1667 11H5.83333C3.4401 11 1.5 12.9401 1.5 15.3333V37C1.5 39.3932 3.4401 41.3333 5.83333 41.3333Z" stroke="#2AAF8F" stroke-width="3" stroke-linecap="round" stroke-linejoin="round"/>
</svg>
