<svg width="43" height="46" viewBox="0 0 43 46" fill="none" xmlns="http://www.w3.org/2000/svg">
<path fill-rule="evenodd" clip-rule="evenodd" d="M40.0811 13.5181L38.7325 11.1779C37.5916 9.19773 35.0632 8.51462 33.0803 9.65082V9.65082C32.1364 10.2068 31.0101 10.3646 29.9498 10.0893C28.8895 9.81398 27.9823 9.12822 27.4281 8.18324C27.0716 7.58259 26.8801 6.89845 26.8728 6.20002V6.20002C26.905 5.08024 26.4825 3.99514 25.7017 3.19188C24.9208 2.38863 23.8481 1.93563 22.7279 1.9361H20.0109C18.9134 1.93608 17.8611 2.37341 17.087 3.15131C16.3128 3.92921 15.8805 4.98355 15.8858 6.08102V6.08102C15.8533 8.34694 14.007 10.1667 11.7409 10.1665C11.0424 10.1592 10.3583 9.96764 9.75763 9.61115V9.61115C7.77476 8.47496 5.24637 9.15807 4.10546 11.1382L2.65771 13.5181C1.51818 15.4958 2.19199 18.0226 4.16496 19.1703V19.1703C5.44741 19.9107 6.23744 21.279 6.23744 22.7599C6.23744 24.2407 5.44741 25.6091 4.16496 26.3495V26.3495C2.1945 27.4895 1.51995 30.0101 2.65771 31.9819V31.9819L4.02613 34.3419C4.56069 35.3065 5.4576 36.0182 6.51838 36.3197C7.57916 36.6212 8.71635 36.4875 9.67831 35.9483V35.9483C10.624 35.3965 11.7509 35.2453 12.8085 35.5284C13.8662 35.8114 14.767 36.5052 15.3106 37.4555C15.6671 38.0562 15.8587 38.7403 15.8659 39.4388V39.4388C15.8659 41.7279 17.7217 43.5837 20.0109 43.5837H22.7279C25.0093 43.5837 26.8619 41.74 26.8728 39.4586V39.4586C26.8675 38.3577 27.3025 37.3003 28.081 36.5218C28.8595 35.7434 29.9168 35.3084 31.0177 35.3137C31.7145 35.3323 32.3958 35.5231 33.001 35.869V35.869C34.9787 37.0085 37.5054 36.3347 38.6531 34.3617V34.3617L40.0811 31.9819C40.6338 31.0332 40.7855 29.9033 40.5026 28.8424C40.2197 27.7815 39.5255 26.8772 38.5738 26.3297V26.3297C37.6221 25.7822 36.928 24.8778 36.6451 23.817C36.3621 22.7561 36.5139 21.6262 37.0666 20.6775C37.426 20.05 37.9463 19.5297 38.5738 19.1703V19.1703C40.5349 18.0232 41.2072 15.5112 40.0811 13.5379V13.5379V13.5181Z" stroke="#2AAF8F" stroke-width="3.5" stroke-linecap="round" stroke-linejoin="round"/>
<ellipse cx="21.3796" cy="22.7596" rx="5.71167" ry="5.71167" stroke="#2AAF8F" stroke-width="3.5" stroke-linecap="round" stroke-linejoin="round"/>
</svg>
