<svg width="15" height="15" viewBox="0 0 15 15" fill="none" xmlns="http://www.w3.org/2000/svg">
<path d="M12.8033 2.19668C11.3867 0.780147 9.50332 0 7.5 0C5.49668 0 3.61327 0.780147 2.19668 2.19668C0.780147 3.61327 0 5.49668 0 7.5C0 9.50332 0.780147 11.3868 2.19668 12.8033C3.61327 14.2199 5.49668 15 7.5 15C9.50332 15 11.3867 14.2199 12.8033 12.8033C14.2199 11.3868 15 9.50332 15 7.5C15 5.49668 14.2199 3.61327 12.8033 2.19668ZM7.5 13.8281C4.01065 13.8281 1.17188 10.9893 1.17188 7.5C1.17188 4.01065 4.01065 1.17188 7.5 1.17188C10.9893 1.17188 13.8281 4.01065 13.8281 7.5C13.8281 10.9893 10.9893 13.8281 7.5 13.8281Z" fill="#2AAF8F"/>
<path d="M10.8102 8.37266C10.8081 8.37893 10.5964 9.00623 10.0772 9.61464C9.41647 10.389 8.57298 10.7816 7.57021 10.7816C6.5602 10.7816 5.68949 10.3843 4.98232 9.60081C4.42803 8.98669 4.18334 8.35452 4.18164 8.3501L3.08374 8.75996C3.09604 8.79283 3.39232 9.57418 4.08021 10.35C5.0103 11.399 6.21713 11.9534 7.57021 11.9534C8.92993 11.9534 10.1162 11.3946 11.0008 10.3372C11.6547 9.55575 11.9139 8.7684 11.9246 8.73526L10.8102 8.37266Z" fill="#2AAF8F"/>
<path d="M4.92188 6.21411C5.43964 6.21411 5.85938 5.79438 5.85938 5.27661C5.85938 4.75884 5.43964 4.33911 4.92188 4.33911C4.40411 4.33911 3.98438 4.75884 3.98438 5.27661C3.98438 5.79438 4.40411 6.21411 4.92188 6.21411Z" fill="#2AAF8F"/>
<path d="M10.0781 6.21411C10.5959 6.21411 11.0156 5.79438 11.0156 5.27661C11.0156 4.75884 10.5959 4.33911 10.0781 4.33911C9.56036 4.33911 9.14062 4.75884 9.14062 5.27661C9.14062 5.79438 9.56036 6.21411 10.0781 6.21411Z" fill="#2AAF8F"/>
</svg>
