<svg width="44" height="42" viewBox="0 0 44 42" fill="none" xmlns="http://www.w3.org/2000/svg">
<path fill-rule="evenodd" clip-rule="evenodd" d="M24.3926 4.05017L28.3519 11.9601C28.74 12.7367 29.489 13.2751 30.3576 13.3997L39.2149 14.6747C41.4033 14.9906 42.2741 17.6428 40.6904 19.1625L34.2854 25.3169C33.656 25.9222 33.3694 26.7921 33.5183 27.6465L35.0299 36.3353C35.4021 38.4846 33.1145 40.1245 31.1585 39.1076L23.242 35.0025C22.4659 34.5997 21.5364 34.5997 20.758 35.0025L12.8415 39.1076C10.8855 40.1245 8.59785 38.4846 8.97236 36.3353L10.4817 27.6465C10.6306 26.7921 10.344 25.9222 9.7146 25.3169L3.30964 19.1625C1.72588 17.6428 2.59672 14.9906 4.78511 14.6747L13.6424 13.3997C14.511 13.2751 15.2623 12.7367 15.6503 11.9601L19.6074 4.05017C20.5866 2.09438 23.4134 2.09438 24.3926 4.05017Z" stroke="#2AAF8F" stroke-width="3.5" stroke-linecap="round" stroke-linejoin="round"/>
</svg>
