<svg width="42" height="42" viewBox="0 0 42 42" fill="none" xmlns="http://www.w3.org/2000/svg">
<path d="M6.09558 33.5748C10.4974 31.0867 15.5829 29.6667 21 29.6667C26.4171 29.6667 31.5026 31.0867 35.9044 33.5748M27.5 16.6667C27.5 20.2565 24.5899 23.1667 21 23.1667C17.4101 23.1667 14.5 20.2565 14.5 16.6667C14.5 13.0768 17.4101 10.1667 21 10.1667C24.5899 10.1667 27.5 13.0768 27.5 16.6667ZM40.5 21C40.5 31.7696 31.7696 40.5 21 40.5C10.2304 40.5 1.5 31.7696 1.5 21C1.5 10.2304 10.2304 1.5 21 1.5C31.7696 1.5 40.5 10.2304 40.5 21Z" stroke="#2AAF8F" stroke-width="3" stroke-linecap="round" stroke-linejoin="round"/>
</svg>
