<?xml version="1.0" encoding="utf-8"?>
<!-- Generator: Adobe Illustrator 25.2.1, SVG Export Plug-In . SVG Version: 6.00 Build 0)  -->
<svg version="1.1" id="Layer_1" xmlns="http://www.w3.org/2000/svg" xmlns:xlink="http://www.w3.org/1999/xlink" x="0px" y="0px"
	 viewBox="0 0 540 540" style="enable-background:new 0 0 540 540;" xml:space="preserve">
<style type="text/css">
	.st0{fill:#C6C6C6;}
</style>
<g>
	<path class="st0" d="M270,306.9c-76.8,0-139.3,49.7-139.3,110.8c0,7.8,6.4,14.2,14.2,14.2s14.2-6.4,14.2-14.2
		c0-45.4,49.7-82.4,110.8-82.4s110.8,37,110.8,82.4c0,7.8,6.4,14.2,14.2,14.2s14.2-6.4,14.2-14.2C409.3,356.7,346.8,306.9,270,306.9
		z"/>
	<path class="st0" d="M184.9,257.7c11.9,0,23.8-4.5,32.9-13.6c5.5-5.5,5.5-14.5,0-20.1c-5.5-5.5-14.5-5.5-20.1,0
		c-6.9,6.9-18.8,6.8-25.6,0c-7.1-7.1-7.1-18.6,0-25.6l0,0c5.6-5.6,5.6-14.5,0-20.1c-5.5-5.6-14.5-5.6-20.1,0
		c-18.1,18.2-18.1,47.7,0,65.8C161.1,253.1,173,257.7,184.9,257.7z"/>
	<path class="st0" d="M355.1,257.7c11.9,0,23.8-4.5,32.9-13.6c18.1-18.1,18.1-47.7,0-65.8c-5.6-5.6-14.5-5.6-20.1,0
		c-5.6,5.5-5.6,14.5,0,20.1l0,0c7.1,7.1,7.1,18.6,0,25.6c-6.8,6.8-18.8,6.9-25.6,0c-5.5-5.6-14.5-5.6-20.1,0s-5.5,14.5,0,20.1
		C331.2,253.1,343.2,257.7,355.1,257.7z"/>
	<path class="st0" d="M270,0C121.1,0,0,121.1,0,270s121.1,270,270,270s270-121.1,270-270S418.9,0,270,0z M270,511.6
		C136.8,511.6,28.4,403.2,28.4,270S136.8,28.4,270,28.4S511.6,136.8,511.6,270S403.2,511.6,270,511.6z"/>
</g>
</svg>
