<?xml version="1.0" encoding="utf-8"?>
<!-- Generator: Adobe Illustrator 25.2.1, SVG Export Plug-In . SVG Version: 6.00 Build 0)  -->
<svg version="1.1" id="Layer_1" xmlns="http://www.w3.org/2000/svg" xmlns:xlink="http://www.w3.org/1999/xlink" x="0px" y="0px"
	 viewBox="0 0 540 540" style="enable-background:new 0 0 540 540;" xml:space="preserve">
<style type="text/css">
	.st0{fill:#C6C6C6;}
</style>
<g>
	<path class="st0" d="M395.1,306.9c-7.8,0-14.2,6.4-14.2,14.2c0,45.4-49.7,82.4-110.8,82.4s-110.8-37-110.8-82.4
		c0-7.8-6.4-14.2-14.2-14.2s-14.2,6.4-14.2,14.2c0,61.1,62.5,110.8,139.3,110.8s139.3-49.7,139.3-110.8
		C409.3,313.3,402.9,306.9,395.1,306.9z"/>
	<path class="st0" d="M141.1,220.6c7.8,0,14.2-6.4,14.2-14.2l0,0c0-10,8.1-18.1,18.1-18.1s18.1,8.1,18.1,18.1l0,0
		c0,7.8,6.4,14.2,14.2,14.2s14.2-6.4,14.2-14.2c0-25.7-20.9-46.5-46.5-46.5s-46.5,20.9-46.5,46.5
		C126.9,214.2,133.3,220.6,141.1,220.6z"/>
	<path class="st0" d="M334.2,220.6c7.8,0,14.2-6.4,14.2-14.2l0,0c0-10,8.1-18.1,18.1-18.1s18.1,8.1,18.1,18.1l0,0
		c0,7.8,6.4,14.2,14.2,14.2s14.2-6.4,14.2-14.2c0-25.7-20.9-46.5-46.5-46.5c-25.7,0-46.5,20.9-46.5,46.5
		C320,214.2,326.3,220.6,334.2,220.6z"/>
	<path class="st0" d="M270,540c148.9,0,270-121.1,270-270S418.9,0,270,0S0,121.1,0,270S121.1,540,270,540z M270,28.4
		c133.2,0,241.6,108.4,241.6,241.6S403.2,511.6,270,511.6S28.4,403.2,28.4,270S136.8,28.4,270,28.4z"/>
</g>
</svg>
