<?xml version="1.0" encoding="utf-8"?>
<!-- Generator: Adobe Illustrator 25.2.1, SVG Export Plug-In . SVG Version: 6.00 Build 0)  -->
<svg version="1.1" id="Layer_1" xmlns="http://www.w3.org/2000/svg" xmlns:xlink="http://www.w3.org/1999/xlink" x="0px" y="0px"
	 viewBox="0 0 540 540" style="enable-background:new 0 0 540 540;" xml:space="preserve">
<style type="text/css">
	.st0{fill:#C6C6C6;}
</style>
<g>
	<path class="st0" d="M270,461.5c86.3,0,156.5-63.4,156.5-141.4c0-4.1-1.8-7.8-4.5-10.4c-2.6-3.4-6.6-5.6-11.3-5.6H129.3
		c-4.6,0-8.7,2.2-11.3,5.6c-2.8,2.6-4.5,6.3-4.5,10.4C113.5,398.1,183.7,461.5,270,461.5z M397.3,332.5C390.3,389,335.9,433,270,433
		s-120.2-44-127.3-100.5H397.3z"/>
	<path class="st0" d="M144,204.4c7.8,0,14.2-6.4,14.2-14.2l0,0c0-10,8.1-18.1,18.1-18.1s18.1,8.1,18.1,18.1l0,0
		c0,7.8,6.4,14.2,14.2,14.2s14.2-6.4,14.2-14.2c0-25.7-20.9-46.5-46.5-46.5s-46.5,20.9-46.5,46.5C129.8,198.1,136.2,204.4,144,204.4
		z"/>
	<path class="st0" d="M331.3,204.4c7.8,0,14.2-6.4,14.2-14.2l0,0c0-10,8.1-18.1,18.1-18.1s18.1,8.1,18.1,18.1l0,0
		c0,7.8,6.4,14.2,14.2,14.2s14.2-6.4,14.2-14.2c0-25.7-20.9-46.5-46.5-46.5c-25.7,0-46.5,20.9-46.5,46.5
		C317.1,198.1,323.4,204.4,331.3,204.4z"/>
	<path class="st0" d="M270,540c148.9,0,270-121.1,270-270S418.9,0,270,0S0,121.1,0,270S121.1,540,270,540z M270,28.4
		c133.2,0,241.6,108.4,241.6,241.6S403.2,511.6,270,511.6S28.4,403.2,28.4,270S136.8,28.4,270,28.4z"/>
</g>
</svg>
