<svg xmlns="http://www.w3.org/2000/svg" width="75.816" height="13.582" viewBox="0 0 75.816 13.582">
  <g id="heading-style-7" transform="translate(-654.888 -565)">
    <rect id="Rectangle_19" data-name="Rectangle 19" width="47" height="9" transform="translate(655 565)" fill="#686c70" opacity="0.5"/>
    <path id="Path_60" data-name="Path 60" d="M655,581.479l1.75-1.945L658.14,581l.456.48" transform="translate(0 -3)" fill="none" stroke="#686c70" stroke-width="0.3" opacity="0.5"/>
    <path id="Path_60-2" data-name="Path 60" d="M655,581.479l1.75-1.945L658.14,581l.456.48" transform="translate(4 -3)" fill="none" stroke="#686c70" stroke-width="0.3" opacity="0.5"/>
    <path id="Path_60-3" data-name="Path 60" d="M655,581.479l1.75-1.945L658.14,581l.456.48" transform="translate(8 -3)" fill="none" stroke="#686c70" stroke-width="0.3" opacity="0.5"/>
    <path id="Path_60-4" data-name="Path 60" d="M655,581.479l1.75-1.945L658.14,581l.456.48" transform="translate(12 -3)" fill="none" stroke="#686c70" stroke-width="0.3" opacity="0.5"/>
    <path id="Path_60-5" data-name="Path 60" d="M655,581.479l1.75-1.945L658.14,581l.456.48" transform="translate(16 -3)" fill="none" stroke="#686c70" stroke-width="0.3" opacity="0.5"/>
    <path id="Path_60-6" data-name="Path 60" d="M655,581.479l1.75-1.945L658.14,581l.456.48" transform="translate(20 -3)" fill="none" stroke="#686c70" stroke-width="0.3" opacity="0.5"/>
    <path id="Path_60-7" data-name="Path 60" d="M655,581.479l1.75-1.945L658.14,581l.456.48" transform="translate(24 -3)" fill="none" stroke="#686c70" stroke-width="0.3" opacity="0.5"/>
    <path id="Path_60-8" data-name="Path 60" d="M655,581.479l1.75-1.945L658.14,581l.456.48" transform="translate(28 -3)" fill="none" stroke="#686c70" stroke-width="0.3" opacity="0.5"/>
    <path id="Path_60-9" data-name="Path 60" d="M655,581.479l1.75-1.945L658.14,581l.456.48" transform="translate(32 -3)" fill="none" stroke="#686c70" stroke-width="0.3" opacity="0.5"/>
    <path id="Path_60-10" data-name="Path 60" d="M655,581.479l1.75-1.945L658.14,581l.456.48" transform="translate(36 -3)" fill="none" stroke="#686c70" stroke-width="0.3" opacity="0.5"/>
    <path id="Path_60-11" data-name="Path 60" d="M655,581.479l1.75-1.945L658.14,581l.456.48" transform="translate(40 -3)" fill="none" stroke="#686c70" stroke-width="0.3" opacity="0.5"/>
    <path id="Path_60-12" data-name="Path 60" d="M655,581.479l1.75-1.945L658.14,581l.456.48" transform="translate(44 -3)" fill="none" stroke="#686c70" stroke-width="0.3" opacity="0.5"/>
    <path id="Path_60-13" data-name="Path 60" d="M655,581.479l1.75-1.945L658.14,581l.456.48" transform="translate(48 -3)" fill="none" stroke="#686c70" stroke-width="0.3" opacity="0.5"/>
    <path id="Path_60-14" data-name="Path 60" d="M655,581.479l1.75-1.945L658.14,581l.456.48" transform="translate(52 -3)" fill="none" stroke="#686c70" stroke-width="0.3" opacity="0.5"/>
    <path id="Path_60-15" data-name="Path 60" d="M655,581.479l1.75-1.945L658.14,581l.456.48" transform="translate(56 -3)" fill="none" stroke="#686c70" stroke-width="0.3" opacity="0.5"/>
    <path id="Path_60-16" data-name="Path 60" d="M655,581.479l1.75-1.945L658.14,581l.456.48" transform="translate(60 -3)" fill="none" stroke="#686c70" stroke-width="0.3" opacity="0.5"/>
    <path id="Path_60-17" data-name="Path 60" d="M655,581.479l1.75-1.945L658.14,581l.456.48" transform="translate(64 -3)" fill="none" stroke="#686c70" stroke-width="0.3" opacity="0.5"/>
    <path id="Path_60-18" data-name="Path 60" d="M655,581.479l1.75-1.945L658.14,581l.456.48" transform="translate(68 -3)" fill="none" stroke="#686c70" stroke-width="0.3" opacity="0.5"/>
    <path id="Path_60-19" data-name="Path 60" d="M655,581.479l1.75-1.945L658.14,581l.456.48" transform="translate(72 -3)" fill="none" stroke="#686c70" stroke-width="0.3" opacity="0.5"/>
  </g>
</svg>
