<svg xmlns="http://www.w3.org/2000/svg" width="20" height="27.273" viewBox="0 0 20 27.273">
  <g id="ico-paper" transform="translate(-185 -177)">
    <path id="Path_91" data-name="Path 91" d="M83.867,1.951,82.049.133A.454.454,0,0,0,81.727,0H64.455A.455.455,0,0,0,64,.455V25a.454.454,0,0,0,.133.321l1.818,1.818a.455.455,0,0,0,.321.133H83.545A.455.455,0,0,0,84,26.818V2.273A.455.455,0,0,0,83.867,1.951Zm-5.776-.4,4.357,4.357H78.091Zm5,24.812H66.461l-1.552-1.552V.909H77.182V6.364a.455.455,0,0,0,.455.455h5.455Zm0-21.1L78.734.909h2.805l1.552,1.552Z" transform="translate(121 177)"/>
    <path id="Path_92" data-name="Path 92" d="M140.273,136H128.455a.455.455,0,0,0,0,.909h11.818a.455.455,0,0,0,0-.909Z" transform="translate(60.636 48.727)"/>
    <path id="Path_93" data-name="Path 93" d="M140.273,184H128.455a.455.455,0,0,0,0,.909h11.818a.455.455,0,0,0,0-.909Z" transform="translate(60.636 3.455)"/>
    <path id="Path_94" data-name="Path 94" d="M140.273,232H128.455a.455.455,0,0,0,0,.909h11.818a.455.455,0,0,0,0-.909Z" transform="translate(60.636 -41.818)"/>
    <path id="Path_95" data-name="Path 95" d="M140.273,280H128.455a.455.455,0,1,0,0,.909h11.818a.455.455,0,0,0,0-.909Z" transform="translate(60.636 -87.091)"/>
    <path id="Path_96" data-name="Path 96" d="M140.273,328H128.455a.455.455,0,0,0,0,.909h11.818a.455.455,0,0,0,0-.909Z" transform="translate(60.636 -132.364)"/>
    <path id="Path_97" data-name="Path 97" d="M140.273,376H128.455a.455.455,0,1,0,0,.909h11.818a.455.455,0,0,0,0-.909Z" transform="translate(60.636 -177.636)"/>
    <path id="Path_98" data-name="Path 98" d="M209.818,56a1.818,1.818,0,1,0,1.818,1.818A1.818,1.818,0,0,0,209.818,56Zm0,2.727a.909.909,0,1,1,.909-.909A.909.909,0,0,1,209.818,58.727Z" transform="translate(-14.818 124.182)"/>
  </g>
</svg>
