<svg xmlns="http://www.w3.org/2000/svg" width="20" height="18.164" viewBox="0 0 20 18.164">
  <g id="ico-idea" transform="translate(-487 -147)">
    <path id="Path_46" data-name="Path 46" d="M146.494,73.943a.352.352,0,0,0-.352-.352,3.686,3.686,0,0,0-3.681,3.681.352.352,0,0,0,.7,0,2.982,2.982,0,0,1,2.978-2.978A.351.351,0,0,0,146.494,73.943Z" transform="translate(350.702 75.674)" fill="#010002"/>
    <path id="Path_47" data-name="Path 47" d="M108.305,39.507a5.338,5.338,0,0,0,1.128,3.3l.011.014c1.539,2.136,1.156,3.153,1.156,3.154a.352.352,0,0,0,.169.468.345.345,0,0,0,.149.033.351.351,0,0,0,.319-.2c.064-.135.566-1.394-1.241-3.889a.364.364,0,0,0-.025-.031,4.641,4.641,0,0,1-.962-2.846,4.686,4.686,0,1,1,8.4,2.861c-1.809,2.5-1.286,3.77-1.22,3.908a.348.348,0,0,0,.459.165.356.356,0,0,0,.179-.46c0-.01-.407-1.047,1.146-3.191a5.34,5.34,0,0,0,1.114-3.282,5.389,5.389,0,0,0-10.778,0Z" transform="translate(383.38 113.44)" fill="#010002"/>
    <path id="Path_48" data-name="Path 48" d="M162.421,325.366v-.3a.865.865,0,0,0-.864-.864h-4.738a.865.865,0,0,0-.864.864v.3a.865.865,0,0,0,.864.864h4.739A.865.865,0,0,0,162.421,325.366Zm-5.763,0v-.3a.161.161,0,0,1,.161-.161h4.739a.161.161,0,0,1,.161.161v.3a.161.161,0,0,1-.161.161h-4.739A.161.161,0,0,1,156.658,325.366Z" transform="translate(337.791 -164.097)" fill="#010002"/>
    <path id="Path_49" data-name="Path 49" d="M181.31,383.412a.352.352,0,0,0-.352.352v.929a.352.352,0,0,0,.206.32l1.895.865a.352.352,0,0,0,.3,0l1.9-.9a.351.351,0,0,0,.2-.318v-.9a.352.352,0,1,0-.7,0v.674l-1.551.732-1.541-.7v-.7A.351.351,0,0,0,181.31,383.412Z" transform="translate(313.87 -220.745)" fill="#010002"/>
    <path id="Path_50" data-name="Path 50" d="M355.472,254.287a.352.352,0,0,0-.074-.492l-2.385-1.759a.352.352,0,0,0-.417.566l2.385,1.759a.352.352,0,0,0,.492-.074Z" transform="translate(149.794 -94.987)" fill="#010002"/>
    <path id="Path_51" data-name="Path 51" d="M42.057,23.653a.352.352,0,0,0,.418-.566l-2.439-1.8a.352.352,0,0,0-.417.566Z" transform="translate(449.232 125.78)" fill="#010002"/>
    <path id="Path_52" data-name="Path 52" d="M42.179,249.246l-2.549,1.88a.352.352,0,0,0,.418.566l2.549-1.88a.352.352,0,0,0-.418-.566Z" transform="translate(449.222 -92.317)" fill="#010002"/>
    <path id="Path_53" data-name="Path 53" d="M355,22.98a.352.352,0,0,0,.418.566l2.282-1.682a.352.352,0,0,0-.417-.566Z" transform="translate(147.492 125.771)" fill="#010002"/>
    <path id="Path_54" data-name="Path 54" d="M386.954,156.933h-2.69a.352.352,0,0,0,0,.7h2.69a.352.352,0,1,0,0-.7Z" transform="translate(119.694 -4.063)" fill="#010002"/>
    <path id="Path_55" data-name="Path 55" d="M3.479,157.285a.352.352,0,0,0-.352-.352H.352a.352.352,0,1,0,0,.7H3.127A.352.352,0,0,0,3.479,157.285Z" transform="translate(487 -4.063)" fill="#010002"/>
  </g>
</svg>
