<svg xmlns="http://www.w3.org/2000/svg" width="20" height="20" viewBox="0 0 20 20">
  <g id="ico-puzzle" transform="translate(0.001)">
    <g id="Group_5" data-name="Group 5" transform="translate(-0.001)">
      <path id="Path_43" data-name="Path 43" d="M17.142,8.571v-5a.714.714,0,0,0-.714-.714h-5a2.857,2.857,0,0,0-5.714,0h-5A.714.714,0,0,0,0,3.571v6.27a.714.714,0,0,0,1.192.531,1.429,1.429,0,1,1,0,2.113A.714.714,0,0,0,0,13.016v6.27A.714.714,0,0,0,.713,20h6.27a.714.714,0,0,0,.531-1.192,1.429,1.429,0,1,1,2.113,0A.714.714,0,0,0,10.158,20h6.27a.714.714,0,0,0,.714-.714v-5a2.857,2.857,0,1,0,0-5.714Zm0,4.286a1.414,1.414,0,0,1-.476-.09.714.714,0,0,0-.953.673v5.131H11.335a2.786,2.786,0,0,0,.093-.714,2.857,2.857,0,1,0-5.714,0,2.786,2.786,0,0,0,.093.714H1.428V14.193a2.786,2.786,0,0,0,.714.093,2.857,2.857,0,0,0,0-5.714,2.786,2.786,0,0,0-.714.093V4.286H6.559a.714.714,0,0,0,.673-.953,1.413,1.413,0,0,1-.09-.476,1.429,1.429,0,1,1,2.857,0,1.414,1.414,0,0,1-.09.476.714.714,0,0,0,.673.953h5.131V9.417a.714.714,0,0,0,.953.673,1.413,1.413,0,0,1,.476-.09,1.429,1.429,0,0,1,0,2.857Z" transform="translate(0.001)"/>
    </g>
  </g>
</svg>
