<svg xmlns="http://www.w3.org/2000/svg" width="20" height="20.006" viewBox="0 0 20 20.006">
  <g id="ico-color" transform="translate(-422 -601)">
    <path id="Path_86" data-name="Path 86" d="M121.817,121.887a1.758,1.758,0,1,0,1.758,1.758A1.76,1.76,0,0,0,121.817,121.887Zm0,2.344a.586.586,0,1,1,.586-.586A.587.587,0,0,1,121.817,124.231Z" transform="translate(306.629 483.876)"/>
    <path id="Path_87" data-name="Path 87" d="M61.827,211.872a1.758,1.758,0,1,0,1.758,1.758A1.76,1.76,0,0,0,61.827,211.872Zm0,2.344a.586.586,0,1,1,.586-.586A.587.587,0,0,1,61.827,214.216Z" transform="translate(364.275 397.407)"/>
    <path id="Path_88" data-name="Path 88" d="M91.822,331.852a1.758,1.758,0,1,0,1.758,1.758A1.76,1.76,0,0,0,91.822,331.852Zm0,2.344a.586.586,0,1,1,.586-.586A.587.587,0,0,1,91.822,334.2Z" transform="translate(335.452 282.115)"/>
    <path id="Path_89" data-name="Path 89" d="M19.247,2.783c.588-.862,1.186-1.929.584-2.53A1.156,1.156,0,0,0,18.563.118a6.375,6.375,0,0,0-1.289.67,20.542,20.542,0,0,0-3.584,3.054A8.8,8.8,0,1,0,6.936,19.8a9.137,9.137,0,0,0,1.936.21,8.767,8.767,0,0,0,1.308-.1,2.5,2.5,0,0,0,2-1.706,2.583,2.583,0,0,0-.623-2.648A1.172,1.172,0,0,1,13.216,13.9a2.578,2.578,0,0,0,2.643.623,2.5,2.5,0,0,0,1.7-2A8.816,8.816,0,0,0,16.178,6.3,23.789,23.789,0,0,0,19.247,2.783Zm-.475-1.488a10.944,10.944,0,0,1-1.285,1.878l-.639-.639A10.25,10.25,0,0,1,18.772,1.295ZM16.405,12.342a1.314,1.314,0,0,1-.912,1.064,1.416,1.416,0,0,1-1.448-.339,2.344,2.344,0,0,0-3.315,3.315,1.42,1.42,0,0,1,.338,1.453,1.314,1.314,0,0,1-1.064.914,7.792,7.792,0,0,1-2.821-.1A7.624,7.624,0,0,1,10.35,3.738a7.482,7.482,0,0,1,2.546.988A10.589,10.589,0,0,0,11.16,7.312,2.344,2.344,0,0,0,8.268,8.9a1.732,1.732,0,0,1-1.41,1.167.586.586,0,0,0-.321.993l.166.166a3.868,3.868,0,0,0,5.47,0,2.346,2.346,0,0,0,.565-2.4A10.871,10.871,0,0,0,15.3,7.09,7.657,7.657,0,0,1,16.405,12.342Zm-5.061-1.948a2.7,2.7,0,0,1-3.232.442A2.809,2.809,0,0,0,9.392,9.231a1.157,1.157,0,0,1,.295-.494,1.172,1.172,0,1,1,1.658,1.658Zm1.971-3.246a5.7,5.7,0,0,1-1.074.614,5.7,5.7,0,0,1,.614-1.074,20.437,20.437,0,0,1,3.089-3.4l.776.776A20.952,20.952,0,0,1,13.316,7.148Z" transform="translate(421.919 601)"/>
  </g>
</svg>
