<svg xmlns="http://www.w3.org/2000/svg" width="20" height="19.817" viewBox="0 0 20 19.817">
  <g id="ico-order" transform="translate(-163 -352)">
    <path id="Path_83" data-name="Path 83" d="M0,355.906H15v-6.25H0Zm1.25-5h12.5v3.75H1.25Z" transform="translate(163 15.911)"/>
    <path id="Path_84" data-name="Path 84" d="M0,194.656H15v-5H0Zm1.25-3.75h12.5v2.5H1.25Z" transform="translate(163 169.661)"/>
    <path id="Path_85" data-name="Path 85" d="M359.88,4.661l1.433-1.433-.884-.884-2.942,2.942,2.942,2.942.884-.884L359.88,5.911h2.393v13.75h-2.5v1.25h3.75V4.661Z" transform="translate(-180.524 349.656)"/>
    <rect id="Rectangle_40" data-name="Rectangle 40" width="13.75" height="1.25" transform="translate(163 356.817)"/>
    <rect id="Rectangle_41" data-name="Rectangle 41" width="1.25" height="1.25" transform="translate(163 354.317)"/>
    <rect id="Rectangle_42" data-name="Rectangle 42" width="1.25" height="1.25" transform="translate(165.5 354.317)"/>
    <rect id="Rectangle_43" data-name="Rectangle 43" width="7.5" height="1.25" transform="translate(168 354.317)"/>
  </g>
</svg>
