<svg xmlns="http://www.w3.org/2000/svg" width="20.5" height="15.455" viewBox="0 0 20.5 15.455">
  <g id="ico-id" transform="translate(-1811.75 -774.939)">
    <path id="Path_18" data-name="Path 18" d="M19,85.333H1a1.066,1.066,0,0,0-1,1.122V99.166a1.066,1.066,0,0,0,1,1.122H19a1.066,1.066,0,0,0,1-1.122V86.455A1.066,1.066,0,0,0,19,85.333Zm.333,13.833A.355.355,0,0,1,19,99.54H10.333V87.576a.336.336,0,1,0-.667,0V99.54H1a.355.355,0,0,1-.333-.374V86.455A.355.355,0,0,1,1,86.081H19a.355.355,0,0,1,.333.374V99.166Z" transform="translate(1812 689.856)" stroke="#1d2731" stroke-width="0.5"/>
    <path id="Path_19" data-name="Path 19" d="M87,149.728h.666a1.667,1.667,0,0,0,1.665-1.665v-1.332a1.667,1.667,0,0,0-1.665-1.665H87a1.667,1.667,0,0,0-1.665,1.665v1.332A1.667,1.667,0,0,0,87,149.728Zm-1-3a1,1,0,0,1,1-1h.666a1,1,0,0,1,1,1v1.332a1,1,0,0,1-1,1H87a1,1,0,0,1-1-1Z" transform="translate(1730.001 633.269)" stroke="#1d2731" stroke-width="0.5"/>
    <path id="Path_20" data-name="Path 20" d="M64.131,281.6H61.31a1.629,1.629,0,0,0-1.587,1.665v1.665a.333.333,0,0,0,.666,0v-1.665a.963.963,0,0,1,.921-1h2.82a.963.963,0,0,1,.921,1V284.6H63.818a.333.333,0,1,0,0,.666h1.567a.333.333,0,0,0,.333-.333v-1.665A1.629,1.629,0,0,0,64.131,281.6Z" transform="translate(1754.607 502.072)" stroke="#1d2731" stroke-width="0.5"/>
    <path id="Path_21" data-name="Path 21" d="M296.461,153.6h-5.994a.333.333,0,0,0,0,.666h5.994a.333.333,0,0,0,0-.666Z" transform="translate(1533.208 625.067)" stroke="#1d2731" stroke-width="0.5"/>
    <path id="Path_22" data-name="Path 22" d="M296.461,204.8h-5.994a.333.333,0,0,0,0,.666h5.994a.333.333,0,0,0,0-.666Z" transform="translate(1533.208 575.867)" stroke="#1d2731" stroke-width="0.5"/>
    <path id="Path_23" data-name="Path 23" d="M296.461,256h-5.994a.333.333,0,0,0,0,.666h5.994a.333.333,0,0,0,0-.666Z" transform="translate(1533.208 526.667)" stroke="#1d2731" stroke-width="0.5"/>
    <path id="Path_24" data-name="Path 24" d="M370.264,307.2h-3a.333.333,0,1,0,0,.666h3a.333.333,0,1,0,0-.666Z" transform="translate(1459.405 477.467)" fill="#1d2731" stroke="#1d2731" stroke-width="0.5"/>
  </g>
</svg>
