<svg xmlns="http://www.w3.org/2000/svg" width="20" height="20" viewBox="0 0 20 20">
  <g id="ico-photo" transform="translate(-218 -1208)">
    <path id="Path_57" data-name="Path 57" d="M16.875,0H3.125A3.129,3.129,0,0,0,0,3.125v13.8A3.08,3.08,0,0,0,3.076,20H16.924A3.08,3.08,0,0,0,20,16.924V3.125A3.129,3.129,0,0,0,16.875,0Zm1.563,16.875a1.564,1.564,0,0,1-1.562,1.563H3.125a1.564,1.564,0,0,1-1.562-1.562v-.062L6.606,9.33l4.14,6.144a.781.781,0,0,0,1.3,0L14.788,11.4l3.649,5.415Zm0-2.858-3-4.454a.781.781,0,0,0-1.3,0l-2.747,4.076L7.253,7.5a.781.781,0,0,0-1.3,0l-4.4,6.522V3.125A1.564,1.564,0,0,1,3.125,1.563h13.75a1.564,1.564,0,0,1,1.563,1.563Z" transform="translate(218 1208)"/>
  </g>
</svg>
