<svg xmlns="http://www.w3.org/2000/svg" width="20" height="17.142" viewBox="0 0 20 17.142">
  <g id="ico-external" transform="translate(164 -7168)">
    <path id="Path_101" data-name="Path 101" d="M15.357,81.661h-.714a.344.344,0,0,0-.357.357V85.59A1.79,1.79,0,0,1,12.5,87.375H3.214a1.72,1.72,0,0,1-1.261-.524,1.719,1.719,0,0,1-.524-1.261V76.3a1.719,1.719,0,0,1,.524-1.261,1.72,1.72,0,0,1,1.261-.525h7.857a.344.344,0,0,0,.357-.357v-.714a.344.344,0,0,0-.357-.357H3.214a3.1,3.1,0,0,0-2.271.943A3.1,3.1,0,0,0,0,76.3V85.59a3.1,3.1,0,0,0,.943,2.271,3.1,3.1,0,0,0,2.271.943H12.5a3.22,3.22,0,0,0,3.214-3.214V82.019a.344.344,0,0,0-.357-.357Z" transform="translate(-164 7096.338)" fill="#686c70"/>
    <path id="Path_102" data-name="Path 102" d="M207.711,36.759a.687.687,0,0,0-.5-.212h-5.714a.71.71,0,0,0-.5,1.217l1.964,1.964L195.68,47a.351.351,0,0,0,0,.513l1.272,1.272a.351.351,0,0,0,.513,0l7.277-7.277,1.964,1.964a.714.714,0,0,0,1.217-.5V37.261A.687.687,0,0,0,207.711,36.759Z" transform="translate(-351.923 7131.453)" fill="#686c70"/>
  </g>
</svg>
