<svg id="Layer_1" data-name="Layer 1" xmlns="http://www.w3.org/2000/svg" xmlns:xlink="http://www.w3.org/1999/xlink" viewBox="0 0 317.07 316.76"><defs><style>.cls-1{fill:#fff;}.cls-2{fill:#006fcf;}.cls-3{mask:url(#mask);}.cls-4{mask:url(#mask-2);}</style><mask id="mask" x="0" y="98.24" width="316.85" height="129.75" maskUnits="userSpaceOnUse"><g transform="translate(-6.47 -6.62)"><g id="bluebox-55x54-b"><polygon id="bluebox-55x54-a" class="cls-1" points="6.47 104.86 6.47 234.61 323.32 234.61 323.32 104.86 6.47 104.86"/></g></g></mask><mask id="mask-2" x="62.5" y="181.65" width="254.57" height="37.33" maskUnits="userSpaceOnUse"><g transform="translate(-6.47 -6.62)"><g id="bluebox-55x54-d"><polygon id="bluebox-55x54-c" class="cls-1" points="323.54 225.6 323.54 188.27 68.96 188.27 68.96 225.6 323.54 225.6"/></g></g></mask></defs><polygon class="cls-2" points="0.05 0 0.05 316.76 316.81 316.76 316.81 172.64 316.81 0 0.05 0"/><g class="cls-3"><path class="cls-1" d="M284.5,160.21h23.78V104.86H282.9v8.85l-5.65-8.85H255.12v11.2l-5-11.2H213.58a33.24,33.24,0,0,0-5.14.39,29.37,29.37,0,0,0-4.12,1,28.28,28.28,0,0,0-3,1.16,25,25,0,0,0-3.28,1.83v-4.33H78.62l-3.26,9.65-3.3-9.65H44.28v11.31l-5-11.31H16.6L6.47,128.54v31.67H22.52l3-7.94h5.66l3,7.94H157.7v-8.05l6.18,8.05H198v-4a22.06,22.06,0,0,0,2.73,1.5,24.71,24.71,0,0,0,2.85,1.11,25.74,25.74,0,0,0,3.61.9,32.33,32.33,0,0,0,5.79.51h20.42l3-7.94h5.65l3,7.94h34.24V152Zm38.82,71V179.26H126.76l-5,7.09-5-7.09H60.27v55.35h56.31l4.9-7.2,5.07,7.2H161.8V222.67h-.37a34,34,0,0,0,11.89-2.11v14.05H197.9v-8.05l6.18,8.05H310.73a24.91,24.91,0,0,0,8.53-1.46A22.38,22.38,0,0,0,323.32,231.2Z" transform="translate(-6.47 -6.62)"/></g><g class="cls-4"><path class="cls-2" d="M311,218.13H291.81v7.47h18.87c8.06,0,12.85-4.91,12.85-11.89,0-6.67-4.32-10.56-11.57-10.56h-8.64a3.4,3.4,0,0,1-3.62-3.57,3.5,3.5,0,0,1,3.62-3.74h16.21l3.31-7.57H303.59c-8,0-12.85,4.91-12.85,11.63,0,6.87,4.53,10.82,11.63,10.82H311a3.46,3.46,0,0,1,3.68,3.63A3.55,3.55,0,0,1,311,218.13Zm-35.51,0H256.29v7.47h18.88c8.05,0,12.85-4.91,12.85-11.89,0-6.67-4.32-10.56-11.57-10.56h-8.64a3.41,3.41,0,0,1-3.63-3.57,3.51,3.51,0,0,1,3.63-3.74H284l3.31-7.57H268.07c-8.05,0-12.85,4.91-12.85,11.63,0,6.87,4.54,10.82,11.63,10.82h8.59a3.45,3.45,0,0,1,3.67,3.63A3.55,3.55,0,0,1,275.44,218.13Zm-24.59-22.29v-7.57H221V225.6h29.86v-7.52H230v-7.52h20.42v-7.47H230v-7.25Zm-50,.06c3.19,0,4.9,2.07,4.9,4.64s-1.71,4.58-4.9,4.58H190.33V195.9Zm-10.51,16.26h4.21l11.15,13.44h11.14l-12.42-13.76c6.35-1.18,10.13-5.76,10.13-11.73,0-7-5-11.84-12.9-11.84H181.37V225.6h9ZM167.51,200.8a4.38,4.38,0,0,1-4.75,4.59H152v-9.17h10.72C165.91,196.22,167.51,198.24,167.51,200.8Zm-24.43-12.53V225.6h9V213.28h11.25c8.16,0,13.23-5.33,13.23-12.53,0-7.41-5-12.48-12.91-12.48ZM129.91,225.6h11.2l-15-18.83L141,188.27H130.13L121,200.11l-9.11-11.84h-11.2l14.93,18.66L100.69,225.6h10.88l9.17-12ZM98.82,195.84v-7.57H69V225.6H98.82v-7.52H77.92v-7.52H98.35v-7.47H77.92v-7.25Z" transform="translate(-6.47 -6.62)"/></g><path class="cls-2" d="M272.07,128.86l-.1-3.09,1.86,3.09,14.29,22.34h10.46V113.87h-8.75v21.6l.11,2.77-1.65-2.77-14-21.6h-11V151.2h8.74Zm-35.72-1.07,2.72-7,2.71,7,3.31,8.27h-12Zm14.82,23.41h10.08l-15.94-37.33H233.52l-16,37.33h9.54l3.15-8H248Zm-39.08,0h.48l3.67-7.94h-2.71c-6.14,0-9.76-3.84-9.76-10.45v-.54c0-5.92,3.25-10.34,9.65-10.34h9.7v-8.06H212.67c-11.52,0-17.81,7.74-17.81,18.35v.64C194.86,144,201.32,151.15,212.09,151.2Zm-31.84,0h9V113.87h-9V151.2Zm-18.82-29.7c3.2,0,4.9,2.08,4.9,4.64s-1.7,4.59-4.9,4.59H150.92V121.5Zm-10.51,16.27h4.21l11.15,13.43h11.15L165,137.44c6.35-1.17,10.13-5.76,10.13-11.73,0-7-5-11.84-12.9-11.84H142V151.2h9Zm-15.51-16.32v-7.58H105.54V151.2h29.87v-7.62H114.5v-7.42h20.43V128.7H114.5v-7.25Zm-74.28,4.26-.22-10.07L71.26,151.2h8.1l10.35-35.35-.22,9.81V151.2h8.69V113.87H82.4l-7.09,26.45-7.15-26.45H52.43V151.2h8.7Zm-35.68,2.08,2.72-7,2.72,7,3.31,8.27h-12ZM40.27,151.2H50.35L34.41,113.87H22.63l-16,37.33h9.54l3.15-8H37.08Z" transform="translate(-6.47 -6.62)"/></svg>