<svg version="1.1" id="Layer_1" xmlns="http://www.w3.org/2000/svg" xmlns:xlink="http://www.w3.org/1999/xlink" x="0px" y="0px"
	 viewBox="0 0 250 250" style="enable-background:new 0 0 250 250;" xml:space="preserve">
<style type="text/css">
	.st0{fill:#C6C6C6;stroke:#C6C6C6;stroke-width:3.8006;stroke-miterlimit:10;}
</style>
<g>
	<path class="st0" d="M230.1,10.1c-2.7-1.9-6.1-1.1-8,1.1L207,32.2c-0.8,1.1-2.3,1.5-3.4,0.8c-4.2-1.9-9.1-2.7-14.4-2.3
		C176.2,31.8,165.5,42,163.6,55c-1.1,9.5,2.3,18.2,8.4,24.3c0.8,0.8,1.1,1.9,0.8,3l-24.7,54.7c-0.4,1.1-1.5,1.5-2.7,1.1
		c-1.9-0.4-3.8-0.8-6.1-0.8c-4.6,0-9.1,1.1-12.9,3c-0.8,0.4-1.9,0.4-2.7-0.4l-25.8-26.2c-0.8-0.8-0.8-2.3-0.4-3
		c3.4-5.7,4.6-12.9,3-20.1c-2.3-11-11-19.8-22-22c-18.2-3.4-34.2,10.3-34.2,27.7c0,10.6,6.1,20.1,14.4,24.7c1.1,0.8,1.5,1.9,1.5,3
		l-12.9,57.4c-0.4,1.5-1.5,2.3-3,2.7c-1.5,0-3.8,0.4-4.9,0.8C25.3,188.4,15,202,17.7,217.6c1.9,11.4,11,20.5,22.4,22.8
		c18.2,3.4,34.2-10.3,34.2-27.7c0-10.6-5.7-19.8-14.4-24.7c-1.1-0.8-1.9-1.9-1.5-3l13.7-57c0.4-1.1,1.1-1.9,2.3-1.9
		c1.5,0,3.4,0,4.6-0.4c3-0.4,5.7-1.5,8.4-3c1.1-0.8,2.3-0.4,3,0.4l25.5,25.8c0.8,0.8,0.8,1.9,0.4,3c-3.8,5.7-5.3,13.3-3.8,20.9
		c2.3,11,11,20.1,22.4,22.4c18.2,3.4,34.2-10.3,34.2-28.1c0-8.4-3.4-15.6-9.1-20.9c-0.8-0.8-1.1-1.9-0.8-2.7l24.3-54.3
		c0.4-1.1,1.9-1.9,3-1.5c3.8,0.8,7.6,1.1,11.8,0c11.4-2.3,20.5-11.4,22.4-22.8c1.5-8-0.4-15.2-4.6-21.3c-0.8-0.8-0.8-2.3,0-3
		l15.6-22C233.6,15.4,232.8,12,230.1,10.1z M62.9,212.3c0,9.5-7.6,17.1-17.1,17.1s-17.1-7.6-17.1-17.1c0-9.5,7.6-17.1,17.1-17.1
		S62.9,202.8,62.9,212.3z M56.1,97.2c0-9.5,7.6-17.1,17.1-17.1s17.1,7.6,17.1,17.1s-7.6,17.1-17.1,17.1S56.1,106.7,56.1,97.2z
		 M139.7,183.8c-9.5,0-17.1-7.6-17.1-17.1c0-9.5,7.6-17.1,17.1-17.1c9.5,0,17.1,7.6,17.1,17.1C156.8,176.2,149.2,183.8,139.7,183.8z
		 M192.5,76.6c-9.5,0-17.1-7.6-17.1-17.1s7.6-17.1,17.1-17.1s17.1,7.6,17.1,17.1S201.6,76.6,192.5,76.6z"/>
</g>
</svg>
