<?xml version="1.0" encoding="utf-8"?>
<!-- Generator: Adobe Illustrator 25.2.3, SVG Export Plug-In . SVG Version: 6.00 Build 0)  -->
<svg version="1.1" id="Layer_1" xmlns="http://www.w3.org/2000/svg" xmlns:xlink="http://www.w3.org/1999/xlink" x="0px" y="0px"
	 viewBox="0 0 79.3 90" style="enable-background:new 0 0 79.3 90;" xml:space="preserve">
<style type="text/css">
	.st0{fill:#181818;}
</style>
<path class="st0" d="M79.3,39.7C79.3,17.8,61.6,0,39.7,0S0,17.8,0,39.7c0,19.9,14.7,36.4,33.9,39.2l16.1,10.6c0.7,0.5,1.3,0.8,1.5,0
	l-2.8-11.2C66.2,74.2,79.3,58.5,79.3,39.7z M18.6,24.7h42.1c1.1,0,2,0.9,2,2s-0.9,2-2,2H18.6c-1.1,0-2-0.9-2-2S17.5,24.7,18.6,24.7z
	 M56.5,54.5H22.8c-1.1,0-2-0.9-2-2s0.9-2,2-2h33.7c1.1,0,2,0.9,2,2S57.6,54.5,56.5,54.5z M64.3,41.6H15c-1.1,0-2-0.9-2-2s0.9-2,2-2
	h49.3c1.1,0,2,0.9,2,2S65.4,41.6,64.3,41.6z"/>
</svg>
