<?xml version="1.0" encoding="utf-8"?>
<!-- Generator: Adobe Illustrator 25.2.3, SVG Export Plug-In . SVG Version: 6.00 Build 0)  -->
<svg version="1.1" id="Layer_1" xmlns="http://www.w3.org/2000/svg" xmlns:xlink="http://www.w3.org/1999/xlink" x="0px" y="0px"
	 viewBox="0 0 88 88" style="enable-background:new 0 0 88 88;" xml:space="preserve">
<style type="text/css">
	.st0{fill:none;stroke:#181818;stroke-width:5;stroke-linecap:round;stroke-linejoin:round;}
	.st1{fill:none;stroke:#181818;stroke-width:4;stroke-linecap:round;stroke-linejoin:round;}
	.st2{fill:none;stroke:#181818;stroke-width:8;stroke-linecap:round;stroke-linejoin:round;}
</style>
<g transform="matrix( 1, 0, 0, 1, 0,0) ">
	<g>
		<g id="d">
			<path d="M60.2,24l-0.2,0.7l0.2,0.1V24z"/>
		</g>
	</g>
	<g>
		<path id="c" class="st0" d="M19.4,31.2c0.3-2.9,0.9-5.8,1.7-8.7c0.9-3.2,2.4-6.1,4.4-8.8c1.7-2.1,3.7-3.7,6-5
			c2.4-1.3,4.9-2.4,7.6-3.2c2.8-0.8,5.6-0.8,8.5-0.1c2.8,0.6,5.5,1.7,8,3.3c1.7,1.1,3.3,2.5,4.8,4.1c1.8,2,3.3,4.3,4.4,6.8
			c0.4,0.8,0.7,1.7,1.1,2.5c0.8,2,1.3,4.1,1.7,6.3c0.6,3.2,1,6.3,1.2,9.5c0.1,2.9-0.2,5.8-0.9,8.5c-0.8,3.1-2,5.8-3.6,8.3
			c-1.7,2.7-3.9,4.9-6.4,6.8c-1.7,1.3-3.2,2.7-4.5,4.2c-2.1,2.2-4,4.7-5.6,7.3c-1.6,2.6-3.5,4.9-5.8,7.2c-1.3,1.3-2.8,2.1-4.6,2.6
			c-3.1,1-6.1,0.8-9-0.5c-1.6-0.7-2.8-1.6-3.8-2.9c-1.8-2.5-3.1-5.2-3.9-8.2c-0.3-1-0.5-2.1-0.7-3.1c-0.1-0.4-0.1-0.8-0.2-1.2"/>
	</g>
	<g>
		<path id="b" class="st1" d="M26.3,31.9c0.9-2.8,1.6-4.9,2.2-6.2c0.9-2,2-4,3.5-5.9c0.7-0.9,2.1-2.2,4.4-4.1c2.3-1.6,4-2.5,5.2-2.9
			c2-0.6,4.1-0.6,6.2,0c2.1,0.6,3.9,1.6,5.5,3.1c1.6,1.5,3.2,3.8,4.8,7c0.9,1.7,1.6,3.3,2,4.8 M31.9,33.8c3.1-0.9,6.1-0.9,9,0
			c0.4,0.1,1.1,0.4,2.3,1l1.5,1.2c0.7,0.6,1.3,1.1,1.8,1.5c0.4,0.4,0.7,1,1.1,1.7c0.1,0.2,0.3,0.5,0.4,0.9 M60.2,27.8
			c0.4,1.2,0.7,2.3,0.8,3.3c0.5,4.6,0.3,8.5-0.4,11.7c-0.7,2.9-2.1,5.6-4.2,8.3c-0.9,1.2-3.8,4-8.6,8.6 M48,40
			c0.1,0.3,0.3,0.6,0.5,1 M30.5,35.6c0-2.6,1.8-4.9,5.2-6.8c3.5-1.8,7.8-2.8,12.8-2.8 M26,33.1c-0.5,2.3,0.2,3.9,2.1,4.8
			c1.2,0.5,2.4,0.6,3.7,0.3c0.8-0.1,1.5,0.1,2,0.8c1.3,1.7,1.3,3.5,0,5.5c-1.5,2.3-2.9,4.6-4.3,7c-0.2,0.3-0.3,0.7-0.4,1.2
			c-0.1,0.5-0.2,0.9-0.3,1.4"/>
	</g>
	<g>
		<path id="a" class="st2" d="M84,4L65.9,22.1l-5.7,5.7 M20.1,67.9L4,84 M60.2,27.8L48,40l-28,28"/>
	</g>
</g>
</svg>
