<?xml version="1.0" encoding="utf-8"?>
<!-- Generator: Adobe Illustrator 25.2.1, SVG Export Plug-In . SVG Version: 6.00 Build 0)  -->
<svg version="1.1" id="Layer_1" xmlns="http://www.w3.org/2000/svg" xmlns:xlink="http://www.w3.org/1999/xlink" x="0px" y="0px"
	 viewBox="0 0 768 768" style="enable-background:new 0 0 768 768;" xml:space="preserve">
<style type="text/css">
	.st0{fill:#C6C6C6;}
</style>
<path class="st0" d="M216,180.5c0,99.6,75.2,239.5,168,239.5s168-139.9,168-239.5C552,80.8,476.8,0,384,0S216,80.9,216,180.5z
	 M528,180.5c0,45.2-17.4,100.5-45.4,144.1C453.5,370,417.6,396,384,396s-69.5-26-98.6-71.3c-28-43.7-45.4-98.9-45.4-144.1
	C240,94.2,304.6,24,384,24S528,94.2,528,180.5z"/>
<path class="st0" d="M721.9,768c26.7,0,47.9-21.6,46-48.1c-4.3-61.4-16.2-163.4-48.5-193.7C688.8,497.3,507,444,507,444l-123,90
	l-123-90c0,0-181.7,53.3-212.3,82.1C16.4,556.5,4.4,658.5,0.1,719.9C-1.8,746.4,19.4,768,46.2,768H721.9z M24.1,721.6
	c7.8-110,26.3-164,41.1-178c15.8-14.9,107.5-48.1,191.3-73.2l113.4,83c8.4,6.1,20,6.1,28.4,0l113.4-83
	c83.8,25.1,175.5,58.3,191.3,73.2c14.7,13.9,33.3,67.9,41,177.9c0.9,12.7-9.8,22.4-22.1,22.4c0,0-675.4,0-675.7,0
	C33.9,744,23.2,734.3,24.1,721.6z"/>
</svg>
