<?xml version="1.0" encoding="utf-8"?>
<!-- Generator: Adobe Illustrator 25.2.3, SVG Export Plug-In . SVG Version: 6.00 Build 0)  -->
<svg version="1.1" id="Layer_1" xmlns="http://www.w3.org/2000/svg" xmlns:xlink="http://www.w3.org/1999/xlink" x="0px" y="0px"
	 viewBox="0 0 90 90" style="enable-background:new 0 0 90 90;" xml:space="preserve">
<style type="text/css">
	.st0{fill:#181818;}
</style>
<g>
	<path class="st0" d="M76.8,13.2L76.8,13.2C76.8,13.2,76.8,13.2,76.8,13.2C68.3,4.7,57,0,45,0S21.7,4.7,13.2,13.2
		c-1.1,1.1-2.1,2.2-3,3.4c-0.7,0.9-0.6,2.1,0.3,2.8c0.9,0.7,2.1,0.6,2.8-0.3c0.4-0.5,0.9-1.1,1.4-1.6l4.9,4.9
		C14,28.6,10.9,36.6,10.9,45c0,9.1,3.5,17.7,10,24.1c3.8,3.8,8.6,6.7,13.7,8.4c0.2,0.1,0.4,0.1,0.6,0.1c0.8,0,1.6-0.5,1.9-1.4
		c0.3-1.1-0.2-2.2-1.3-2.5c-3.9-1.2-7.5-3.3-10.6-6l4.9-4.9c4.2,3.5,9.4,5.4,14.9,5.4c5.5,0,10.7-1.9,14.9-5.4l4.9,4.9
		c-0.1,0.1-0.2,0.1-0.2,0.2c-0.8,0.7-0.9,2-0.2,2.8c0.4,0.5,1,0.7,1.5,0.7c0.5,0,0.9-0.2,1.3-0.5c0.7-0.6,1.3-1.2,1.9-1.8
		c6.4-6.4,10-15,10-24.1c0-5.5-1.3-10.7-3.7-15.5c-0.5-1-1.7-1.4-2.7-0.9c-1,0.5-1.4,1.7-0.9,2.7c2.2,4.3,3.3,8.9,3.3,13.7
		c0,7.4-2.6,14.3-7.4,19.8l-4.9-4.9c0,0,0.1-0.1,0.1-0.1c0.2-0.2,0.3-0.4,0.5-0.6c0.3-0.4,0.6-0.7,0.8-1.1c0.2-0.2,0.3-0.5,0.5-0.7
		c0.2-0.4,0.5-0.7,0.7-1.1c0.1-0.3,0.3-0.5,0.4-0.8c0.2-0.4,0.4-0.8,0.5-1.1c0.1-0.3,0.2-0.6,0.3-0.8c0.2-0.4,0.3-0.8,0.4-1.2
		c0.1-0.3,0.2-0.6,0.3-0.8c0.1-0.4,0.2-0.8,0.3-1.3c0.1-0.3,0.1-0.5,0.2-0.8c0.1-0.5,0.2-1,0.2-1.4c0-0.2,0.1-0.5,0.1-0.7
		c0.1-0.7,0.1-1.5,0.1-2.2c0-6.2-2.4-12-6.8-16.4c-0.4-0.4-0.7-0.7-1.1-1.1c-0.1-0.1-0.2-0.2-0.4-0.3c-0.1-0.1-0.2-0.2-0.4-0.3
		c-0.2-0.1-0.3-0.2-0.5-0.4c-0.2-0.1-0.4-0.3-0.5-0.4c-0.2-0.1-0.4-0.3-0.6-0.4c0,0,0,0,0,0c0,0,0,0,0,0c0,0-0.1,0-0.1,0
		c-0.2-0.1-0.4-0.2-0.6-0.4c-0.2-0.1-0.4-0.2-0.5-0.3c0,0-0.1,0-0.1,0c-0.1-0.1-0.2-0.1-0.3-0.2c-1-0.5-2.2-0.2-2.7,0.8
		c-0.5,1-0.2,2.2,0.8,2.7c0.3,0.1,0.5,0.3,0.8,0.5c0.2,0.1,0.3,0.2,0.5,0.3c0.1,0.1,0.2,0.1,0.3,0.2c0.4,0.3,0.8,0.5,1.1,0.8
		c0.1,0.1,0.2,0.1,0.3,0.2c0,0,0.1,0,0.1,0.1c0.4,0.4,0.8,0.7,1.2,1.1c3.1,3.2,5.1,7.2,5.5,11.6h-7c-0.4-2.5-1.6-4.8-3.4-6.7
		c-2.3-2.3-5.4-3.6-8.7-3.6c-0.4,0-0.7,0-1.1,0.1c-0.1,0-0.2,0-0.3,0c-0.3,0-0.5,0.1-0.8,0.1c-0.1,0-0.3,0-0.4,0.1
		c-0.3,0.1-0.5,0.1-0.7,0.2c-0.1,0-0.2,0.1-0.3,0.1c-0.3,0.1-0.7,0.2-1,0.4c-0.1,0-0.1,0-0.2,0.1c-0.3,0.1-0.6,0.2-0.8,0.4
		c-0.1,0.1-0.2,0.1-0.3,0.2c-0.2,0.1-0.4,0.2-0.6,0.4c-0.1,0.1-0.2,0.1-0.3,0.2c-0.1,0-0.1,0.1-0.2,0.1l-4.9-4.9
		c0.1-0.1,0.3-0.2,0.4-0.3c0.9-0.7,1-1.9,0.4-2.8c-0.7-0.9-1.9-1-2.8-0.4c-0.5,0.4-1,0.8-1.5,1.3c0,0-0.1,0-0.1,0.1
		c-0.2,0.2-0.4,0.4-0.6,0.6c0,0,0,0,0,0c0,0,0,0,0,0s0,0,0,0C24.2,33,21.8,38.8,21.8,45c0,2.3,0.3,4.5,1,6.7
		c0.3,1.1,1.4,1.7,2.5,1.3c1.1-0.3,1.7-1.4,1.3-2.5c-0.5-1.8-0.8-3.6-0.8-5.5c0-4.5,1.5-8.7,4.3-12.1l4.9,4.9
		c-0.2,0.3-0.4,0.5-0.5,0.8c-0.6,0.9-0.3,2.2,0.7,2.7c0.3,0.2,0.7,0.3,1,0.3c0.7,0,1.3-0.3,1.7-1c0.3-0.6,0.8-1.1,1.2-1.6
		c1.6-1.6,3.6-2.4,5.8-2.4s4.3,0.9,5.9,2.4c1.6,1.6,2.4,3.6,2.4,5.8s-0.9,4.3-2.4,5.8c0,0,0,0,0,0c0,0,0,0,0,0
		c-1.6,1.6-3.6,2.4-5.8,2.4s-4.3-0.9-5.9-2.4c-1.4-1.4-2.2-3.2-2.4-5.1c-0.1-1.1-1.1-1.9-2.2-1.8c-1.1,0.1-1.9,1.1-1.8,2.2
		c0.2,2.9,1.5,5.6,3.5,7.6c1.8,1.8,4.2,3,6.7,3.4v7c-4.4-0.4-8.4-2.4-11.6-5.5c-1-1-1.9-2.1-2.7-3.3c-0.6-0.9-1.8-1.2-2.8-0.6
		c-0.9,0.6-1.2,1.8-0.6,2.8c0.6,0.9,1.2,1.7,1.9,2.6l-4.9,4.9c-4.8-5.5-7.5-12.4-7.5-19.8c0-8,3.1-15.6,8.8-21.3
		c5.2-5.2,12-8.3,19.3-8.8v6.9c-0.1,0-0.2,0-0.3,0c-0.4,0-0.8,0.1-1.2,0.1c-0.2,0-0.4,0.1-0.6,0.1c-0.3,0-0.5,0.1-0.8,0.1
		c0,0,0,0,0,0c-1,0.2-2,0.5-3,0.8c-1,0.4-1.6,1.5-1.2,2.6c0.4,1,1.5,1.6,2.6,1.2c0.9-0.3,1.8-0.6,2.8-0.7c0.5-0.1,0.9-0.2,1.4-0.2
		c0.1,0,0.1,0,0.2,0c0.5-0.1,1-0.1,1.5-0.1c0.1,0,0.2,0,0.3,0c0.3,0,0.6,0,0.9,0c0.3,0,0.7,0,1,0c0.3,0,0.5,0.1,0.8,0.1
		c0.4,0.1,0.9,0.1,1.3,0.2c0.1,0,0.3,0,0.4,0c0.9,0,1.8-0.7,2-1.6c0.2-1.1-0.5-2.1-1.6-2.3c-0.2,0-0.3,0-0.5-0.1
		c-0.1,0-0.1,0-0.2-0.1c-0.3-0.1-0.7-0.1-1-0.1c-0.1,0-0.1,0-0.2,0c-0.1,0-0.2,0-0.3,0c0,0,0,0-0.1,0c-0.1,0-0.1,0-0.2,0V15
		c7.3,0.5,14.1,3.5,19.3,8.8c0.9,0.9,1.7,1.8,2.5,2.8c0.4,0.5,1,0.8,1.6,0.8c0.4,0,0.9-0.1,1.2-0.4c0.9-0.7,1-1.9,0.3-2.8
		c-0.5-0.6-0.9-1.2-1.4-1.7l4.9-4.9C82.2,25,86,34.7,86,45c0,10.9-4.3,21.2-12,29c-7.3,7.3-16.8,11.5-27,12V79
		c5.4-0.3,10.7-1.9,15.4-4.7c0.9-0.6,1.3-1.8,0.7-2.7s-1.8-1.3-2.7-0.7c-4.6,2.8-10,4.2-15.4,4.2c-1.2,0-2.5-0.1-3.7-0.2
		c-1.1-0.1-2.1,0.6-2.2,1.7c-0.1,1.1,0.6,2.1,1.7,2.2c0.7,0.1,1.5,0.2,2.2,0.2V86c-10.2-0.5-19.7-4.7-27-12C8.3,66.2,4,55.9,4,45
		c0-7.1,1.8-14.1,5.3-20.2c0.5-1,0.2-2.2-0.8-2.7c-1-0.5-2.2-0.2-2.7,0.8C2,29.5,0,37.2,0,45c0,12,4.7,23.3,13.2,31.8
		C21.7,85.3,33,90,45,90s23.3-4.7,31.8-13.2C85.3,68.3,90,57,90,45S85.3,21.7,76.8,13.2L76.8,13.2z M53.7,53.7
		C53.7,53.7,53.7,53.7,53.7,53.7L53.7,53.7C53.7,53.7,53.7,53.7,53.7,53.7C53.7,53.7,53.7,53.7,53.7,53.7c1.9-1.9,3-4.2,3.4-6.7h7
		c-0.4,4.4-2.4,8.4-5.5,11.6l0,0c-3.2,3.1-7.2,5.1-11.6,5.5v-7C49.5,56.7,51.8,55.5,53.7,53.7z M22.3,19.5l-4.9-4.9
		C25,7.8,34.7,4,45,4s20,3.8,27.5,10.6l-4.9,4.9C61.4,14,53.4,10.9,45,10.9S28.6,14,22.3,19.5z"/>
	<circle class="st0" cx="45" cy="45" r="2.8"/>
</g>
</svg>
