<svg id="Layer_1" data-name="Layer 1" xmlns="http://www.w3.org/2000/svg" viewBox="0 0 428 323.05"><defs><style>.cls-1{fill:#181818;}</style></defs><path class="cls-1" d="M211.38,237.52a93.42,93.42,0,0,0,11.54,45.09H387.85a93.83,93.83,0,0,0-4.82-98H227.73A93.47,93.47,0,0,0,211.38,237.52Zm125-33.16c2,0,3.51.63,4,2.34l13.77,48.78,13.68-48.78c.45-1.71,2-2.34,4-2.34,3.15,0,7.38,2.07,7.38,4.86a3.51,3.51,0,0,1-.18.9l-17.28,56.61c-.81,2.7-4.14,4-7.56,4s-6.66-1.26-7.56-4l-17.37-56.61a6.83,6.83,0,0,1-.18-.9C329,206.34,333.19,204.36,336.34,204.36Zm-51.75,0c2,0,3.51.63,4,2.34l13.77,48.78L316,206.7c.45-1.71,2-2.34,4-2.34,3.15,0,7.38,2.07,7.38,4.86a4.63,4.63,0,0,1-.18.9l-17.28,56.61c-.81,2.7-4.14,4-7.56,4s-6.66-1.26-7.56-4l-17.37-56.61a6.83,6.83,0,0,1-.18-.9C277.21,206.34,281.44,204.36,284.59,204.36ZM231.67,225c0-15,9.45-20.61,20.79-20.61,12.51,0,21.42,6.66,21.42,17.1,0,4.68-1.89,5.76-5.85,5.76-3.33,0-5.76-1-5.85-3.69s-.81-8.91-9.36-8.91c-6,0-9.45,3.33-9.45,10.35v25.11c0,7,3.42,10.35,9.63,10.35,8.19,0,8.91-5.85,9.18-9.63.18-2.79,2.7-3.69,5.76-3.69,4.05,0,5.94,1.17,5.94,5.76,0,10.89-8.91,17.82-21.51,17.82-11.34,0-20.7-5.58-20.7-20.61Z" transform="translate(-13 -8.48)"/><path class="cls-1" d="M380,294.61H230.75a93.9,93.9,0,0,0,149.26,0Z" transform="translate(-13 -8.48)"/><path class="cls-1" d="M305.38,143.52a93.76,93.76,0,0,0-67.92,29.09H373.3A93.72,93.72,0,0,0,305.38,143.52Z" transform="translate(-13 -8.48)"/><path class="cls-1" d="M37,274.37H206a105.61,105.61,0,0,1-6.38-30H77a6,6,0,0,1-6-6v-50a6,6,0,0,1,6-6H214.86q2.12-3.45,4.49-6.74a6.16,6.16,0,0,1,.82-1.13,106,106,0,0,1,184.6,99.82H417a24,24,0,0,0,24-24V107.9H13V250.37A24,24,0,0,0,37,274.37Z" transform="translate(-13 -8.48)"/><rect class="cls-1" y="53.11" width="428" height="34.32"/><path class="cls-1" d="M441,32.48a24,24,0,0,0-24-24H37a24,24,0,0,0-24,24v17.1H441Z" transform="translate(-13 -8.48)"/><path class="cls-1" d="M199.51,232.42a105.13,105.13,0,0,1,9-38H83v38Z" transform="translate(-13 -8.48)"/></svg>