<?xml version="1.0" encoding="utf-8"?>
<!-- Generator: Adobe Illustrator 25.2.3, SVG Export Plug-In . SVG Version: 6.00 Build 0)  -->
<svg version="1.1" id="Layer_1" xmlns="http://www.w3.org/2000/svg" xmlns:xlink="http://www.w3.org/1999/xlink" x="0px" y="0px"
	 viewBox="0 0 48 48" style="enable-background:new 0 0 48 48;" xml:space="preserve">
<style type="text/css">
	.st0{fill:#181818;}
</style>
<g>
	<path class="st0" d="M26,25c0-5.7-3.7-10.6-8.9-12.3C18.8,11.4,20,9.3,20,7c0-3.9-3.1-7-7-7S6,3.1,6,7c0,2.3,1.2,4.4,2.9,5.7
		C3.7,14.4,0,19.3,0,25v1h26V25z M8,7c0-2.8,2.2-5,5-5s5,2.2,5,5s-2.2,5-5,5S8,9.8,8,7z M2,24c0.5-5.6,5.2-10,11-10s10.4,4.4,11,10
		H2z"/>
	<path class="st0" d="M39.1,34.7c1.8-1.3,2.9-3.3,2.9-5.7c0-3.9-3.1-7-7-7s-7,3.1-7,7c0,2.3,1.2,4.4,2.9,5.7
		C25.7,36.4,22,41.3,22,47v1h26v-1C48,41.3,44.3,36.4,39.1,34.7z M30,29c0-2.8,2.2-5,5-5s5,2.2,5,5s-2.2,5-5,5S30,31.8,30,29z
		 M24,46c0.5-5.6,5.2-10,11-10s10.4,4.4,11,10H24z"/>
	<polygon class="st0" points="36,18 36,6 27.4,6 30.7,2.7 29.3,1.3 23.6,7 29.3,12.7 30.7,11.3 27.4,8 34,8 34,18 	"/>
	<polygon class="st0" points="11.3,36.7 14.6,40 8,40 8,30 6,30 6,42 14.6,42 11.3,45.3 12.7,46.7 18.4,41 12.7,35.3 	"/>
</g>
</svg>
