<?xml version="1.0" encoding="utf-8"?>
<!-- Generator: Adobe Illustrator 25.2.3, SVG Export Plug-In . SVG Version: 6.00 Build 0)  -->
<svg version="1.1" id="Layer_1" xmlns="http://www.w3.org/2000/svg" xmlns:xlink="http://www.w3.org/1999/xlink" x="0px" y="0px"
	 viewBox="0 0 1177.7 1177.7" style="enable-background:new 0 0 1177.7 1177.7;" xml:space="preserve">
<style type="text/css">
	.st0{fill:#C8C8C8;}
	.st1{fill:#181818;}
</style>
<g>
	<g>
		<path class="st0" d="M1177.7,588.9c0,325.2-263.6,588.8-588.8,588.8h0C263.6,1177.7,0,914.1,0,588.8v0C0,263.6,263.6,0,588.8,0h0
			C914.1,0,1177.7,263.6,1177.7,588.9L1177.7,588.9z"/>
	</g>
	<g>
		<g>
			<path class="st1" d="M307.8,485.9h127.3v409.4H307.8V485.9z M371.5,282.4c40.7,0,73.7,33.1,73.7,73.8c0,40.7-33.1,73.7-73.7,73.7
				c-40.8,0-73.7-33-73.7-73.7C297.7,315.5,330.7,282.4,371.5,282.4"/>
		</g>
		<g>
			<path class="st1" d="M514.9,485.9h122.1v56h1.7c17-32.2,58.5-66.1,120.4-66.1c128.8,0,152.6,84.8,152.6,194.9v224.5H784.5V696.2
				c0-47.5-0.8-108.6-66.1-108.6c-66.2,0-76.3,51.8-76.3,105.2v202.5H514.9V485.9z"/>
		</g>
	</g>
</g>
</svg>
