<svg id="Layer_1" data-name="Layer 1" xmlns="http://www.w3.org/2000/svg" viewBox="0 0 493.23 296.96"><defs><style>.cls-1{fill:#fcb131;}.cls-1,.cls-2,.cls-3,.cls-4{fill-rule:evenodd;}.cls-2{fill:#ed1c2e;}.cls-3{fill:#fff;}.cls-4{fill:#003473;}</style></defs><path class="cls-1" d="M259.5,266.15a145.71,145.71,0,0,0,98.9,38.49C440,304.64,506,238.11,506,156.29,506,74.21,440,7.68,358.4,7.68a145.71,145.71,0,0,0-98.9,38.49,148.58,148.58,0,0,0,0,220Z" transform="translate(-12.76 -7.68)"/><path class="cls-1" d="M486.36,238.87a4.56,4.56,0,0,1,4.59-4.58,4.62,4.62,0,0,1,4.84,4.58,4.69,4.69,0,0,1-4.84,4.85,4.63,4.63,0,0,1-4.59-4.85ZM491,242.7a3.92,3.92,0,0,0,3.82-3.83A3.7,3.7,0,0,0,491,235.3a3.64,3.64,0,0,0-3.57,3.57A3.89,3.89,0,0,0,491,242.7Zm-.51-1.53h-1v-4.34h1.78a1.5,1.5,0,0,1,1,.26c.51.25.51.51.51,1s-.25,1-.76,1l1,2h-1.28l-.51-1.79h-.76v-.76h1c.25,0,.25-.26.25-.51s0-.26-.25-.51h-1v3.57Z" transform="translate(-12.76 -7.68)"/><path class="cls-2" d="M307.17,140.48c-.51-5.35-1.53-10.45-2.55-15.8H214.38a154.84,154.84,0,0,1,4.08-15.55h81.82a168.09,168.09,0,0,0-6.11-15.8H224.83c2.55-5.36,5.36-10.71,8.41-15.81H285.5A133.83,133.83,0,0,0,274.28,62H244.46a147.82,147.82,0,0,1,15-15.8A147.56,147.56,0,0,0,160.34,7.68C79,7.68,12.76,74.21,12.76,156.29c0,81.82,66.27,148.35,147.58,148.35a146.36,146.36,0,0,0,99.16-38.49h0a142,142,0,0,0,14.78-15.55H244.46a177.6,177.6,0,0,1-11.22-15.8H285.5A119.05,119.05,0,0,0,294.17,219H224.83a165.1,165.1,0,0,1-6.37-15.55h81.82a160.48,160.48,0,0,0,4.34-15.8,157.24,157.24,0,0,0,2.55-15.8c.5-5.1.76-10.2.76-15.55s-.26-10.71-.76-15.81Z" transform="translate(-12.76 -7.68)"/><path class="cls-3" d="M486.36,190.7a4.63,4.63,0,0,1,4.59-4.85,4.69,4.69,0,0,1,4.84,4.85,4.72,4.72,0,1,1-9.43,0Zm4.59,3.57a3.58,3.58,0,1,0,0-7.14,3.57,3.57,0,1,0,0,7.14Zm-.51-1.53h-1v-4.08h2.8c.51.25.51.76.51,1.27a1.34,1.34,0,0,1-.76,1l1,1.79h-1.28l-.51-1.53h-.76v-.77H491c.25,0,.51,0,.51-.25.25,0,.25-.26.25-.51a.25.25,0,0,0-.25-.26c0-.25-.26,0-.51,0h-.51v3.32Z" transform="translate(-12.76 -7.68)"/><path class="cls-4" d="M209.28,199.11c-4.84,1.27-8.41,2-12,2-7.64,0-12.23-4.84-12.23-13.51a44.75,44.75,0,0,1,.51-5.61l1-5.86.76-4.84,6.89-41.81h15.29l-1.79,9.18h9.69L215.15,154h-9.69l-4.08,25a12,12,0,0,0-.25,2.55c0,3.31,1.53,4.59,5.35,4.59a28.75,28.75,0,0,0,4.84-.51l-2,13.51Z" transform="translate(-12.76 -7.68)"/><path class="cls-4" d="M258.73,198.6a59.9,59.9,0,0,1-16.31,2.29c-17.33,0-27.27-9.17-27.27-27.27,0-21.16,11.72-36.45,28-36.45,13,0,21.41,8.67,21.41,22.18a69.78,69.78,0,0,1-1.79,15H231a7.31,7.31,0,0,0-.25,2c0,7.14,4.84,10.71,14,10.71a38.47,38.47,0,0,0,16.56-3.82l-2.55,15.29Zm-9.43-36.45v-3.06c0-5.1-2.8-7.9-7.64-7.9-5.1,0-8.67,3.82-10.2,11Z" transform="translate(-12.76 -7.68)"/><polygon class="cls-4" points="74.18 192.19 58.37 192.19 67.55 134.33 46.9 192.19 35.94 192.19 34.67 134.59 24.98 192.19 9.43 192.19 21.92 117 45.12 117 45.63 163.39 61.18 117 86.67 117 74.18 192.19 74.18 192.19"/><path class="cls-4" d="M125.42,172.6a14.92,14.92,0,0,0-3.06-.25c-9.17,0-13.76,3.56-13.76,9.17,0,3.82,2.29,6.37,5.86,6.37,7.65,0,10.71-6.37,11-15.29Zm12.75,27.27H124.4l.26-6.37c-3.57,4.84-8.41,7.39-16.83,7.39-7.64,0-14.27-6.88-14.27-16.82a27.16,27.16,0,0,1,1.27-7.9c2.55-9.43,12-15.3,26.51-15.55,1.79,0,4.59,0,7.14.25a13.4,13.4,0,0,0,.51-4.07c0-4.08-3.31-5.36-10.7-5.36a42.72,42.72,0,0,0-13.26,2l-2.29.51-1,.26L104,140.48c7.39-2.29,12.75-3.31,18.61-3.31,13.76,0,21.16,6.37,21.16,18.1a57.93,57.93,0,0,1-.77,12l-3.57,21.92-.51,3.82-.25,3.06-.26,2-.25,1.78Z" transform="translate(-12.76 -7.68)"/><path class="cls-4" d="M335.71,139.21c4.59,0,8.67,1.27,14.28,4.08l2.8-16.32a37.07,37.07,0,0,0-4.08-1.53l-6.37-1.78a31.35,31.35,0,0,0-7.39-.77c-7.9,0-12.49.26-17.33,3.06a47.72,47.72,0,0,0-9.43,8.16l-2-.51-16.32,11.47.77-6.37H273.77l-9.94,61.17h16.06L285.75,167s2.3-4.59,3.32-6.12c3.06-3.82,5.6-3.82,8.92-3.82h1.27a82.36,82.36,0,0,0-.76,11.73c0,19.88,11.21,32.37,28.55,32.37a51.58,51.58,0,0,0,14-2l2.8-17.33c-5.1,2.8-9.69,4.07-13.51,4.07-9.43,0-15-7.13-15-18.35,0-16.57,8.41-28.29,20.39-28.29Z" transform="translate(-12.76 -7.68)"/><path class="cls-4" d="M471.06,124.68l-3.56,21.41c-3.83-5.86-8.42-8.67-14.53-8.67-8.42,0-16.32,4.85-21.16,14v-.25l-10.2-6.12,1-6.37H405.56l-9.69,61.17h15.8L417,167s4.07-4.59,5.09-6.12a10,10,0,0,1,7.14-3.82,55.23,55.23,0,0,0-2.8,18.1c0,15.29,7.9,25.49,19.62,25.49,5.87,0,10.46-2,14.79-6.88l-.77,6.11h15l12.24-75.19Zm-19.62,60.66c-5.36,0-8.16-4.07-8.16-12,0-12,5.1-20.64,12.49-20.64,5.61,0,8.41,4.33,8.41,12,0,12.23-5.1,20.64-12.74,20.64Z" transform="translate(-12.76 -7.68)"/><path class="cls-4" d="M377.77,172.6a14.92,14.92,0,0,0-3.06-.25c-9.17,0-13.76,3.56-13.76,9.17,0,3.82,2.29,6.37,5.86,6.37,7.65,0,10.71-6.37,11-15.29Zm12.75,27.27h-14l.51-6.37c-3.57,4.84-8.41,7.39-16.83,7.39-7.9,0-14.78-6.62-14.78-16.82,0-14.53,11-23.45,28.29-23.45a68.32,68.32,0,0,1,6.89.25,15.5,15.5,0,0,0,.76-4.07c0-4.08-3.31-5.36-11-5.36a43.87,43.87,0,0,0-13.25,2l-2,.51-1,.26,2.29-13.77c7.39-2.29,12.75-3.31,18.61-3.31,13.76,0,20.9,6.37,20.9,18.1,0,3.06.51,5.35-.77,12l-3.31,21.92-.51,3.82-.51,3.06-.25,2v1.78Z" transform="translate(-12.76 -7.68)"/><path class="cls-4" d="M171.56,151.7a75,75,0,0,1,12,1l2.29-14.28c-4.59-.51-10.7-1.27-14.27-1.27-17.84,0-23.71,9.69-23.71,20.9,0,7.39,3.32,12.75,12,16.82,6.38,3.06,7.4,3.57,7.4,6.38,0,3.82-3.32,6.11-9.44,6.11a42.41,42.41,0,0,1-14.52-2.55l-1.79,14,.26.26,3,.51a40.53,40.53,0,0,0,4.08.76c3.83.26,7.14.51,9.18.51,17.84,0,25.23-6.88,25.23-20.39,0-8.41-4.07-13.51-12-17.08-6.88-3.06-7.64-3.56-7.64-6.37s3.06-5.35,7.9-5.35Z" transform="translate(-12.76 -7.68)"/><path class="cls-3" d="M357.13,122.13l-2.81,16.31c-5.61-2.8-9.68-4.07-14.27-4.07-12,0-20.39,11.72-20.39,28.29,0,11.47,5.6,18.35,15,18.35,3.83,0,8.42-1.27,13.51-3.82l-2.8,17.08c-5.86,1.53-9.69,2.29-14,2.29-17.33,0-28-12.49-28-32.63,0-26.76,14.79-45.62,35.94-45.62a31.28,31.28,0,0,1,7.39.76l6.38,1.53c2,.77,2.55,1,4.08,1.53Z" transform="translate(-12.76 -7.68)"/><path class="cls-3" d="M305.64,133.35h-1.53c-5.36,0-8.42,2.54-13.26,9.94l1.53-9.43H277.85L267.91,195H284c5.86-37.47,7.39-43.84,15-43.84h1a64.08,64.08,0,0,1,6.12-17.59l-.51-.25Z" transform="translate(-12.76 -7.68)"/><path class="cls-3" d="M213.36,194.27a33.06,33.06,0,0,1-11.47,2c-8.15,0-12.74-4.59-12.74-13.51a41.24,41.24,0,0,1,.51-5.36l1-6.11.76-4.85,6.88-41.8h15.81l-1.79,9.18h8.16l-2,15H210.3L206,174.38a9.77,9.77,0,0,0-.25,2.55c0,3.06,1.53,4.34,5.35,4.34a10.6,10.6,0,0,0,4.33-.51l-2,13.51Z" transform="translate(-12.76 -7.68)"/><path class="cls-3" d="M151.93,153.23c0,7.64,3.57,13,12,17.08,6.63,3.05,7.65,4.07,7.65,6.62,0,3.83-2.8,5.61-9.18,5.61a47.63,47.63,0,0,1-14.27-2.29l-2.3,14,.77.25,2.8.51a16.47,16.47,0,0,0,4.34.51,58.77,58.77,0,0,0,8.66.51c16.83,0,24.73-6.37,24.73-20.39,0-8.41-3.32-13.26-11.22-17.08-6.88-3.06-7.64-3.82-7.64-6.63,0-3.31,2.8-4.84,7.9-4.84a99.39,99.39,0,0,1,11.47.76l2.29-14a91.75,91.75,0,0,0-14-1.28c-17.84,0-24.21,9.43-24,20.65Z" transform="translate(-12.76 -7.68)"/><path class="cls-3" d="M479.22,195h-15l.77-5.86c-4.34,4.59-8.92,6.63-14.79,6.63-11.72,0-19.37-10-19.37-25.24,0-20.39,12-37.72,26-37.72,6.37,0,11,2.8,15.29,8.41l3.57-21.41h15.81L479.22,195Zm-23.45-14.27c7.39,0,12.49-8.67,12.49-20.65,0-7.9-2.8-12-8.41-12-7.14,0-12.49,8.41-12.49,20.39q0,12.24,8.41,12.24Z" transform="translate(-12.76 -7.68)"/><path class="cls-3" d="M262.3,193.76a52.38,52.38,0,0,1-16.57,2.55c-17.84,0-27-9.44-27-27.53,0-20.91,11.72-36.45,27.78-36.45,13.25,0,21.67,8.66,21.67,22.17a61.72,61.72,0,0,1-2,15.3H234.52a4.85,4.85,0,0,0-.26,1.78c0,7.14,4.85,10.71,14,10.71a35,35,0,0,0,16.57-3.83l-2.55,15.3Zm-8.92-36.45v-3.06c0-5.1-2.8-7.9-7.65-7.9-5.09,0-8.66,3.82-10.19,11Z" transform="translate(-12.76 -7.68)"/><polygon class="cls-3" points="78.25 187.35 62.45 187.35 71.63 129.49 50.98 187.35 40.02 187.35 38.74 130 29.06 187.35 14.28 187.35 26.76 112.16 49.7 112.16 50.47 158.8 65.76 112.16 90.74 112.16 78.25 187.35 78.25 187.35"/><path class="cls-3" d="M130.52,167.76c-1.53,0-2.29-.26-3.57-.26-8.92,0-13.51,3.32-13.51,9.43,0,3.83,2,6.12,5.61,6.12,6.63,0,11.22-6.12,11.47-15.29ZM142.25,195H129l.26-6.37c-4.08,5.1-9.44,7.39-16.83,7.39-8.66,0-14.53-6.63-14.53-16.57,0-15,10.2-23.7,28-23.7,1.79,0,4.08.25,6.63.51a12.9,12.9,0,0,0,.51-3.83c0-4.08-2.8-5.6-10.2-5.6a52.62,52.62,0,0,0-13.25,1.52l-2.3.77-1.52.25,2.29-13.76c7.9-2.29,13.25-3.06,19.12-3.06,13.76,0,21.15,6.12,21.15,17.84,0,3.06-.25,5.36-1.27,12.24l-3.57,21.67-.51,3.82-.25,3.06-.26,2.29-.25,1.53Z" transform="translate(-12.76 -7.68)"/><path class="cls-3" d="M382.87,167.76c-1.78,0-2.55-.26-3.57-.26-9.17,0-13.76,3.32-13.76,9.43,0,3.83,2.29,6.12,5.86,6.12,6.37,0,11.21-6.12,11.47-15.29ZM394.6,195H381.34l.26-6.37c-4.08,5.1-9.44,7.39-16.83,7.39-8.66,0-14.53-6.63-14.53-16.57,0-15,10.2-23.7,28-23.7a61.89,61.89,0,0,1,6.37.51,16.32,16.32,0,0,0,.77-3.83c0-4.08-2.81-5.6-10.2-5.6a54.71,54.71,0,0,0-13.51,1.52l-2,.77-1.53.25,2.3-13.76c7.9-2.29,13.25-3.06,19.12-3.06,13.76,0,20.9,6.12,20.9,17.84a54.52,54.52,0,0,1-1.28,12.24l-3.31,21.67-.51,3.82-.51,3.06-.25,2.29V195Z" transform="translate(-12.76 -7.68)"/><path class="cls-3" d="M437.42,133.35h-1.53c-5.35,0-8.41,2.54-13.26,9.94l1.53-9.43H409.63L400,195h15.8c5.86-37.47,7.39-43.84,15-43.84h1a64.08,64.08,0,0,1,6.12-17.59l-.51-.25Z" transform="translate(-12.76 -7.68)"/></svg>