<?xml version="1.0" encoding="utf-8"?>
<!-- Generator: Adobe Illustrator 25.2.1, SVG Export Plug-In . SVG Version: 6.00 Build 0)  -->
<svg version="1.1" id="Layer_1" xmlns="http://www.w3.org/2000/svg" xmlns:xlink="http://www.w3.org/1999/xlink" x="0px" y="0px"
	 viewBox="0 0 70.5 14.6" style="enable-background:new 0 0 70.5 14.6;" xml:space="preserve">
<style type="text/css">
	.st0{enable-background:new    ;}
	.st1{fill:#C6C6C5;}
</style>
<g class="st0">
	<path class="st1" d="M9.5,11.9L7.3,9C7.1,9,6.9,9,6.6,9H4.1v2.9h-1V2.7h3.5c2.4,0,3.8,1.2,3.8,3.2c0,1.4-0.8,2.5-2.2,2.9l2.3,3.2
		H9.5z M9.4,5.9c0-1.5-1-2.3-2.9-2.3H4.1v4.6h2.5C8.4,8.2,9.4,7.3,9.4,5.9z"/>
	<path class="st1" d="M21.7,8.8h-5.9c0.1,1.4,1.2,2.4,2.8,2.4c0.9,0,1.6-0.3,2.2-0.9l0.5,0.6c-0.6,0.7-1.6,1.1-2.7,1.1
		c-2.2,0-3.7-1.5-3.7-3.5c0-2.1,1.5-3.5,3.5-3.5s3.4,1.4,3.4,3.5C21.7,8.6,21.7,8.7,21.7,8.8z M15.8,8.1h5c-0.1-1.4-1.1-2.3-2.5-2.3
		C16.9,5.8,15.9,6.7,15.8,8.1z"/>
	<path class="st1" d="M25.7,11.2l0.4-0.7c0.6,0.4,1.5,0.8,2.5,0.8c1.3,0,1.9-0.4,1.9-1.1c0-1.8-4.6-0.4-4.6-3.1c0-1.1,1-2,2.8-2
		c0.9,0,1.9,0.2,2.5,0.6l-0.4,0.8c-0.6-0.4-1.4-0.6-2.1-0.6c-1.3,0-1.8,0.5-1.8,1.1c0,1.9,4.6,0.5,4.6,3.1c0,1.2-1.1,2-2.9,2
		C27.4,12,26.3,11.6,25.7,11.2z"/>
	<path class="st1" d="M40,11.5C39.6,11.9,39,12,38.5,12c-1.3,0-2.1-0.7-2.1-2V5.8h-1.3V5h1.3V3.5h1V5h2.2v0.8h-2.2v4.1
		c0,0.8,0.4,1.3,1.2,1.3c0.4,0,0.8-0.1,1-0.4L40,11.5z"/>
	<path class="st1" d="M50.1,7.7v4.3h-0.9v-1.1c-0.4,0.7-1.3,1.1-2.4,1.1c-1.6,0-2.6-0.8-2.6-2c0-1.1,0.7-2,2.7-2h2.2V7.6
		c0-1.2-0.7-1.8-2-1.8c-0.9,0-1.8,0.3-2.4,0.8l-0.4-0.7C45,5.3,46.1,5,47.2,5C49,5,50.1,5.9,50.1,7.7z M49.1,9.9V8.7h-2.2
		c-1.4,0-1.8,0.5-1.8,1.2c0,0.8,0.7,1.3,1.8,1.3C47.9,11.3,48.7,10.8,49.1,9.9z"/>
	<path class="st1" d="M59.2,5v0.9c-0.1,0-0.2,0-0.2,0c-1.5,0-2.4,0.9-2.4,2.6v3.5h-1V5h0.9v1.4C57,5.5,57.9,5,59.2,5z"/>
	<path class="st1" d="M68,11.5C67.6,11.9,67,12,66.5,12c-1.3,0-2.1-0.7-2.1-2V5.8h-1.3V5h1.3V3.5h1V5h2.2v0.8h-2.2v4.1
		c0,0.8,0.4,1.3,1.2,1.3c0.4,0,0.8-0.1,1-0.4L68,11.5z"/>
</g>
</svg>
