<?xml version="1.0" encoding="utf-8"?>
<!-- Generator: Adobe Illustrator 25.2.3, SVG Export Plug-In . SVG Version: 6.00 Build 0)  -->
<svg version="1.1" id="Layer_1" xmlns="http://www.w3.org/2000/svg" xmlns:xlink="http://www.w3.org/1999/xlink" x="0px" y="0px"
	 viewBox="0 0 90 90" style="enable-background:new 0 0 90 90;" xml:space="preserve">
<style type="text/css">
	.st0{fill:#181818;}
</style>
<path class="st0" d="M51.5,73.7H8.1c-4.5,0.2-8,3.9-7.8,8.4c0.1,4.3,3.6,7.7,7.8,7.8h43.4c4.5-0.2,8-3.9,7.8-8.4
	C59.2,77.3,55.8,73.9,51.5,73.7z"/>
<path class="st0" d="M81.9,49.2H8.1c-4.5,0.2-8,3.9-7.8,8.4c0.1,4.3,3.6,7.7,7.8,7.8h73.7c4.5-0.2,8-3.9,7.8-8.4
	C89.6,52.7,86.1,49.3,81.9,49.2z"/>
<path class="st0" d="M8.1,24.6h73.7c4.5,0,8.1,3.6,8.1,8.1v0c0,4.5-3.6,8.1-8.1,8.1H8.1c-4.5,0-8.1-3.6-8.1-8.1v0
	C0,28.2,3.6,24.6,8.1,24.6z"/>
<path class="st0" d="M8.1,16.3h73.7c4.5-0.2,8-3.9,7.8-8.4c-0.1-4.3-3.6-7.7-7.8-7.8H8.1c-4.5,0.2-8,3.9-7.8,8.4
	C0.4,12.7,3.9,16.1,8.1,16.3z"/>
</svg>
