<?xml version="1.0" encoding="utf-8"?>
<!-- Generator: Adobe Illustrator 25.2.1, SVG Export Plug-In . SVG Version: 6.00 Build 0)  -->
<svg version="1.1" id="Layer_1" xmlns="http://www.w3.org/2000/svg" xmlns:xlink="http://www.w3.org/1999/xlink" x="0px" y="0px"
	 viewBox="0 0 535.2 478.5" style="enable-background:new 0 0 535.2 478.5;" xml:space="preserve">
<style type="text/css">
	.st0{fill:#C6C6C6;}
</style>
<g>
	<g>
		<path class="st0" d="M159.3,197.9l57.8-45.4l61.1-25.7c1.5-0.6,2.8-1.7,3.8-3c7.2-10.1,11-21.9,11-34.3V19.3
			c3.8-1.7,15.1-2.2,25.4-1.2c9.4,5.6,63.5,43.3,43.7,154.7c0,0.2,0,0.3,0,0.5c0,0.3-0.1,0.7-0.1,1V253v208H261.4
			c-15.4,0-30.6-4.1-43.8-11.7l-59.2-35.5c-4.1-2.5-9.5-1.1-12,3c-2.5,4.2-1.1,9.5,3,12l59.3,35.5c16,9.3,34.2,14.1,52.7,14.1h109.2
			h22c47.8,0,89.4-32.4,101-78.8L533.2,242c4.7-18.5,0.6-37.8-11.1-52.9c-11.7-15.1-29.4-23.7-48.5-23.7H381
			c18-124.2-52.8-162-55.9-163.6c-0.9-0.5-1.9-0.8-2.9-0.9C315,0,290.6-2.2,280.5,6.6c-3.3,2.9-5.1,6.8-5.1,11.1v71.7
			c0,7.9-2.2,15.5-6.4,22.2l-59.8,25.1c-0.7,0.3-1.4,0.7-2,1.2l-58.8,46.2c-3.8,3-4.5,8.5-1.5,12.3
			C150,200.2,155.5,200.9,159.3,197.9z M379.4,183.1h94.3c13.7,0,26.3,6.2,34.7,17s11.3,24.6,8,37.8l-1.6,6.3H379.4V183.1z
			 M379.4,261.8h130.9L495,322.4H379.4V261.8z M379.4,339.9h111.3l-14,55.6c-0.5,2-1.1,3.9-1.7,5.8h-95c-0.2,0-0.4,0-0.6,0.1V339.9
			L379.4,339.9z M379.4,418.7c0.2,0,0.4,0.1,0.6,0.1h87c-15.3,25.7-43.2,42.2-74.3,42.2h-13.3L379.4,418.7L379.4,418.7z"/>
		<path class="st0" d="M8.8,394.9h156.7c49,0,88.9-39.9,88.9-88.9s-39.9-88.8-88.9-88.8H8.8C4,217.2,0,221.1,0,226v160.2
			C0,391,3.9,394.9,8.8,394.9z M17.5,234.7h148c39.3,0,71.3,32,71.3,71.3s-32,71.3-71.3,71.3h-148V234.7z"/>
		<path class="st0" d="M202.7,306.7c0-26.6-21.6-48.1-48.1-48.1s-48.1,21.6-48.1,48.1s21.6,48.1,48.1,48.1S202.7,333.3,202.7,306.7z
			 M154.5,337.4c-16.9,0-30.6-13.7-30.6-30.6s13.7-30.6,30.6-30.6s30.6,13.7,30.6,30.6C185.1,323.6,171.4,337.4,154.5,337.4z"/>
	</g>
</g>
</svg>
