<svg id="Layer_1" data-name="Layer 1" xmlns="http://www.w3.org/2000/svg" viewBox="0 0 351.5 107.77"><defs><style>.cls-1{fill:#0058a0;}.cls-2{fill:#faa61a;}</style></defs><polygon class="cls-1" points="123.83 106.22 141.62 1.81 170.08 1.81 152.27 106.22 123.83 106.22"/><path class="cls-1" d="M263.37,6.67a73.69,73.69,0,0,0-25.51-4.38c-28.12,0-47.93,14.16-48.1,34.45-.15,15,14.14,23.37,24.94,28.37,11.08,5.11,14.8,8.38,14.75,13-.07,7-8.85,10.19-17,10.19-11.39,0-17.44-1.58-26.79-5.48L182,81.11l-4,23.38c6.65,2.91,18.94,5.43,31.7,5.57,29.92,0,49.34-14,49.56-35.67.11-11.88-7.48-20.92-23.89-28.37-10-4.83-16-8.05-16-12.94,0-4.34,5.16-9,16.3-9a52.72,52.72,0,0,1,21.3,4l2.55,1.21,3.86-22.63" transform="translate(-7.88 -2.29)"/><path class="cls-1" d="M336.34,4.2h-22c-6.81,0-11.91,1.86-14.9,8.66l-42.27,95.68h29.89s4.88-12.87,6-15.69l36.44.05c.86,3.65,3.47,15.64,3.47,15.64h26.4L336.34,4.2M301.25,71.5c2.35-6,11.34-29.19,11.34-29.19-.17.28,2.33-6.05,3.77-10l1.92,9s5.45,24.92,6.59,30.15Z" transform="translate(-7.88 -2.29)"/><path class="cls-1" d="M107.84,4.18,80,75.37,77,60.91c-5.19-16.68-21.35-34.75-39.42-43.8l25.48,91.31,30.11,0L138,4.18H107.84" transform="translate(-7.88 -2.29)"/><path class="cls-2" d="M54.13,4.11H8.24L7.88,6.28C43.58,14.93,67.2,35.81,77,60.91l-10-48c-1.72-6.61-6.72-8.59-12.9-8.82" transform="translate(-7.88 -2.29)"/></svg>